<svg id="NZ_icon" xmlns="http://www.w3.org/2000/svg" width="80.3" height="80" viewBox="0 0 80.3 80">
  <path id="Path_52" data-name="Path 52" d="M49.45,0C40.38,0,31.99,6.44,27.22,11.12,10.25,27.67,1.29,38.87,1.29,38.87H76.9l3.4-7.56H19.28S23.89,25,33.8,15.66c2.49-2.33,9.01-8.17,15.65-8.17,4.36,0,7.79,2.73,7.79,6.43a4.869,4.869,0,0,1-3.1,4.69c.32-1.56-.73-5.82-4.84-5.82a5.683,5.683,0,0,0-6.05,5.44c0,4.5,4.1,7.71,8.85,7.71,9.14,0,13.38-6.5,13.38-12.78C65.48,6.82,59.3,0,49.45,0Z" fill="#fff"/>
  <path id="Path_53" data-name="Path 53" d="M0,42.8S3.97,54.21,9.22,65.11C13.68,74.39,21.07,80,30.09,80c8.48,0,14.22-6.45,14.22-12.63A11.3,11.3,0,0,0,32.67,55.8c-6.75,0-8.17,5.07-8.17,6.35a5.729,5.729,0,0,0,5.6,5.67c4.92,0,5.29-3.93,5.29-3.93a4.086,4.086,0,0,1,1.51,3.48c0,2.41-2.04,5.52-6.81,5.52-3.8,0-9.38-2-13.23-10.13-4.53-9.52-4.84-12.33-4.84-12.33H71.68l3.4-7.64H0Z" fill="#fff"/>
</svg>
