<?xml version="1.0" encoding="utf-8"?>
<!-- Generator: Adobe Illustrator 25.4.1, SVG Export Plug-In . SVG Version: 6.00 Build 0)  -->
<svg version="1.1" id="Layer_1" xmlns="http://www.w3.org/2000/svg" xmlns:xlink="http://www.w3.org/1999/xlink" x="0px" y="0px"
	 viewBox="0 0 79.9 80" style="enable-background:new 0 0 79.9 80;" xml:space="preserve">
<style type="text/css">
	.z5d20133{fill:#0090F5;}
	.t3a7622c{fill:#FFFFFF;}
	.o326632f{fill:#27017A;}
	.i92560ba{fill:#2A0079;}
	.c6997c20{fill:#2F017E;}
</style>
<g id="g14_00000064353764658067378480000008770782558710038702_">
	<g id="path20_00000118370491793224232260000006642069778634692783_">
		<path class="z5d20133" d="M79,39.9c0,22-17.7,39.9-39.5,39.9S0,61.9,0,39.9C0,17.8,17.7,0,39.5,0S79,17.8,79,39.9"/>
	</g>
	<g id="path22_00000166673246202545391650000011331201712251477904_">
		<path class="t3a7622c" d="M73.8,19.1l-1.2,0.4l-1.4,0.1L66.1,18l-10-3.6l-14.3-0.8L30.1,15l-7.9,4.2L22,22.8l-2.6,4.8l-6.8,1.9l-2.5,2
			v2.8l2,4.1l3.5,3.2l2.7-4.2l2.3,0.3c1.4,1.9,4.3,3.9,4.1,6.6c-0.8,14.2-7.5,12.8-6.9,29.3c6.2,4,13.6,6.3,21.6,6.3
			c22.1,0,40.1-18,40.1-40.1C79.6,32.3,77.5,25.2,73.8,19.1"/>
	</g>
	<g id="path24_00000150103709237041376830000003917654975167449776_">
		<path class="o326632f" d="M74.3,26l-2.2,2.1l3,0L74.3,26z M70.1,27.7l5.6-5.5l0.7,1.8L75.3,25l1.1,3l1.5,0l0.7,1.8l-7.8-0.2L70.1,27.7z
			 M71.7,32.4l7.1-1.5l0.4,1.8L72,34.2L71.7,32.4z M78.1,33.9l1.3-0.1l0.5,5.5l-7.2,0.6l-0.1-1.8l5.9-0.5L78.1,33.9z M78.1,44.9
			c0.1-0.7,0-1.2-0.4-1.7c-0.3-0.5-0.9-0.7-1.5-0.8c-0.7-0.1-1.2,0.1-1.7,0.4c-0.5,0.4-0.7,0.9-0.8,1.6c-0.1,0.7,0,1.3,0.4,1.7
			c0.3,0.5,0.9,0.7,1.5,0.8c0.7,0.1,1.2-0.1,1.7-0.4S78,45.6,78.1,44.9 M72.2,44.2c0.2-1.2,0.6-2.2,1.5-2.8c0.8-0.7,1.7-0.9,2.7-0.8
			c1,0.1,1.8,0.6,2.4,1.5c0.6,0.9,0.9,1.9,0.7,3.1c-0.2,1.2-0.6,2.2-1.5,2.8c-0.8,0.7-1.7,0.9-2.7,0.8c-1-0.1-1.8-0.6-2.4-1.5
			C72.3,46.5,72.1,45.4,72.2,44.2 M72.2,48.6l1.5,0.6c-0.7,0.7-1.3,1.5-1.6,2.3c-0.3,0.8-0.3,1.5-0.1,2.1c0.2,0.6,0.7,1,1.3,1.2
			c0.6,0.2,1.2,0.2,1.7-0.1s0.9-0.8,1.2-1.5c0.1-0.4,0.2-0.8,0.2-1.2l-0.8-0.3l-0.4,1l-1.2-0.5l1-2.7l2.8,1c0.2,0.4,0.2,0.9,0.2,1.5
			c0,0.6-0.2,1.2-0.4,1.7c-0.4,1.2-1.1,2-2.1,2.5s-1.9,0.6-2.9,0.2c-1-0.4-1.7-1.1-2.1-2.1c-0.4-1-0.3-2.1,0.1-3.3
			C71,50.1,71.5,49.2,72.2,48.6 M69.2,55.1l6,4l-0.8,1.3l-6.1,0.8l3.9,2.6l-1,1.5l-6-4l0.9-1.4l5.8-0.8l-3.7-2.4L69.2,55.1z
			 M66.2,68.2c0.5-0.5,0.8-1,0.8-1.6s-0.2-1.1-0.6-1.6c-0.5-0.5-1-0.7-1.5-0.7c-0.6,0-1.1,0.2-1.6,0.7c-0.5,0.5-0.8,1-0.8,1.6
			c0,0.6,0.2,1.1,0.6,1.6c0.4,0.5,1,0.7,1.5,0.7C65.1,68.9,65.7,68.7,66.2,68.2 M62.1,63.9c0.9-0.8,1.9-1.2,2.9-1.2
			c1.1,0,1.9,0.4,2.6,1.1c0.7,0.7,1,1.6,0.9,2.7c-0.1,1.1-0.5,2-1.4,2.8c-0.9,0.8-1.9,1.2-2.9,1.2c-1.1,0-1.9-0.4-2.6-1.1
			c-0.7-0.7-1-1.6-0.9-2.7C60.8,65.7,61.2,64.7,62.1,63.9 M57.1,71l0.7-3.5l1.4-0.8l3.5,6.3l-1.6,0.9L58.9,70l-0.6,2.9L58.1,73
			l-2.8-1l2.2,3.9l-1.6,0.9l-3.5-6.3l1.4-0.8L57.1,71z M47.3,77.8c0.7-0.1,1.2-0.4,1.5-0.9c0.3-0.5,0.4-1,0.3-1.7
			c-0.1-0.6-0.4-1.1-0.9-1.4c-0.5-0.3-1.1-0.4-1.7-0.3c-0.7,0.1-1.2,0.4-1.5,0.9c-0.3,0.5-0.4,1-0.3,1.7c0.1,0.6,0.4,1.1,0.9,1.4
			C46.1,77.9,46.6,77.9,47.3,77.8 M46.2,72c1.2-0.2,2.3-0.1,3.1,0.5c0.9,0.6,1.4,1.4,1.6,2.3c0.2,1,0,1.9-0.6,2.8
			c-0.6,0.9-1.5,1.4-2.7,1.7c-1.2,0.2-2.2,0.1-3.1-0.5s-1.4-1.3-1.6-2.3c-0.2-1,0-1.9,0.6-2.8C44.1,72.8,45,72.3,46.2,72 M38.4,74
			l0,1.6l1,0c0.3,0,0.5-0.1,0.7-0.2c0.2-0.1,0.3-0.3,0.3-0.6c0-0.5-0.3-0.8-1-0.8L38.4,74z M36.6,72.7l3.2,0c0.7,0,1.3,0.2,1.7,0.6
			c0.4,0.4,0.6,0.9,0.6,1.5c0,0.8-0.4,1.4-1.3,1.8c0.4,0.2,0.7,0.6,1,1.3c0.3,0.7,0.6,1.4,0.9,2.1l-2,0c-0.1-0.2-0.3-0.7-0.6-1.4
			c-0.3-0.7-0.5-1.1-0.7-1.3c-0.2-0.2-0.4-0.3-0.7-0.3l-0.5,0l0,2.9l-1.8,0L36.6,72.7z M35.1,78.5l-0.3,1.3l-5.2-1l1.4-7.1l5.2,1
			L35.9,74l-3.4-0.7l-0.3,1.5l3.2,0.6l-0.3,1.3L32,76.1l-0.3,1.7L35.1,78.5z M26.8,75l0-3l-2,2.2L26.8,75z M28.3,70.7l0.3,7.9
			l-1.8-0.7l0-1.5l-3-1.2l-1,1.1L21,75.6l5.4-5.6L28.3,70.7z"/>
	</g>
	<g id="path26_00000175317863770939636360000006092801219428774846_">
		<path class="o326632f" d="M73,19.5c-4-0.4-5.3-1.7-7.9-2.8C42.4,7.1,20.7,13.8,20,23c-0.2,4.9,24.2,2.8,24.4-2.1
			c-8.3,3.2-28.1,3.3-19.6-2.1c9.2-5.8,30.3-4.5,38.5-0.2C67.6,20.1,71.2,21.4,73,19.5"/>
	</g>
	<g id="path28_00000023251882134812151650000010451443426787689609_">
		<path class="o326632f" d="M28.3,26c-0.5,0-0.9,0-1.3,0c-2.1-0.1-3.9-0.4-5.1-0.8c-1.4-0.5-2.2-1.3-2.1-2.2l0,0c0.2-2.7,2.1-5.1,5.4-7.1
			c4.2-2.5,10.2-4,16.9-4.1c7.6-0.1,15.6,1.5,23.1,4.7c0.7,0.3,1.4,0.6,2,1c1.6,0.8,3,1.6,5.9,1.9l0.4,0l-0.3,0.3
			c-1.9,2-5.7,0.7-10-0.8l0,0c-4-2.1-11.2-3.5-18.8-3.6C36.1,15,29,16.4,24.9,19c-1.1,0.7-2.3,1.7-1.9,2.4c0.5,1.1,3.9,1.6,8.6,1.5
			c4.7-0.2,9.7-1,12.7-2.2l0.3-0.1l0,0.3c0,0.8-0.7,1.6-1.9,2.3c-1.1,0.6-2.5,1.2-4.3,1.6C35.3,25.6,31.6,26,28.3,26z M20.2,23
			c0,1.4,2.5,2.4,6.8,2.5c7.2,0.3,16.3-1.7,17.1-4.3c-3.1,1.1-7.9,1.9-12.5,2.1c-2.3,0.1-4.3,0-5.9-0.3c-1.7-0.3-2.8-0.8-3.1-1.4
			c-0.4-0.8,0.3-1.8,2.1-3c4.2-2.7,11.4-4.1,19.7-3.9c7.6,0.1,14.8,1.5,18.9,3.7c3.9,1.4,7.4,2.6,9.2,1.2c-2.6-0.3-4.1-1.1-5.6-1.8
			c-0.6-0.3-1.2-0.6-1.9-0.9c-7.5-3.2-15.4-4.8-23-4.6c-6.6,0.1-12.6,1.5-16.7,4C22.2,18.2,20.4,20.6,20.2,23z"/>
	</g>
	<g id="path30_00000026160959875031765740000002525669254753339265_">
		<path class="o326632f" d="M18.2,73.1c0-6-2-10.3,2.9-17.3c4.4-6.4,2.3-14.9-1.6-16.6c-3.6-1.6-1.2,2.8-1.3,4.6C12.3,42.4,9.3,39,9.1,34
			C9,32,8.8,29.9,13.8,28.7c1.9-6.4,5.9-7.1,7.7-3.6c3,5.8-0.2,7.4-5.6,5.4c-3-1.1-6.7-0.5-3.8,5.7c1,2,4,6.8,4.1,0.8
			c0-1.3,0-2.8,2.9-1.2c2.1,1.1,4.5,3,6.6,5c0.4,0.4,0.8,0.4,1,2.6c0.5,4.5-0.4,8.2-4.1,13.6C19.3,62.1,18,67.1,18.2,73.1"/>
	</g>
	<g id="path32_00000107565258341980272860000003473466065631177108_">
		<path class="o326632f" d="M18,73.1c0-0.5,0-0.9,0-1.4c0-0.9-0.1-1.8-0.2-2.6c-0.3-4.1-0.6-8,3.2-13.4c1.2-1.7,2-3.7,2.3-5.9
			c0.3-1.9,0.2-3.8-0.3-5.6c-0.7-2.3-1.9-4.1-3.4-4.8c-1-0.4-1.3-0.3-1.5-0.2c-0.4,0.3-0.1,1.5,0.2,2.5c0.2,0.8,0.4,1.5,0.3,2.1
			l0,0.2L18.2,44c-2.9-0.7-5.2-1.9-6.8-3.6C9.8,38.7,9,36.6,8.9,34l0-0.1c-0.1-1.9-0.2-4.1,4.8-5.3c1-3.4,2.8-5.5,4.7-5.7
			c1.3-0.1,2.5,0.7,3.3,2.2c1.7,3.3,1.2,4.9,0.6,5.6c-1,1.2-3.4,1.2-6.4,0.1c-2.1-0.8-3.5-0.4-4.1,0.2c-0.8,0.9-0.6,2.7,0.5,5.2
			c0.8,1.6,2.2,3.7,3,3.6c0.2,0,0.7-0.4,0.7-2.7l0-0.1c0-0.8,0-1.5,0.6-1.9c0.5-0.3,1.3-0.1,2.6,0.6c1.9,1,4.3,2.8,6.7,5.1
			c0,0,0.1,0.1,0.1,0.1c0.4,0.3,0.7,0.6,0.9,2.6c0.6,4.8-0.6,8.7-4.1,13.7c-3.1,4.5-4.5,9-4.6,14.5c0,0.5,0,0.9,0,1.4L18,73.1z
			 M18.3,38.7c0.3,0,0.8,0.1,1.3,0.4c1.6,0.7,3,2.6,3.7,5.1c0.5,1.8,0.6,3.8,0.4,5.8c-0.3,2.2-1.1,4.2-2.4,6
			c-3.5,5.1-3.4,8.6-3.1,12.5c0.2-1.3,0.4-2.6,0.7-3.8c0.7-2.7,2-5.2,3.7-7.7c4-5.8,4.5-9.5,4-13.5c-0.2-1.8-0.5-2.1-0.8-2.3
			c0,0-0.1-0.1-0.2-0.1c-2.4-2.2-4.7-4-6.6-5c-1.1-0.6-1.9-0.8-2.2-0.6c-0.3,0.2-0.4,0.9-0.4,1.5l0,0.1c0,1.9-0.4,3-1,3.1
			c-0.5,0.1-1.2-0.3-2-1.3C12.9,38,12.3,37,12,36.3c-1.3-2.7-1.4-4.6-0.5-5.6c1-1.1,3-0.9,4.5-0.3c2.8,1.1,5,1.1,5.9,0
			c0.8-1,0.6-2.7-0.6-5.2c-0.7-1.4-1.8-2.1-2.9-2c-1.8,0.2-3.4,2.2-4.4,5.5l0,0.1l-0.1,0C9.1,30,9.2,32,9.3,33.8l0,0.1
			c0.2,5,3.2,8.2,8.7,9.6c0-0.5-0.2-1.1-0.3-1.7c-0.3-1.3-0.6-2.5,0-2.9C17.8,38.8,18,38.7,18.3,38.7z"/>
	</g>
	<g id="path34_00000098218848135150602050000005436755264324347782_">
		<path class="o326632f" d="M21.7,32.5c0.9,1.6,2.6,1.4,3.3,1.9c10.1,10.9,10.3,6.8,14.2,8.2c3.6,0.4,7,1.1,9.9,2.8
			c-1.6-1.6-3.1-3.2-10.1-4c-4.2,0.5-7.3-2.2-10.2-5.6c-1.4-2.3-2.9-3.8-4.4-5.2L21.7,32.5z"/>
	</g>
	<g id="path36_00000083773081207550178350000017426360994589557419_">
		<path class="o326632f" d="M49.2,45.6c0,0-0.1,0-0.1,0c-3.2-1.9-6.9-2.5-9.8-2.7c0,0,0,0-0.1,0c-1-0.4-1.7-0.4-2.5-0.3
			c-2.1,0-4.3,0.1-11.7-7.9c-0.2-0.1-0.5-0.2-0.9-0.3c-0.8-0.2-1.9-0.5-2.5-1.6c-0.1-0.1,0-0.2,0.1-0.3l2.7-1.8c0.1-0.1,0.2,0,0.3,0
			c1.6,1.4,3.1,2.9,4.5,5.2c2.5,3,5.6,6,10,5.5c0,0,0,0,0,0c6.9,0.7,8.6,2.3,10.1,3.9l0.1,0.1c0.1,0.1,0.1,0.2,0,0.3
			C49.3,45.6,49.2,45.6,49.2,45.6z M39.3,42.4c2.5,0.3,5.7,0.7,8.6,2.1c-1.4-1.2-3.5-2.3-8.9-2.9c-4.6,0.5-7.8-2.6-10.4-5.7
			c0,0,0,0,0,0c-1.3-2.2-2.8-3.6-4.3-5L22,32.6c0.5,0.8,1.4,1.1,2.1,1.3c0.4,0.1,0.8,0.2,1.1,0.4c0,0,0,0,0,0
			c7.3,7.9,9.4,7.8,11.4,7.8C37.4,42.1,38.2,42.1,39.3,42.4z"/>
	</g>
	<g id="path38_00000117637345752375345390000003807490825888360092_">
		<path class="i92560ba" d="M33.5,26.7c0.6,0,1.1,0.5,1.1,1.1c0,0.6-0.5,1.1-1.1,1.1c-0.6,0-1.1-0.5-1.1-1.1
			C32.4,27.2,32.9,26.7,33.5,26.7 M34.8,24.9c-2.9,0-5.2,1.7-5.2,3.7c0,2,2.3,3.7,5.2,3.7c2.9,0,5.2-1.6,5.2-3.7
			C40,26.6,37.6,24.9,34.8,24.9"/>
	</g>
	<g id="path40_00000058559219633400125540000015138512188270013612_">
		<path class="c6997c20" d="M34.8,33.6c-1.9,0-3.6-0.5-5-1.3c-1.4-0.9-2.1-2.1-2.1-3.4c0-1.3,0.8-2.5,2.1-3.4c1.3-0.9,3.1-1.3,5-1.3
			s3.6,0.5,5,1.3c1.4,0.9,2.1,2.1,2.1,3.4c0,1.3-0.8,2.5-2.1,3.4C38.4,33.1,36.6,33.6,34.8,33.6z M34.8,24.7c-3.6,0-6.5,1.8-6.5,4.1
			c0,2.3,2.9,4.1,6.5,4.1c3.6,0,6.5-1.8,6.5-4.1C41.3,26.5,38.3,24.7,34.8,24.7z"/>
	</g>
</g>
</svg>
