<svg width="80" height="80" viewBox="0 0 80 80" fill="none" xmlns="http://www.w3.org/2000/svg">
<path d="M63.7513 7.20709C67.0792 6.74114 79.9956 7.20709 79.9956 7.20709L76.0864 26.8811L54.3793 19.086L52.3706 15.8389L56.4392 10.6867C57.7499 9.20262 60.4236 7.67304 63.7513 7.20709Z" fill="#BD112C"/>
<path fill-rule="evenodd" clip-rule="evenodd" d="M53.1444 37.3475L42.815 27.5862L52.3632 15.8301L76.0871 26.8803L72.4027 45.4078L53.2059 53.5745L64.56 26.6974L53.1444 37.3475ZM42.282 28.1074L29.7569 43.5684L53.0814 53.5745L42.282 28.1074ZM53.1647 53.607L69.4137 60.6166L65.5782 79.8993H64.4638L53.1647 53.607ZM28.745 44.7214L0.00317383 79.9962L41.8922 79.9928L52.9955 53.6688L26.2745 65.1125L36.829 53.5898L28.745 44.7214ZM42.4349 79.9604L53.1378 69.9989L63.9228 79.8985L42.4349 79.9604Z" fill="#E9062B"/>
<path d="M42.815 27.5862L42.8142 27.5857L42.8137 27.5863L42.8142 27.5868L42.815 27.5862ZM53.1444 37.3476L53.1439 37.348L53.1444 37.3485L53.1449 37.348L53.1444 37.3476ZM52.3632 15.8301L52.3634 15.8294L52.363 15.8291L52.3625 15.8296L52.3632 15.8301ZM76.0871 26.8803L76.0881 26.8805V26.8799L76.0876 26.8796L76.0871 26.8803ZM72.4027 45.4078L72.403 45.4085L72.4035 45.4083V45.4078H72.4027ZM53.2059 53.5746L53.2052 53.5741L53.2042 53.5761L53.2062 53.5753L53.2059 53.5746ZM64.56 26.6974L64.5607 26.6977L64.5595 26.6968L64.56 26.6974ZM29.7569 43.5684L29.7562 43.5677L29.7554 43.5687L29.7564 43.5692L29.7569 43.5684ZM42.282 28.1074L42.2828 28.1071L42.2823 28.1059L42.2813 28.1069L42.282 28.1074ZM53.0814 53.5746L53.0809 53.5753L53.0829 53.5761L53.0821 53.5741L53.0814 53.5746ZM69.4137 60.6166L69.4146 60.6168V60.6161L69.4142 60.6158L69.4137 60.6166ZM53.1647 53.607L53.1649 53.6062L53.163 53.6055L53.1639 53.6072L53.1647 53.607ZM65.5782 79.8993V79.9003H65.5787L65.5789 79.8996L65.5782 79.8993ZM64.4638 79.8993L64.463 79.8998L64.4633 79.9003H64.4638V79.8993ZM0.00317299 79.9963L0.00254744 79.9955L0.00146484 79.997H0.00317306L0.00317299 79.9963ZM28.745 44.7214L28.7457 44.721L28.745 44.7202L28.7445 44.721L28.745 44.7214ZM41.8922 79.9928V79.9938H41.8926L41.8929 79.9933L41.8922 79.9928ZM52.9955 53.6688L52.9962 53.6691L52.9972 53.6674L52.9952 53.6681L52.9955 53.6688ZM26.2745 65.1125L26.274 65.112L26.2749 65.1132L26.2745 65.1125ZM36.829 53.5898L36.8295 53.5905L36.83 53.5898L36.8295 53.5893L36.829 53.5898ZM53.1378 69.999L53.1385 69.9985L53.1378 69.998L53.1373 69.9985L53.1378 69.999ZM42.4348 79.9604L42.4341 79.9597L42.4327 79.9612H42.4348V79.9604ZM63.9228 79.8986V79.8993H63.9247L63.9233 79.8981L63.9228 79.8986ZM42.8142 27.5868L53.1439 37.348L53.1449 37.3471L42.8154 27.5856L42.8142 27.5868ZM52.3625 15.8296L42.8142 27.5857L42.8154 27.5867L52.3637 15.8306L52.3625 15.8296ZM76.0876 26.8796L52.3634 15.8294L52.363 15.8308L76.0868 26.8811L76.0876 26.8796ZM72.4035 45.4078L76.0881 26.8805L76.0864 26.8802L72.402 45.4076L72.4035 45.4078ZM53.2062 53.5753L72.403 45.4085L72.4025 45.4071L53.2054 53.5736L53.2062 53.5753ZM64.5592 26.6971L53.2052 53.5741L53.2067 53.5748L64.5607 26.6977L64.5592 26.6971ZM53.1449 37.348L64.5604 26.698L64.5595 26.6968L53.1439 37.3471L53.1449 37.348ZM29.7574 43.5689L42.2825 28.1079L42.2813 28.1069L29.7562 43.5677L29.7574 43.5689ZM53.0817 53.5736L29.7572 43.5677L29.7564 43.5692L53.0809 53.5753L53.0817 53.5736ZM42.2813 28.1077L53.0804 53.5748L53.0821 53.5741L42.2828 28.1071L42.2813 28.1077ZM69.4142 60.6158L53.1649 53.6062L53.1642 53.6077L69.4134 60.6173L69.4142 60.6158ZM65.5789 79.8996L69.4146 60.6168L69.4129 60.6163L65.5772 79.8993L65.5789 79.8996ZM64.4638 79.9003H65.5782V79.8986H64.4638V79.9003ZM53.1639 53.6072L64.463 79.8998L64.4645 79.8991L53.1654 53.6067L53.1639 53.6072ZM0.00379854 79.9968L28.7457 44.7219L28.7445 44.721L0.00254744 79.9955L0.00379854 79.9968ZM41.8922 79.9921L0.00317294 79.9953L0.00317306 79.997L41.8922 79.9938V79.9921ZM52.9948 53.6684L41.8914 79.9926L41.8929 79.9933L52.9962 53.6691L52.9948 53.6684ZM26.2749 65.1132L52.996 53.6696L52.9952 53.6681L26.2742 65.1118L26.2749 65.1132ZM36.8283 53.5893L26.274 65.112L26.2752 65.1132L36.8295 53.5905L36.8283 53.5893ZM28.7445 44.7219L36.8283 53.5905L36.8295 53.5893L28.7457 44.721L28.7445 44.7219ZM53.1373 69.9985L42.4341 79.9597L42.4353 79.9609L53.1385 69.9995L53.1373 69.9985ZM63.9233 79.8981L53.1385 69.9985L53.1373 69.9995L63.9221 79.8991L63.9233 79.8981ZM42.4348 79.9612L63.9228 79.8993V79.8978L42.4348 79.9594V79.9612Z" fill="#E9062B"/>
</svg>
