<svg xmlns="http://www.w3.org/2000/svg" width="18.07" height="18.065" viewBox="0 0 18.07 18.065"><g transform="translate(-11731 -1926.124)"><path d="M8.475-457.815a9.2,9.2,0,0,0-4.707,2.008,8.965,8.965,0,0,0-3.225,5.636,13.926,13.926,0,0,0-.043,2.4l.036.265H9.478c8.485,0,8.947,0,8.968-.071.012-.036.04-.308.067-.6a9.018,9.018,0,0,0-.83-4.486A9.124,9.124,0,0,0,14.4-456.4a8.7,8.7,0,0,0-3.952-1.419,13.738,13.738,0,0,0-1.976,0Zm1.972,4.206a4.8,4.8,0,0,1,2.387,1.249,3.846,3.846,0,0,1,.656.759c0,.016-1.806.028-4.015.028H5.459l.13-.17a7.273,7.273,0,0,1,1.225-1.146,4.847,4.847,0,0,1,2.031-.775,6.825,6.825,0,0,1,1.6.056Z" transform="translate(11730.533 2383.977)" fill="#1f1f1f"/><path d="M33.869-157.023c-1.028.482-1.869.889-1.869.905a8.826,8.826,0,0,0,.846,1.205,9.072,9.072,0,0,0,5.853,3.178,12.88,12.88,0,0,0,2.174,0,9.067,9.067,0,0,0,6.45-3.992,7.259,7.259,0,0,0,.518-.889c-.008-.008-.952-.253-2.106-.541l-2.1-.534-.375.383a4.841,4.841,0,0,1-3.474,1.462,4.622,4.622,0,0,1-2.692-.8A7.464,7.464,0,0,1,35.9-157.77c-.051-.075-.107-.13-.13-.13S34.893-157.5,33.869-157.023Z" transform="translate(11700.246 2095.879)" fill="#1f1f1f"/></g></svg>