<svg width="191" height="81" viewBox="0 0 191 81" fill="none" xmlns="http://www.w3.org/2000/svg">
<g clip-path="url(#clip0_2_21335)">
<path d="M139.62 2.7007C139.01 3.5307 138.44 4.3007 137.87 5.0807C134.38 9.8507 130.9 14.6307 127.41 19.4107C123.81 24.3307 120.22 29.2507 116.62 34.1807C113.73 38.1307 110.84 42.0807 107.96 46.0407C107.76 46.3107 107.55 46.4107 107.22 46.4107C101.32 46.4007 95.4201 46.4007 89.5201 46.4007C89.3901 46.4007 89.2601 46.3907 89.1401 46.3807C89.1201 46.1707 89.2601 46.0807 89.3501 45.9707C92.3001 41.9307 95.2501 37.9007 98.2001 33.8707C101.62 29.1907 105.04 24.5107 108.46 19.8307C112 14.9907 115.53 10.1407 119.08 5.3107C120.97 2.7407 123.55 1.2807 126.7 0.830703C127.26 0.750703 127.83 0.730703 128.39 0.730703C137.67 0.730703 146.96 0.730703 156.24 0.720703C156.65 0.720703 156.9 0.840703 157.14 1.1707C162.22 8.1307 167.31 15.0707 172.4 22.0207C177.45 28.9107 182.5 35.8107 187.55 42.7007C188.37 43.8207 189.18 44.9307 190 46.0507C190.06 46.1407 190.17 46.2107 190.15 46.3507C190.02 46.4507 189.86 46.4007 189.72 46.4007C185.64 46.4007 181.55 46.4007 177.47 46.4007C174.8 46.4007 172.39 45.6207 170.27 43.9707C169.5 43.3707 168.83 42.6907 168.25 41.9007C163.11 34.8507 157.96 27.7907 152.82 20.7407C148.51 14.8307 144.2 8.9307 139.89 3.0207C139.81 2.9407 139.74 2.8507 139.62 2.7007Z" fill="#00693A"/>
<path d="M115.82 0.730216C115.5 1.18022 115.25 1.55022 114.99 1.91022C113.36 4.20022 111.72 6.49022 110.09 8.79022C108.32 11.2902 105.87 12.6902 102.89 13.2402C102.17 13.3702 101.43 13.4102 100.7 13.4102C91.9804 13.4102 83.2604 13.4102 74.5404 13.4102C73.7904 13.4102 73.9004 13.3302 73.9004 14.0402C73.9004 24.6202 73.9004 35.2102 73.9004 45.7902C73.9004 46.4602 74.0104 46.3902 73.2804 46.3902C68.5304 46.3902 63.7804 46.3902 59.0304 46.3902C58.9104 46.3902 58.8004 46.3902 58.6804 46.3902C58.5004 46.4002 58.4004 46.3302 58.4104 46.1302C58.4204 46.0002 58.4104 45.8602 58.4104 45.7302C58.4104 35.1602 58.4104 24.6002 58.4104 14.0302C58.4104 13.3002 58.5204 13.4002 57.7704 13.4002C45.6304 13.4002 33.5004 13.4002 21.3604 13.4002C20.5704 13.4002 20.6904 13.4602 20.6904 12.7402C20.6904 8.94022 20.6904 5.14022 20.6904 1.34022C20.6904 1.24022 20.7004 1.14022 20.6904 1.04022C20.6504 0.760216 20.7904 0.690216 21.0304 0.710216C21.1504 0.720216 21.2604 0.710216 21.3804 0.710216C52.6404 0.710216 83.8904 0.710216 115.15 0.710216C115.35 0.730216 115.53 0.730216 115.82 0.730216Z" fill="#00693A"/>
<path d="M15.6102 0.780276C15.7102 0.930276 15.6602 1.10028 15.6602 1.26028C15.6602 12.4603 15.6602 23.6603 15.6602 34.8503C15.6602 36.7703 15.3002 38.5903 14.3202 40.2603C12.9102 42.6703 10.8002 44.1403 8.11016 44.7503C5.60016 45.3203 3.07016 45.8103 0.540156 46.3303C0.190156 46.4003 0.170156 46.3903 0.160156 46.0403C0.160156 45.9703 0.160156 45.9103 0.160156 45.8403C0.160156 34.5403 0.160156 23.2403 0.160156 11.9503C0.160156 9.54028 0.890156 7.36028 2.45016 5.50028C3.85016 3.83028 5.67016 2.83028 7.78016 2.37028C10.3502 1.81028 12.9302 1.30028 15.5002 0.770276C15.5402 0.750276 15.5702 0.770276 15.6102 0.780276Z" fill="#00693A"/>
<path d="M145.1 29.3694C145.12 29.5294 145 29.6194 144.93 29.7194C141.4 34.5594 137.86 39.3894 134.32 44.2294C133.88 44.8294 133.42 45.4294 133 46.0494C132.82 46.3194 132.61 46.3994 132.3 46.3894C127.73 46.3794 123.17 46.3794 118.6 46.3794C117.3 46.3794 116 46.3794 114.7 46.3794C114.54 46.3794 114.37 46.4194 114.22 46.3394C114.17 46.2394 114.23 46.1794 114.28 46.1094C117.27 42.0294 120.25 37.9394 123.25 33.8694C125.11 31.3494 127.63 29.9094 130.72 29.4294C131.35 29.3294 131.98 29.3194 132.61 29.3194C136.61 29.3194 140.61 29.3194 144.61 29.3194C144.78 29.3194 144.95 29.2794 145.1 29.3694Z" fill="#DF1804"/>
<path d="M79.9902 57.3402C81.4102 57.3402 82.7402 57.3502 84.0802 57.3402C84.3402 57.3402 84.3702 57.5102 84.4402 57.6802C85.0302 59.1602 85.6302 60.6402 86.2202 62.1302C87.3102 64.8602 88.4102 67.6002 89.5002 70.3302C89.5602 70.4802 89.6302 70.6202 89.7302 70.8502C91.6902 66.1002 93.6202 61.4302 95.5902 56.6602C97.4902 61.4402 99.3402 66.1102 101.24 70.8802C101.69 69.7502 102.1 68.7402 102.51 67.7302C103.83 64.4202 105.15 61.1202 106.47 57.8102C106.65 57.3502 106.66 57.3502 107.14 57.3502C108.21 57.3502 109.27 57.3502 110.34 57.3502C110.49 57.3502 110.63 57.3502 110.85 57.3502C107.72 64.9702 104.61 72.5402 101.47 80.2002C99.4602 75.2702 97.4902 70.4402 95.4802 65.5202C93.4002 70.4402 91.3502 75.2802 89.2702 80.2002C86.1602 72.5402 83.0902 64.9802 79.9902 57.3402Z" fill="#00693A"/>
<path d="M68.6603 70.1792C70.8703 73.2092 73.0903 76.2392 75.3003 79.2692C75.2003 79.4292 75.0503 79.3692 74.9303 79.3692C73.6803 79.3792 72.4303 79.3592 71.1803 79.3792C70.8503 79.3792 70.6403 79.2792 70.4403 79.0092C68.5903 76.4792 66.7203 73.9692 64.8903 71.4292C64.5503 70.9592 64.2103 70.7092 63.6203 70.7992C63.3403 70.8392 63.0503 70.7992 62.7703 70.8092C62.3903 70.8092 62.3803 70.8192 62.3803 71.1792C62.3803 71.6092 62.3803 72.0492 62.3803 72.4792C62.3803 74.6292 62.3803 76.7792 62.3803 78.9292C62.3803 79.3492 62.4403 79.3792 61.9503 79.3692C60.9203 79.3692 59.8803 79.3692 58.8503 79.3692C58.4103 79.3692 58.4003 79.3692 58.4003 78.8992C58.4003 77.3992 58.4003 75.8992 58.4003 74.3992C58.4003 68.8992 58.4003 63.3992 58.4003 57.8992C58.4003 57.2792 58.3203 57.3292 58.9503 57.3292C61.1303 57.3292 63.3203 57.2992 65.5003 57.3492C67.3403 57.3892 69.0602 57.8892 70.5402 59.0192C72.4703 60.4992 73.2103 62.5192 72.9403 64.8792C72.6603 67.3292 71.2803 68.9892 69.0303 69.9492C68.9303 70.0192 68.7903 70.0292 68.6603 70.1792ZM62.3903 64.0792C62.3903 65.1092 62.4003 66.1492 62.3903 67.1792C62.3903 67.4292 62.4503 67.5292 62.7303 67.5292C63.4103 67.5092 64.1003 67.5292 64.7803 67.5192C65.2503 67.5092 65.7103 67.4692 66.1703 67.3592C67.0203 67.1492 67.7603 66.7592 68.2403 65.9992C68.9403 64.8892 68.8603 63.0692 68.0703 62.0292C67.9303 61.8392 67.7703 61.6792 67.5803 61.5292C67.0803 61.1192 66.5002 60.8892 65.8602 60.7692C64.7902 60.5692 63.7003 60.6992 62.6203 60.6592C62.3403 60.6492 62.3903 60.8392 62.3903 60.9992C62.3903 62.0192 62.3903 63.0492 62.3903 64.0792Z" fill="#00693A"/>
<path d="M23.43 56.4297C27.21 64.1197 30.95 71.7097 34.69 79.3097C34.55 79.4297 34.41 79.3797 34.29 79.3797C33.11 79.3797 31.92 79.3697 30.74 79.3897C30.39 79.3997 30.25 79.2697 30.12 78.9697C29.54 77.6197 28.94 76.2897 28.36 74.9497C28.23 74.6497 28.08 74.5297 27.74 74.5297C24.91 74.5497 22.07 74.5497 19.24 74.5297C18.9 74.5297 18.74 74.6397 18.61 74.9397C17.99 76.3197 17.34 77.6897 16.7 79.0597C16.62 79.2297 16.57 79.3797 16.33 79.3797C15 79.3697 13.67 79.3697 12.25 79.3697C15.98 71.7197 19.69 64.1097 23.43 56.4297ZM23.43 64.6097C22.37 66.8897 21.34 69.0897 20.3 71.3197C22.44 71.3197 24.53 71.3197 26.68 71.3197C25.59 69.0797 24.53 66.8797 23.43 64.6097Z" fill="#00693A"/>
<path d="M123.48 56.4297C127.23 64.1197 130.93 71.7097 134.63 79.2997C134.49 79.4197 134.37 79.3797 134.26 79.3797C133.09 79.3797 131.93 79.3697 130.76 79.3897C130.44 79.3997 130.3 79.2797 130.18 78.9997C129.61 77.6497 128.99 76.3197 128.42 74.9797C128.28 74.6597 128.11 74.5397 127.76 74.5497C124.94 74.5697 122.13 74.5597 119.31 74.5497C118.99 74.5497 118.82 74.6197 118.67 74.9397C118.05 76.3197 117.4 77.6897 116.76 79.0597C116.67 79.2497 116.61 79.3997 116.34 79.3997C115.02 79.3897 113.71 79.3897 112.3 79.3897C116.02 71.7197 119.74 64.1197 123.48 56.4297ZM126.73 71.3297C125.64 69.0697 124.58 66.8697 123.48 64.5997C122.41 66.8897 121.39 69.0897 120.35 71.3297C122.49 71.3297 124.57 71.3297 126.73 71.3297Z" fill="#00693A"/>
<path d="M163.55 73.2709C163.91 73.5509 164.18 73.7709 164.45 73.9809C165.54 74.8209 166.7 75.5409 168.04 75.9009C169.41 76.2709 170.8 76.3609 172.18 75.9509C173.09 75.6809 173.82 75.1709 174.06 74.2009C174.37 72.9609 174.04 72.1509 173.19 71.4809C172.74 71.1309 172.23 70.8909 171.71 70.6509C170.24 69.9709 168.77 69.3109 167.32 68.6209C166.58 68.2709 165.92 67.7909 165.33 67.2109C164.56 66.4509 164.05 65.5409 163.89 64.4709C163.62 62.6809 163.86 60.9809 165 59.5009C165.74 58.5309 166.73 57.8809 167.87 57.5109C170.55 56.6609 173.16 56.8409 175.64 58.2509C176.02 58.4609 176.37 58.7209 176.71 58.9909C176.83 59.0909 176.92 59.1909 176.92 59.3609C176.91 60.6509 176.92 61.9509 176.92 63.2509C176.72 63.2809 176.66 63.1309 176.57 63.0509C175.4 62.0409 174.15 61.1809 172.65 60.7109C171.63 60.3909 170.59 60.3109 169.54 60.5709C168.14 60.9109 167.38 62.1609 167.72 63.5309C167.81 63.8809 167.98 64.1809 168.21 64.4409C168.62 64.9209 169.14 65.2309 169.71 65.4909C171.18 66.1509 172.69 66.7309 174.14 67.4409C175.17 67.9409 176.09 68.5909 176.82 69.4809C178.48 71.4909 178.36 74.5509 176.98 76.5309C175.91 78.0709 174.42 79.0009 172.63 79.4209C169.49 80.1609 166.59 79.5509 163.93 77.7409C163.66 77.5609 163.54 77.3509 163.54 77.0109C163.56 75.8009 163.55 74.5909 163.55 73.2709Z" fill="#00693A"/>
<path d="M137.43 57.4001C137.54 57.3101 137.64 57.3401 137.74 57.3401C139.01 57.3401 140.27 57.3501 141.54 57.3301C141.81 57.3301 141.96 57.4201 142.1 57.6401C143.84 60.1801 145.59 62.7201 147.34 65.2601C147.43 65.3901 147.5 65.5601 147.68 65.6401C148.43 64.5001 149.18 63.3601 149.94 62.2301C150.94 60.7201 151.95 59.2101 152.94 57.6901C153.1 57.4401 153.28 57.3401 153.58 57.3501C154.85 57.3701 156.11 57.3601 157.38 57.3601C157.49 57.3601 157.61 57.3301 157.73 57.4001C157.74 57.5801 157.59 57.7001 157.51 57.8301C154.97 61.5601 152.43 65.2901 149.87 69.0101C149.64 69.3401 149.54 69.6701 149.54 70.0701C149.55 72.9501 149.55 75.8401 149.55 78.7201C149.55 78.8401 149.54 78.9501 149.55 79.0701C149.59 79.3501 149.45 79.4001 149.2 79.4001C148.08 79.3901 146.97 79.4001 145.85 79.3901C145.5 79.3901 145.49 79.3801 145.49 79.0401C145.49 77.2601 145.49 75.4701 145.49 73.6901C145.49 72.4201 145.48 71.1601 145.49 69.8901C145.49 69.6101 145.42 69.3801 145.27 69.1501C142.74 65.3901 140.21 61.6301 137.68 57.8701C137.6 57.7101 137.47 57.5801 137.43 57.4001Z" fill="#00693A"/>
<path d="M43.0802 68.3005C43.0802 64.8705 43.0802 61.4405 43.0802 58.0105C43.0802 57.8905 43.0902 57.7805 43.0802 57.6605C43.0602 57.4305 43.1202 57.3305 43.3802 57.3405C44.5802 57.3505 45.7802 57.3505 46.9802 57.3405C47.1902 57.3405 47.2902 57.4005 47.2702 57.6205C47.2602 57.7405 47.2702 57.8505 47.2702 57.9705C47.2702 64.9005 47.2702 71.8305 47.2702 78.7605C47.2702 79.4605 47.3602 79.3705 46.6702 79.3805C45.6202 79.3805 44.5702 79.3805 43.5202 79.3805C43.0602 79.3805 43.0902 79.4105 43.0902 78.9505C43.0902 76.1505 43.0902 73.3505 43.0902 70.5605C43.0802 69.8005 43.0802 69.0505 43.0802 68.3005Z" fill="#00693A"/>
</g>
<defs>
<clipPath id="clip0_2_21335">
<rect width="190.37" height="80" fill="white" transform="translate(0.0200195 0.320312)"/>
</clipPath>
</defs>
</svg>
