<svg width="80" height="80" viewBox="0 0 80 80" fill="none" xmlns="http://www.w3.org/2000/svg">
<rect width="80" height="80" fill="#D81939"/>
<g clip-path="url(#clip0_2_49559)">
<path d="M71.6124 29.9997C70.9203 31.5123 69.3785 33.2985 67.0369 35.3128L61.9807 39.6566L61.9268 39.7021L68.225 50.6854C68.4519 51.0844 68.3904 51.5936 68.0674 51.9244L67.1446 52.8745L57.0476 46.2502L59.2199 43.0579L58.5394 42.6133L53.6639 46.8013C48.6655 51.0806 43.0556 53.5509 39.0221 53.2546C37.3919 53.1328 36.1306 52.5704 35.2732 51.5823C32.8931 48.8573 34.2812 43.4493 38.7337 38.1098L39.2567 38.4518C36.8996 41.6784 36.2845 44.772 37.6841 46.3491C38.2377 46.9875 39.0221 47.3487 40.018 47.4208C42.4903 47.6072 45.9778 46.0032 49.3498 43.134L50.6071 42.0281L35.0925 31.8467L36.0653 31.0106C36.7536 30.4216 37.7148 30.2316 38.5799 30.5165L60.1619 37.6461L60.9618 36.9583C59.3584 35.8866 57.8742 33.9635 58.3625 32.2115L61.9037 29.1674C63.015 28.2136 64.2992 27.5257 65.7296 27.119C67.2176 26.6934 68.4866 26.6858 69.29 26.7504C70.432 26.8454 71.3856 27.1647 71.7164 27.5674C71.9124 27.8031 72.293 28.51 71.6086 30.0035L71.6124 29.9997Z" fill="white"/>
<path d="M8 53.279H14.6649V39.7507C14.6649 36.2855 16.5078 34.2439 19.5325 34.2439C22.5572 34.2439 23.9745 36.1443 23.9745 39.6553V53.279H30.6394V38.518C30.6359 32.1105 26.95 28.0273 21.0906 28.0273C18.2065 28.0273 15.8923 29.0729 14.5207 31.0191V28.5961H8V53.2755V53.279Z" fill="white"/>
</g>
<defs>
<clipPath id="clip0_2_49559">
<rect width="64" height="64" fill="white" transform="translate(8 8)"/>
</clipPath>
</defs>
</svg>
