<?xml version="1.0" encoding="utf-8"?>
<!-- Generator: Adobe Illustrator 25.4.1, SVG Export Plug-In . SVG Version: 6.00 Build 0)  -->
<svg version="1.1" id="Layer_1" xmlns="http://www.w3.org/2000/svg" xmlns:xlink="http://www.w3.org/1999/xlink" x="0px" y="0px"
	 viewBox="0 0 341.98 80" style="enable-background:new 0 0 341.98 80;" xml:space="preserve">
<style type="text/css">
	.o18a80c4{fill:#0299D2;}
	.de0e9155{fill:#9C9D9F;}
</style>
<g>
	<path class="o18a80c4" d="M35.65,80c-11.5,0-20.32-2.75-26.45-8.25C3.07,66.25,0,58.41,0,48.25c0-9.95,2.86-17.89,8.57-23.82
		c5.72-5.93,13.72-8.9,23.99-8.9c9.33,0,16.34,2.52,21.05,7.55c4.7,5.03,7.05,12.22,7.05,21.59v6.84H19.04
		c0.18,2.83,0.78,5.19,1.79,7.09c1.01,1.9,2.35,3.41,4.02,4.52c1.62,1.12,3.52,1.93,5.7,2.42c2.17,0.49,4.54,0.73,7.11,0.73
		c2.21,0,4.37-0.24,6.51-0.73c2.14-0.49,4.09-1.14,5.86-1.93c1.56-0.69,3-1.43,4.31-2.23c1.32-0.79,2.4-1.5,3.24-2.11h2v15.68
		c-1.55,0.61-2.97,1.18-4.26,1.71c-1.28,0.53-3.05,1.06-5.29,1.6c-2.06,0.55-4.18,0.97-6.37,1.27C41.47,79.84,38.8,80,35.65,80
		L35.65,80z M41.94,40.06c-0.11-4.02-1.04-7.08-2.79-9.18c-1.76-2.1-4.44-3.15-8.05-3.15c-3.69,0-6.58,1.1-8.66,3.31
		c-2.08,2.21-3.23,5.21-3.44,9.02L41.94,40.06z M126.41,78.37h-19.09V48.15c0-2.46-0.1-4.91-0.3-7.36c-0.2-2.44-0.57-4.24-1.11-5.4
		c-0.65-1.38-1.59-2.36-2.82-2.95c-1.23-0.6-2.87-0.9-4.94-0.9c-1.55,0-3.12,0.29-4.72,0.87c-1.59,0.58-3.29,1.51-5.1,2.77v43.2
		H69.33V17.42h18.99v6.73c3.11-2.64,6.14-4.7,9.09-6.18c2.95-1.48,6.21-2.23,9.8-2.23c6.22,0,10.97,1.96,14.27,5.89
		c3.29,3.93,4.94,9.61,4.94,17.06L126.41,78.37z M162.7,79.56c-7.75,0-13.38-1.59-16.91-4.78c-3.53-3.18-5.29-8.39-5.29-15.63V30.67
		h-7.27V17.42h7.27V0h18.99v17.42h18.28v13.25h-18.28v21.59c0,2.14,0.01,4,0.05,5.6c0.04,1.59,0.33,3.02,0.87,4.28
		c0.51,1.27,1.4,2.27,2.68,3.02c1.29,0.74,3.16,1.11,5.63,1.11c1.01,0,2.34-0.22,3.99-0.65c1.64-0.44,2.8-0.83,3.45-1.19h1.62v13.4
		c-2.06,0.55-4.25,0.97-6.57,1.27C168.89,79.41,166.06,79.56,162.7,79.56L162.7,79.56z M215.63,80c-11.5,0-20.32-2.75-26.45-8.25
		c-6.13-5.5-9.2-13.34-9.2-23.51c0-9.95,2.86-17.89,8.57-23.82c5.72-5.93,13.72-8.9,23.99-8.9c9.33,0,16.34,2.52,21.05,7.55
		c4.7,5.03,7.05,12.22,7.05,21.59v6.84h-41.62c0.18,2.83,0.78,5.19,1.79,7.09c1.01,1.9,2.35,3.41,4.02,4.52
		c1.62,1.12,3.52,1.93,5.7,2.42c2.17,0.49,4.54,0.73,7.11,0.73c2.21,0,4.37-0.24,6.51-0.73c2.14-0.49,4.09-1.14,5.86-1.93
		c1.56-0.69,3-1.43,4.31-2.23c1.32-0.79,2.4-1.5,3.24-2.11h2v15.68c-1.55,0.61-2.97,1.18-4.26,1.71c-1.28,0.53-3.05,1.06-5.29,1.6
		c-2.06,0.55-4.18,0.97-6.37,1.27C221.45,79.84,218.78,80,215.63,80L215.63,80z M221.92,40.06c-0.11-4.02-1.04-7.08-2.79-9.18
		c-1.76-2.1-4.44-3.15-8.05-3.15c-3.69,0-6.58,1.1-8.66,3.31c-2.08,2.21-3.23,5.21-3.44,9.02L221.92,40.06z M290.22,35.39h-1.57
		c-0.73-0.25-1.78-0.44-3.16-0.57c-1.37-0.13-2.89-0.19-4.55-0.19c-1.99,0-4.08,0.29-6.27,0.87c-2.19,0.58-4.31,1.27-6.36,2.06
		v40.81h-18.99V17.42h18.99v8.74c0.86-0.79,2.06-1.8,3.6-3.02s2.94-2.18,4.21-2.9c1.38-0.83,2.97-1.54,4.8-2.14
		c1.83-0.6,3.56-0.9,5.19-0.9c0.61,0,1.3,0.02,2.05,0.05c0.76,0.04,1.45,0.09,2.06,0.16L290.22,35.39z"/>
	<path class="de0e9155" d="M297.96,71.38v-5.31c-1.35,0.14-2.44,0.25-3.27,0.35c-0.83,0.1-1.65,0.29-2.45,0.58
		c-0.7,0.24-1.24,0.61-1.63,1.1c-0.38,0.49-0.58,1.15-0.58,1.96c0,1.19,0.32,2.02,0.96,2.47c0.65,0.45,1.6,0.67,2.85,0.67
		c0.69,0,1.41-0.16,2.14-0.48C296.72,72.41,297.38,71.96,297.96,71.38L297.96,71.38z M297.96,75.34c-0.55,0.45-1.04,0.86-1.47,1.22
		c-0.43,0.36-1.01,0.73-1.73,1.09c-0.72,0.34-1.41,0.61-2.08,0.79c-0.68,0.18-1.62,0.27-2.82,0.27c-2.26,0-4.14-0.75-5.63-2.27
		c-1.49-1.52-2.24-3.43-2.24-5.73c0-1.89,0.38-3.42,1.13-4.58c0.76-1.17,1.85-2.09,3.28-2.77c1.44-0.69,3.15-1.18,5.15-1.45
		c2-0.28,4.15-0.49,6.46-0.65v-0.13c0-1.41-0.52-2.38-1.56-2.91c-1.04-0.54-2.6-0.81-4.66-0.81c-0.95,0-2.04,0.17-3.3,0.52
		c-1.25,0.34-2.48,0.77-3.67,1.3h-0.69v-6.15c0.79-0.23,2.06-0.5,3.81-0.81c1.76-0.31,3.53-0.47,5.32-0.47
		c4.39,0,7.59,0.73,9.59,2.2c2,1.46,3.01,3.69,3.01,6.69v17.35h-7.9L297.96,75.34z M319.23,78.04h-7.94V52.53h7.94V78.04z
		 M319.46,48.89h-8.41v-6.2h8.41V48.89z M341.98,60.05h-0.66c-0.3-0.1-0.74-0.18-1.32-0.23c-0.57-0.05-1.21-0.08-1.91-0.08
		c-0.83,0-1.71,0.12-2.62,0.36c-0.92,0.24-1.81,0.53-2.67,0.86v17.08h-7.94V52.53h7.94v3.66c0.36-0.34,0.87-0.76,1.51-1.26
		c0.65-0.51,1.24-0.91,1.77-1.21c0.57-0.35,1.24-0.65,2-0.9c0.77-0.25,1.49-0.37,2.18-0.37c0.26,0,0.54,0.01,0.86,0.03
		c0.32,0.02,0.6,0.04,0.86,0.06V60.05z"/>
</g>
</svg>
