<?xml version="1.0" encoding="utf-8"?>
<!-- Generator: Adobe Illustrator 25.4.1, SVG Export Plug-In . SVG Version: 6.00 Build 0)  -->
<svg version="1.1" id="Layer_1" xmlns="http://www.w3.org/2000/svg" xmlns:xlink="http://www.w3.org/1999/xlink" x="0px" y="0px"
	 viewBox="0 0 277.56 80" style="enable-background:new 0 0 277.56 80;" xml:space="preserve">
<style type="text/css">
	.k8839432{fill:#0D52A0;}
	.s51b3c90{fill:#0DA9C4;}
	.j050ce61{fill:#ED1D3F;}
	.qe610c9a{fill:#ACC848;}
</style>
<g>
	<path class="k8839432" d="M102.15,67.13c-6.65-1.23-12.76-4.48-17.49-9.32c-4.97-5.28-12.51-7.28-19.45-5.15
		c-7.69,2.1-15.1,5.15-22.05,9.06c-5.07,2.59-14.4,7.55-19.45,10.18c-0.78-0.01,3.84-2.79,3.94-3.16c3.59-2.2,6.95-4.74,10.49-7.02
		c4.75-3.06,9.44-6.24,14.2-9.28c6.77-4.62,14.03-8.48,21.66-11.5c4.42-1.83,9.22-2.53,13.97-2.04c3.18,0.2,6.19,1.51,8.5,3.69
		c3.43,4.18,8.76,6.3,14.13,5.63c4.67-0.78,9.02-2.9,12.5-6.12c5.41-4.49,9.31-10.53,11.17-17.31c0.4-1.26,0.56-2.59,0.48-3.91
		c-0.06-2.99-2.54-5.37-5.53-5.31c-0.67,0.01-1.33,0.15-1.94,0.4c-2.89,1.08-6.09,1.01-8.94-0.19c-1.97-0.98-4.16-1.44-6.36-1.33
		c5.15-3.91,9.14-9.9,17.01-8.69c-0.37-1.53-1.48-2.78-2.96-3.33c-0.84-0.38-0.79-0.75-0.12-1.2c1.89-1.36,4.34-1.64,6.49-0.74
		c2.18,0.81,3.78,2.7,4.2,4.99c0.21,0.93-0.18,0.97-0.93,0.74c-1.39-0.58-2.98-0.43-4.24,0.4c3.9,2.53,6.44,6.69,6.89,11.32
		c0.78,5.63,0.01,11.37-2.24,16.6c-1.27,3.47-2.82,6.84-4.61,10.07c-0.3,0.44-0.45,0.96-0.4,1.49c0.56,0.16,0.89,0.74,0.73,1.3
		c-0.06,0.2-0.17,0.38-0.32,0.51c-1.58,2.03-3.06,4.14-4.43,6.32c-2.74,3.8-6.14,7.07-10.04,9.67c-2.46,1.5-5.19,2.49-8.04,2.89
		C106.64,67.25,104.4,66.7,102.15,67.13z"/>
	<path class="s51b3c90" d="M96.47,42.61c-2.09-1-4.25-1.86-6.46-2.58c-5.82-1.02-11.81-0.24-17.18,2.22c-7.01,2.97-13.71,6.6-20.03,10.84
		c-8.3,5.25-20.53,13.37-29.13,18.16c-0.25-0.04,3.87-2.49,3.78-2.73c-0.02-1.09,0.9-1.52,1.57-2.03
		c6.13-4.67,11.88-9.79,17.61-14.93c8.05-7.21,16.06-14.47,24.43-21.31c3.24-2.47,6.77-4.54,10.51-6.15
		c5.29-2.33,11.01-3.49,16.79-3.41c0.32,0.02,0.63,0.06,0.94,0.14c0.3,0.07,0.67,0.09,0.8,0.42c0.18,0.47-0.24,0.65-0.52,0.86
		c-1.51,1.08-2.79,2.46-3.75,4.05c-2.96,4.63-2.98,10.55-0.05,15.19C96.02,41.77,96.24,42.19,96.47,42.61z"/>
	<path class="j050ce61" d="M141.63,36.03c-2.04,4.63-5.84,8.27-10.56,10.1c0.63,1.16-0.68,1.28-1.01,1.92c-1.62,2.88-3.53,5.57-5.72,8.04
		c-3.06,3.97-7.13,7.04-11.78,8.9c-2.74,1.08-5.66,1.66-8.61,1.71c-0.63-0.07-1.27,0.08-1.81,0.42c0.69,0.27,1.44,0.36,2.17,0.25
		c2.49,0.53,5.06,0.53,7.55,0h0h0c1.96-0.04,3.89-0.41,5.72-1.1c9.94-3.03,18.03-10.31,22.07-19.89
		C141.1,43.13,141.77,39.59,141.63,36.03z"/>
	<path class="j050ce61" d="M209.27,41.54c2.42,0,4.85,0.01,7.27,0c1.01,0,1.04,0.69,1.04,1.41c0.01,2.48,0.01,4.97,0,7.45
		c0,4.97,0.01,9.93,0.01,14.9c0,2.05,0,2.05-2.11,2.05c-0.63,0-1.27-0.04-1.9,0.01c-1.21,0.09-2.06-0.07-1.94-1.64
		c0.09-1.15-0.52-0.71-1.03-0.31c-2.39,1.83-5.46,2.51-8.41,1.88c-4.01-0.69-6.99-4.11-7.13-8.17c-0.22-3.27-0.28-6.55-0.17-9.82
		c-0.02-2.17,0.05-4.33,0.04-6.5c0-0.84,0.3-1.31,1.2-1.25c0.11,0.01,0.21-0.01,0.32,0c5.06,0.08,4.15-0.71,4.25,4.09
		c0.08,3.91-0.2,7.82,0.15,11.72c-0.02,2.89,2.3,5.25,5.19,5.27c0.66,0,1.32-0.12,1.94-0.36c2.2-0.55,3.71-2.57,3.62-4.83
		c0.11-3.85,0.06-7.71,0.03-11.57C211.44,44.16,210.59,42.62,209.27,41.54z"/>
	<path class="j050ce61" d="M159.65,41.33c2.01-1.68,3.3-4.06,3.6-6.67c0.12-0.71,0.07-1.57,1.2-1.45c1.08,0.11,0.81,0.95,0.83,1.58
		c0.04,1.64,0.08,3.28,0,4.92c-0.07,1.34,0.34,1.95,1.78,1.85c1.37-0.1,2.75,0.02,4.12-0.03c1.06-0.04,1.54,0.32,1.52,1.45
		c-0.06,3.95,0.36,3.36-3.2,3.38c-4.19,0.03-4.2,0-4.2,4.12c0,2.33-0.01,4.65,0.04,6.98c-0.06,3.65,2.02,6.99,5.31,8.55
		c0.36,0.19,0.8,0.28,1.02,0.7c-2.69,1.37-5.9,1.24-8.47-0.35c-0.97-1.16-2.32-2.02-2.88-3.52c-0.76-1.69-1.12-3.52-1.06-5.37
		c0.06-3.21,0-6.43,0.03-9.64c0.01-0.9-0.13-1.47-1.27-1.5c-2.54-0.08-2.54-0.14-2.17-2.71C157,42.65,158.56,42.37,159.65,41.33z"/>
	<path class="j050ce61" d="M266.6,38.79c0.87-1.27,1.39-2.74,1.52-4.27c0.09-0.76,0.25-1.36,1.19-1.32c1,0.04,0.81,0.79,0.82,1.39
		c0.02,1.85,0.05,3.7-0.01,5.54c-0.03,1.03,0.37,1.42,1.39,1.4c1.53-0.04,3.06,0.03,4.59-0.01c0.98-0.03,1.46,0.27,1.46,1.33
		c0,4.31,0.29,3.45-3.21,3.48c-4.22,0.04-4.23,0-4.21,4.25c0.01,2.43-0.04,4.86,0.08,7.28c0.08,3.47,2.11,6.6,5.24,8.1
		c0.28,0.15,0.56,0.3,0.82,0.47c0.08,0.05,0.12,0.16,0.18,0.25c-2.03,1.23-4.56,1.33-6.68,0.25c-3.5-1.4-5.76-4.83-5.64-8.6
		c-0.06-3.48-0.03-6.97-0.01-10.45c0.01-1-0.23-1.55-1.41-1.57c-2.38-0.04-2.38-0.1-2.13-2.67c0.85-0.93,2.19-0.94,3.14-1.69
		l0.01,0.03C264.85,41.08,265.81,40,266.6,38.79z"/>
	<path class="j050ce61" d="M216.26,78.71c0.25-0.2,0.51-0.38,0.78-0.55c3.55-1.67,5.72-5.34,5.47-9.25c-0.04-8.4-0.01-16.8,0-25.19
		c0-2.17,0.01-2.17,2.18-2.18c3.58-0.02,3.58-0.02,3.58,3.61c0,8.35-0.06,16.69,0.03,25.04c0.15,2.7-1.23,5.26-3.58,6.6
		C222.23,78.42,219.22,79.11,216.26,78.71z"/>
	<path class="j050ce61" d="M176.74,54.47c0-3.7,0.07-7.4-0.03-11.1c-0.04-1.51,0.52-1.99,1.93-1.85c0.69,0.06,1.38,0.06,2.06-0.01
		c1.24-0.1,2.04,0.14,1.9,1.68c-0.1,1.1,0.49,0.96,1.13,0.41c2.02-1.68,4.66-2.42,7.26-2.05c0.99,0.08,1.4,0.47,1.27,1.52
		c0.04,2.47-1.93,4.5-4.4,4.54c-0.05,0-0.09,0-0.14,0c-2.58-0.27-4.88,1.61-5.15,4.19c-0.04,0.37-0.03,0.74,0.02,1.11
		c-0.08,4.23-0.07,8.46,0.01,12.69c0.02,1.36-0.33,1.83-1.76,1.81c-4.09-0.05-4.09,0.02-4.1-4.06c0-0.26,0-0.53,0-0.79
		C176.74,59.87,176.74,57.17,176.74,54.47z"/>
	<path class="j050ce61" d="M237.9,33.71c-1.26,0.46-2.53,0.92-3.79,1.38c-3.37,1.23-6.75,2.43-10.11,3.69c-1.08,0.4-1.49,0.24-1.51-1.02
		c-0.08-4.22,0.12-4.47,4.36-4.47c3.11,0,6.23,0,9.34,0c0.55,0,1.1,0,1.65,0L237.9,33.71z"/>
	<path class="j050ce61" d="M258.67,59.42c-1.29-0.91-3.02-0.89-4.28,0.06c-1,0.85-2.14,1.53-3.37,2.02c-4.41,1.86-9.49-0.2-11.35-4.61
		c-0.14-0.33-0.26-0.68-0.36-1.03c-0.39-1.83-0.32-1.93,1.51-1.94c2.75-0.01,5.5,0,8.25,0c2.86,0,5.71-0.05,8.57,0.02
		c1.42,0.04,1.68-0.51,1.5-1.81c-1.07-7.29-7.84-12.33-15.13-11.26c-7.29,1.07-12.33,7.84-11.26,15.13
		c0.85,5.78,5.36,10.34,11.13,11.24c5.8,0.8,11.56-1.76,14.84-6.61C258.94,60.23,259.25,59.86,258.67,59.42z M240.06,48.38
		c1.19-2.12,3.47-3.4,5.9-3.31c2.49-0.07,4.82,1.27,6,3.46c0.5,0.85-0.1,0.99-0.77,0.99c-1.8,0-3.59,0-5.39,0
		c-1.69,0-3.38-0.02-5.07,0.01C239.79,49.54,239.6,49.14,240.06,48.38z"/>
	<path class="qe610c9a" d="M79.18,25.08c-3.86,1.46-7.58,3.26-11.13,5.38c-0.83,0.25-1.59,0.69-2.23,1.27
		c-5.52,3.51-10.83,7.35-15.89,11.49c-5.41,4.48-10.34,9.49-15.62,14.12c-1.74,1.53-3.47,3.07-5.27,4.53l0,0
		C20.3,69.31,10.52,75.42,0,80c3.09-0.2,6.14-0.85,9.04-1.95l0,0c4.63-1.23,9.09-3.01,13.3-5.29c0.47-0.42,1.01-0.76,1.59-1.02l0,0
		l5.18-3.81v0c3.68-2.92,7.39-5.81,10.91-8.93c7.54-6.7,15.04-13.45,22.62-20.1c3.69-3.24,7.48-6.36,11.37-9.37
		c2.64-2.05,5.57-3.62,8.3-5.52C81.25,24.36,80.19,24.66,79.18,25.08z"/>
</g>
</svg>
