<?xml version="1.0" encoding="utf-8"?>
<!-- Generator: Adobe Illustrator 25.3.1, SVG Export Plug-In . SVG Version: 6.00 Build 0)  -->
<svg version="1.1" id="Layer_1" xmlns="http://www.w3.org/2000/svg" xmlns:xlink="http://www.w3.org/1999/xlink" x="0px" y="0px"
	 viewBox="0 0 114.88 80" style="enable-background:new 0 0 114.88 80;" xml:space="preserve">
<style type="text/css">
	.l5dc3f9e{fill:#ED4138;}
	.p1148b56{fill:#00693A;}
	.t9e60e02{fill:#DF1804;}
	.ea9702f6{fill:#214078;}
	.kf75ad43{fill:#3487C7;}
	.yf097495{fill:url(#SVGID_1_);}
	.n2c2ad5a{fill:url(#SVGID_2_);}
	.r091f0f4{fill:#184A8A;}
	.m5d40d08{fill:url(#SVGID_3_);}
	.q83d81b8{fill:url(#SVGID_4_);}
	.u7e5588a{fill:url(#SVGID_5_);}
	.p1148b561{fill:url(#SVGID_6_);}
	.p9d31eb9{fill:#9E8266;}
	.a6ba9395{fill:#322E26;}
	.p1148b564{fill:#332F27;}
	.o60d7bf1{fill:#791722;}
	.kb208c37{fill:url(#SVGID_7_);}
	.w0b8cbed{fill:url(#SVGID_8_);}
	.s24af82f{fill:url(#SVGID_9_);}
	.cc3a34f2{fill:url(#SVGID_10_);}
	.oed9eae8{fill:url(#SVGID_11_);}
	.j2df8483{fill:url(#SVGID_12_);}
	.t9e60e022{fill:url(#SVGID_13_);}
	.t9e60e023{fill:url(#SVGID_14_);}
	.f82c0a2a{fill:url(#SVGID_15_);}
	.t9e60e025{fill:url(#SVGID_16_);}
	.p3f88f70{fill:url(#SVGID_17_);}
	.t9e60e027{fill:url(#SVGID_18_);}
	.cc996d95{fill:url(#SVGID_19_);}
	.p5a5b32c{fill:url(#SVGID_20_);}
	.p270a836{fill:url(#SVGID_21_);}
	.k7af1e9b{fill:#222325;}
	.fd827b3e{fill:#A0925A;}
	.w3679721{fill:#061E34;}
	.r4401115{fill:#028E8F;}
	.m5076df1{fill:#D5192C;}
	.sa36b934{fill:#FAC201;}
	.v7f15f66{fill:url(#SVGID_22_);}
	.pe796b17{fill:url(#SVGID_23_);}
	.b905168d{fill:url(#SVGID_24_);}
	.d2c9e654{fill:url(#SVGID_25_);}
	.m1e9e1d7{fill:#9F8A58;}
	.n3662ed7{fill:#749ED4;}
	.b01fab9e{fill:#045991;}
	.f86b3c4a{fill:#1F9A8D;}
	.e3454471{fill:#222D68;}
	.l96b8215{fill:#14152E;}
	.bc003141{fill:#62B3E4;}
	.s069f3f1{fill:#FEFEFE;}
	.pca72a12{fill:none;}
	.yf0974950{fill:#FC0302;}
	.p154cf69{fill:#FE0807;}
	.i56fa4be{fill:#98684C;}
	.a8534a01{fill:#86754D;}
	.m3f92b86{fill:#42484D;}
	.fb725136{fill:#41474C;}
	.yf0974956{fill:#43494D;}
	.yf0974957{fill:#DF073D;}
	.yf0974958{fill:#DE023A;}
	.j54e433a{fill:#FFFFFF;}
	.hae3da5d{fill:#6F6E6C;}
	.c4f4eb7a{fill:#072F67;}
	.i0b06360{fill:#53A220;}
	.yc23a145{fill:#FDC013;}
	.xd006daa{fill:url(#SVGID_26_);}
	.h945070e{fill:url(#SVGID_27_);}
	.nc3deebe{fill:url(#SVGID_28_);}
	.m6121b64{fill:#793A98;}
	.b5569f12{fill:url(#SVGID_29_);}
	.p3b65bd9{fill:url(#SVGID_30_);}
	.r091f0f40{fill:url(#SVGID_31_);}
	.kcdf7b6d{fill:url(#SVGID_32_);}
	.m829c948{fill:url(#SVGID_33_);}
</style>
<g>
	<path class="r4401115" d="M77.52,60.84c-12.04-6.96-23.85-13.79-35.75-20.68c12.08-6.86,23.99-13.63,36.07-20.49
		c12.01,6.85,23.94,13.79,36.15,20.83C101.69,47.35,89.63,54.08,77.52,60.84z"/>
	<path class="r4401115" d="M0.64,38.32c11.15-12.76,22-25.17,32.84-37.58c12.51,0,24.95,0,37.47,0c-1.21,1.95-2.86,3.45-4.29,5.12
		c-3.69,4.32-7.5,8.54-11.25,12.81c-3.27,3.72-6.53,7.46-9.78,11.2c-1.9,2.19-3.76,4.41-5.67,6.59c-0.59,0.68-1.29,1.26-1.93,1.86
		C25.71,38.32,13.4,38.32,0.64,38.32z"/>
	<path class="r4401115" d="M0.64,41.84c12.82,0,25.13,0,37.65,0C49.08,54.12,59.95,66.49,71.02,79.1c-12.77,0-25.18,0-37.67,0
		C22.56,66.81,11.74,54.48,0.64,41.84z"/>
</g>
</svg>
