<svg width="80" height="80" viewBox="0 0 80 80" fill="none" xmlns="http://www.w3.org/2000/svg">
<g clip-path="url(#clip0_2_49285)">
<path fill-rule="evenodd" clip-rule="evenodd" d="M7.28162 59.6401L6.96136 59.8604C13.4832 71.8802 25.8265 80.0003 39.9097 80.0003C60.8552 80.0003 77.8195 62.0801 77.8195 40.0004C77.8195 33.9199 75.2989 28.8002 72.3182 24.9201C68.3572 19.7599 62.7158 17.2801 57.0943 17.24C52.4532 17.2002 47.6523 18.7602 44.2708 21.82C40.4098 25.32 39.5497 29.8203 38.5495 37.1201C37.4494 45.1202 31.0076 50.6402 22.7256 50.6402C12.0027 50.6402 5.36122 44.0403 5.80109 33.9401C5.84131 33.24 5.90112 32.5404 6.02129 31.8605C8.04172 19.9404 20.8653 7.64044 40.15 7.68014C53.0932 7.68014 62.8156 10.5801 72.5383 20.36L72.8587 20.1405C66.3368 8.12041 54.0136 0 39.9097 0C18.9844 0 2 17.9199 2 40.0004C2 46.0802 4.52064 51.2002 7.5018 55.08C11.4426 60.2401 17.1044 62.6998 22.7256 62.7603C27.3668 62.8201 32.168 61.2399 35.5487 58.1801C39.4101 54.6801 40.2702 50.1803 41.2702 42.8803C42.3706 34.8799 48.832 29.3599 57.0943 29.3599C67.8369 29.3599 74.4788 35.96 74.0384 46.06C73.9989 46.7601 73.9383 47.4602 73.8189 48.1404C71.7581 60.0602 58.9951 72.3603 39.67 72.3199C26.7265 72.3199 17.0043 69.4202 7.28162 59.6401Z" fill="#051766"/>
</g>
<defs>
<clipPath id="clip0_2_49285">
<rect width="80" height="80" fill="white"/>
</clipPath>
</defs>
</svg>
