<?xml version="1.0" encoding="utf-8"?>
<!-- Generator: Adobe Illustrator 25.4.1, SVG Export Plug-In . SVG Version: 6.00 Build 0)  -->
<svg version="1.1" id="Layer_1" xmlns="http://www.w3.org/2000/svg" xmlns:xlink="http://www.w3.org/1999/xlink" x="0px" y="0px"
	 viewBox="0 0 173.2 80" style="enable-background:new 0 0 173.2 80;" xml:space="preserve">
<style type="text/css">
	.jd311d7d{fill:#0C0C11;}
	.d2ceef0e{fill:#CF253A;}
</style>
<path class="jd311d7d" d="M-238.6-885.5c-0.7-0.1-1.8,0-2.5,0c0.5-0.4,1.2-0.7,1.6-0.5c0.1,0,0.1,0,0.2,0.1
	C-239.1-885.8-238.8-885.6-238.6-885.5z"/>
<g id="text835">
</g>
<g>
	<path class="d2ceef0e" d="M71.3,35.8c3,2,20.1-3.2,41.8-11.1C111.4,11.1,100,0.5,86,0C86,0.1,62.3,29.8,71.3,35.8z"/>
	<path class="d2ceef0e" d="M64.3,47.9c5.2,5.5,12.5,8.9,20.7,8.9c11.1,0,20.7-6.3,25.4-15.6C110.2,41.3,84.2,51.2,64.3,47.9z"/>
	<path class="d2ceef0e" d="M82.5,0.1c-14.6,1.2-26,13.4-26,28.3c0,3.7,0.7,7.1,2,10.4C58.4,38.5,57.8,26.5,82.5,0.1z"/>
	<g>
		<path d="M5.7,68H2.6L0,79.7h1.2h1.9c1.9,0,4.6,0,4.6,0l1-2.8H3.7L5.7,68z"/>
		<path d="M19.6,74.5c-0.3,1.5-1.1,2.9-3,2.7c-1.9-0.2-0.9-2.7-0.9-2.7l1.4-6.6H14l-1.3,6.1c0,0-1.7,5.8,3.7,5.8
			c5.4,0,6.2-5.4,6.2-5.4l1.4-6.6H21L19.6,74.5z"/>
		<polygon points="99.4,75.8 99.4,75.8 97.8,68 95.8,68 94.8,68 92.7,68 90.1,79.7 93.2,79.7 95.2,70.9 96.7,79.7 98.5,79.7 
			99.4,79.7 101.6,79.7 104.2,68 101.1,68 		"/>
		<polygon points="30.5,68 29,68 26.4,79.7 29.5,79.7 30.5,75.3 34.6,75.3 35.6,72.9 31,72.9 31.5,70.4 36.1,70.4 37,68 32.1,68 		
			"/>
		<polygon points="55,68 52.4,68 51.4,70.4 54.4,70.4 52.4,79.7 55.5,79.7 57.5,70.4 60.6,70.4 61.3,68 58.1,68 		"/>
		<polygon points="173.2,68 170,68 166.9,68 164.3,68 163.4,70.4 166.4,70.4 164.3,79.7 167.4,79.7 169.5,70.4 172.6,70.4 		"/>
		<polygon points="42.9,68 40.3,68 39.4,70.4 42.4,70.4 40.3,79.7 43.4,79.7 45.5,70.4 48.6,70.4 49.2,68 46,68 		"/>
		<path d="M70.8,68h-2.9h-3.1l-2.6,11.8h3.1l0.8-3.4h2.1c0,0,1.2,0.1,1,1.5c-0.2,1.4-0.5,1.9-0.5,1.9h3.1c0,0,0.5-2,0.6-2.8
			c0.1-0.7-0.3-1.4-1.3-1.7c1.2-0.7,2.4-1.8,2.9-3.6C75,67.8,70.8,68,70.8,68z M66.6,74.1l0.8-3.7c1.2-0.1,3.7-0.1,3.4,1.4
			c-0.6,2.7-2.2,2.3-2.2,2.3H66.6z"/>
		<path d="M156.9,68H154h-3.1l-2.6,11.8h3.1l0.8-3.4h2.1c0,0,1.2,0.1,1,1.5c-0.2,1.4-0.5,1.9-0.5,1.9h3.1c0,0,0.5-2,0.6-2.8
			c0.1-0.7-0.3-1.4-1.3-1.7c1.2-0.7,2.4-1.8,2.9-3.6C161.1,67.8,156.9,68,156.9,68z M152.6,74.1l0.8-3.7c1.2-0.1,3.7-0.1,3.4,1.4
			c-0.6,2.7-2.2,2.3-2.2,2.3H152.6z"/>
		<path d="M81.1,68l-5.8,11.8h3l1.1-2.2h4.1l0.2,2.2h3.1L85.6,68H81.1z M80.5,75.4l2.5-5l0.4,5H80.5z"/>
		<path d="M128.6,68h-2.9h-3.1L120,79.7h3.1l0.8-3.4c0.6,0,1.4,0,2.6,0c2.9,0,4.3-1.2,5.1-4.8C132.4,68,128.6,68,128.6,68z
			 M128.3,72.5c-0.5,1.7-2.3,1.5-2.3,1.5h-1.7l0.8-3.6c0.5,0,1.3,0,1.8,0C127.8,70.4,128.8,70.8,128.3,72.5z"/>
		<path d="M113.1,67.8c-4.7,0-5.5,3-5.5,4.9c0,2,2.6,2.1,3.9,2.1c1.3,0,2.2,0.2,2.3,1.1c0.1,0.9-1,1.4-2.6,1.4
			c-1.6,0-1.6-1.4-1.6-1.4l-2.9,0.1c0,0,0,3.8,4.1,3.8c4.2,0,6.2-2.5,6.2-4.6c0-2.1-2-2.5-4.3-2.5c-2.3-0.1-2.3-0.8-2.2-1.4
			c0-0.6,1.2-1,2.6-1s1.6,1.4,1.6,1.4s2.9-0.4,3-0.4C117.7,70.8,117.8,67.8,113.1,67.8z"/>
		<path d="M141,67.8c-5.8,0-6.5,5.3-6.5,5.3c-0.8,3.8-0.4,6.9,4.5,6.9c4.9,0,5.9-4,6.3-5.6C145.7,72.8,146.7,67.8,141,67.8z
			 M142.6,73.8c-0.3,1.7-1.2,3.2-3.7,3.2s-1.3-3.8-1.3-3.8s0.7-2.9,3.3-2.9C142.8,70.4,142.9,72.2,142.6,73.8z"/>
	</g>
</g>
</svg>
