<?xml version="1.0" encoding="utf-8"?>
<!-- Generator: Adobe Illustrator 25.4.1, SVG Export Plug-In . SVG Version: 6.00 Build 0)  -->
<svg version="1.1" id="Layer_1" xmlns="http://www.w3.org/2000/svg" xmlns:xlink="http://www.w3.org/1999/xlink" x="0px" y="0px"
	 viewBox="0 0 256.82 80" style="enable-background:new 0 0 256.82 80;" xml:space="preserve">
<style type="text/css">
	.r475fa35{opacity:0.36;fill:#FF0000;}
	.zca8ced0{fill:url(#SVGID_1_);}
	.sc4a5198{fill:#47A374;}
	.rca609e8{fill:#00908B;}
	.md372d9e{fill:#006D94;}
	.r3a35b49{fill:#024291;}
	.lcfc21f9{fill:#2B3866;}
	.sa351b9f{fill:#FF0000;}
	.t38de1ca{fill:#265FA3;}
	.n1c85f37{fill:#8DBF60;}
	.zca8ced00{fill:url(#SVGID_00000016076886219858691400000012875513064521631639_);}
</style>
<g>
	<path class="r475fa35" d="M149.39,17.96c0.02,0.01,0.06,0.03,0.1,0.06C149.45,17.99,149.41,17.97,149.39,17.96z"/>
	
		<radialGradient id="SVGID_1_" cx="152.584" cy="48.1982" r="62.1435" gradientTransform="matrix(0.9998 0.0205 -0.0145 0.7091 0.7314 10.8986)" gradientUnits="userSpaceOnUse">
		<stop  offset="0" style="stop-color:#085193"/>
		<stop  offset="0.6902" style="stop-color:#399A80"/>
		<stop  offset="1" style="stop-color:#8DBF60"/>
	</radialGradient>
	<path class="zca8ced0" d="M255.04,1.12c-2.67,3.79-11.25,9.13-27.84,12.92c-2.62,0.6-4.81,1-6.73,1.27c-10.23,1.39-12.9-1.34-33.8-1.16
		c-21.34,0.19-33.47,2.93-36.46,3.7c0,0-0.01,0-0.01,0c-0.37,0.09-0.59,0.16-0.68,0.18c-0.03,0.01-0.05,0.01-0.05,0.01
		c0.63,0.46,1.22,0.94,1.79,1.44c0.01,0,0.01,0.01,0.01,0.01c1.98,1.74,3.59,3.66,4.89,5.63c0.19,0.28,0.36,0.56,0.53,0.84
		c0,0,0.01,0.01,0.01,0.01c3.67,6,4.67,12.36,4.93,15.76c0.12,1.55,0.09,2.48,0.09,2.48c-1.78,27.17-21.05,34.86-27.06,35.53
		c-6.01,0.67-26.06,1.78-34.41-21.6c-2.25-6.31-2.66-12.06-2.05-17.1v0c0.64-5.33,2.42-9.88,4.35-13.42c0,0,0,0,0,0
		c0.3-0.57,0.62-1.11,0.93-1.62c2.74-4.52,5.46-7.05,5.46-7.05s-0.01,0-0.04-0.01c-1.17-0.2-30.71-5.19-58.43-3.45
		c-3.06,0.19-6.06,0.16-8.95-0.05C17.63,13.73,0,0,0,0s20.17-0.33,69.28,4.57c49.11,4.9,55.35,12.14,55.35,12.14
		c-2.08,0.43-4.09,1.1-6.01,1.94c-0.21,0.09-0.41,0.19-0.62,0.28c-10.06,4.72-17.21,14.49-17.21,22.05
		c0,9.13,7.11,30.74,25.95,30.74s31.85-12.98,31.85-28.95c0-15.98-15.26-23.83-15.26-23.83s-6.9,2.67-7.46,2.79
		c-9.24,4.34-19.38,10.69-20.94,21.6c-1.56,10.92,5.01,20.16,13.66,20.16c8.65,0,13.18-5.12,13.18-11.47
		c0-6.35-2.78-10.69-9.13-10.36c-6.25,0.33-9.69,3.14-9.8,3.23c1.45-3.34,4.57-8.13,12.14-10.47c7.57-2.34,16.59,4.12,16.59,12.81
		c0,8.69-4.23,21.61-22.16,21.61c-17.93,0-22.05-19.49-22.05-23.05s-2.56-23.5,36.53-33.52C182.99,2.23,255.04,1.12,255.04,1.12z"/>
	<path class="sc4a5198" d="M108.89,18.93c-1.01-0.11-24.17-2.47-40.95,1.56c-17.15,4.12-36.3,13.36-65.26,6.79
		c0,0,18.12-7.17,38.82-11.85c2.9,0.21,5.89,0.24,8.95,0.05C78.18,13.74,107.72,18.73,108.89,18.93z"/>
	<path class="rca609e8" d="M102.97,19.16c0,0-18.63,3.63-29.98,10.42S40.58,46.47,14.52,47.06C14.52,47.06,44,22.17,102.97,19.16z"/>
	<path class="md372d9e" d="M102.97,21.25c0,0-44.85,10.77-73.08,40.51c0,0,23.14-1.59,45.1-22.3C74.99,39.45,84.35,29.18,102.97,21.25z"
		/>
	<path class="r3a35b49" d="M108.93,18.94c0,0-2.72,2.52-5.46,7.05c-4.42,3.37-9.64,8.21-15.7,15.14c-23.81,27.23-36.5,27.31-36.5,27.31
		C63.55,46.8,108.93,18.94,108.93,18.94z"/>
	<path class="lcfc21f9" d="M102.54,27.61c-1.93,3.55-3.71,8.09-4.35,13.42v0c-7.95,17.61-21.03,22.89-21.03,22.89
		C87.85,43.63,102.32,27.85,102.54,27.61z"/>
	<path class="sc4a5198" d="M256.82,26.68c-32.21,8.21-49.33-3.06-66.48-7.18c-15.24-3.66-35.76-2.05-40.14-1.65
		c2.99-0.77,15.12-3.51,36.46-3.7c20.91-0.19,23.58,2.54,33.8,1.16C239.72,19.99,256.82,26.68,256.82,26.68z"/>
	<path class="rca609e8" d="M154.53,18.43c0,0,19.49,4.36,30.85,11.14c11.36,6.79,32.32,15.89,58.38,16.47
		C243.76,46.05,213.5,21.44,154.53,18.43z"/>
	<path class="md372d9e" d="M155.31,21.05c0,0,44.85,9.97,73.08,39.7c0,0-23.05-0.95-45.02-21.66C183.38,39.09,173.94,28.99,155.31,21.05z
		"/>
	<path class="sa351b9f" d="M149.39,17.96c0.02,0.01,0.06,0.03,0.1,0.06C149.45,17.99,149.41,17.97,149.39,17.96z"/>
	<path class="r3a35b49" d="M208.65,69.61c0,0-14.34-2.25-38.14-29.48c-5.46-6.25-10.24-11.54-14.36-14.99c-1.3-1.98-2.91-3.9-4.89-5.63
		c-0.01-0.01-0.01-0.01-0.01-0.01c-0.7-0.69-1.26-1.12-1.59-1.35C153.74,20.76,196.96,49,208.65,69.61z"/>
	<path class="lcfc21f9" d="M182.07,63.37c0,0-12.45-5.03-20.44-21.63c-0.27-3.4-1.27-9.76-4.93-15.76
		C157.14,26.48,171.46,43.23,182.07,63.37z"/>
	<path class="t38de1ca" d="M130.98,33.94c0,0-2.81-2.17-2.38-4.54c0.43-2.37,2.1-1.45,2.1-1.45s0.36,0.03,0.11,0.89
		C130.56,29.71,130.73,33,130.98,33.94z"/>
	<path class="t38de1ca" d="M132.07,33.11c-0.04,0.11-0.14-5.51,2.87-8.24c0,0,1.7-0.95,2.95,0.19s-0.17,2.21-1.09,2.72
		C135.88,28.29,132.71,31.27,132.07,33.11z"/>
	<path class="t38de1ca" d="M135.22,32.24c0,0,1.72-3.84,4.56-4.73c2.84-0.89,3.56,1.28,3.29,1.78s-1.11,0.81-3.12,1.09
		S135.22,32.24,135.22,32.24z"/>
	<path class="n1c85f37" d="M255.04,1.12c-2.67,3.79-11.25,9.13-27.84,12.92c-2.62,0.6-4.81,1-6.73,1.27c-10.23,1.39-12.9-1.34-33.8-1.16
		c-21.34,0.19-33.47,2.93-36.46,3.7c0,0-0.01,0-0.01,0c-0.37,0.09-0.59,0.16-0.68,0.18c-0.03,0.01-0.05,0.01-0.05,0.01
		c0.63,0.46,1.22,0.94,1.79,1.44c0.01,0,0.01,0.01,0.01,0.01c1.98,1.74,3.59,3.66,4.89,5.63c0.19,0.28,0.36,0.56,0.53,0.84
		c0,0,0.01,0.01,0.01,0.01c3.67,6,4.67,12.36,4.93,15.76c0.12,1.55,0.09,2.48,0.09,2.48c-1.78,27.17-21.05,34.86-27.06,35.53
		c-6.01,0.67-26.06,1.78-34.41-21.6c-2.25-6.31-2.66-12.06-2.05-17.1v0c0.64-5.33,2.42-9.88,4.35-13.42c0,0,0,0,0,0
		c0.3-0.57,0.62-1.11,0.93-1.62c2.74-4.52,5.46-7.05,5.46-7.05s-0.01,0-0.04-0.01c-1.17-0.2-30.71-5.19-58.43-3.45
		c-3.06,0.19-6.06,0.16-8.95-0.05C17.63,13.73,0,0.01,0,0.01s20.17-0.33,69.28,4.57c49.11,4.9,55.35,12.14,55.35,12.14
		c-2.08,0.43-4.09,1.1-6.01,1.94c-0.21,0.09-0.41,0.19-0.62,0.28c-10.06,4.72-17.21,14.49-17.21,22.05
		c0,9.13,7.11,30.74,25.95,30.74s31.85-12.98,31.85-28.95c0-15.98-15.26-23.83-15.26-23.83s-0.25,0.1-0.66,0.26
		c-1.61-1.82-3.32-3.77-4.62-5.28c1.83-0.58,3.77-1.13,5.83-1.66C182.99,2.23,255.04,1.12,255.04,1.12z"/>
	
		<linearGradient id="SVGID_00000023966550378555097380000006973499478576923293_" gradientUnits="userSpaceOnUse" x1="142.5886" y1="13.7607" x2="118.8679" y2="29.6302">
		<stop  offset="0" style="stop-color:#8DBF60"/>
		<stop  offset="0.9986" style="stop-color:#4EA08D"/>
	</linearGradient>
	<path style="fill:url(#SVGID_00000023966550378555097380000006973499478576923293_);" d="M142.68,19.19
		c-1.74,0.67-6.35,2.44-6.8,2.53c-7.5,3.53-15.59,8.37-19.21,15.91l-6.68-4.51c3.39-6.39,11.01-13.82,28.07-19.21
		C139.36,15.42,141.08,17.38,142.68,19.19z"/>
</g>
</svg>
