<?xml version="1.0" encoding="utf-8"?>
<!-- Generator: Adobe Illustrator 25.4.1, SVG Export Plug-In . SVG Version: 6.00 Build 0)  -->
<svg version="1.1" id="Layer_4" xmlns="http://www.w3.org/2000/svg" xmlns:xlink="http://www.w3.org/1999/xlink" x="0px" y="0px"
	 viewBox="0 0 119.56 80.27" style="enable-background:new 0 0 119.56 80.27;" xml:space="preserve">
<style type="text/css">
	.m415c7c4{fill-rule:evenodd;clip-rule:evenodd;fill:#CBA22E;}
	.w902e06a{fill-rule:evenodd;clip-rule:evenodd;fill:#BCBEC0;}
</style>
<path class="m415c7c4" d="M0.09,55.76c0,0-1.52-9.27,8.03-8.58c0,0,5.76,0.7,11.35,5.53c0,0,5.19,4.3,9.83-5.67
	c0,0,5.01-20.31,10.81-27.96c4.36-5.77,17.58-16.74,32.81-14.25c0,0-27.74,14.37-26.11,46.93c1.39,5.34,5.67,13.82,10.74,18.66
	c0,0-18.03,21.17-37.93,0.56L8.81,57c0,0-2.89-4.36-6.92-2.35L0.09,55.76z"/>
<path class="w902e06a" d="M35.55,49.81c0,0,0.34-8.43,6.27-8.43c5.92,0,9.57,7.64,16.75,7.64c7.18,0,9.12-15.84,10.15-20.06
	C69.75,24.73,76.47,0,107.02,0c0,0-24.17,14.14-24.17,42.86s33.18,35.34,36.7,35.34c0,0-7.53,0.91-13.1,0.91
	c-5.59,0-17.33-1.48-25.42-8.32c-8.09-6.84-18.01-6.15-22.45-2.96C58.58,67.83,45.48,41.25,35.55,49.81"/>
</svg>
