<?xml version="1.0" encoding="utf-8"?>
<!-- Generator: Adobe Illustrator 25.4.1, SVG Export Plug-In . SVG Version: 6.00 Build 0)  -->
<svg version="1.1" id="Layer_4" xmlns="http://www.w3.org/2000/svg" xmlns:xlink="http://www.w3.org/1999/xlink" x="0px" y="0px"
	 viewBox="0 0 354.04 80.27" style="enable-background:new 0 0 354.04 80.27;" xml:space="preserve">
<style type="text/css">
	.b7fc5e92{fill-rule:evenodd;clip-rule:evenodd;fill:#CBA22E;}
	.b65da122{fill-rule:evenodd;clip-rule:evenodd;fill:#1354A8;}
	.uec9f699{fill-rule:evenodd;clip-rule:evenodd;fill:#BCBEC0;}
</style>
<g transform="matrix(1.00074 0 0 1.00074 79.8525 154.968)">
	<path class="b7fc5e92" d="M-79.7-99.14c0,0-1.52-9.26,8.03-8.57c0,0,5.76,0.7,11.34,5.53c0,0,5.19,4.29,9.82-5.67
		c0,0,5.01-20.3,10.8-27.94c4.36-5.76,17.57-16.73,32.79-14.24c0,0-27.71,14.36-26.09,46.9c1.39,5.33,5.66,13.81,10.73,18.65
		c0,0-18.01,21.15-37.91,0.55l-10.79-13.97c0,0-2.89-4.36-6.92-2.35L-79.7-99.14z"/>
	<path class="b65da122" d="M36.37-127.48l-6.43,30.19h18.59c3.7,0,6.54-0.95,8.53-2.89c1.99-1.94,2.98-4.13,2.98-6.52
		c0-3.27-1.63-5.37-4.85-6.34v-0.09c1.96-0.61,3.42-1.58,4.33-2.93c0.89-1.35,1.32-2.81,1.32-4.33c0-1.19-0.26-2.28-0.84-3.28
		c-0.57-1-1.36-1.79-2.36-2.41c-1.01-0.61-2.05-0.99-3.15-1.14c-1.08-0.15-2.52-0.26-4.2-0.26H36.37z M108.86-127.48l-2.41,11.24
		c-1.56-2.29-3.88-3.41-6.95-3.41c-3.01,0-5.51,1.36-7.48,4.11c-1.97,2.75-2.93,6.01-2.93,9.71c0,2.78,0.66,4.96,1.97,6.61
		c1.31,1.63,3.16,2.45,5.64,2.45c1.32,0,2.45-0.19,3.41-0.57c0.94-0.38,2.05-1.14,3.24-2.23l0.09,0.13L103-97.29h7.8l6.47-30.19
		L108.86-127.48z M136.08-127.48l-2.41,11.24c-1.56-2.29-3.88-3.41-6.96-3.41c-3,0-5.51,1.36-7.48,4.11
		c-1.97,2.75-2.93,6.01-2.93,9.71c0,2.78,0.66,4.96,1.96,6.61c1.32,1.63,3.17,2.45,5.64,2.45c1.32,0,2.46-0.19,3.41-0.57
		c0.96-0.38,2.05-1.14,3.24-2.23l0.04,0.13l-0.39,2.14H138l6.48-30.19L136.08-127.48z M148.42-127.48l-6.52,30.19h8.44l2.05-9.45
		c0.47-2.18,1.15-3.87,2.06-5.03c0.92-1.16,2.01-1.75,3.24-1.75c1.1,0,1.66,0.64,1.66,1.84c0,0.36-0.27,1.76-0.79,4.24l-2.14,10.15
		h8.4l2.54-11.9c0.54-2.58,0.83-4.33,0.83-5.21c0-1.46-0.5-2.7-1.48-3.72c-0.99-1.01-2.45-1.49-4.42-1.49
		c-3.14,0-5.72,1.05-7.74,3.15l-0.09-0.09l2.32-10.94H148.42z M223.58-127.48l-17.07,30.19h10.06l2.32-4.94h9.85l0.44,4.94h9.14
		l-4.81-30.19H223.58z M246.64-127.48l-1.18,5.78h8.4l1.18-5.78H246.64z M44.38-121.35h3.98c1.47,0,2.43,0.2,2.92,0.61
		c0.51,0.41,0.79,1.01,0.79,1.75c0,0.61-0.23,1.22-0.7,1.84c-0.45,0.61-1.08,1.03-1.83,1.22c-0.75,0.19-1.79,0.26-3.16,0.26h-3.19
		L44.38-121.35z M183.9-119.6c-3.79,0-6.6,0.53-8.4,1.66c-1.8,1.12-2.99,2.74-3.49,4.81l7.83,0.83c0.44-0.99,0.98-1.62,1.57-1.92
		c0.6-0.31,1.36-0.48,2.32-0.48c0.92,0,1.68,0.2,2.23,0.53c0.56,0.33,0.83,0.76,0.83,1.31c0,0.35-0.1,0.84-0.26,1.49
		c-0.82,0.25-2.44,0.48-4.86,0.74c-2.73,0.27-4.85,0.6-6.43,0.96c-1.59,0.36-2.94,1.04-4.03,2.06c-1.08,1.01-1.62,2.48-1.62,4.42
		c0,1.7,0.62,3.22,1.84,4.51c1.21,1.29,3.18,1.93,5.95,1.93c2.71,0,5.16-1.01,7.35-3.02c0,0.8,0.12,1.63,0.3,2.49h8.19
		c-0.36-1.03-0.57-2.03-0.57-3.02c0-1.17,0.35-3.23,1.05-6.21c0.76-3.14,1.14-5.41,1.14-6.78c0-2.06-0.73-3.6-2.23-4.68
		C191.1-119.06,188.2-119.6,183.9-119.6L183.9-119.6z M227.17-119.6h0.09l0.92,10.98h-6.21L227.17-119.6z M271.09-119.6
		c-1.18,0-2.24,0.31-3.24,0.96c-1,0.66-2.15,1.95-3.46,3.89l-0.09-0.09l0.97-4.29h-7.84l-4.68,21.83h8.44l1.71-8.14
		c0.54-2.54,1.32-4.41,2.32-5.56c1-1.16,2.33-1.75,3.94-1.75c0.5,0,1.06,0.11,1.71,0.26l3.1-6.47
		C272.95-119.38,271.99-119.6,271.09-119.6L271.09-119.6z M65.73-119.12l-2.54,11.68c-0.57,2.67-0.87,4.53-0.87,5.47
		c0,1.44,0.49,2.65,1.48,3.68c1,1.02,2.5,1.53,4.51,1.53c3.34,0,6.17-1.32,8.44-3.94l0.09,0.09l-0.75,3.33h7.88l4.68-21.83h-8.44
		l-2.05,9.45c-0.47,2.16-1.13,3.83-2.06,4.99c-0.92,1.15-2.02,1.75-3.28,1.75c-1.08,0-1.62-0.62-1.62-1.79v-0.04
		c0-0.38,0-0.71,0.04-0.96c0.04-0.25,0.24-1.15,0.57-2.71l2.32-10.68L65.73-119.12z M244.89-119.12l-4.68,21.83h8.4l4.73-21.83
		H244.89z M101.74-114c0.84,0,1.58,0.33,2.23,0.96c0.66,0.64,0.96,1.57,0.96,2.84c0,1.82-0.39,3.6-1.23,5.34
		c-0.83,1.74-2.04,2.58-3.58,2.58c-0.85,0-1.53-0.32-2.06-0.96c-0.52-0.65-0.78-1.57-0.78-2.8c0-2.19,0.44-4.08,1.31-5.64
		C99.47-113.24,100.52-114,101.74-114L101.74-114z M128.94-114c0.84,0,1.57,0.33,2.23,0.96c0.65,0.64,0.97,1.57,0.97,2.84
		c0,1.82-0.4,3.6-1.23,5.34c-0.84,1.74-2.04,2.58-3.59,2.58c-0.85,0-1.53-0.32-2.05-0.96c-0.52-0.65-0.79-1.57-0.79-2.8
		c0-2.19,0.44-4.08,1.32-5.64C126.68-113.24,127.73-114,128.94-114L128.94-114z M42.01-109.93h5.03c1.56,0,2.6,0.27,3.11,0.74
		c0.51,0.47,0.78,1.1,0.78,1.93c0,2.34-1.78,3.5-5.29,3.5h-5L42.01-109.93z M185.6-107.04c-0.36,2.1-1.02,3.56-2.05,4.42
		c-1.04,0.86-2.09,1.31-3.15,1.31c-0.76,0-1.4-0.21-1.88-0.61c-0.49-0.41-0.7-0.96-0.7-1.66c0-0.67,0.34-1.26,1-1.75
		C179.5-105.83,181.74-106.4,185.6-107.04z"/>
	<path class="uec9f699" d="M-44.27-105.08c0,0,0.34-8.42,6.26-8.42c5.92,0,9.56,7.63,16.74,7.63c7.17,0,9.11-15.83,10.14-20.04
		c1.03-4.22,7.74-28.93,38.27-28.93c0,0-24.15,14.13-24.15,42.83s33.15,35.31,36.67,35.31c0,0-7.52,0.91-13.09,0.91
		c-5.58,0-17.32-1.48-25.4-8.31c-8.09-6.84-18-6.14-22.44-2.96C-21.26-87.08-34.35-113.64-44.27-105.08"/>
</g>
</svg>
