<?xml version="1.0" encoding="utf-8"?>
<!-- Generator: Adobe Illustrator 25.3.1, SVG Export Plug-In . SVG Version: 6.00 Build 0)  -->
<svg version="1.1" id="Layer_1" xmlns="http://www.w3.org/2000/svg" xmlns:xlink="http://www.w3.org/1999/xlink" x="0px" y="0px"
	 viewBox="0 0 98.99 80" style="enable-background:new 0 0 98.99 80;" xml:space="preserve">
<style type="text/css">
	.ge2d8297{fill:#ED4138;}
	.d14bdcc4{fill:#00693A;}
	.h8f9b7de{fill:#DF1804;}
	.pf13c7a4{fill:#214078;}
	.kae12262{fill:#3487C7;}
	.iab4277f{fill:url(#SVGID_1_);}
	.r34ca817{fill:url(#SVGID_2_);}
	.g68c0424{fill:#184A8A;}
	.pc8718d1{fill:url(#SVGID_3_);}
	.s267dbb2{fill:url(#SVGID_4_);}
	.hfe7150b{fill:url(#SVGID_5_);}
	.d14bdcc41{fill:url(#SVGID_6_);}
	.ef5284e2{fill:#9E8266;}
	.m242eddc{fill:#322E26;}
	.d14bdcc44{fill:#332F27;}
	.lf844a7d{fill:#791722;}
	.tb5cee77{fill:url(#SVGID_7_);}
	.b25ecf64{fill:url(#SVGID_8_);}
	.bc846d83{fill:url(#SVGID_9_);}
	.t93ff1b2{fill:url(#SVGID_10_);}
	.pbd7f4e0{fill:url(#SVGID_11_);}
	.d7e158d0{fill:url(#SVGID_12_);}
	.h8f9b7de2{fill:url(#SVGID_13_);}
	.h8f9b7de3{fill:url(#SVGID_14_);}
	.hfa2b8a4{fill:url(#SVGID_15_);}
	.h8f9b7de5{fill:url(#SVGID_16_);}
	.c1085651{fill:url(#SVGID_17_);}
	.h8f9b7de7{fill:url(#SVGID_18_);}
	.eaa30e4b{fill:url(#SVGID_19_);}
	.b20809fc{fill:url(#SVGID_20_);}
	.bc752a53{fill:url(#SVGID_21_);}
	.a130a5e3{fill:#222325;}
	.r85850f7{fill:#A0925A;}
	.ca95a6e5{fill:#061E34;}
	.xb2c2fc1{fill:#028E8F;}
	.j4da2ab7{fill:#D5192C;}
	.w52fddba{fill:#FAC201;}
	.m21db423{fill:url(#SVGID_22_);}
	.g5aa396e{fill:url(#SVGID_23_);}
	.xb09aa81{fill:url(#SVGID_24_);}
	.wf684e1b{fill:url(#SVGID_25_);}
	.pfaf237f{fill:#9F8A58;}
	.rfaa36a8{fill:#749ED4;}
	.jc2b66d8{fill:#045991;}
	.v25af6f1{fill:#1F9A8D;}
	.vda93df3{fill:#222D68;}
	.u27e3881{fill:#14152E;}
	.r4f0b345{fill:#62B3E4;}
	.x247ef6d{fill:#FEFEFE;}
	.e9775c5e{fill:none;}
	.iab4277f0{fill:#FC0302;}
	.rf0f92fa{fill:#FE0807;}
	.oeb3f27a{fill:#98684C;}
	.u07962ec{fill:#86754D;}
	.wb1263c4{fill:#42484D;}
	.u6ef2135{fill:#41474C;}
	.iab4277f6{fill:#43494D;}
	.iab4277f7{fill:#DF073D;}
	.iab4277f8{fill:#DE023A;}
	.s1c37d1e{fill:#FFFFFF;}
	.fc9f8e04{fill:#6F6E6C;}
	.tc1db435{fill:#072F67;}
	.lda81c89{fill:#53A220;}
	.o3e2633d{fill:#FDC013;}
	.w7740df1{fill:url(#SVGID_26_);}
	.d68aa00d{fill:url(#SVGID_27_);}
	.e42b1136{fill:url(#SVGID_28_);}
	.edee4e05{fill:#793A98;}
	.wbc021ea{fill:url(#SVGID_29_);}
	.j87e9b70{fill:url(#SVGID_30_);}
	.g68c04240{fill:url(#SVGID_31_);}
	.t0fb3e58{fill:url(#SVGID_32_);}
	.z57edf32{fill:url(#SVGID_33_);}
</style>
<path class="lf844a7d" d="M0.53,25.03c4.44-3.07,8.87-6.15,13.32-9.21c6.75-4.64,13.51-9.26,20.26-13.9c1.2-0.83,2.36-1.45,3.95-1.45
	C57.63,0.53,77.2,0.51,96.76,0.52c0.35,0,0.71,0.1,1.38,0.2c-1.67,3.8-3.31,7.5-4.92,11.2c-6.1,13.96-12.25,27.9-18.23,41.9
	c-1.06,2.47-2.59,4.09-4.85,5.47c-11.11,6.76-22.12,13.66-33.47,20.34c3.38-9.11,7.43-17.91,11.3-26.79
	c3.87-8.9,7.75-17.79,11.77-27.01c-19.87,0-39.48,0-59.08,0C0.61,25.56,0.57,25.3,0.53,25.03z"/>
</svg>
