<?xml version="1.0" encoding="utf-8"?>
<!-- Generator: Adobe Illustrator 25.4.1, SVG Export Plug-In . SVG Version: 6.00 Build 0)  -->
<svg version="1.1" id="Layer_1" xmlns="http://www.w3.org/2000/svg" xmlns:xlink="http://www.w3.org/1999/xlink" x="0px" y="0px"
	 viewBox="0 0 424.4 80" style="enable-background:new 0 0 424.4 80;" xml:space="preserve">
<style type="text/css">
	.i45d3f3a{fill:#E5231B;}
	.c5d342e7{fill:#F5A488;}
</style>
<g>
	<path class="i45d3f3a" d="M61.3,16c0,0,5.5,3.8,5.5,18.3s3.6,18.6,4.9,18.6c1.2,0,3.7-9.6,14.2-9.6s17.8,16.8,21.6,16.8
		s23.9-31.5,26.8-31.5c2.9,0-9,46.5-27.7,46.5c-17.6,0-16.2-20.9-21.9-15.2c-5.7,5.7-5.6,11-12.6,11c-6.7,0-16.6-7.6-16.6-29.6
		C55.3,19.3,59.9,16,61.3,16z"/>
	<path class="i45d3f3a" d="M189.8,48.6c-0.4-0.6-0.8-1.2-1-1.7l0,0c0,0-5.3-8.9-10-12.7c-4.8-3.8-15.9,2.3-18.7,5.8
		c-2.5,3.1-11,15.7-15.4,15.7s4.1-15.1,21.2-22.3c0,0,5-1.9,13.4-1.9c0,0,5,0.1,3.3-2.4c-1.1-1.4-5-5.5-16.2-5.5
		c-13.6,0-35.8,11.4-35.8,31.7s22,19.5,32.4,3.4c10.1-15.5,9.7-15.5,19.8-4.4c8,8.8,17.2,7.9,19.1,6.8c0.3-0.1,0.1-0.8,0.1-0.9
		C202.1,59.2,194.2,55,189.8,48.6z"/>
	<path class="i45d3f3a" d="M53,64c-10.8,5-22.8,4.8-23.6,4.8c-0.8,0-2.3,0-2.3-0.2s0.2-0.2,0.2-0.2C56.4,61.9,58,27.9,36,31
		C5.7,35.2,7.7,59.1,7.7,59.1c-6.2,1.7-7.6,6.6-7.6,6.6c-1,3.6,10,4.1,10,4.1c7.8,13.3,21.3,11,32.4,7.8C55.6,73.8,63.8,59,53,64z
		 M23.3,53.3c0,0,7.7-11.4,12.3-7.4C39.8,49.6,24.6,54.2,23.3,53.3z"/>
	<path class="i45d3f3a" d="M145.3,75.3c0,0,8.1,0.3,16.6-4.7c8.5-5.1,15.5-9.4,21.8-9.4c6.3,0,3.3,3.9-10.8,10.2
		c-14.1,6.2-22.3,7.2-29.7,7.2c-7.4,0-13-4.5-13.9-5.8c-0.9-1.3,1.3-1.1,3.1,0C134.2,73.7,139.7,75.3,145.3,75.3z"/>
	<path class="i45d3f3a" d="M226.3,52.8c0,0,1.4-1.8,7.1,0.6s26.5,8.3,44.3,8.3c17.8,0,43.9-8.6,60.4-21.2s58-35.4,77.4-35.4
		c19.4,0,3.5,8.6-11.9,19.7C388,36,325.4,71.1,277.4,71.1C235.8,71.1,225.8,53.2,226.3,52.8z"/>
	<path class="c5d342e7" d="M244.8,48.8c0,0,0.8-1.3,4.8-0.2c4,1.1,18.5,3.4,30.4,1.9C291.9,49,308.7,41,318.7,31
		c10-10,35.9-29.1,48.9-30.7c13-1.6,3.1,5.6-6.3,14.5c-9.4,8.9-48.4,38.2-80.6,42.2C252.7,60.5,244.4,49.1,244.8,48.8z"/>
</g>
</svg>
