<svg xmlns="http://www.w3.org/2000/svg" width="210.567" height="38" viewBox="0 0 210.567 38"><g transform="translate(1376.146 3934.746)"><path d="M511.193-460.475a16.631,16.631,0,0,0-15.1,14.458c-.058.529-.091,4.657-.091,12v11.188h8.662l.026-11.3.026-11.287.19-.661a8.133,8.133,0,0,1,6.168-5.59,11.281,11.281,0,0,1,3.8,0,8.077,8.077,0,0,1,6.077,5.342l.2.578.026,11.461.016,11.452h8.752v-11.007c0-11.3-.016-12.072-.339-13.657a16.39,16.39,0,0,0-8.868-11.254,16.856,16.856,0,0,0-5.078-1.61A25.25,25.25,0,0,0,511.193-460.475Z" transform="translate(-1831.23 -3474.18)" fill="#1f1f1f"/><path d="M961.224-460.508a18.894,18.894,0,0,0-8.6,3.046,19.516,19.516,0,0,0-5.764,5.987,18.311,18.311,0,0,0-2.708,9.091,18.374,18.374,0,0,0,1.866,8.918,18.894,18.894,0,0,0,13.442,10.329,23.874,23.874,0,0,0,6.061.156,18.891,18.891,0,0,0,13.335-8.422,16.588,16.588,0,0,0,1.544-3.022c-.074-.058-7.819-3.295-7.9-3.295a2.223,2.223,0,0,0-.305.521,10.446,10.446,0,0,1-7.01,5.467,12.664,12.664,0,0,1-3.807.091,9.962,9.962,0,0,1-5.673-3.005,10.093,10.093,0,0,1-2.535-9.718,10.489,10.489,0,0,1,6.523-6.969,10.709,10.709,0,0,1,6.746.041,10.494,10.494,0,0,1,5.07,3.963l.462.694.264-.156c.14-.083,1.816-1.015,3.723-2.073s3.484-1.932,3.493-1.949a9.142,9.142,0,0,0-1.577-2.543,19.165,19.165,0,0,0-12.113-7.018,26.031,26.031,0,0,0-4.532-.134Z" transform="translate(-2242.363 -3474.156)" fill="#1f1f1f"/><path d="M1891.574-460.909a16.453,16.453,0,0,0-8.546,3.5,21.462,21.462,0,0,0-2.783,2.906,16.3,16.3,0,0,0-3.154,7.968q-.086.805-.091,12.039v11.229h8.662l.026-11.337.026-11.329.182-.661a9.184,9.184,0,0,1,1.51-2.906,7.511,7.511,0,0,1,4.83-2.708c.273-.026.619-.066.768-.091l.264-.041V-461l-.471.008C1892.532-460.984,1891.986-460.951,1891.574-460.909Z" transform="translate(-3098.201 -3473.746)" fill="#1f1f1f"/><path d="M2109.838-460.774a19.228,19.228,0,0,0-9.834,4.194,18.71,18.71,0,0,0-6.7,11.527,19.65,19.65,0,0,0,.719,9.042,19,19,0,0,0,15.68,12.807,26.912,26.912,0,0,0,4.542-.008,18.943,18.943,0,0,0,13.475-8.34,15.142,15.142,0,0,0,1.082-1.858c-.016-.016-1.99-.529-4.4-1.131l-4.376-1.115-.784.8a10.114,10.114,0,0,1-7.258,3.055,9.656,9.656,0,0,1-5.624-1.676,12.658,12.658,0,0,1-2.865-2.882,10.971,10.971,0,0,1-1.222-2.485l-.058-.223h28.4l.05-.273a19.7,19.7,0,0,0,.042-5.053,18.873,18.873,0,0,0-6.589-12.031,18.745,18.745,0,0,0-10.156-4.36A28.709,28.709,0,0,0,2109.838-460.774Zm4.12,8.785a10.029,10.029,0,0,1,4.987,2.609,8.029,8.029,0,0,1,1.371,1.585c0,.033-3.773.058-8.389.058h-8.389l.273-.355a15.184,15.184,0,0,1,2.56-2.4,10.127,10.127,0,0,1,4.244-1.618,14.259,14.259,0,0,1,3.344.118Z" transform="translate(-3296.434 -3473.882)" fill="#1f1f1f"/><path d="M1399.671-458.846a19.283,19.283,0,0,0-6.4,1.585,18.984,18.984,0,0,0-9.207,8.885,17.862,17.862,0,0,0-1.916,7.68,18.409,18.409,0,0,0,1.866,8.918,18.81,18.81,0,0,0,14.458,10.494,27.386,27.386,0,0,0,5.136-.016,18.974,18.974,0,0,0,16.175-16.382,25.273,25.273,0,0,0-.041-5,19.022,19.022,0,0,0-10.66-14.418A19.3,19.3,0,0,0,1399.671-458.846Zm2.593,8.736a10.335,10.335,0,0,1,8.6,7.357,11.562,11.562,0,0,1,.049,5.259,9.342,9.342,0,0,1-2.651,4.566,9.5,9.5,0,0,1-7.266,3.088,9.906,9.906,0,0,1-6.9-2.708,10.138,10.138,0,0,1-2.923-10.131,10.535,10.535,0,0,1,4.88-6.234,10.145,10.145,0,0,1,4.038-1.238,10.457,10.457,0,0,1,2.18.041Z" transform="translate(-2644.199 -3475.677)" fill="#1f1f1f"/><path d="M17.2-457.774a19.229,19.229,0,0,0-9.834,4.194A18.73,18.73,0,0,0,.625-441.8a29.093,29.093,0,0,0-.091,5.02l.074.553H19.294c17.728,0,18.693-.008,18.735-.149.026-.074.083-.644.14-1.255a18.84,18.84,0,0,0-1.734-9.372,19.061,19.061,0,0,0-6.853-7.81,18.165,18.165,0,0,0-8.257-2.964,28.7,28.7,0,0,0-4.129.009Zm4.12,8.787a10.029,10.029,0,0,1,4.987,2.609,8.033,8.033,0,0,1,1.371,1.585c0,.033-3.773.058-8.389.058H10.9l.273-.355a15.2,15.2,0,0,1,2.56-2.4,10.127,10.127,0,0,1,4.244-1.618,14.257,14.257,0,0,1,3.344.116Z" transform="translate(-1376.612 -3476.634)" fill="#1f1f1f"/><path d="M35.905-156.067C33.758-155.06,32-154.209,32-154.176a18.44,18.44,0,0,0,1.767,2.518A18.953,18.953,0,0,0,46-145.019a26.908,26.908,0,0,0,4.541-.008,18.943,18.943,0,0,0,13.475-8.34,15.167,15.167,0,0,0,1.082-1.858c-.016-.016-1.99-.528-4.4-1.131l-4.378-1.115-.784.8a10.114,10.114,0,0,1-7.257,3.055,9.657,9.657,0,0,1-5.623-1.676,15.592,15.592,0,0,1-2.494-2.337c-.107-.156-.223-.273-.273-.273S38.044-157.074,35.905-156.067Z" transform="translate(-1405.543 -3751.819)" fill="#1f1f1f"/></g></svg>