<?xml version="1.0" encoding="utf-8"?>
<!-- Generator: Adobe Illustrator 25.4.1, SVG Export Plug-In . SVG Version: 6.00 Build 0)  -->
<svg version="1.1" id="Layer_1" xmlns="http://www.w3.org/2000/svg" xmlns:xlink="http://www.w3.org/1999/xlink" x="0px" y="0px"
	 viewBox="0 0 75.27 80" style="enable-background:new 0 0 75.27 80;" xml:space="preserve">
<style type="text/css">
	.eb9a3fdf{fill:#0299D2;}
</style>
<path class="eb9a3fdf" d="M75.27,36.16c0-11.63-2.92-20.56-8.75-26.79C60.68,3.12,51.98,0,40.4,0C27.65,0,17.73,3.68,10.63,11.05
	C3.54,18.41,0,28.26,0,40.6c0,12.61,3.8,22.34,11.41,29.17C19.02,76.59,29.96,80,44.23,80l0,0c3.91,0,7.22-0.19,9.93-0.58
	c2.72-0.38,5.35-0.9,7.91-1.58c2.79-0.67,4.97-1.33,6.57-1.98c1.6-0.65,3.36-1.36,5.29-2.12V54.27h-2.49
	c-1.04,0.76-2.38,1.64-4.02,2.62c-1.63,0.99-3.41,1.91-5.35,2.76c-2.19,0.99-4.62,1.79-7.27,2.4c-2.65,0.6-5.34,0.9-8.07,0.9
	c-3.19,0-6.13-0.3-8.83-0.9c-2.7-0.61-5.05-1.61-7.07-3c-2.07-1.39-3.73-3.26-4.98-5.61c-1.26-2.36-2-5.29-2.22-8.8h51.64V36.16z
	 M23.57,30.45c0.27-4.72,1.69-8.45,4.27-11.19c2.59-2.74,6.17-4.11,10.75-4.11c4.49,0,7.82,1.3,9.99,3.9
	c2.18,2.61,3.33,6.4,3.47,11.39L23.57,30.45z"/>
</svg>
