<?xml version="1.0" encoding="utf-8"?>
<!-- Generator: Adobe Illustrator 25.4.1, SVG Export Plug-In . SVG Version: 6.00 Build 0)  -->
<svg version="1.1" id="Layer_1" xmlns="http://www.w3.org/2000/svg" xmlns:xlink="http://www.w3.org/1999/xlink" x="0px" y="0px"
	 viewBox="0 0 118.3 80" style="enable-background:new 0 0 118.3 80;" xml:space="preserve">
<style type="text/css">
	.tc018654{fill:#0E4CA1;}
	.v03ef458{fill:#AED6E2;}
</style>
<g>
	<path class="tc018654" d="M116,0c0,7.2-4.7,10.4-8.7,11.8c-2.8,1-5.1,1.1-5.1,1.1h-75l-3.6,14.5h58.8c0,0.3,0,0.5,0,0.8
		c-0.3,7.8-5.4,10.5-8.2,11.4c-1,0.3-1.7,0.4-1.7,0.4H21.2l-3.6,16.6h36.7c0,0.4,0,0.7,0,1.1c-0.4,5.2-3.3,8.2-6.2,9.9
		c-3,1.8-5.9,2.1-5.9,2.1H0L14.3,0H116z"/>
	<path class="v03ef458" d="M55.5,67.6c0,12-13.8,12.4-13.8,12.4H1.3L4,69.7H42c0,0,2.9-0.4,5.9-2.1H55.5z"/>
	<path class="v03ef458" d="M84,39.6c-1.6,18.5-12.3,18.1-12.3,18.1H54.2c0-0.4,0-0.7,0-1.1H17.5L21.2,40h51.3c0,0,0.7-0.1,1.7-0.4H84z"/>
	<path class="v03ef458" d="M118.3,11.8c0,14.9-16,16.4-16,16.4H82.4c0-0.3,0-0.5,0-0.8H23.6l3.6-14.5h75c0,0,2.4-0.1,5.1-1.1H118.3z"/>
</g>
</svg>
