<?xml version="1.0" encoding="utf-8"?>
<!-- Generator: Adobe Illustrator 25.4.1, SVG Export Plug-In . SVG Version: 6.00 Build 0)  -->
<svg version="1.1" id="Layer_1" xmlns="http://www.w3.org/2000/svg" xmlns:xlink="http://www.w3.org/1999/xlink" x="0px" y="0px"
	 viewBox="0 0 80 80" style="enable-background:new 0 0 80 80;" xml:space="preserve">
<style type="text/css">
	.idf0a2d9{fill:#35B0E2;}
	.a98596d0{fill:#FFFFFF;}
</style>
<path class="idf0a2d9" d="M75,80H5c-2.76,0-5-2.24-5-5V5c0-2.76,2.24-5,5-5h70c2.76,0,5,2.24,5,5v70C80,77.76,77.76,80,75,80z"/>
<path class="a98596d0" d="M41.4,15.14c0,0,1.33,10.39,0.5,15.63S40.24,38.5,38.41,41s-3.91,8.81-3.91,11.72c0,2.91-0.14,6.07,3.84,12.14
	c0,0-1.46-7.23,0-12.78s3-8.54,3.84-10.25c0.84-1.72,3.33-5.99,3.33-11.14S45.39,22.54,41.4,15.14z"/>
</svg>
