<?xml version="1.0" encoding="utf-8"?>
<!-- Generator: Adobe Illustrator 25.4.1, SVG Export Plug-In . SVG Version: 6.00 Build 0)  -->
<svg version="1.1" id="Layer_1" xmlns="http://www.w3.org/2000/svg" xmlns:xlink="http://www.w3.org/1999/xlink" x="0px" y="0px"
	 viewBox="0 0 123.06 80" style="enable-background:new 0 0 123.06 80;" xml:space="preserve">
<style type="text/css">
	.p5d01364{fill:url(#SVGID_1_);}
	.s00cb7d8{fill:url(#SVGID_00000134942011494091413680000012205469267769487274_);}
	.s175d227{fill:url(#SVGID_00000101818128072090662400000011666094953398343606_);}
	.uf30efd2{fill:url(#SVGID_00000177461814329226873800000013118967890716529599_);}
	.u686c177{fill:url(#SVGID_00000119798236094563244280000010760427421817319040_);}
	.t495fa26{fill:url(#SVGID_00000176010943871470889100000015878557794065929871_);}
	.n9b67de6{fill:url(#SVGID_00000165225661685912599350000011336686315596830104_);}
	.g0c6b650{fill:url(#SVGID_00000023276692715635560580000000657697950894627262_);}
</style>
<g>
	<linearGradient id="SVGID_1_" gradientUnits="userSpaceOnUse" x1="7.5645" y1="45.7084" x2="114.9986" y2="57.833">
		<stop  offset="0.1795" style="stop-color:#76572F"/>
		<stop  offset="0.2729" style="stop-color:#644A2F"/>
		<stop  offset="0.3629" style="stop-color:#8C7450"/>
		<stop  offset="0.4602" style="stop-color:#D8C6A7"/>
		<stop  offset="1" style="stop-color:#7A4F32"/>
	</linearGradient>
	<path class="p5d01364" d="M94.74,23.02C83,21.76,50.54,14.16,32.35,33.27C14.17,52.37,0,80,0,80h4.61c0,0,6.33-22.45,21.87-33.61
		C42.02,35.22,55.37,32.92,65.62,33.5c10.24,0.58,24.06,0.35,32.35-2.99c0,0-14.39,0.46-25.21-1.15
		c-10.82-1.61-32.92-0.69-48.23,15.77c0,0,11.05-15.88,29.12-18.65c18.07-2.76,41.55,0.46,50.53,0.69
		c8.98,0.23,18.88-3.57,18.88-3.57S106.48,24.29,94.74,23.02z"/>
	
		<linearGradient id="SVGID_00000144319460205883033370000009907313849145985979_" gradientUnits="userSpaceOnUse" x1="7.1134" y1="49.706" x2="114.5474" y2="61.8307">
		<stop  offset="0.1795" style="stop-color:#76572F"/>
		<stop  offset="0.2729" style="stop-color:#644A2F"/>
		<stop  offset="0.3629" style="stop-color:#8C7450"/>
		<stop  offset="0.4602" style="stop-color:#D8C6A7"/>
		<stop  offset="1" style="stop-color:#7A4F32"/>
	</linearGradient>
	<path style="fill:url(#SVGID_00000144319460205883033370000009907313849145985979_);" d="M26.65,49.67c0,0,5.81-0.23,7.88,1.21
		c2.07,1.44,1.61,8.06,1.61,8.06s6.33-7.65,2.88-10.82S26.65,49.67,26.65,49.67z"/>
	
		<linearGradient id="SVGID_00000103238925741535517330000004594577059211197575_" gradientUnits="userSpaceOnUse" x1="8.0908" y1="41.0454" x2="115.5248" y2="53.1701">
		<stop  offset="0.1795" style="stop-color:#76572F"/>
		<stop  offset="0.2729" style="stop-color:#644A2F"/>
		<stop  offset="0.3629" style="stop-color:#8C7450"/>
		<stop  offset="0.4602" style="stop-color:#D8C6A7"/>
		<stop  offset="1" style="stop-color:#7A4F32"/>
	</linearGradient>
	<path style="fill:url(#SVGID_00000103238925741535517330000004594577059211197575_);" d="M48.99,42.13
		c-7.65-1.5-17.9,3.91-18.24,4.03c0,0,11.34-1.61,16.46-1.21c5.12,0.4,11.34,5.36,11.34,5.36S56.64,43.63,48.99,42.13z"/>
	
		<linearGradient id="SVGID_00000014595142740188629990000000600085244563727502_" gradientUnits="userSpaceOnUse" x1="8.7161" y1="35.5046" x2="116.1501" y2="47.6293">
		<stop  offset="0.1795" style="stop-color:#76572F"/>
		<stop  offset="0.2729" style="stop-color:#644A2F"/>
		<stop  offset="0.3629" style="stop-color:#8C7450"/>
		<stop  offset="0.4602" style="stop-color:#D8C6A7"/>
		<stop  offset="1" style="stop-color:#7A4F32"/>
	</linearGradient>
	<path style="fill:url(#SVGID_00000014595142740188629990000000600085244563727502_);" d="M78.57,39.77
		c-6.79-0.63-12.66-3.68-23.42-3.51c-10.76,0.17-21.12,7.02-21.12,7.02s10.62-5.04,20.55-4.26c6.43,0.51,10.94,1.55,19.34,2.36
		c8.4,0.81,13.41-1.62,13.41-1.62S85.36,40.4,78.57,39.77z"/>
	
		<linearGradient id="SVGID_00000087383019402527292130000013217464541715331738_" gradientUnits="userSpaceOnUse" x1="9.3773" y1="29.6462" x2="116.8113" y2="41.7709">
		<stop  offset="0.1795" style="stop-color:#76572F"/>
		<stop  offset="0.2729" style="stop-color:#644A2F"/>
		<stop  offset="0.3629" style="stop-color:#8C7450"/>
		<stop  offset="0.4602" style="stop-color:#D8C6A7"/>
		<stop  offset="1" style="stop-color:#7A4F32"/>
	</linearGradient>
	<path style="fill:url(#SVGID_00000087383019402527292130000013217464541715331738_);" d="M24.29,27.63
		c1.5-4.03,5.93-4.89,5.93-4.89s-7.19-1.73-9.21,4.32s2.19,13.47,2.19,13.47S22.8,31.65,24.29,27.63z"/>
	
		<linearGradient id="SVGID_00000035497757255730111580000012105744013382139557_" gradientUnits="userSpaceOnUse" x1="9.5497" y1="28.1186" x2="116.9837" y2="40.2433">
		<stop  offset="0.1795" style="stop-color:#76572F"/>
		<stop  offset="0.2729" style="stop-color:#644A2F"/>
		<stop  offset="0.3629" style="stop-color:#8C7450"/>
		<stop  offset="0.4602" style="stop-color:#D8C6A7"/>
		<stop  offset="1" style="stop-color:#7A4F32"/>
	</linearGradient>
	<path style="fill:url(#SVGID_00000035497757255730111580000012105744013382139557_);" d="M27.52,25.96
		c-4.32,5.12-3.17,12.55-3.17,12.55s1.15-4.6,3.97-9.67c2.82-5.06,7.77-6.33,7.77-6.33S31.83,20.83,27.52,25.96z"/>
	
		<linearGradient id="SVGID_00000105393829313648304630000000480923312857079435_" gradientUnits="userSpaceOnUse" x1="9.6686" y1="27.0648" x2="117.1026" y2="39.1895">
		<stop  offset="0.1795" style="stop-color:#76572F"/>
		<stop  offset="0.2729" style="stop-color:#644A2F"/>
		<stop  offset="0.3629" style="stop-color:#8C7450"/>
		<stop  offset="0.4602" style="stop-color:#D8C6A7"/>
		<stop  offset="1" style="stop-color:#7A4F32"/>
	</linearGradient>
	<path style="fill:url(#SVGID_00000105393829313648304630000000480923312857079435_);" d="M26.88,36.25c0,0,3.68-4.65,6.16-7.53
		c2.47-2.88,7.54-5.41,7.54-5.41s-3.97-0.06-8.35,3.63C27.86,30.62,26.88,36.25,26.88,36.25z"/>
	
		<linearGradient id="SVGID_00000105384733873056894650000012015365259224276880_" gradientUnits="userSpaceOnUse" x1="12.0281" y1="6.1575" x2="119.4621" y2="18.2822">
		<stop  offset="0.1795" style="stop-color:#76572F"/>
		<stop  offset="0.2729" style="stop-color:#644A2F"/>
		<stop  offset="0.3629" style="stop-color:#8C7450"/>
		<stop  offset="0.4602" style="stop-color:#D8C6A7"/>
		<stop  offset="1" style="stop-color:#7A4F32"/>
	</linearGradient>
	<path style="fill:url(#SVGID_00000105384733873056894650000012015365259224276880_);" d="M72.75,7.6
		c-5.24,5.99-13.81,8.98-13.81,8.98C65.39,9.84,63.03,0,63.03,0s0.58,5.01-1.96,10.01c-2.53,5.01-7.31,7.42-7.31,7.42
		c5.05-5.79,1.32-13.01,1.32-13.01s1.04,5.12-1.9,9.73c-2.94,4.6-8,7.65-8,7.65C66.42,20.78,72.75,7.6,72.75,7.6z"/>
</g>
</svg>
