<?xml version="1.0" encoding="utf-8"?>
<!-- Generator: Adobe Illustrator 25.3.1, SVG Export Plug-In . SVG Version: 6.00 Build 0)  -->
<svg version="1.1" id="Layer_1" xmlns="http://www.w3.org/2000/svg" xmlns:xlink="http://www.w3.org/1999/xlink" x="0px" y="0px"
	 viewBox="0 0 80 80" style="enable-background:new 0 0 80 80;" xml:space="preserve">
<style type="text/css">
	.lcbc9552{fill:#ED4138;}
	.i2df8685{fill:#00693A;}
	.z76fed81{fill:#DF1804;}
	.if947afb{fill:#214078;}
	.l0a0b174{fill:#3487C7;}
	.u3afd34d{fill:url(#SVGID_1_);}
	.se53e26f{fill:url(#SVGID_2_);}
	.x07eab2d{fill:#184A8A;}
	.k08e2a13{fill:url(#SVGID_3_);}
	.xe5147e6{fill:url(#SVGID_4_);}
	.y26afe9d{fill:url(#SVGID_5_);}
	.i2df86851{fill:url(#SVGID_6_);}
	.e610c1c5{fill:#9E8266;}
	.nac30142{fill:#322E26;}
	.i2df86854{fill:#332F27;}
	.r7293d20{fill:#791722;}
	.of30c1d1{fill:url(#SVGID_7_);}
	.tba10345{fill:url(#SVGID_8_);}
	.weacd9ca{fill:url(#SVGID_9_);}
	.x27475d0{fill:url(#SVGID_10_);}
	.e09543bc{fill:url(#SVGID_11_);}
	.s4c707f4{fill:url(#SVGID_12_);}
	.z76fed812{fill:url(#SVGID_13_);}
	.z76fed813{fill:url(#SVGID_14_);}
	.v6729686{fill:url(#SVGID_15_);}
	.z76fed815{fill:url(#SVGID_16_);}
	.e99da16b{fill:url(#SVGID_17_);}
	.z76fed817{fill:url(#SVGID_18_);}
	.q201d456{fill:url(#SVGID_19_);}
	.v86a0233{fill:url(#SVGID_20_);}
	.aa7fcb6b{fill:url(#SVGID_21_);}
	.f3ba9e34{fill:#222325;}
	.pe06a78a{fill:#A0925A;}
	.k60825f6{fill:#061E34;}
	.oee6d837{fill:#028E8F;}
	.rb6a9dd2{fill:#D5192C;}
	.xd984ece{fill:#FAC201;}
	.i4fc9890{fill:url(#SVGID_22_);}
	.y1fb96f4{fill:url(#SVGID_23_);}
	.jc38a8a4{fill:url(#SVGID_24_);}
	.yc1a936a{fill:url(#SVGID_25_);}
	.j9cdcdc2{fill:#9F8A58;}
	.v80c3ad9{fill:#749ED4;}
	.nca50a17{fill:#045991;}
	.qf751105{fill:#1F9A8D;}
	.a7552e29{fill:#222D68;}
	.m9f1fd88{fill:#14152E;}
	.t78cd4be{fill:#62B3E4;}
	.hbdbfe39{fill:#FEFEFE;}
	.t558bfb3{fill:none;}
	.u3afd34d0{fill:#FC0302;}
	.t41d8c53{fill:#FE0807;}
	.m65f3f4d{fill:#98684C;}
	.uf59db15{fill:#86754D;}
	.uf63d773{fill:#42484D;}
	.le498104{fill:#41474C;}
	.u3afd34d6{fill:#43494D;}
	.u3afd34d7{fill:#DF073D;}
	.u3afd34d8{fill:#DE023A;}
	.of28f18c{fill:#FFFFFF;}
	.x7b33842{fill:#6F6E6C;}
	.mf53090a{fill:#072F67;}
	.saaa3579{fill:#53A220;}
	.g1e019cf{fill:#FDC013;}
	.h6c378b3{fill:url(#SVGID_26_);}
	.o7f61355{fill:url(#SVGID_27_);}
	.zddde61e{fill:url(#SVGID_28_);}
	.n683e3fe{fill:#793A98;}
	.l8a73a70{fill:url(#SVGID_29_);}
	.me0cdd62{fill:url(#SVGID_30_);}
	.x07eab2d0{fill:url(#SVGID_31_);}
	.jeb0ff1b{fill:url(#SVGID_32_);}
	.a42746a7{fill:url(#SVGID_33_);}
</style>
<g>
	<path class="u3afd34d0" d="M16.38,35.81c0.03,0.06,0.01,0.11-0.05,0.11c-0.03,0-0.05-0.04-0.08-0.07C16.3,35.84,16.34,35.83,16.38,35.81
		L16.38,35.81z"/>
	<g>
		<path class="t41d8c53" d="M16.39,35.82C16.39,35.81,16.39,35.81,16.39,35.82C16.39,35.81,16.38,35.81,16.39,35.82L16.39,35.82z"/>
		<path class="t41d8c53" d="M65.73,18.61c0.22-0.05,0.23-0.26,0.29-0.41c0.58-1.29,1.1-2.6,1.48-3.96c0.09-0.32,0.17-0.65,0.24-0.97
			c0.07-0.32,0.23-0.62,0.1-0.99c-0.61,1.96-1.34,3.84-2.43,5.57l0.01-0.02c-0.09,0.14-0.18,0.21-0.3,0.02
			c0.1,0,0.15-0.18,0.26-0.05l0-0.01c-0.1-0.21,0.09-0.33,0.09-0.52l0-0.01c0.15-0.19,0.27-0.39,0.28-0.65l0,0
			c0.14-0.07,0.12-0.2,0.11-0.33c0.89-2.18,1.68-4.38,1.94-6.8c-0.36,0.13-0.36,0.4-0.44,0.6c-1.32,3.59-3.15,6.92-5.33,10.05
			c-1.33,1.91-2.76,3.72-4.43,5.34c-0.23,0.22-0.44,0.53-0.87,0.34c0.34-0.41,0.68-0.79,1.01-1.19c0.73-0.89,1.53-1.73,2.1-2.74
			c0.1-0.02,0.13-0.09,0.15-0.18c0.1-0.02,0.14-0.09,0.15-0.18c0.11-0.06,0.16-0.16,0.18-0.27c0.09-0.02,0.13-0.08,0.13-0.17
			l0.01-0.01c0.12-0.05,0.16-0.16,0.18-0.28c0.09-0.02,0.13-0.08,0.13-0.17l0.01-0.01c0.14-0.05,0.15-0.17,0.17-0.29
			c0.09-0.02,0.13-0.08,0.13-0.17c0.49-0.54,0.64-1.29,1.11-1.84c0.09-0.02,0.13-0.08,0.12-0.17c0.04-0.03,0.06-0.06,0.04-0.11
			c0.13-0.07,0.16-0.2,0.18-0.33c0.08-0.04,0.1-0.1,0.09-0.18c0.04-0.01,0.06-0.04,0.04-0.08c0.81-1.39,1.45-2.85,1.82-4.42
			c-0.66,1.38-1.46,2.68-2.17,4.02l0,0c-0.17,0.1-0.31,0.23-0.34,0.43l0,0c-0.18,0.11-0.28,0.29-0.35,0.48
			c-0.08,0.02-0.1,0.08-0.09,0.15c-0.19,0.09-0.29,0.26-0.34,0.45l0,0c-0.09,0.02-0.13,0.07-0.15,0.16
			c-0.09,0.02-0.13,0.07-0.14,0.16c-0.05-0.01-0.09,0.01-0.12,0.05l0.01-0.02c0,0-0.01,0.01-0.01,0.01
			c-0.04-0.23,0.12-0.38,0.23-0.54c1.08-1.68,2.02-3.42,2.88-5.22c0.39-0.82,0.55-1.72,0.96-2.53c0.74-1.8,1.3-3.65,1.47-5.61
			c-0.53,1.77-1.14,3.5-1.83,5.21c-0.05,0.02-0.1,0.04-0.16,0.06c0.07-0.32,0.14-0.64,0.21-0.96c0,0,0,0-0.01,0
			c0.2-0.29,0.3-0.61,0.33-0.96l-0.01-0.04c0.17-0.16,0.16-0.38,0.19-0.59l-0.01-0.03c0.09-0.07,0.1-0.16,0.08-0.27
			c0.64-2.23,1.14-4.49,1.26-6.82c-0.16,0-0.31,0-0.47,0c0.07,0.32-0.09,0.61-0.16,0.9c-0.75,3.39-1.95,6.61-3.68,9.64
			c-0.17,0.31-0.29,0.7-0.87,0.79c0.87-1.56,1.54-3.09,1.66-4.8c0.36-0.63,0.55-1.32,0.63-2.04c-0.45,0.62-0.65,1.35-0.97,2.03
			c-2.21,4.87-5.29,9.16-8.84,13.13c-3.53,3.95-7.42,7.51-11.86,10.7c-0.02-0.69,0.39-0.85,0.66-1.07c1.65-1.37,3.16-2.89,4.69-4.38
			c1.39-1.34,2.59-2.85,3.84-4.32c0.2-0.07,0.25-0.25,0.33-0.42c0.09-0.02,0.13-0.07,0.15-0.16c1.27-1.46,2.31-3.07,3.04-4.87
			c-0.62,0.92-1.29,1.79-1.97,2.65c-0.16,0.21-0.17,0.59-0.57,0.54l-0.01,0c0.12,0.39-0.24,0.46-0.45,0.64
			c-0.02,0.08-0.04,0.16-0.05,0.24c-0.1,0.02-0.14,0.08-0.15,0.17c-0.13,0.03-0.19,0.13-0.22,0.25l-0.01,0
			c-0.22,0.18-0.45,0.35-0.57,0.63l0,0.01c-0.1,0.01-0.15,0.06-0.16,0.16c-0.09,0.01-0.15,0.05-0.16,0.15
			c-0.1,0-0.15,0.05-0.16,0.15c-0.12,0-0.19,0.05-0.21,0.17l-0.02-0.03c0.04-0.03,0.04-0.06,0.01-0.09l0-0.05
			c0.11-0.03,0.17-0.11,0.17-0.22c0.1-0.01,0.14-0.07,0.14-0.17c0.1-0.01,0.14-0.07,0.14-0.16c0.1-0.01,0.14-0.07,0.14-0.17l0,0
			c0.09-0.01,0.13-0.07,0.14-0.16l0.04-0.05c0.1-0.04,0.15-0.11,0.17-0.21c0.09-0.02,0.14-0.08,0.15-0.17
			c0.09-0.02,0.13-0.08,0.14-0.17c0.1-0.01,0.14-0.07,0.14-0.17l0,0c0.1-0.06,0.19-0.11,0.29-0.17c0.02-0.09,0.04-0.19,0.07-0.28
			c0.09-0.01,0.11-0.07,0.11-0.15c0.1-0.02,0.14-0.08,0.14-0.18l0.01-0.01c0.05-0.01,0.07-0.01,0.12-0.01l0.01-0.01
			c0.02-0.09,0.04-0.17,0.06-0.26c0.09-0.02,0.13-0.08,0.14-0.17c0.18-0.1,0.27-0.26,0.32-0.45l-0.04-0.02l0.04,0.01
			c0.18-0.1,0.27-0.27,0.31-0.46l0-0.01c0.15-0.18,0.22-0.35-0.04-0.49c0.3-0.83,0.84-1.52,1.26-2.29c0.13-0.08,0.18-0.2,0.21-0.33
			c0.03-0.05,0.06-0.11,0.09-0.16c0.15-0.05,0.16-0.17,0.18-0.3c0.08-0.03,0.11-0.1,0.11-0.18c0.07-0.03,0.12-0.08,0.1-0.17
			c0.38-0.67,0.95-1.26,0.94-2.09c-0.6,0.53-0.96,1.2-1.32,1.88l-0.03,0.05c-0.16,0.06-0.19,0.2-0.22,0.33
			c-0.03,0.04-0.06,0.09-0.09,0.13c-0.16,0.05-0.18,0.2-0.22,0.33c-0.03,0.04-0.06,0.09-0.09,0.13c-0.09,0.02-0.14,0.07-0.14,0.17
			c-0.29,0.32-0.47,0.73-0.72,1.06c-1.02,1.32-2.11,2.6-3.21,3.86c-3,3.41-6.53,6.22-10.12,8.96c-3.95,3.01-8.1,5.76-12.05,8.77
			c-3.48,2.66-6.73,5.55-9.1,9.29c-0.07,0.11-0.15,0.2-0.31,0.12c-0.07-0.28-0.01-0.55,0.07-0.83c0.19-0.72,0.49-1.41,0.78-2.09
			c1.04-2.45,2.47-4.67,3.94-6.88c0.36-0.54,0.7-1.08,0.87-1.71c0.29-1.04-0.11-1.68-1.14-1.98c-0.51-0.15-0.97-0.07-1.45,0.04
			c-1.81,0.4-3.4,1.21-4.64,2.62c0.57,0.05,1.1-0.19,1.65-0.27c1.17-0.17,1.78,0.51,1.45,1.63c-0.21,0.7-0.61,1.31-1,1.91
			c-1.5,2.34-3.02,4.66-4.19,7.19c-1.17,2.54-1.94,5.19-2.26,7.97c-0.3,2.59-0.02,5.14,0.47,7.68c0.72,3.73,2.37,6.98,4.94,9.78
			c2.52,2.75,5.58,4.7,9.01,6.08c0.78,0.31,1.55,0.69,2.5,0.78c-0.62-0.88-0.96-1.77-1.08-2.72c-0.43-3.46,0.51-6.58,2.45-9.41
			c1.57-2.29,3.74-3.96,5.96-5.57c3.36-2.43,6.92-4.57,10.34-6.9c3.29-2.23,6.46-4.61,9.44-7.24c2.1-1.85,4.02-3.88,5.63-6.19
			c0.09-0.04,0.13-0.11,0.14-0.21c0.09-0.02,0.13-0.08,0.15-0.17c0.28-0.23,0.45-0.55,0.65-0.84c0.23-0.35,0.19-0.64-0.21-0.86
			c0.72-1.05,1.54-2.03,1.98-3.24c-1.1,1.4-2.25,2.76-3.36,4.15c-0.26,0.13-0.43,0.37-0.62,0.57c-0.9,0.92-1.78,1.86-2.81,2.64
			c-0.25,0.19-0.49,0.46-1.06,0.27c0.27-0.2,0.47-0.32,0.64-0.47c1.33-1.18,2.56-2.46,3.68-3.84c1.33-1.63,2.61-3.29,3.6-5.16
			c0.77-1.09,1.34-2.28,1.79-3.53c-0.69,0.98-1.23,2.06-1.97,3.01c-0.03-0.03-0.07-0.03-0.11-0.01c-0.01-0.09-0.02-0.18-0.02-0.28h0
			c0.13-0.06,0.16-0.17,0.17-0.3c0.25-0.2,0.39-0.46,0.48-0.75l0,0c0.21-0.23,0.4-0.48,0.41-0.81l0.01-0.02
			c0.12-0.06,0.15-0.18,0.15-0.3l0.01-0.01c0.93-1.59,1.68-3.26,2.09-5.07c-0.72,1.63-1.6,3.17-2.44,4.74
			c-0.08,0.03-0.11,0.1-0.13,0.18c-0.08,0.02-0.14,0.06-0.11,0.16c-0.04,0.04-0.05,0.08-0.05,0.14c-0.14,0.07-0.21,0.19-0.24,0.34
			c-0.16,0.18-0.35,0.34-0.38,0.6c-0.09,0.02-0.13,0.08-0.14,0.17l-0.01,0.01c-0.08,0.01-0.13,0.05-0.11,0.14
			c-0.05,0.03-0.07,0.07-0.06,0.12c-0.09,0.03-0.13,0.1-0.14,0.19l0,0c-0.08,0.02-0.14,0.05-0.11,0.15
			c-0.05,0.03-0.07,0.07-0.06,0.12c-0.1,0.03-0.13,0.1-0.15,0.19c-0.26,0.22-0.43,0.51-0.61,0.79c-0.13,0.05-0.17,0.16-0.19,0.28
			c-0.09,0.02-0.12,0.09-0.14,0.17c-0.09,0.02-0.13,0.08-0.15,0.16c-0.09,0.01-0.14,0.06-0.14,0.15l-0.01,0.01
			c-0.14-0.01-0.28,0.08-0.41-0.04c0.06-0.14,0.13-0.29,0.19-0.43c0.17-0.17,0.36-0.33,0.4-0.59c0.1-0.02,0.13-0.09,0.15-0.18
			l0.01-0.01c0.09-0.01,0.14-0.05,0.12-0.15c0.05-0.03,0.06-0.06,0.05-0.12c0.1-0.03,0.13-0.1,0.15-0.19
			c0.13-0.03,0.16-0.14,0.16-0.25c0.09-0.04,0.13-0.12,0.14-0.21l0,0c0.09-0.01,0.14-0.06,0.12-0.16c0.04-0.03,0.06-0.06,0.04-0.11
			c0.09-0.04,0.13-0.11,0.14-0.2c0.14-0.05,0.15-0.17,0.16-0.29c1.03-1.41,1.8-2.97,2.38-4.62c-0.9,1.43-1.81,2.85-2.71,4.28l0,0
			c-0.09,0.02-0.13,0.07-0.13,0.16c-0.04,0.02-0.06,0.05-0.04,0.09c-0.09,0.04-0.13,0.12-0.14,0.22c-0.18,0.09-0.28,0.25-0.31,0.45
			c-0.1,0.02-0.13,0.08-0.14,0.17c-0.12,0.05-0.17,0.15-0.18,0.27c-0.09,0.03-0.13,0.1-0.15,0.19c-0.1,0.02-0.14,0.09-0.14,0.18
			c-0.12,0.06-0.16,0.17-0.18,0.28c-0.09,0.01-0.13,0.08-0.14,0.16c-0.19,0.09-0.28,0.26-0.33,0.45c-0.14,0.07-0.24,0.18-0.29,0.32
			l0,0c-0.09,0.01-0.14,0.07-0.14,0.16c-0.12,0.05-0.17,0.15-0.18,0.27c-0.1,0.02-0.14,0.1-0.17,0.18c-0.75,0.6-1.26,1.41-1.91,2.1
			c-1.85,1.98-3.82,3.83-6.01,5.42c-0.49,0.36-0.99,0.82-1.68,0.83c1.15-0.9,2.3-1.8,3.36-2.8c2.02-1.89,3.95-3.86,5.7-6
			c1.28-1.57,2.56-3.16,3.51-4.97c0.32-0.45,0.61-0.91,0.79-1.63c-0.59,0.63-0.95,1.2-1.32,1.77c-0.38,0.22-0.48,0.76-1.04,0.9
			c1.05-1.34,1.96-2.66,2.66-4.12c0.15-0.06,0.18-0.18,0.15-0.32c0.05-0.11,0.03-0.25,0.16-0.32c0.12,0.02,0.13-0.06,0.13-0.14
			c0.05-0.02,0.06-0.05,0.05-0.09c1.03-1.74,1.8-3.59,2.29-5.56c-0.13,0.12-0.22,0.27-0.29,0.42c-0.61,1.38-1.22,2.77-2.05,4.03
			c-0.14,0.22-0.19,0.56-0.56,0.56c0.42-0.6,0.5-1.36,0.92-1.96c0.35-0.59,0.62-1.2,0.77-1.91c-0.32,0.14-0.28,0.53-0.59,0.63
			c-0.08-0.31,0.15-0.51,0.2-0.75c0.19-0.85,0.75-1.58,0.82-2.47c-0.73,1.32-1.46,2.64-2.19,3.96c-0.09,0.02-0.12,0.09-0.11,0.18
			l-0.01,0.02c-0.12,0.05-0.17,0.15-0.17,0.28c-0.13,0.05-0.16,0.17-0.18,0.29c-0.09,0.02-0.12,0.09-0.12,0.18
			c-0.12,0.04-0.16,0.14-0.16,0.26c-0.1,0.03-0.15,0.11-0.15,0.21c-0.12,0.04-0.15,0.14-0.16,0.25c-0.1,0.03-0.14,0.11-0.15,0.21
			c-0.09,0.02-0.13,0.07-0.13,0.17l-0.01,0.02c-0.13,0.05-0.18,0.15-0.22,0.27c-0.3,0.14-0.35,0.63-0.8,0.62
			c0.36-0.51,0.7-0.97,1.02-1.46C64.1,21.94,65.11,20.38,65.73,18.61z M61.69,40.31L61.69,40.31C61.69,40.3,61.69,40.31,61.69,40.31
			L61.69,40.31z M61.19,40.51c-0.08,0.04-0.17,0.07-0.26,0.07C61.02,40.58,61.1,40.55,61.19,40.51z"/>
		<path class="t41d8c53" d="M66.92,17.51c-0.12,0.03-0.13,0.12-0.13,0.22C66.86,17.67,66.93,17.61,66.92,17.51z"/>
		<path class="t41d8c53" d="M66.79,17.73c-0.1,0.08-0.2,0.15-0.16,0.3C66.82,18.01,66.79,17.86,66.79,17.73z"/>
		<path class="t41d8c53" d="M66.65,17.97c-0.01,0-0.01,0-0.01,0c0,0.02-0.01,0.03-0.01,0.05c0.01-0.01,0.01-0.03,0.02-0.04
			C66.65,17.98,66.65,17.98,66.65,17.97z"/>
	</g>
</g>
</svg>
