<?xml version="1.0" encoding="utf-8"?>
<!-- Generator: Adobe Illustrator 25.4.1, SVG Export Plug-In . SVG Version: 6.00 Build 0)  -->
<svg version="1.1" id="Layer_1" xmlns="http://www.w3.org/2000/svg" xmlns:xlink="http://www.w3.org/1999/xlink" x="0px" y="0px"
	 viewBox="0 0 126.8 80" style="enable-background:new 0 0 126.8 80;" xml:space="preserve">
<style type="text/css">
	.q5dd2066{fill:#1C7FC2;}
</style>
<path class="q5dd2066" d="M88.7,53.8h31.6c-1.1-0.5-2.5-1.3-4-2.4H85.1c-1.3-0.8-2.4-1.7-3.6-2.4h31.8c-0.8-0.7-1.5-1.5-2.2-2.4h-33
	c-0.9-0.6-1.6-1.1-2.1-1.5h33.9c-0.5-0.7-0.9-1.5-1.3-2.4H73.1c-0.6-0.5-1.2-1-1.8-1.5H108c-0.3-0.8-0.5-1.6-0.6-2.4H68.6
	c-0.7-0.6-1.3-1.2-2-1.8h40.5c0-0.5-0.1-1.1-0.1-1.6c0-0.3,0-0.5,0-0.8H64c-0.3-0.2-0.5-0.5-0.8-0.7c-0.7-0.6-1.3-1.1-1.8-1.5h45.8
	c0.1-0.8,0.2-1.6,0.4-2.4H52.4c-0.1-0.6-0.3-1.1-0.5-1.8h56.2c0.3-0.8,0.6-1.6,1-2.4H51.3c-0.1-0.4-0.2-0.8-0.4-1.3
	c0-0.2-0.1-0.3-0.2-0.5h59.4c0.5-0.8,1.1-1.6,1.7-2.4H49.8c-0.3-0.6-0.6-1.2-0.9-1.8h64.7c0.9-0.9,1.9-1.7,3-2.4H47.4
	c-0.4-0.6-0.8-1.2-1.2-1.8h73.4c2-1,4.2-1.8,6.3-2.4H44.3c-0.6-0.7-1-1.2-1.3-1.5h83.7V9.5H36.6c0,0,0,0,0-0.1c0-0.5,0.5-1.3,1-2.1
	h89.2V4.9H38.5c0-0.4,0-0.8-0.2-1.1c-0.2-0.4-0.6-0.8-1-1.1h89.5V0.3H26.9c-3.8-0.1-6.5-0.5-7.3,0c-1,0.7,0.5,3.9,1.4,5.2
	s0.7,1.3,2.2,0s2.6-0.3,3.9,0.9c1.3,1.3,1.2,3.5-0.3,3.3c-1.5-0.1-2.4,0.5-2.4,1.4c0,0.9,3.2,3.8,5,3.1c1.7-0.7,4.1,0.2,3.7,3.2
	S29.5,20.9,26,19S13.1,8.1,9.3,5.5S0.7,4.8,0,8.7s6.6,5.9,8.5,3.7c1.8-2.2,5.8,0.9,5.8,0.9c8.3,5.6,10.4,15,12.1,18.2
	c1.7,3.2,3.6,3.6,7.4,1.6c3.8-2,3.9-3.9,14.4,5.2c10.5,9.1,16.2,7,16.2,7c12.4,21.7,29.4,33.5,31,34.6V80h31.4v-2.4H96.5
	c-0.5-0.7-1.3-1.6-2.3-2.7h32.6v-2.4h-3.6c0.1-0.3,0.1-0.7-0.4-1.2c-0.1-0.1-0.4-0.3-0.8-0.5h4.7v-2.4h-9.5c-1.3-0.6-2.8-1.3-4.4-2
	h13.9V64h-19.2c-1.1-0.5-2.3-1-3.4-1.5h22.5v-2.4H99.3c-1.1-0.6-2.3-1.2-3.6-2h31.1v-2.4h-35C90.7,55.1,89.7,54.5,88.7,53.8z
	 M59.9,40.5c-1-0.2-5-4.4-5.8-5.2c-0.4-0.3-0.7-1.4-1.1-3h4.8c0,0.1,0,0.3,0,0.4c-0.1,0.9,2.8,4.3,2.9,5.7
	C60.8,39.9,61,40.7,59.9,40.5z M79.4,53.8h5.5c1.4,0.4,2.5,1.1,3.6,1.6c0.2,0.1,0.4,0.2,0.7,0.4H78.7C78.2,55.1,78.1,54.3,79.4,53.8
	z M117.7,70.8c1.3,0.7,2.5,1.3,3.3,1.8H91.9c-0.6-0.6-1.2-1.2-1.8-1.8H117.7z M109.7,66.4c1.1,0.6,2.3,1.3,3.7,2H87.9
	c0.2-0.7,0.2-1.3,0.2-2H109.7z M102.2,62.5c1.1,0.6,2.1,1.1,2.9,1.5H87.4c-0.3-0.5-0.6-1-0.9-1.5H102.2z M97.6,60.1H84.3
	c-0.8-0.8-1.6-1.4-2.4-2h11.9C95,58.8,96.3,59.4,97.6,60.1z"/>
</svg>
