<?xml version="1.0" encoding="utf-8"?>
<!-- Generator: Adobe Illustrator 25.4.1, SVG Export Plug-In . SVG Version: 6.00 Build 0)  -->
<svg version="1.1" id="Layer_1" xmlns="http://www.w3.org/2000/svg" xmlns:xlink="http://www.w3.org/1999/xlink" x="0px" y="0px"
	 viewBox="0 0 221.2 80" style="enable-background:new 0 0 221.2 80;" xml:space="preserve">
<style type="text/css">
	.xb8d2159{fill:#D42D2D;}
	.t612e74c{fill:#297C34;}
	.x9554b15{fill:#F5DB02;}
</style>
<g>
	<path class="xb8d2159" d="M0,69.9c0,0,12.8,6.1,30.7,6.1s39.2,0,39.2,0S52,80,32,80S2.6,72.7,0,69.9z"/>
	<path class="t612e74c" d="M41.6,67.6c0,0,31.7-0.3,53.3-6.5s40.4-15.3,45.2-21.1c0,0-39,13.5-47.9,15.5C83.3,57.5,41.6,67.6,41.6,67.6z"
		/>
	<path class="x9554b15" d="M28,72.7c0,0,37.3,0.9,60-1.2c22.7-2,50.1-7.3,65.4-13.5s28-13.5,34.6-20.5s21.1-27.8,24.2-30.7
		c3.1-2.9,5.5-5.8,9-6.8c0,0-15.7-2-26.2,16.2c0,0-1.7,3.2-8.5,2c-6.8-1.2-33.7-10.7-103.8,30.8c0,0,31.5-15.8,50.8-19.9
		s18.1,5.5,14.7,9.5s-22,19.3-57.3,27.1S28,72.7,28,72.7z"/>
</g>
</svg>
