<svg width="80" height="80" viewBox="0 0 80 80" fill="none" xmlns="http://www.w3.org/2000/svg">
<g clip-path="url(#clip0_2_49343)">
<path d="M58.6843 31.2927C58.429 31.6404 58.1884 31.9636 57.9502 32.2894C56.4893 34.2899 55.0284 36.2905 53.565 38.2934C52.0579 40.3572 50.5508 42.4185 49.0437 44.4798C47.8332 46.1376 46.6202 47.793 45.4121 49.4508C45.3295 49.5651 45.242 49.6088 45.101 49.6088C42.6288 49.604 40.1567 49.6064 37.6822 49.6064C37.6287 49.6064 37.5752 49.6015 37.5217 49.5991C37.5144 49.5116 37.5728 49.4727 37.6068 49.4265C38.8417 47.7347 40.0765 46.0453 41.3138 44.3534C42.748 42.3918 44.1821 40.4325 45.6139 38.4709C47.0967 36.4436 48.5746 34.4115 50.0647 32.3866C50.8571 31.3073 51.9364 30.6996 53.2587 30.5076C53.4945 30.4736 53.7303 30.4638 53.9685 30.4638C57.8578 30.4638 61.7495 30.4663 65.6388 30.459C65.8114 30.459 65.9135 30.51 66.0156 30.6486C68.1425 33.5631 70.2768 36.4728 72.4086 39.3849C74.5234 42.2727 76.6406 45.1629 78.7554 48.0507C79.0981 48.5174 79.4409 48.9841 79.7812 49.4532C79.8079 49.4897 79.8541 49.5213 79.8444 49.5796C79.7885 49.6234 79.7253 49.6015 79.6645 49.6015C77.9532 49.604 76.2419 49.6015 74.5306 49.6015C73.41 49.6015 72.4013 49.2734 71.514 48.583C71.1932 48.3326 70.9088 48.0458 70.6681 47.7152C68.512 44.7594 66.3583 41.8035 64.2022 38.8501C62.3961 36.3755 60.59 33.8986 58.7839 31.424C58.7645 31.39 58.7329 31.3535 58.6843 31.2927Z" fill="#00693A"/>
<path d="M48.7107 30.466C48.577 30.6556 48.4725 30.8087 48.3631 30.9619C47.6801 31.922 46.9921 32.8822 46.3115 33.8448C45.5701 34.8949 44.5419 35.4783 43.2949 35.7117C42.991 35.7676 42.6848 35.7846 42.3785 35.7846C38.725 35.7846 35.0715 35.7846 31.418 35.7846C31.1044 35.7846 31.1506 35.7506 31.1506 36.0495C31.1506 40.4833 31.1506 44.9195 31.1482 49.3533C31.1482 49.6328 31.192 49.6061 30.8881 49.6061C28.8973 49.6061 26.9065 49.6061 24.9156 49.6061C24.867 49.6061 24.8184 49.6037 24.7698 49.6061C24.6944 49.6085 24.6507 49.5818 24.658 49.4967C24.6628 49.4408 24.658 49.3849 24.658 49.329C24.658 44.9001 24.658 40.4736 24.658 36.0447C24.658 35.7408 24.7042 35.7822 24.3906 35.7822C19.3053 35.7822 14.2201 35.7822 9.13489 35.7822C8.8043 35.7822 8.85535 35.8065 8.85535 35.505C8.85292 33.9129 8.85535 32.3207 8.85535 30.7285C8.85535 30.6872 8.86021 30.6434 8.85535 30.6021C8.83833 30.4854 8.89667 30.4538 8.99876 30.4636C9.04738 30.4684 9.09599 30.4636 9.14461 30.4636C22.2418 30.4636 35.3389 30.4636 48.436 30.4636C48.5138 30.466 48.5892 30.466 48.7107 30.466Z" fill="#00693A"/>
<path d="M6.71871 30.4853C6.76003 30.5461 6.74058 30.619 6.74058 30.6846C6.74058 35.3761 6.74058 40.0699 6.74302 44.7614C6.74302 45.5636 6.59231 46.3293 6.18393 47.0293C5.59568 48.0405 4.71087 48.6555 3.58055 48.9108C2.52558 49.149 1.46332 49.3532 0.405924 49.5719C0.257645 49.6035 0.252784 49.5962 0.247922 49.448C0.247922 49.4212 0.247922 49.3921 0.247922 49.3653C0.247922 44.6301 0.245491 39.8974 0.250353 35.1622C0.250353 34.151 0.554203 33.2394 1.21052 32.4591C1.79877 31.759 2.55961 31.341 3.44199 31.1465C4.51883 30.9107 5.59811 30.6968 6.67738 30.4756C6.68954 30.4756 6.70412 30.4829 6.71871 30.4853Z" fill="#00693A"/>
<path d="M60.9814 42.4652C60.9887 42.5332 60.9401 42.5673 60.9085 42.611C59.4281 44.6383 57.9453 46.6656 56.4625 48.6929C56.2778 48.9457 56.0882 49.1961 55.9107 49.4562C55.8354 49.568 55.7479 49.602 55.6166 49.5996C53.7036 49.5947 51.7905 49.5971 49.8775 49.5971C49.333 49.5971 48.7885 49.5971 48.244 49.5971C48.1759 49.5971 48.1054 49.6142 48.0422 49.5826C48.0204 49.5388 48.0471 49.5145 48.0666 49.4878C49.3184 47.7765 50.5678 46.0628 51.827 44.3563C52.6073 43.2989 53.6647 42.6961 54.9579 42.4968C55.2204 42.4555 55.4854 42.4506 55.7503 42.4506C57.4251 42.4506 59.1024 42.4506 60.7772 42.4506C60.8453 42.4457 60.9158 42.4287 60.9814 42.4652Z" fill="#DF1804"/>
</g>
<defs>
<clipPath id="clip0_2_49343">
<rect width="80" height="19.4464" fill="white" transform="translate(0 30.2764)"/>
</clipPath>
</defs>
</svg>
