<?xml version="1.0" encoding="utf-8"?>
<!-- Generator: Adobe Illustrator 25.4.1, SVG Export Plug-In . SVG Version: 6.00 Build 0)  -->
<svg version="1.1" id="Layer_1" xmlns="http://www.w3.org/2000/svg" xmlns:xlink="http://www.w3.org/1999/xlink" x="0px" y="0px"
	 viewBox="0 0 76.5 80" style="enable-background:new 0 0 76.5 80;" xml:space="preserve">
<style type="text/css">
	.v5023170{fill-rule:evenodd;clip-rule:evenodd;fill:#1E1D4D;}
	.p83538ab{fill-rule:evenodd;clip-rule:evenodd;fill:#EB4F1C;}
	.c1aea11c{fill-rule:evenodd;clip-rule:evenodd;fill:#FFFFFF;}
</style>
<polygon class="v5023170" points="0,0 20,0 76.5,80 0,80 0,0 "/>
<polygon class="p83538ab" points="0,54 69.6,70 73.4,75.6 0,63.2 0,54 "/>
<polygon class="c1aea11c" points="73.4,75.6 0,63.2 0,71.9 76.5,80 73.4,75.6 "/>
<polygon class="c1aea11c" points="17.3,24.2 16.6,15.8 16,24.2 13.5,19.7 14.6,24.6 11,20.9 13.3,25.4 9.1,22.5 12.2,26.4 7.5,24.6 
	11.4,27.7 6.6,26.9 11.1,29.1 2.5,29.8 11,30.5 6.5,32.5 11.3,31.9 7.5,34.9 12.1,33.2 9.1,36.9 13.2,34.3 11.2,38.7 14.6,35.1 
	13.7,39.8 16,35.5 16.6,43.6 17.4,35.4 20,39.8 19,35 22.3,38.6 20.2,34.3 24.1,37.1 21.3,33.1 26,34.7 21.9,31.8 26.9,32.3 
	22.3,30.5 30.5,29.8 22.2,29 26.9,27.1 21.9,27.6 25.8,24.5 21.1,26.4 24.6,22.8 20,25.4 22.4,20.9 18.7,24.6 19.6,19.6 17.3,24.2 
	"/>
</svg>
