<?xml version="1.0" encoding="utf-8"?>
<!-- Generator: Adobe Illustrator 25.3.1, SVG Export Plug-In . SVG Version: 6.00 Build 0)  -->
<svg version="1.1" id="Layer_1" xmlns="http://www.w3.org/2000/svg" xmlns:xlink="http://www.w3.org/1999/xlink" x="0px" y="0px"
	 viewBox="0 0 80 80" style="enable-background:new 0 0 80 80;" xml:space="preserve">
<style type="text/css">
	.v36109e3{fill:#ED4138;}
	.b1d4955e{fill:#00693A;}
	.n28abe94{fill:#DF1804;}
	.zc384e7e{fill:#214078;}
	.t3c551f7{fill:#3487C7;}
	.w0e8886f{fill:url(#SVGID_1_);}
	.q78286d7{fill:url(#SVGID_2_);}
	.h5c61e6c{fill:#184A8A;}
	.p632b119{fill:url(#SVGID_3_);}
	.y5d9d463{fill:url(#SVGID_4_);}
	.of7ed4d2{fill:url(#SVGID_5_);}
	.b1d4955e1{fill:url(#SVGID_6_);}
	.qbb004d9{fill:#9E8266;}
	.ke259900{fill:#322E26;}
	.b1d4955e4{fill:#332F27;}
	.e554eecf{fill:#791722;}
	.rf1df650{fill:url(#SVGID_7_);}
	.h1a283fa{fill:url(#SVGID_8_);}
	.z659c195{fill:url(#SVGID_9_);}
	.a5ad523e{fill:url(#SVGID_10_);}
	.m70151cb{fill:url(#SVGID_11_);}
	.cd76f5e3{fill:url(#SVGID_12_);}
	.n28abe942{fill:url(#SVGID_13_);}
	.n28abe943{fill:url(#SVGID_14_);}
	.naf573cb{fill:url(#SVGID_15_);}
	.n28abe945{fill:url(#SVGID_16_);}
	.cb0d243c{fill:url(#SVGID_17_);}
	.n28abe947{fill:url(#SVGID_18_);}
	.g5bc03d7{fill:url(#SVGID_19_);}
	.zc8e94bf{fill:url(#SVGID_20_);}
	.k83d6962{fill:url(#SVGID_21_);}
	.n3c05707{fill:#222325;}
	.q62fb048{fill:#A0925A;}
	.f78c747f{fill:#061E34;}
	.a3fc4983{fill:#028E8F;}
	.w12ff2b9{fill:#D5192C;}
	.daab1187{fill:#FAC201;}
	.j160d497{fill:url(#SVGID_22_);}
	.ef93dfb0{fill:url(#SVGID_23_);}
	.a88f1a5e{fill:url(#SVGID_24_);}
	.t4621d01{fill:url(#SVGID_25_);}
	.tbe1c567{fill:#9F8A58;}
	.e350ac8a{fill:#749ED4;}
	.oc9d145d{fill:#045991;}
	.z77bb86f{fill:#1F9A8D;}
	.v8b4a0d2{fill:#222D68;}
	.y1e60612{fill:#14152E;}
	.md8a4050{fill:#62B3E4;}
	.dc321719{fill:#FEFEFE;}
	.i43eba00{fill:none;}
	.w0e8886f0{fill:#FC0302;}
	.o9996104{fill:#FE0807;}
	.ldb02645{fill:#98684C;}
	.za9d0bbb{fill:#86754D;}
	.a5cce01a{fill:#42484D;}
	.bdc7c207{fill:#41474C;}
	.w0e8886f6{fill:#43494D;}
	.w0e8886f7{fill:#DF073D;}
	.w0e8886f8{fill:#DE023A;}
	.pfd0fdbd{fill:#FFFFFF;}
	.fc54337e{fill:#6F6E6C;}
	.z05cc446{fill:#072F67;}
	.fac029da{fill:#53A220;}
	.tf2c538b{fill:#FDC013;}
	.sda1eb78{fill:url(#SVGID_26_);}
	.a0bed06d{fill:url(#SVGID_27_);}
	.x90a5dd4{fill:url(#SVGID_28_);}
	.ocbabd0b{fill:#793A98;}
	.m0e72bfa{fill:url(#SVGID_29_);}
	.g3e701cc{fill:url(#SVGID_30_);}
	.h5c61e6c0{fill:url(#SVGID_31_);}
	.sf9ed7c6{fill:url(#SVGID_32_);}
	.l78824a8{fill:url(#SVGID_33_);}
</style>
<g>
	<path class="z77bb86f" d="M0.7,41.04c-0.5-7.95,1.55-15.3,5.8-21.93C13.76,7.75,24.2,1.47,37.75,0.62
		c20.48-1.29,37.89,13.66,40.91,32.72c0.41,2.57,0.78,5.14,0.41,7.75c-3.37,0.74-6.77,1.13-10.23,1.12
		c-2.63-0.01-5.14-0.69-7.73-0.85c-0.07-1.57-0.08-3.13-0.29-4.7c-1.72-12.41-14.63-20.7-26.71-17.2
		c-8.23,2.38-16.01,10.38-15.36,21.99c-1.93,0.02-3.77,0.64-5.7,0.73C8.87,42.37,4.77,41.86,0.7,41.04z"/>
	<path class="v8b4a0d2" d="M61.11,41.36c2.59,0.16,5.11,0.85,7.73,0.85c3.47,0.01,6.86-0.37,10.23-1.12
		C78.73,59.82,64.3,75.96,45.83,78.65C24.93,81.71,6.02,68.19,1.58,48.59c-0.56-2.48-1.03-4.98-0.88-7.55
		c4.07,0.82,8.17,1.33,12.34,1.13c1.93-0.09,3.77-0.71,5.7-0.73c0.03,0.12,0.07,0.23,0.08,0.35c1.09,10.37,8.88,18.03,19.39,19.08
		c9.64,0.96,18.84-5.33,21.91-14.92C60.61,44.44,60.68,42.87,61.11,41.36z"/>
</g>
</svg>
