<?xml version="1.0" encoding="utf-8"?>
<!-- Generator: Adobe Illustrator 25.3.1, SVG Export Plug-In . SVG Version: 6.00 Build 0)  -->
<svg version="1.1" id="Layer_1" xmlns="http://www.w3.org/2000/svg" xmlns:xlink="http://www.w3.org/1999/xlink" x="0px" y="0px"
	 viewBox="0 0 116.13 80" style="enable-background:new 0 0 116.13 80;" xml:space="preserve">
<style type="text/css">
	.k9db3fab{fill:#ED4138;}
	.v325e737{fill:#00693A;}
	.bdc03f5d{fill:#DF1804;}
	.v2609916{fill:#214078;}
	.macb34b8{fill:#3487C7;}
	.t4beb8ad{fill:url(#SVGID_1_);}
	.t18b2bd6{fill:url(#SVGID_2_);}
	.gce5bd3e{fill:#184A8A;}
	.i8444dfc{fill:url(#SVGID_3_);}
	.o8c42bea{fill:url(#SVGID_4_);}
	.sd91ef3f{fill:url(#SVGID_5_);}
	.v325e7371{fill:url(#SVGID_6_);}
	.id78b223{fill:#9E8266;}
	.e38be63f{fill:#322E26;}
	.v325e7374{fill:#332F27;}
	.hca75a7f{fill:#791722;}
	.jb71c155{fill:url(#SVGID_7_);}
	.a70c861d{fill:url(#SVGID_8_);}
	.h2e111f9{fill:url(#SVGID_9_);}
	.d558332b{fill:url(#SVGID_10_);}
	.n12b890a{fill:url(#SVGID_11_);}
	.z0875892{fill:url(#SVGID_12_);}
	.bdc03f5d2{fill:url(#SVGID_13_);}
	.bdc03f5d3{fill:url(#SVGID_14_);}
	.sc8d5279{fill:url(#SVGID_15_);}
	.bdc03f5d5{fill:url(#SVGID_16_);}
	.j2147c43{fill:url(#SVGID_17_);}
	.bdc03f5d7{fill:url(#SVGID_18_);}
	.j277ee4b{fill:url(#SVGID_19_);}
	.u3fa5805{fill:url(#SVGID_20_);}
	.q5765bf1{fill:url(#SVGID_21_);}
	.tc40f521{fill:#222325;}
	.j9537a0a{fill:#A0925A;}
	.qa2387ef{fill:#061E34;}
	.w3468e4d{fill:#028E8F;}
	.p76cb301{fill:#D5192C;}
	.n7c89c32{fill:#FAC201;}
	.q36ed074{fill:url(#SVGID_22_);}
	.l668b480{fill:url(#SVGID_23_);}
	.de474d14{fill:url(#SVGID_24_);}
	.v54bb664{fill:url(#SVGID_25_);}
	.cc7b2c42{fill:#9F8A58;}
	.be01867b{fill:#749ED4;}
	.i3ca0aa1{fill:#045991;}
	.r257cee7{fill:#1F9A8D;}
	.s26c24a8{fill:#222D68;}
	.saae7d8d{fill:#14152E;}
	.f8761903{fill:#62B3E4;}
	.q4c6ed6a{fill:#FEFEFE;}
	.f8765424{fill:none;}
	.t4beb8ad0{fill:#FC0302;}
	.q085c203{fill:#FE0807;}
	.hfaf4f9b{fill:#98684C;}
	.a6f8d2f3{fill:#86754D;}
	.gc6d17c4{fill:#42484D;}
	.v2104658{fill:#41474C;}
	.t4beb8ad6{fill:#43494D;}
	.t4beb8ad7{fill:#DF073D;}
	.t4beb8ad8{fill:#DE023A;}
	.cf3ad422{fill:#FFFFFF;}
	.ia60605d{fill:#6F6E6C;}
	.m7d94bc4{fill:#072F67;}
	.t223c438{fill:#53A220;}
	.l253c6e3{fill:#FDC013;}
	.zec2ee85{fill:url(#SVGID_26_);}
	.wdf3ed2a{fill:url(#SVGID_27_);}
	.qac2b0e7{fill:url(#SVGID_28_);}
	.s49b9575{fill:#793A98;}
	.dd5f9ab2{fill:url(#SVGID_29_);}
	.y6020e67{fill:url(#SVGID_30_);}
	.gce5bd3e0{fill:url(#SVGID_31_);}
	.q2895adb{fill:url(#SVGID_32_);}
	.x7a5d60d{fill:url(#SVGID_33_);}
</style>
<g>
	<path class="t4beb8ad8" d="M115.3,0.54c-1.58-0.27-24.42-0.37-30.69-0.13c-0.44,0.46-0.87,0.89-1.28,1.34
		c-4.31,4.72-8.61,9.45-12.91,14.18c-7.94,8.74-15.87,17.49-23.81,26.24c-4.25,4.69-8.5,9.39-12.76,14.07
		c-1.88,2.07-3.74,4.18-5.72,6.15c-3.02,3.01-6.31,5.72-9.77,8.23c-4.25,3.08-8.73,5.75-13.65,7.64c-1.4,0.54-2.84,1-4.56,1.61
		c1.16,0,1.98,0.01,2.81,0c8.22-0.07,16.44-0.18,24.66-0.22c19.67-0.11,39.34-0.18,59.01-0.28c1.03-0.01,2.05-0.07,3.15-0.12
		C98.3,53.14,106.8,27.1,115.29,1.06C115.34,0.9,115.3,0.71,115.3,0.54z"/>
	<path class="cf3ad422" d="M40.13,58.02c0.66,0.46,1.38,0.76,2.19,0.8c2.81,0.13,5.59,0.01,8.33-0.69c1.46-0.37,2.68-1.11,3.73-2.17
		c0.9-0.91,1.68-1.93,2.42-2.96c3.06-4.24,6.05-8.54,8.91-12.92c1.06-1.63,2.21-3.21,3.24-4.85c2.45-3.91,5.95-6.13,10.5-6.8
		c1.45-0.21,2.89-0.4,4.35-0.42c3.22-0.05,7.85-0.06,11.11,0.07c-1.04,0.21-2.15,0.35-2.63,0.44c-0.44,0.11-0.83,0.18-1.24,0.27
		c-2.03,0.45-3.97,1.11-5.74,2.24c-0.88,0.56-1.65,1.25-2.26,2.1c-5.33,7.41-10.66,14.81-15.98,22.22
		c-0.14,0.19-0.24,0.42-0.36,0.62c0.36,0.38,0.68,0.24,0.93-0.05c0.32-0.37,0.59-0.77,0.88-1.17c4.95-6.85,9.91-13.7,14.84-20.57
		c0.8-1.11,1.75-2.02,2.9-2.73c1.88-1.16,3.89-1.82,6.06-2.22c0.15-0.03,0.61-0.06,0.78-0.04c-0.08,0.07-0.26,0.24-0.29,0.28
		c-2.65,2.3-4.58,5.18-6.57,8.02C81.92,43.6,77.58,49.7,73.26,55.8c-0.27,0.39-0.52,0.8-0.88,1.35c1.57,0.3,2.97,0.61,4.38,0.82
		c2.64,0.39,5.3,0.75,7.95,1.08c0.78,0.1,1.58,0.08,2.37,0.08c1.9,0,2.85-0.22,3.99-1.35c0.4,0.23,0.64,0.32,0.96,0.52
		c0.08,0.08,0.17,0.04,0.11,0.12c-0.62,0.76-1.71,1.35-2.64,1.43c-0.67,0.06-1.34,0.05-2.01,0.05c-16.86,0-33.73,0-50.59,0
		c-0.69,0-1.36,0.01-2.8,0c1.31-0.19,3.1-1.07,4.01-1.91C38.75,57.65,39.41,57.54,40.13,58.02z M39.65,58.94
		c-0.46-0.38-0.74-0.51-0.96-0.01C38.94,59.15,39.21,59.09,39.65,58.94z"/>
	<path class="cf3ad422" d="M37.31,57.39c0.92-1.59,2.86-1.52,3.56,0H37.31z"/>
	<path class="t4beb8ad8" d="M38.32,59.07c0.39-0.67,1.21-0.64,1.51,0H38.32z"/>
</g>
</svg>
