<?xml version="1.0" encoding="utf-8"?>
<!-- Generator: Adobe Illustrator 25.4.1, SVG Export Plug-In . SVG Version: 6.00 Build 0)  -->
<svg version="1.1" id="Layer_1" xmlns="http://www.w3.org/2000/svg" xmlns:xlink="http://www.w3.org/1999/xlink" x="0px" y="0px"
	 viewBox="0 0 208.78 80.27" style="enable-background:new 0 0 208.78 80.27;" xml:space="preserve">
<style type="text/css">
	.x9d38cee{fill:#12470D;}
</style>
<path id="path3019" class="x9d38cee" d="M72.34,3.08c9.54-1.49,19.18-2.14,28.82-2.47c2.22-0.35,4.48-0.29,6.72-0.33
	c4.6,0.05,9.22-0.19,13.79,0.33c29.24,0.87,58.47,3.96,87.1,10.04c-4.5-0.11-8.98-0.64-13.48-0.76c-19.49-0.9-39.09,0.14-58.32,3.5
	c-2.67,0.43-5.26,1.25-7.86,1.96c-7.33,2.11-14.63,4.47-21.45,7.93c-3.34,1.78-6.73,3.8-9.06,6.85c-0.69,0.99-1.57,2.18-1.17,3.45
	c0.58,1.4,2.1,2.05,3.42,2.56c4.19,1.46,8.65,1.82,13.03,2.23c13.85,1.38,27.7,2.84,41.52,4.49c9.58,1.2,19.19,2.32,28.68,4.17
	c2.1,0.51,4.37,0.76,6.21,1.99c-4.85,0.85-9.77,1.21-14.66,1.8c-22.07,2.33-44.2,3.96-66.34,5.4c-2.14,0.22-4.38,0.51-6.23,1.7
	c-1.28,0.8-2.04,2.54-1.4,3.98c0.6,1.33,1.88,2.21,3.12,2.9c3.13,1.66,6.61,2.52,10.04,3.31c7.27,1.57,14.67,2.42,22.07,3.14
	c9.8,0.93,19.63,1.45,29.47,1.92c-0.98,1.06-2.41,1.46-3.73,1.89c-3.97,1.15-8.08,1.72-12.16,2.28
	c-11.44,1.43-22.95,2.15-34.45,2.79c-8.37,0.2-16.77,0.2-25.13-0.42c-5.89-0.49-11.83-1.16-17.48-3c-2.62-0.9-5.29-2.07-7.2-4.14
	c-1.28-1.39-1.95-3.31-1.71-5.19c0.33-2.67,1.81-5.03,3.42-7.12c1.73-2.18,4.29-3.41,6.79-4.48c-19.48-0.66-38.97-1.22-58.38-3.02
	c-4.02-0.41-8.05-0.84-12.01-1.7c-1.54-0.39-3.3-0.7-4.31-2.06c1.77-1.55,4.13-2.04,6.34-2.61c5.13-1.2,10.34-1.98,15.55-2.73
	c11.45-1.62,22.95-2.8,34.45-4.01c-6.08-2.45-12.24-4.84-17.81-8.36c-2.53-1.64-5.05-3.48-6.7-6.05c-1.12-1.68-1.44-3.95-0.53-5.8
	c1.08-2.25,3.14-3.8,5.19-5.11c4.07-2.48,8.57-4.15,13.09-5.62C57.03,6.36,64.67,4.6,72.34,3.08z"/>
<g id="_x23_fefefeff">
</g>
</svg>
