<?xml version="1.0" encoding="utf-8"?>
<!-- Generator: Adobe Illustrator 25.4.1, SVG Export Plug-In . SVG Version: 6.00 Build 0)  -->
<svg version="1.1" xmlns="http://www.w3.org/2000/svg" xmlns:xlink="http://www.w3.org/1999/xlink" x="0px" y="0px"
	 viewBox="0 0 87.2 80" style="enable-background:new 0 0 87.2 80;" xml:space="preserve">
<style type="text/css">
	.jdc3608d{fill:#E00A0A;}
</style>
<g id="Layer_1">
</g>
<g id="Layer_2">
	<polygon class="jdc3608d" points="8.3,14.5 4.2,17.2 7.7,31.1 8.9,31.4 12.9,19.4 	"/>
	<polygon class="jdc3608d" points="21.8,25.8 21.8,20.4 16.4,20.4 11.9,32.7 13.4,33.9 	"/>
	<polygon class="jdc3608d" points="15.7,36.9 16.3,38 27.5,35.4 29.5,29.6 24.2,28.4 	"/>
	<polygon class="jdc3608d" points="32.6,41.8 28.6,38.3 16.9,41.1 16.9,42.1 28.7,45.7 	"/>
	<path class="jdc3608d" d="M15.7,46.6l9.6,9.8l4.8-2.1L28.3,49l-12-3.6C16.3,45.4,15.9,46.4,15.7,46.6z"/>
	<polygon class="jdc3608d" points="22.6,59 13.6,49.5 12.7,50.2 16.4,65.2 22.2,65.5 	"/>
	<polygon class="jdc3608d" points="22.1,69.1 17.4,69.1 19.4,76.9 25.1,74 	"/>
	<polygon class="jdc3608d" points="31.6,68.5 26.7,63.2 25.1,66.9 28.2,71.7 	"/>
	<polygon class="jdc3608d" points="36.8,61.4 32.6,58.2 28.6,59.9 34.1,65.5 	"/>
	<polygon class="jdc3608d" points="40.2,52.5 33.7,50.6 33.7,53.7 38.6,57.1 	"/>
	<polygon class="jdc3608d" points="41.2,44.6 36,44.2 33.4,47.1 41,49.5 	"/>
	<polygon class="jdc3608d" points="40.5,35.5 33.4,37.2 36.2,40 41.2,40 	"/>
	<polygon class="jdc3608d" points="32.6,30.8 32.3,33.9 39.6,32.2 38.2,28 	"/>
	<polygon class="jdc3608d" points="27.7,25 31.6,26.6 36.3,24.2 33.4,19.6 	"/>
	<polygon class="jdc3608d" points="25.4,17.9 25.4,22.4 31,17 28.4,14.5 	"/>
	<polygon class="jdc3608d" points="17.6,16.2 21.8,16.2 24.7,11.9 20.5,9.3 	"/>
	<polygon class="jdc3608d" points="16.9,7.8 11.5,6.2 10.9,10.8 14.5,14.8 	"/>
	<polygon class="jdc3608d" points="7.2,5.5 1.2,5.2 3.2,13.2 7.2,10 	"/>
	<path class="jdc3608d" d="M0,0l0.5,1.7c0,0,19.3-2,32.9,13.1c13.5,15.1,11.8,27.1,11.4,36c-0.4,8.9-10,22.7-22.6,29.1h64.9L36.8,15.9
		C36.8,15.9,25.8-0.8,0,0z"/>
</g>
</svg>
