<?xml version="1.0" encoding="utf-8"?>
<!-- Generator: Adobe Illustrator 25.3.1, SVG Export Plug-In . SVG Version: 6.00 Build 0)  -->
<svg version="1.1" id="Layer_1" xmlns="http://www.w3.org/2000/svg" xmlns:xlink="http://www.w3.org/1999/xlink" x="0px" y="0px"
	 viewBox="0 0 98.77 80" style="enable-background:new 0 0 98.77 80;" xml:space="preserve">
<style type="text/css">
	.cd256479{fill:#ED4138;}
	.m1d809b6{fill:#00693A;}
	.a23cbd60{fill:#DF1804;}
	.ybfb798d{fill:#214078;}
	.z61b2e73{fill:#3487C7;}
	.j75d44e8{fill:url(#SVGID_1_);}
	.td4abf27{fill:url(#SVGID_2_);}
	.kf624378{fill:#184A8A;}
	.n5eaec3a{fill:url(#SVGID_3_);}
	.de811b02{fill:url(#SVGID_4_);}
	.u98df762{fill:url(#SVGID_5_);}
	.m1d809b61{fill:url(#SVGID_6_);}
	.bcfa0c42{fill:#9E8266;}
	.jaa70787{fill:#322E26;}
	.m1d809b64{fill:#332F27;}
	.s106b379{fill:#791722;}
	.ueee0674{fill:url(#SVGID_7_);}
	.m00f1bb6{fill:url(#SVGID_8_);}
	.s0144045{fill:url(#SVGID_9_);}
	.x8dd338d{fill:url(#SVGID_10_);}
	.p076bf62{fill:url(#SVGID_11_);}
	.id34744b{fill:url(#SVGID_12_);}
	.a23cbd602{fill:url(#SVGID_13_);}
	.a23cbd603{fill:url(#SVGID_14_);}
	.q55095e6{fill:url(#SVGID_15_);}
	.a23cbd605{fill:url(#SVGID_16_);}
	.md938ead{fill:url(#SVGID_17_);}
	.a23cbd607{fill:url(#SVGID_18_);}
	.o8d7e0bb{fill:url(#SVGID_19_);}
	.v998c726{fill:url(#SVGID_20_);}
	.k54b9423{fill:url(#SVGID_21_);}
	.mee81277{fill:#222325;}
	.fa43a003{fill:#A0925A;}
	.c3aeaeb3{fill:#061E34;}
	.w4c070d1{fill:#028E8F;}
	.n9713559{fill:#D5192C;}
	.f8da9c7b{fill:#FAC201;}
	.l991d454{fill:url(#SVGID_22_);}
	.me6b0dfd{fill:url(#SVGID_23_);}
	.s5523a17{fill:url(#SVGID_24_);}
	.w49d2cce{fill:url(#SVGID_25_);}
	.l4ff48d1{fill:#9F8A58;}
	.d5601528{fill:#749ED4;}
	.mc290308{fill:#045991;}
	.j85763d5{fill:#1F9A8D;}
	.ffe37bfb{fill:#222D68;}
	.eaf788bc{fill:#14152E;}
	.u50d002b{fill:#62B3E4;}
	.acd4746c{fill:#FEFEFE;}
	.wa3bcfaf{fill:none;}
	.j75d44e80{fill:#FC0302;}
	.w0ebacea{fill:#FE0807;}
	.e79515ce{fill:#98684C;}
	.ub450d1d{fill:#86754D;}
	.b093e2dc{fill:#42484D;}
	.p3fd274b{fill:#41474C;}
	.j75d44e86{fill:#43494D;}
	.j75d44e87{fill:#DF073D;}
	.j75d44e88{fill:#DE023A;}
	.ub90c06e{fill:#FFFFFF;}
	.e8c37f55{fill:#6F6E6C;}
	.w98fa7eb{fill:#072F67;}
	.a69989db{fill:#53A220;}
	.l356ab8b{fill:#FDC013;}
	.ib13fb5c{fill:url(#SVGID_26_);}
	.i0e92899{fill:url(#SVGID_27_);}
	.ced780d1{fill:url(#SVGID_28_);}
	.k2759fa9{fill:#793A98;}
	.hd662935{fill:url(#SVGID_29_);}
	.g972c51f{fill:url(#SVGID_30_);}
	.kf6243780{fill:url(#SVGID_31_);}
	.s0575d6a{fill:url(#SVGID_32_);}
	.q91b9476{fill:url(#SVGID_33_);}
</style>
<g>
	<path class="e79515ce" d="M79.77,0.54C78.96,1.06,78,1.19,77.12,1.55c-3.09,1.3-5.85,3.1-8.22,5.47c-8.99,8.96-17.98,17.93-26.96,26.9
		c-2.49,2.49-5.35,4.37-8.77,5.36c-1.42,0.41-2.86,0.66-4.33,0.75c-3.23,0.2-6.45,0.08-9.68,0.1c-4.52,0.02-9.05,0.01-13.57,0
		c-0.3,0-0.61,0.06-0.96-0.07c0.08-0.36,0.38-0.54,0.6-0.76c5.4-5.42,10.81-10.84,16.21-16.26c5.68-5.71,11.33-11.45,17.03-17.14
		c2.34-2.34,5.18-3.9,8.39-4.75c0.85-0.23,1.81-0.46,2.69-0.59c0.14-0.02,0.15-0.01,0.3-0.02C59.82,0.54,69.79,0.54,79.77,0.54z"/>
	<path class="ub450d1d" d="M0.3,79.46c1.62-0.63,3.21-1.26,4.72-2.07c2.23-1.2,4.26-2.67,6.05-4.46c8.94-8.93,17.89-17.84,26.82-26.77
		c2.75-2.75,5.98-4.66,9.79-5.52c1.14-0.26,2.29-0.45,3.46-0.45c7.91-0.01,15.81-0.01,23.72-0.01c0.12,0,0.24,0.02,0.39,0.03
		c-0.14,0.35-0.44,0.54-0.67,0.77c-11.03,11.01-22.04,22.03-33.1,33.02c-2.45,2.44-5.34,4.21-8.77,4.95
		c-1.37,0.3-2.76,0.52-4.18,0.52c-9.08-0.02-18.15-0.01-27.23-0.01C0.97,79.46,0.64,79.46,0.3,79.46z"/>
	<path class="e79515ce" d="M89.58,14.21c-0.49,1.03-1.3,1.84-1.88,2.81c-0.28,0.47-0.68,0.87-0.75,1.55c1.88,0.6,3.82,0.77,5.75,1.01
		c1.92,0.24,3.84,0.38,5.95,0.58c-4.01,0.66-7.92,0.87-11.75,1.97c0.6,1.63,1.82,2.75,2.68,4.09c-0.05,0.05-0.09,0.09-0.14,0.14
		c-1.36-0.83-2.73-1.65-4.1-2.48c-0.6,1.18-1.42,7.22-1.77,12.85c-0.44-0.97-0.32-2.02-0.42-3.02c-0.18-1.98-0.4-3.96-0.64-5.93
		c-0.15-1.27-0.32-2.54-0.66-3.9c-1.58,0.69-2.88,1.77-4.58,2.6c0.46-0.89,1.06-1.43,1.51-2.08c0.47-0.67,1-1.31,1.32-2.08
		c-0.17-0.29-0.43-0.34-0.7-0.4c-2.12-0.5-4.27-0.82-6.42-1.11c-1.45-0.19-2.91-0.39-4.36-0.61c3.84-0.44,7.7-0.69,11.46-1.62
		c0.13-0.54-0.2-0.87-0.42-1.21c-0.65-0.96-1.35-1.9-2.03-2.85c-0.1-0.13-0.3-0.23-0.19-0.53c1.48,0.89,2.77,2.06,4.4,2.96
		c0.98-4.4,1.26-8.75,1.74-13.09c0.21,2.15,0.37,4.31,0.64,6.45c0.28,2.17,0.5,4.35,1,6.46c0.43,0.13,0.64-0.13,0.88-0.3
		c0.98-0.69,1.96-1.37,2.94-2.06c0.15-0.11,0.28-0.25,0.48-0.24L89.58,14.21z"/>
	<path class="e79515ce" d="M89.54,14.16c0.02-0.08,0.07-0.18,0.15-0.1c0.08,0.08-0.02,0.13-0.1,0.15L89.54,14.16z"/>
</g>
</svg>
