<?xml version="1.0" encoding="utf-8"?>
<!-- Generator: Adobe Illustrator 25.3.1, SVG Export Plug-In . SVG Version: 6.00 Build 0)  -->
<svg version="1.1" id="Layer_1" xmlns="http://www.w3.org/2000/svg" xmlns:xlink="http://www.w3.org/1999/xlink" x="0px" y="0px"
	 viewBox="0 0 169.02 80" style="enable-background:new 0 0 169.02 80;" xml:space="preserve">
<style type="text/css">
	.jab24647{fill:#ED4138;}
	.le387612{fill:#00693A;}
	.v26a73d8{fill:#DF1804;}
	.abafbd48{fill:#214078;}
	.wab0fd1b{fill:#3487C7;}
	.lc5ba366{fill:url(#SVGID_1_);}
	.d825e63a{fill:url(#SVGID_2_);}
	.jdd722db{fill:#184A8A;}
	.icd89fe2{fill:url(#SVGID_3_);}
	.vd9e5a0a{fill:url(#SVGID_4_);}
	.o1787fd8{fill:url(#SVGID_5_);}
	.le3876121{fill:url(#SVGID_6_);}
	.oc7b3f3d{fill:#9E8266;}
	.i29d4906{fill:#322E26;}
	.le3876124{fill:#332F27;}
	.c815587c{fill:#791722;}
	.v03ead1b{fill:url(#SVGID_7_);}
	.v1b5e6ca{fill:url(#SVGID_8_);}
	.l1717ca9{fill:url(#SVGID_9_);}
	.q51b80ed{fill:url(#SVGID_10_);}
	.e5bd59e8{fill:url(#SVGID_11_);}
	.l316e40a{fill:url(#SVGID_12_);}
	.v26a73d82{fill:url(#SVGID_13_);}
	.v26a73d83{fill:url(#SVGID_14_);}
	.c781bdde{fill:url(#SVGID_15_);}
	.v26a73d85{fill:url(#SVGID_16_);}
	.pfecee86{fill:url(#SVGID_17_);}
	.v26a73d87{fill:url(#SVGID_18_);}
	.d9d0b98c{fill:url(#SVGID_19_);}
	.l81ea449{fill:url(#SVGID_20_);}
	.wd2b777d{fill:url(#SVGID_21_);}
	.b9766349{fill:#222325;}
	.a4266d0c{fill:#A0925A;}
	.pdd24914{fill:#061E34;}
	.sa508dbc{fill:#028E8F;}
	.ze5394f0{fill:#D5192C;}
	.i94f7f67{fill:#FAC201;}
	.xc4edfef{fill:url(#SVGID_22_);}
	.a40ed4ee{fill:url(#SVGID_23_);}
	.o5fbda94{fill:url(#SVGID_24_);}
	.qd709eff{fill:url(#SVGID_25_);}
	.we5e1c6d{fill:#9F8A58;}
	.k79bb129{fill:#749ED4;}
	.oa6ece73{fill:#045991;}
	.h263035e{fill:#1F9A8D;}
	.cd503ba6{fill:#222D68;}
	.l4a0bfb0{fill:#14152E;}
	.g163a83d{fill:#62B3E4;}
	.rc118e6c{fill:#FEFEFE;}
	.s63171cd{fill:none;}
	.lc5ba3660{fill:#FC0302;}
	.gfb6a79f{fill:#FE0807;}
	.id7ca423{fill:#98684C;}
	.acb6eda9{fill:#86754D;}
	.b0dc9bb0{fill:#42484D;}
	.za961b1c{fill:#41474C;}
	.lc5ba3666{fill:#43494D;}
	.lc5ba3667{fill:#DF073D;}
	.lc5ba3668{fill:#DE023A;}
	.i1922dba{fill:#FFFFFF;}
	.u59c5be5{fill:#6F6E6C;}
	.ddf36292{fill:#072F67;}
	.vc0c00e2{fill:#53A220;}
	.z0cfba6d{fill:#FDC013;}
	.v6f5311f{fill:url(#SVGID_26_);}
	.g6bd3ee2{fill:url(#SVGID_27_);}
	.ibff42fd{fill:url(#SVGID_28_);}
	.mb8b3905{fill:#793A98;}
	.v7108eb4{fill:url(#SVGID_29_);}
	.t1c66401{fill:url(#SVGID_30_);}
	.jdd722db0{fill:url(#SVGID_31_);}
	.d4370587{fill:url(#SVGID_32_);}
	.j88d7530{fill:url(#SVGID_33_);}
</style>
<g>
	<path class="vc0c00e2" d="M63.07,18.56c0.94,15.2-3.16,29.07-11.38,41.71c-5.66,8.7-13.72,14.19-23.99,16.18
		c-2.21,0.43-4.47,0.73-6.75,0.72c-6.25-0.01-12.51,0-18.76,0c-0.46,0-0.94,0.09-1.48-0.37c1.27-4.73,2.57-9.54,3.86-14.35
		c3.16-11.74,6.31-23.49,9.48-35.23c2.14-7.91,4.31-15.81,6.44-23.72c0.27-1.02,0.84-1.38,1.85-1.36C29.76,2.26,37.19,1.88,44.6,2.4
		c3.37,0.24,6.62,1.12,9.61,2.74c3.26,1.77,5.63,4.38,7.18,7.78C62.41,15.07,63.03,17.89,63.07,18.56z M18.47,63.51
		c1.61,0,2.77-0.03,3.94,0c7.53,0.22,13.18-3.07,17.37-9.19c3.22-4.7,5.08-9.97,6.52-15.42c1.17-4.4,1.83-8.87,1.36-13.44
		c-0.52-5.15-3.53-8.47-8.6-9.4c-2.53-0.47-5.09-0.09-7.69-0.24C27.04,31.8,22.8,47.5,18.47,63.51z"/>
	<path class="vc0c00e2" d="M82.55,9.31c1.31-2.38,2.65-4.75,3.93-7.04c6.4,0,12.61,0,19.14,0c0,2.05,0,3.98,0,5.91
		c0,0.94,0.15,6.7,0.12,8.74c-0.01,0.38-0.06,2.96-0.05,4.08c0.1,18.36,0.18,36.72,0.25,55.08c0,0.23-0.05,0.46-0.07,0.69
		c-1.54,0.49-10.83,0.63-14.35,0.19c0-5.16,0-10.36,0-15.71c-7.77,0-15.31,0-23.13,0c-2.81,5.17-5.7,10.5-8.61,15.86
		c-4.67,0-9.26,0-13.83,0c-0.39-0.78,0.22-1.24,0.49-1.73c4.24-7.8,8.53-15.59,12.79-23.38c6.28-11.48,12.55-22.96,18.84-34.43
		C78.49,16.81,82.32,9.73,82.55,9.31z M91.43,48.33c0-10.03,0-19.75,0-29.47c-0.11-0.01-0.21-0.02-0.32-0.03
		c-5.26,9.77-10.53,19.53-15.91,29.5C80.85,48.33,86.12,48.33,91.43,48.33z"/>
	<path class="vc0c00e2" d="M143.23,15.95c-3.03,1.46-4.13,2.27-5.88,3.72c-4.36,3.61-7.17,8.38-9.24,13.6c-2.34,5.9-4.1,11.95-3.9,18.38
		c0.1,3.38,1.03,6.64,3.16,9.32c2.34,2.95,5.58,4.33,9.34,4.49c3.99,0.18,7.69-0.91,11.27-2.53c0.35-0.16,0.69-0.35,1.05-0.51
		c0.06-0.03,0.15,0.02,0.3,0.04c0.61,0.43,0.31,1.1,0.23,1.65c-0.44,3.17-0.99,6.32-1.39,9.49c-0.16,1.2-0.91,1.74-1.84,2.2
		c-5.53,2.73-11.4,3.7-17.5,3.09c-1.98-0.2-3.99-0.27-5.92-0.88c-5.92-1.89-10.16-5.66-12.66-11.35c-1.4-3.18-1.9-6.51-1.91-10
		c-0.01-4.17-0.19-8.43,1.01-12.37c2.14-7.03,4.05-14.2,7.92-20.59c0.8-1.32,2.36-3.89,3.27-5.2c1.38-1.97,6.32-7.22,6.82-7.65
		c9.1-7.85,19.43-11.74,31.54-9.76c2.92,0.48,5.73,1.42,8.07,3.57c-1.8,4.34-3.24,8.69-5.3,12.9c-0.85-0.51-1.49-0.96-2.18-1.31
		c-2.97-1.51-6.1-2.37-9.46-2.19C146.61,14.48,145.17,15.09,143.23,15.95z"/>
</g>
</svg>
