<?xml version="1.0" encoding="utf-8"?>
<!-- Generator: Adobe Illustrator 25.4.1, SVG Export Plug-In . SVG Version: 6.00 Build 0)  -->
<svg version="1.1" id="Layer_1" xmlns="http://www.w3.org/2000/svg" xmlns:xlink="http://www.w3.org/1999/xlink" x="0px" y="0px"
	 viewBox="0 0 79.7 80" style="enable-background:new 0 0 79.7 80;" xml:space="preserve">
<style type="text/css">
	.gb1246ab{fill:#0C0C11;}
	.k19b07f8{fill:#CF253A;}
</style>
<path class="gb1246ab" d="M-238.6-885.5c-0.7-0.1-1.8,0-2.5,0c0.5-0.4,1.2-0.7,1.6-0.5c0.1,0,0.1,0,0.2,0.1
	C-239.1-885.8-238.8-885.6-238.6-885.5z"/>
<g id="text835">
</g>
<g>
	<path class="k19b07f8" d="M20.9,50.4c4.2,2.8,28.3-4.6,58.8-15.7C77.2,15.6,61.2,0.7,41.6,0C41.4,0.2,8.2,41.9,20.9,50.4z"/>
	<path class="k19b07f8" d="M10.9,67.4C18.2,75.2,28.5,80,40,80c15.6,0,29.1-8.9,35.7-21.9C75.6,58.1,39,72,10.9,67.4z"/>
	<path class="k19b07f8" d="M36.6,0.1C16.1,1.8,0,19,0,40C0,45.1,1,50,2.8,54.6C2.7,54.2,1.8,37.3,36.6,0.1z"/>
</g>
</svg>
