<?xml version="1.0" encoding="utf-8"?>
<!-- Generator: Adobe Illustrator 25.4.1, SVG Export Plug-In . SVG Version: 6.00 Build 0)  -->
<svg version="1.1" id="Layer_1" xmlns="http://www.w3.org/2000/svg" xmlns:xlink="http://www.w3.org/1999/xlink" x="0px" y="0px"
	 viewBox="0 0 80 80" style="enable-background:new 0 0 80 80;" xml:space="preserve">
<style type="text/css">
	.re430eb3{fill:#005EB8;}
	.m5be04a6{fill:#014FB7;}
	.t9d824be{fill:#0077C8;}
	.udce2e37{fill:#0067C7;}
	.f9941fe0{fill:#00A3E0;}
	.b3393713{fill:#0195DF;}
	.ae870d99{fill:#71C5E8;}
	.q275c908{fill:#082C88;}
	.a3acdc45{fill:#FFFFFF;}
</style>
<path id="Path_5056" class="re430eb3" d="M75.3,35.6c-1.8-0.9-14.3-4.2-24.5-5.9c-3.4-0.7-6.8-1-10.3-1.1c6.2,0.3,11,5.3,11,11.5l0,0
	c0,0.2,0,0.5,0,0.7c-0.1,3.4-0.5,6.7-1.2,10l29.7-7c0-0.3,0-0.5,0-0.8C80,39.8,78.2,36.9,75.3,35.6z"/>
<path id="Path_5057" class="m5be04a6" d="M51.6,40v10.5l-1.4,0.3L51.6,40"/>
<path id="Path_5058" class="t9d824be" d="M40,51.5L40,51.5c-0.4,0-0.8,0-1.2-0.1c-3.2-0.2-6.4-0.5-9.6-1.1l7,29.6c0.3,0,0.5,0,0.8,0
	c3.1,0,6-1.8,7.3-4.7c0.9-1.8,4.2-14.3,5.9-24.5c0.6-3.3,1-6.7,1.2-10C51.1,46.8,46.1,51.5,40,51.5z"/>
<path id="Path_5059" class="udce2e37" d="M40,51.5H29.5l-0.3-1.4L40,51.5"/>
<path id="Path_5060" class="f9941fe0" d="M28.5,40C28.5,40,28.5,40,28.5,40c0-0.2,0-0.4,0-0.6c0.1-3.4,0.5-6.8,1.2-10.2L0,36.2
	c0,0.3,0,0.5,0,0.8c0,3.1,1.8,6,4.7,7.3c1.8,0.9,14.3,4.2,24.5,5.9c3.2,0.6,6.4,1,9.6,1.1C33,50.8,28.5,45.9,28.5,40z"/>
<path id="Path_5061" class="b3393713" d="M28.5,40V29.5l1.4-0.3L28.5,40"/>
<path id="Path_5062" class="ae870d99" d="M43.8,0c-0.3,0-0.5,0-0.8,0c-3.1,0-6,1.8-7.3,4.7c-0.9,1.8-4.2,14.3-5.9,24.5
	c-0.6,3.4-1,6.8-1.2,10.2c0.3-6.1,5.4-10.9,11.5-10.9l0,0c0.2,0,0.3,0,0.5,0c3.5,0.1,6.9,0.5,10.3,1.1L43.8,0z"/>
<path id="Path_5063" class="q275c908" d="M40.2,28.4H40c-6.4,0-11.6,5.2-11.6,11.5v0c0,6.3,5.1,11.5,11.4,11.5H40
	c6.4,0,11.6-5.2,11.6-11.5v0C51.6,33.6,46.5,28.5,40.2,28.4z"/>
<path id="Path_5064" class="a3acdc45" d="M40,46.5c-2.2-0.1-4.3-1.3-5.3-3.2c-13.4-1-27.9-3.1-28.1-3.1c-0.3,0-0.3-0.3-0.3-0.4
	c0-0.2,0.1-0.4,0.4-0.4c0,0,0,0,0,0l27.2,0.6l0,0c-0.1-3,1.9-5.7,4.8-6.4l0.9-11.2c0-0.2,0.2-0.4,0.4-0.4c0,0,0,0,0,0l0,0
	c0.2,0,0.4,0.2,0.4,0.4c0,0,0,0,0,0l1,11.2c2.9,0.8,4.8,3.4,4.7,6.4l0,0l27.2-0.6c0.2,0,0.4,0.2,0.4,0.4c0,0,0,0,0,0
	c0,0.2-0.1,0.4-0.3,0.4c-0.2,0-14.7,2-28.1,3C44.3,45.2,42.3,46.5,40,46.5z"/>
</svg>
