<svg width="80" height="80" viewBox="0 0 80 80" fill="none" xmlns="http://www.w3.org/2000/svg">
<g>
<path d="M54.7999 30.1599C61.4399 30.1599 67.6 30.72 73.36 31.84L71.4399 33.6799C66.32 32.7199 61.0399 32.24 55.2 32.24H53.6799L52.8 33.92H54.16C59.7599 33.92 65.2799 34.3999 69.84 35.2L68 36.9599C63.92 36.2399 59.44 35.92 53.4399 35.92H51.7599L50.7199 37.68C52.1599 37.6 53.2799 37.6 54.16 37.6C58.4 37.6 63.04 37.9199 66.3999 38.4799L64.5599 40.24C61.36 39.7599 58.56 39.5999 54.32 39.5999C52.7199 39.5999 50.3199 39.68 49.1999 39.7599L47.7599 41.52C49.7599 41.36 51.68 41.28 53.8399 41.28C56.48 41.28 59.5999 41.4399 62.8799 41.84L60.96 43.6799C58.72 43.4399 56.32 43.2799 54.64 43.2799C48.32 43.2799 43.76 44.32 40.08 46.56C44.48 51.28 52.08 54.08 60.56 54.08H61.36L58 57.28C45.2 54.72 36 50.72 25.6799 43.36C17.76 37.68 14.64 35.76 7.11996 32.3199L7.04 30L12.64 32.3199L15.04 30.4799L30.7199 37.6L29.0399 38.88L21.28 35.5199L20.24 36.48L23.6 38.4C27.1999 40.3199 29.8716 41.36 32.6554 41.36C37.9613 41.36 43.1199 37.44 46.32 30.56C49.0399 30.3199 51.92 30.1599 54.7999 30.1599ZM80 40C80 62.08 62.1599 80 40 80C17.92 80 0 62.08 0 40C0 17.84 17.92 0 40 0C62.1599 0 80 17.84 80 40ZM77.12 40C77.12 19.52 60.4799 2.87994 40 2.87994C19.6 2.87994 2.87994 19.52 2.87994 40C2.87994 60.4 19.6 77.1199 40 77.1199C60.4799 77.1199 77.12 60.4 77.12 40Z" fill="#05164D"/>
</g>
</svg>
