<?xml version="1.0" encoding="utf-8"?>
<!-- Generator: Adobe Illustrator 25.4.1, SVG Export Plug-In . SVG Version: 6.00 Build 0)  -->
<svg version="1.1" id="Layer_1" xmlns="http://www.w3.org/2000/svg" xmlns:xlink="http://www.w3.org/1999/xlink" x="0px" y="0px"
	 viewBox="0 0 357.1 80" style="enable-background:new 0 0 357.1 80;" xml:space="preserve">
<style type="text/css">
	.rf798d23{fill:url(#SVGID_1_);}
	.u3fe1c82{fill:url(#SVGID_00000101069373267714659280000005861529065213301932_);}
	.ked49490{fill:url(#SVGID_00000097483384612212423800000018384236936764838319_);}
	.u5ea6949{fill:url(#SVGID_00000038389089460298640390000001417286178541624746_);}
	.pb7cb8d0{fill:url(#SVGID_00000183927661537296519860000015279464261580397723_);}
	.t358ed16{opacity:0.2;fill:url(#SVGID_00000121984467145740603020000010208336922753324979_);enable-background:new    ;}
</style>
<g>
	
		<linearGradient id="SVGID_1_" gradientUnits="userSpaceOnUse" x1="-797.1396" y1="-55.8829" x2="-571.826" y2="-55.8829" gradientTransform="matrix(0.9935 0.1142 0.1142 -0.9935 796.5137 51.1272)">
		<stop  offset="0" style="stop-color:#E12F29"/>
		<stop  offset="0.53" style="stop-color:#E5332B"/>
		<stop  offset="1" style="stop-color:#BE1622"/>
	</linearGradient>
	<path class="rf798d23" d="M114.7,42.6c21-3.2,42-6.1,62-6.4c41.7-2.7,45.3,4.6,45.3,4.6s-0.9-12-1.5-20.5c-0.2-2.4-1.9-4.5-4.2-5.1
		C149.6-2.4,58.5,27.5,0,0c0.2,15.4-0.5,34.4,27,45c16.7,5.3,50.1,3.3,84.2-1.9L114.7,42.6z"/>
	
		<linearGradient id="SVGID_00000115480761989193110870000014192417604212414371_" gradientUnits="userSpaceOnUse" x1="-674.9697" y1="-68.5393" x2="-674.9697" y2="-68.5393" gradientTransform="matrix(0.9935 0.1142 0.1142 -0.9935 796.5137 51.1272)">
		<stop  offset="0" style="stop-color:#C73A25"/>
		<stop  offset="0.6" style="stop-color:#F8B133"/>
	</linearGradient>
	<path style="fill:url(#SVGID_00000115480761989193110870000014192417604212414371_);" d="M118.1,42.1L118.1,42.1z"/>
	
		<linearGradient id="SVGID_00000145041341929234740540000002904734547191036853_" gradientUnits="userSpaceOnUse" x1="-654.0224" y1="-73.2469" x2="-436.559" y2="-73.2469" gradientTransform="matrix(0.9935 0.1142 0.1142 -0.9935 796.5137 51.1272)">
		<stop  offset="0" style="stop-color:#C73A25"/>
		<stop  offset="0.6" style="stop-color:#F8B133"/>
	</linearGradient>
	<path style="fill:url(#SVGID_00000145041341929234740540000002904734547191036853_);" d="M357,51.3
		c-34.3-16.8-105.2-15.7-134.9-10.6c7.9,25-77.7,8.5-85.8,29c-4.3,11.1,19.4,13.9,57.3,5C236.1,65.6,307.5,48.4,357,51.3L357,51.3z"
		/>
	
		<linearGradient id="SVGID_00000158030454628365358480000001404600249050261665_" gradientUnits="userSpaceOnUse" x1="-674.9697" y1="-68.5393" x2="-674.9697" y2="-68.5393" gradientTransform="matrix(0.9935 0.1142 0.1142 -0.9935 796.5137 51.1272)">
		<stop  offset="0" style="stop-color:#E12F29"/>
		<stop  offset="0.53" style="stop-color:#E5332B"/>
		<stop  offset="1" style="stop-color:#BE1622"/>
	</linearGradient>
	<path style="fill:url(#SVGID_00000158030454628365358480000001404600249050261665_);" d="M118.1,42.1L118.1,42.1z"/>
	
		<linearGradient id="SVGID_00000022541793700190570520000006843487908305888689_" gradientUnits="userSpaceOnUse" x1="1125.6038" y1="10.8941" x2="1201.4969" y2="35.4432" gradientTransform="matrix(-1 0 0 -1 1356.3486 83.7736)">
		<stop  offset="0" style="stop-color:#FFFFFF"/>
		<stop  offset="0.26" style="stop-color:#EDBFC2"/>
		<stop  offset="0.77" style="stop-color:#CB4650"/>
		<stop  offset="1" style="stop-color:#BD1622"/>
	</linearGradient>
	<path style="fill:url(#SVGID_00000022541793700190570520000006843487908305888689_);" d="M222.1,40.8c3.1-0.5,6.6-1,10.6-1.5
		l1.3,3.5c7.9,25-77.7,8.5-85.8,29c-1.5,3.7,0.3,6.5,4.6,8.2c-7.1-0.2-12.2-1.5-14.9-3.6c-2.1-1.5-2.8-4.3-1.7-6.6
		C144.4,49.2,230,65.7,222.1,40.8z"/>
	
		<linearGradient id="SVGID_00000178177687288224583020000008854799938208176040_" gradientUnits="userSpaceOnUse" x1="1246.4017" y1="70.1891" x2="1235.4896" y2="89.1026" gradientTransform="matrix(-1 0 0 -1 1356.3486 83.7736)">
		<stop  offset="0" style="stop-color:#FFFFFF"/>
		<stop  offset="0.99" style="stop-color:#FFFFFF;stop-opacity:0"/>
	</linearGradient>
	<path style="opacity:0.2;fill:url(#SVGID_00000178177687288224583020000008854799938208176040_);enable-background:new    ;" d="
		M220.6,24.3c-0.2-2.4-1.8-4.5-4.2-5.1C149.6,1.6,18.1,46.8,0,0.5V0c58.5,27.5,149.6-2.4,216.4,15.2c2.3,0.6,4,2.7,4.2,5.1
		C221.2,28.8,220.6,24.3,220.6,24.3z"/>
</g>
</svg>
