<?xml version="1.0" encoding="utf-8"?>
<!-- Generator: Adobe Illustrator 25.4.1, SVG Export Plug-In . SVG Version: 6.00 Build 0)  -->
<svg version="1.1" xmlns="http://www.w3.org/2000/svg" xmlns:xlink="http://www.w3.org/1999/xlink" x="0px" y="0px"
	 viewBox="0 0 161.6 80" style="enable-background:new 0 0 161.6 80;" xml:space="preserve">
<style type="text/css">
	.jd124cef{fill-rule:evenodd;clip-rule:evenodd;fill:#0033A0;}
	.s5127b2f{fill-rule:evenodd;clip-rule:evenodd;fill:#D90012;}
	.b8d3c54a{fill-rule:evenodd;clip-rule:evenodd;fill:#F2A800;}
</style>
<g id="Layer_2">
</g>
<g id="Layer_1">
	<g>
		<path class="jd124cef" d="M21.2,42.7C31.6,30.5,46.9,22.6,64,22.1L121.9,80h39.7l-80-80H80C36.5,0,1,34.8,0,78.2L0,80h7.6l0.1-2.3
			c0.8-14.3,12.7-25.6,27-25.6h1.6h14.9V37.3h-9.2C34.4,37.3,27.4,39.2,21.2,42.7z"/>
		<polygon class="jd124cef" points="54.9,37.3 73.7,37.3 88.6,52.1 54.9,52.1 		"/>
		<g>
			<path class="s5127b2f" d="M38.4,0H0v13.6h19.8C25.4,8.3,31.6,3.7,38.4,0z"/>
			<path class="jd124cef" d="M19.8,13.6H0v13.6h8C11.5,22.3,15.4,17.7,19.8,13.6z"/>
			<path class="b8d3c54a" d="M8,27.2H0v13.6C2.3,36,4.9,31.4,8,27.2z"/>
		</g>
	</g>
</g>
</svg>
