<?xml version="1.0" encoding="utf-8"?>
<!-- Generator: Adobe Illustrator 25.4.1, SVG Export Plug-In . SVG Version: 6.00 Build 0)  -->
<svg version="1.1" xmlns="http://www.w3.org/2000/svg" xmlns:xlink="http://www.w3.org/1999/xlink" x="0px" y="0px"
	 viewBox="0 0 88.9 80" style="enable-background:new 0 0 88.9 80;" xml:space="preserve">
<style type="text/css">
	.f369679a{fill:#FFFFFF;}
	.dd595074{fill-rule:evenodd;clip-rule:evenodd;fill:#1B1A54;}
	.z19725cc{fill-rule:evenodd;clip-rule:evenodd;fill:#2B3386;}
	.i61eba74{fill-rule:evenodd;clip-rule:evenodd;fill:#FFFFFF;}
</style>
<g id="Layer_2">
</g>
<g id="Layer_1">
	<path class="f369679a" d="M88,16.8c-2.6,2.7-5,5.3-7.1,8.1c-2,2.7-3.7,5.6-4.8,8.7c-0.4,1.3-0.8,2.6-1,3.8c-0.2,1.3-0.4,2.6-0.4,3.9
		l-0.5,20.5c-0.1,4.5-1.2,9-3.7,12.2c-2.3,3-5.5,4.9-10,4.9H24.6c-0.9,0-1.7-0.4-2.3-1.1c-2.8,1.5-6,2.3-9.2,2.3
		c-4.5-0.1-8.9-1.7-12.4-5.5c-1.1-1.2-1-3,0.1-4.1c0.1-0.1,0.2-0.2,0.4-0.3l2.1-1.6c-0.1-1.5-0.1-3-0.1-4.5c0.1-2.2,0.3-4.3,0.9-6.3
		c3.4-11.3,10.2-21.7,17.9-30.4C34,14,48.2,4.3,54.7,0.7c1.3-0.7,3.7-0.9,6-0.5l0,0l0,0c1.2,0.2,2.5,0.6,3.6,1.2
		c1.4,0.8,2.5,2,2.8,3.5c0.3,1,0.2,2.2-0.3,3.4c-1.6,3.9-3.5,6.6-5.5,9.4c-1.6,2.2-3.2,4.5-4.5,7.3c-0.3,0.6-0.3,1.1-0.2,1.4
		c0.1,0.1,0.1,0.2,0.2,0.3c0.1,0.1,0.2,0.1,0.3,0.1c0.1,0,0.2,0,0.2,0c1.6-1.6,3.2-3.5,4.7-5.5c4.1-5.1,8.2-10.1,13.5-10.4
		c2-0.1,3.9-0.1,5.7,0.1c2.1,0.2,3.9,0.5,5.4,0.9c1.5,0.4,2.5,2,2,3.5C88.7,16,88.4,16.4,88,16.8L88,16.8z"/>
	<path class="dd595074" d="M86,14.7c-5.3,5.5-10.3,11.2-12.7,18c-1,2.8-1.5,5.7-1.5,8.6l-0.5,20.5c-0.2,7.3-3.2,14.2-10.8,14.2H24.6
		c-0.1-0.7-0.1-2.5-0.2-3.1C18.6,78.1,9,79.1,2.9,72.5l3.5-2.6C6.1,66,5.9,62.1,7,58.5C15.2,30.7,45.6,9,56.1,3.3
		c1.9-1,9.7-0.1,8.1,4c-2.7,6.8-7,10.1-9.9,16.6c-2.1,4.7,2.9,7.4,5.3,5c5.6-5.5,10.5-14.7,16.4-15C79.8,13.5,83.5,14,86,14.7
		L86,14.7z"/>
	<path class="z19725cc" d="M7,58.5c3.4-11.5,10.6-22,18.7-30.8c7.9,3,17.4,2.8,28.4-0.3c0.4,0.9,1.1,1.5,1.9,1.9c-4.7,3.6-9,7-13.2,10.7
		c-3.5,4.5-7.5,9.2-12.5,12C21.9,56.7,14.9,58.6,7,58.5L7,58.5z"/>
	<path class="i61eba74" d="M12.9,44.9c2-3.5,4.3-6.8,6.7-10c6.5,1.5,16.9,0.9,26.9-3.3l1.5,0.7C41.6,35.5,29.4,47.9,20.5,47
		C17.8,46.7,16.4,46.9,12.9,44.9L12.9,44.9z"/>
	<path class="i61eba74" d="M76.4,16.3c1.1-0.4,2.1-0.3,2.3,0.2c0.2,0.5-0.5,1.3-1.6,1.7C76,18.6,75,18.5,74.8,18
		C74.6,17.5,75.3,16.7,76.4,16.3L76.4,16.3z"/>
	<path class="z19725cc" d="M27.7,37.8h1v1.1h-1V37.8L27.7,37.8z M27.7,41.9h1V43h-1V41.9L27.7,41.9z M24.7,40.9h1V42h-1V40.9L24.7,40.9z
		 M22.6,37.8h1v1.1h-1V37.8L22.6,37.8z M19.5,41.9h1V43h-1V41.9L19.5,41.9z"/>
	<path class="i61eba74" d="M71,50.8l0.4-11.2H59c-3.3,0-3.2,4.5-2.5,6l3.9,7.8c0.7,1.4,1.5,2.5-0.5,2.5L56,56c-1.4,5.1-2.9,10-4.6,15.1
		h15.5c3.4,0,4.8-8,3.2-11.1l-4-7.4c-0.3-0.6-1.2-1.8,0.6-1.8H71L71,50.8z M52.2,39.6H47c-2.4,9.5-4.3,18.8-7.5,28.1
		c-1.7,4.9,5.2,5,10.3,3.2c1.8-4.9,3.3-9.8,4.5-14.7h-6.9L52.2,39.6L52.2,39.6z M9,54.7c4.3,0,8.9-0.1,13.2,0
		c5.7,0.1,14.9-7.8,20.1-15.1H45c-1.9,10.6-4.7,21.1-8.3,31.7c-2,0-4.1,0-6.1,0c1.4-3.7,2.7-7.4,3.5-11c-8.9,9.8-15.4,13.3-20,12.9
		c-3.5-0.3-5.2-2.2-7.1-3.4C6.5,64.5,6.8,59.4,9,54.7L9,54.7z M32.3,57h2.9l1.6-3.8L32.3,57L32.3,57z"/>
</g>
</svg>
