<?xml version="1.0" encoding="utf-8"?>
<!-- Generator: Adobe Illustrator 25.4.1, SVG Export Plug-In . SVG Version: 6.00 Build 0)  -->
<svg version="1.1" id="Layer_1" xmlns="http://www.w3.org/2000/svg" xmlns:xlink="http://www.w3.org/1999/xlink" x="0px" y="0px"
	 viewBox="0 0 100.7 80" style="enable-background:new 0 0 100.7 80;" xml:space="preserve">
<style type="text/css">
	.i984fca5{fill:#004C96;}
	.zb2c8ee3{fill:#FFFFFF;}
	.qd735f70{fill:#0360A2;}
</style>
<g>
	<g id="g94" transform="translate(278.3771,204.5995)">
		<g id="path96">
			<polygon class="i984fca5" points="-204.3,-184.8 -205.5,-185.8 -193.8,-200 -194.1,-197 -194.2,-197 			"/>
		</g>
	</g>
	<g id="g98" transform="translate(340.5246,164.3671)">
		<g id="path100">
			<g>
				<path class="i984fca5" d="M-261.2-121.6l-0.5-1.5c10-3.5,18.3-7.7,18.3-7.7l3.5-1.8l-2.9,3.3l-0.1-0.1
					C-244.1-128.7-251.9-124.9-261.2-121.6z"/>
			</g>
		</g>
	</g>
	<g id="g102" transform="translate(105.5968,61.7094)">
		<g id="path104">
			<g>
				<path class="i984fca5" d="M-98.5,12.6l-2.3-2.5l1.6-0.1c0,0,3.4-0.3,7.9-2.4l0.6,1.4c-2.9,1.3-5.4,2-6.9,2.3l0.2,0.2L-98.5,12.6z"/>
			</g>
		</g>
	</g>
	<g id="g20" transform="translate(289.5548,215.7895)">
		<path id="path22" class="i984fca5" d="M-211.8-200.8c-13.6,17.4-26.5,35.5-37.6,45.3c4.7-0.7,9.7-1.9,17.2-4.3
			C-226.4-173.1-216.1-193.3-211.8-200.8 M-266.8-162.7c-0.2,0-0.4,0.1-0.4,0.4c0,0.1,0,0.2,0.1,0.2c0.2,0.3,0.5,0.5,0.8,0.7
			c0.3,0.2,0.7,0.3,1.1,0.4c0.5,0.1,1.1,0.2,1.6,0.3c0.7,0.1,1.5,0.1,2.2,0.2c0.9,0,1.9,0.1,2.8,0.1c0.3,0,0.5,0,0.8,0
			c0.1,0,0.3,0,0.4,0c0.1,0,0.3,0,0.4,0C-260.6-161.8-262-161.9-266.8-162.7C-266.7-162.7-266.8-162.7-266.8-162.7 M-250.6-159
			c0.6,0.3,0.6,0.3,1.2,0.6c0.4-0.4,0.5-0.4,1-0.8L-250.6-159z M-248-157.8c3.9,1.9,6.3,3.8,8.9,6.4c4.3,4.3,5,6,5.6,9.1
			c0-1.5,0-3.4,0.1-4.8c0.3-4.2,2.1-9.7,5-16.5c-6.4,2-12,3.4-18.1,4.2C-247-158.8-247.4-158.3-248-157.8 M-233.6-140.5
			c-1.3-5.5-4.6-11.9-15-16.8c-8.7,7.3-17.3,11.4-24.3,13.5c-0.4,0.1,0.1,0.1-0.3,0.2c-3.8,1.1-8.8,1.6-8.8,1.6l-0.4-0.5
			c0,0,4.3-0.5,8.1-1.6c7-2.2,15.3-6.4,24.3-13.9c-0.9-0.4-1.4-0.6-2.4-0.9c-8.7,0.5-14-1.3-15.1-2.7c-0.3-0.4-0.6-0.8-0.2-1.3
			c0.2-0.4,0.7-0.6,1.2-0.5c5.5,1.1,10.6,2.5,13.8,3.6c1.3-0.1,2.8-0.2,4.3-0.4c0.4-0.1,0.9-0.1,1.3-0.2
			c12.1-10.6,25.8-25.7,41-45.5l0,1.4c-0.1,0.2-3.1,5.4-7,12.8c0,0.1-0.1-0.1-0.1-0.1c-3.9,7.4-8.7,17-12.7,26
			c9.3-3,18.9-7.3,32.6-14.3l-1,1.3c-9.8,5-19.4,10.4-32.1,14.5c-3,6.9-5.8,13.7-5.8,18.7"/>
	</g>
	<g id="g24" transform="translate(295.3664,150.2558)">
		<g id="path26">
			<path class="i984fca5" d="M-215.4-110.3c0,22.1-17.9,40-40,40s-40-17.9-40-40s17.9-40,40-40S-215.4-132.3-215.4-110.3"/>
		</g>
	</g>
	<g id="g28" transform="translate(145.2316,119.0668)">
		<path id="path30" class="zb2c8ee3" d="M-122.5-67.2c-0.2,0-0.3,0.1-0.4,0.2c-0.1,0.1,0,0.4,0.3,0.6c0.6,0.5,4.8,2.6,9.4,1.5
			C-115.8-65.6-120-66.8-122.5-67.2C-122.4-67.2-122.4-67.2-122.5-67.2 M-89.3-46.3c0,0-0.1-3.9-4.2-8.3c-4.7-5.1-12.5-7.8-19.6-9.9
			c-6,0.3-9.1-0.7-10-1.4c-0.6-0.5-0.5-1-0.3-1.4c0.2-0.4,0.7-0.6,1.2-0.5c3,0.5,7.1,1.5,10.5,2.5c3.1-0.2,3.4-0.2,7.7-1
			c16.8-3,32.3-7.2,56.2-18.4l-1.1,1.5c-24,11.2-41.1,15.1-52.4,16.9c-3.5,0.6-6.6,1.3-9.4,1.5c6.7,2.1,13.3,4.9,17.7,9.7
			c4.2,4.6,4.3,8.6,4.3,8.7L-89.3-46.3z"/>
	</g>
	<g id="g32" transform="translate(232.3146,62.1332)">
		<path id="path34" class="zb2c8ee3" d="M-176.3,11.5c-2.5-8.7,1.4-22.3,11.5-40.3c3.5-6.3,7.7-13,10.6-17.3
			c-31.9,37.7-54.3,51.5-65.2,55.7c-3.7,1.4-5.1,1.5-5.2,1.5l-0.5-0.6c0,0,1.9-0.1,5.5-1.5c11.5-4.5,36.1-18.9,70.9-63.9l-0.2,2.9
			c-0.3,0.4-31.2,40.5-26.3,61.9L-176.3,11.5z"/>
	</g>
	<g id="g36" transform="translate(297.1574,220.5326)">
		<path id="path38" class="zb2c8ee3" d="M-216.5-207.3c-13.6,17.4-24.9,30.9-36,40.7c4.7-0.7,9.7-1.9,17.2-4.3
			C-229.5-184.3-220.8-199.8-216.5-207.3 M-274.4-168.6c-0.2,0-0.4,0.1-0.4,0.4c0,0.1,0,0.2,0.1,0.2c0.2,0.3,0.5,0.5,0.8,0.7
			c0.3,0.2,0.7,0.3,1.1,0.4c0.5,0.1,1.1,0.2,1.6,0.3c0.7,0.1,1.5,0.1,2.2,0.2c0.9,0,1.9,0.1,2.8,0.1c0.3,0,0.5,0,0.8,0
			c0.1,0,0.3,0,0.4,0c0.1,0,0.3,0,0.4,0C-268.2-167.7-269.6-167.9-274.4-168.6C-274.3-168.6-274.4-168.6-274.4-168.6 M-258.2-164.9
			c0.6,0.3,0.6,0.3,1.2,0.6c0.4-0.4,0.5-0.4,1-0.8L-258.2-164.9z M-255.6-163.7c3.9,1.9,6.3,3.8,8.9,6.4c4.3,4.3,5,6,5.6,9.1
			c0-1.5,0-3.4,0.1-4.8c0.3-4.2,2.1-9.7,5-16.5c-6.4,2-12,3.4-18.1,4.2C-254.6-164.7-255-164.3-255.6-163.7 M-240.5-144.6
			c-0.1,0-0.2,0-0.3-0.2c-0.2-0.2-0.3-1.4-0.4-1.6c-1.3-5.5-4.6-11.9-15-16.8c-9.2,7.7-18.2,12.3-25.4,14.3
			c-3.8,1.1-7.8,1.5-7.9,1.5l-0.5-0.6c0,0,4.5-0.4,8.2-1.5c7.1-2,15.2-6.8,24.2-14.3c-0.9-0.4-1.4-0.6-2.4-0.9
			c-8.7,0.5-14-1.3-15.1-2.7c-0.3-0.4-0.6-0.8-0.2-1.3c0.2-0.4,0.7-0.6,1.2-0.5c5.5,1.1,10.6,2.5,13.8,3.6c1.3-0.1,2.8-0.2,4.3-0.4
			c0.4-0.1,0.9-0.1,1.3-0.2c12.1-10.6,25.7-25.8,40.9-45.6l0,1.3c-0.2,0.3-11.8,20.9-19.7,39c9.3-3,19.8-7.4,33.6-14.4l-1,1.3
			c-9.8,5-20.3,10.4-33.1,14.6c-3,6.9-5.8,13.7-5.8,18.7c0,0-0.1,6.2-0.1,6.2C-239.8-144.9-240.2-144.6-240.5-144.6"/>
	</g>
	<g id="g40" transform="translate(151.1603,104.684)">
		<path id="path42" class="zb2c8ee3" d="M-126.1-47.3c-0.2,0-0.4,0.4-0.5,1.5c-0.1,1.3-0.1,10.8,0,14.2c0,1.5,0.2,2.3,0.3,2.7
			c0.1-0.4,0.1-1.2,0.1-2.7c0.1-2.7,0.3-12.5,0.3-14.2C-125.9-47-126-47.3-126.1-47.3L-126.1-47.3z M-126.4-28.1
			c-0.1,0-0.1-0.1-0.2-0.1c-0.1-0.1-0.1-0.1-0.1-0.2c0-0.1-0.1-0.2-0.1-0.3c0-0.1-0.1-0.3-0.1-0.4c0-0.2-0.1-0.3-0.1-0.5
			c0-0.2,0-0.4-0.1-0.6c0-0.2,0-0.5,0-0.7c0-0.2,0-0.5,0-0.7c-0.1-3.1-0.1-12.8,0-14.3c0-0.5,0.2-1.9,1-1.9c0.1,0,0.2,0,0.4,0.2
			c0.3,0.3,0.7,0.9,0.7,1.8c0,1.8-0.2,11.5-0.3,14.2c0,0.3,0,0.5,0,0.8c0,0.2,0,0.4-0.1,0.7c0,0.2-0.1,0.4-0.1,0.6
			c0,0.2-0.1,0.3-0.1,0.5c0,0.1-0.1,0.3-0.1,0.4c0,0.1-0.1,0.2-0.1,0.3c0,0.1-0.1,0.1-0.1,0.2c0,0-0.1,0.1-0.1,0.1
			C-126.3-28.1-126.3-28.1-126.4-28.1"/>
	</g>
	<g id="g44" transform="translate(232.3146,62.1332)">
		<path id="path46" class="zb2c8ee3" d="M-176.3,11.5c-2.5-8.7,1.4-22.3,11.5-40.3c3.5-6.3,7.7-13,10.6-17.3
			c-31.9,37.7-54.3,51.5-65.2,55.7c-3.7,1.4-5.3,1.7-5.3,1.7l-0.7-0.8c0,0,2.7-0.3,6.3-1.7c11.5-4.5,35.7-18.8,70.5-63.7l-0.2,2.9
			c-0.3,0.4-31.2,40.5-26.3,61.9L-176.3,11.5z"/>
	</g>
	<g id="g48" transform="translate(297.2296,220.6034)">
		<path id="path50" class="zb2c8ee3" d="M-216.5-207.4c-13.6,17.4-24.9,30.9-36,40.7c4.7-0.7,9.7-1.9,17.2-4.3
			C-229.6-184.4-220.9-199.9-216.5-207.4 M-274.4-168.7c-0.2,0-0.4,0.1-0.4,0.4c0,0.1,0,0.2,0.1,0.2c0.2,0.3,0.5,0.5,0.8,0.7
			c0.3,0.2,0.7,0.3,1.1,0.4c0.5,0.1,1.1,0.2,1.6,0.3c0.7,0.1,1.5,0.1,2.2,0.2c0.9,0,1.9,0.1,2.8,0.1c0.3,0,0.5,0,0.8,0
			c0.1,0,0.3,0,0.4,0c0.1,0,0.3,0,0.4,0C-268.2-167.8-269.7-168-274.4-168.7C-274.4-168.7-274.4-168.7-274.4-168.7 M-258.3-165
			c0.6,0.3,0.6,0.3,1.2,0.6c0.4-0.4,0.5-0.4,1-0.8L-258.3-165z M-255.6-163.8c3.9,1.9,6.3,3.8,8.9,6.4c4.3,4.3,5,6,5.6,9.1
			c0-1.5,0-3.4,0.1-4.8c0.3-4.2,2.1-9.7,5-16.5c-6.4,2-12,3.4-18.1,4.2C-254.7-164.8-255-164.4-255.6-163.8 M-240.6-144.7
			c-0.1,0-0.2,0-0.3-0.2c-0.2-0.2-0.3-1.4-0.4-1.6c-1.3-5.5-4.6-11.9-15-16.8c-9.2,7.7-18.1,12.4-25.3,14.5
			c-3.8,1.1-8.1,1.6-8.1,1.6l-0.7-0.8c0,0,4.8-0.5,8.6-1.6c7.1-2,15.2-6.8,24.2-14.3c-0.9-0.4-1.4-0.6-2.4-0.9
			c-8.7,0.5-14-1.3-15.1-2.7c-0.3-0.4-0.6-0.8-0.2-1.3c0.2-0.4,0.7-0.6,1.2-0.5c5.5,1.1,10.6,2.5,13.8,3.6c1.3-0.1,2.8-0.2,4.3-0.4
			c0.4-0.1,0.9-0.1,1.3-0.2c12.1-10.6,25.7-25.8,40.9-45.6l0,1.3c-0.2,0.3-11.8,20.9-19.7,39c9.3-3,19.8-7.4,33.6-14.4l-1,1.3
			c-9.8,5-20.3,10.4-33.1,14.6c-3,6.9-5.8,13.7-5.8,18.7c0,0-0.1,6.2-0.1,6.2C-239.9-145-240.3-144.7-240.6-144.7"/>
	</g>
	<g id="g106" transform="translate(305.4894,238.2821)">
		<path id="path108" class="qd735f70" d="M-221.6-231.8l-0.5,4.9l-0.7-0.1l0.4-3.8"/>
	</g>
	<g id="g110" transform="translate(341.8097,166.0956)">
		<path id="path112" class="i984fca5" d="M-244.1-132.1l0.2,0.2l-2.6,3l-0.5-0.5l1.9-2.1L-244.1-132.1z"/>
	</g>
	<g id="g114" transform="translate(305.4894,238.2821)">
		<path id="path116" class="i984fca5" d="M-221.6-231.8l-0.5,4.9l-0.7-0.1l0.4-3.8"/>
	</g>
</g>
</svg>
