<?xml version="1.0" encoding="utf-8"?>
<!-- Generator: Adobe Illustrator 25.4.1, SVG Export Plug-In . SVG Version: 6.00 Build 0)  -->
<svg version="1.1" id="Layer_1" xmlns="http://www.w3.org/2000/svg" xmlns:xlink="http://www.w3.org/1999/xlink" x="0px" y="0px"
	 viewBox="0 0 96.7 80" style="enable-background:new 0 0 96.7 80;" xml:space="preserve">
<style type="text/css">
	.e0daa5c0{fill:#C92020;}
	.n93546d8{fill:#030303;}
</style>
<path class="e0daa5c0" d="M96.7,0l-16,80H52.9l5.9-29.9l0.4-1.9c0.4-0.2,0.8-0.3,1.2-0.5c9.6-3.6,17.8-6.9,20.3-8.9l-18.9,5.7l-2,0.6
	L68.7,0H96.7z"/>
<path class="n93546d8" d="M59.2,48.2l-0.4,1.9L38.3,80H0c0,0,4.5-2.3,18-15.2c1.1-1,2.3-2.3,3.6-3.8C28.2,58.9,45.1,53.4,59.2,48.2z"/>
<path class="n93546d8" d="M68.7,0l-8.9,45.1l-33.1,10C43.1,35.6,68.7,0,68.7,0z"/>
</svg>
