<?xml version="1.0" encoding="utf-8"?>
<!-- Generator: Adobe Illustrator 25.4.1, SVG Export Plug-In . SVG Version: 6.00 Build 0)  -->
<svg version="1.1" id="Layer_1" xmlns="http://www.w3.org/2000/svg" xmlns:xlink="http://www.w3.org/1999/xlink" x="0px" y="0px"
	 viewBox="0 0 120.4 80" style="enable-background:new 0 0 120.4 80;" xml:space="preserve">
<style type="text/css">
	.f4a06775{fill-rule:evenodd;clip-rule:evenodd;fill:#1464AB;}
	.geaaf0fd{fill-rule:evenodd;clip-rule:evenodd;fill:url(#SVGID_1_);}
</style>
<g>
	<path class="f4a06775" d="M3.2,80c0,0,13.6-9.9,21.5-21.9s19.3-31.4,36.4-35.3S109.7,12.4,120.4,0c0,0,0,15.6-19.3,26.2
		S55.7,35,48.6,46.9c0,0,7.8-1.4,20.3-4s35.6-13.2,35.6-13.2s-9.3,18.8-31.4,24.6S40.7,55.9,33,65.3c0,0,8.3-1,18-2.2
		c9.7-1.2,27.9-6.1,27.9-6.1s-4.7,9-18.5,14C46.5,76,17.4,74.1,3.2,80z"/>
	<linearGradient id="SVGID_1_" gradientUnits="userSpaceOnUse" x1="54.8427" y1="7.5586" x2="-15.1446" y2="96.3576">
		<stop  offset="0" style="stop-color:#FFFFFF"/>
		<stop  offset="8.490125e-02" style="stop-color:#F6F6F6"/>
		<stop  offset="0.2229" style="stop-color:#DEDEDE"/>
		<stop  offset="0.3968" style="stop-color:#B7B7B7"/>
		<stop  offset="0.5999" style="stop-color:#808080"/>
		<stop  offset="0.8245" style="stop-color:#3B3B3B"/>
		<stop  offset="1" style="stop-color:#000000"/>
	</linearGradient>
	<path class="geaaf0fd" d="M0,79.3c0,0,9.5-5,20.9-23.2s22-28.7,30-31.6c0,0-25,6.4-35.4,20.7S5.2,73.4,0,79.3z"/>
</g>
</svg>
