<?xml version="1.0" encoding="utf-8"?>
<!-- Generator: Adobe Illustrator 25.4.1, SVG Export Plug-In . SVG Version: 6.00 Build 0)  -->
<svg version="1.1" id="Layer_1" xmlns="http://www.w3.org/2000/svg" xmlns:xlink="http://www.w3.org/1999/xlink" x="0px" y="0px"
	 viewBox="0 0 252.5 80" style="enable-background:new 0 0 252.5 80;" xml:space="preserve">
<style type="text/css">
	.d4e28c88{fill:#E5231B;}
</style>
<g>
	<path class="d4e28c88" d="M76.6,0c0,0,6.9,4.8,6.9,22.9s4.6,23.2,6.1,23.2c1.5,0,4.6-12,17.7-12s22.2,21,26.9,21s29.8-39.3,33.4-39.3
		s-11.3,58.1-34.6,58.1c-22,0-20.2-26.1-27.3-19s-7.1,13.7-15.8,13.7c-8.4,0-20.7-9.5-20.7-37C69.1,4.2,74.8,0,76.6,0z"/>
	<path class="d4e28c88" d="M237.1,40.7c-0.5-0.8-1-1.5-1.3-2.1l0,0c0,0-6.6-11.1-12.5-15.8s-19.8,2.8-23.4,7.2
		c-3.1,3.8-13.8,19.6-19.3,19.6c-5.5,0,5.1-18.8,26.5-27.8c0,0,6.3-2.4,16.7-2.4c0,0,6.3,0.1,4.2-3.1c-1.3-1.8-6.2-6.8-20.2-6.8
		c-17,0-44.7,14.3-44.7,39.5s27.4,24.3,40.5,4.3c12.6-19.3,12.2-19.4,24.8-5.5c10,11,21.5,9.8,23.9,8.4c0.3-0.2,0.1-1,0.1-1.1
		C252.5,54,242.6,48.7,237.1,40.7z"/>
	<path class="d4e28c88" d="M66.2,60c-13.5,6.2-28.5,6-29.5,6c-1.1,0-2.9,0-2.9-0.3s0.2-0.3,0.2-0.3C70.5,57.4,72.4,15,45,18.8
		C7.1,24,9.6,53.8,9.6,53.8c-7.8,2.2-9.5,8.3-9.5,8.3c-1.3,4.5,12.5,5.1,12.5,5.1c9.7,16.6,26.6,13.7,40.4,9.7
		C69.5,72.2,79.7,53.8,66.2,60z M29.1,46.7c0,0,9.6-14.3,15.4-9.2C49.7,42,30.7,47.7,29.1,46.7z"/>
	<path class="d4e28c88" d="M181.5,74.1c0,0,10.1,0.4,20.7-5.9s19.4-11.7,27.3-11.7s4.1,4.9-13.5,12.7c-17.6,7.8-27.9,8.9-37.2,8.9
		c-9.3,0-16.2-5.6-17.4-7.3s1.6-1.4,3.9,0C167.6,72.2,174.5,74.1,181.5,74.1z"/>
</g>
</svg>
