<?xml version="1.0" encoding="utf-8"?>
<!-- Generator: Adobe Illustrator 25.4.1, SVG Export Plug-In . SVG Version: 6.00 Build 0)  -->
<svg version="1.1" id="Layer_1" xmlns="http://www.w3.org/2000/svg" xmlns:xlink="http://www.w3.org/1999/xlink" x="0px" y="0px"
	 viewBox="0 0 97.98 80" style="enable-background:new 0 0 97.98 80;" xml:space="preserve">
<style type="text/css">
	.xf5f7107{fill:#00923F;}
	.w59d5dec{fill:#DA251D;}
	.e6887812{fill:#FFFFFF;}
</style>
<g>
	<path class="xf5f7107" d="M97.98,46.56V80H0l6.56-8.46c0,0,0,0,0.01-0.01C7.36,70.78,86.02,49.75,97.98,46.56z"/>
	<path class="w59d5dec" d="M97.98,0v46.56C86.02,49.75,7.36,70.78,6.57,71.53L62.07,0H97.98z"/>
	<path class="e6887812" d="M8.54,70.92c0,0,7.03-3.14,19.79-8.33s15.9-9.62,20.66-20.66S65.21,19.55,83.16,8.63
		c0,0-12.87,15.71-16.55,31.37c-3.68,15.67,11.57,4.31,14.17,3.45c2.6-0.87,5.84-0.22,8.22,1.84l6.38,2.92l-9.52,1.95
		c0,0-2.6,0.87-3.35,3.03s-7.94,7.98-17.84,10.6C51.96,67.13,15.57,68.32,8.54,70.92z"/>
	<path class="e6887812" d="M90.47,64.97h-1.99l-3.83,10.49L80.8,64.97H78.8l-4.35,11.88h1.71l1.33-3.74h4.54l1.37,3.74h0.74h1.03h0.68
		l1.33-3.74h4.54l1.37,3.74h1.77L90.47,64.97z M77.84,71.92l1.25-3.44c0.25-0.72,0.46-1.45,0.65-2.15h0.04
		c0.19,0.69,0.38,1.39,0.66,2.17l1.25,3.42H77.84z M87.51,71.92l1.25-3.44c0.25-0.72,0.46-1.45,0.65-2.15h0.04
		c0.19,0.69,0.38,1.39,0.66,2.17l1.25,3.42H87.51z"/>
</g>
</svg>
