<?xml version="1.0" encoding="utf-8"?>
<!-- Generator: Adobe Illustrator 25.4.1, SVG Export Plug-In . SVG Version: 6.00 Build 0)  -->
<svg version="1.1" id="Layer_1" xmlns="http://www.w3.org/2000/svg" xmlns:xlink="http://www.w3.org/1999/xlink" x="0px" y="0px"
	 viewBox="0 0 244.1 80" style="enable-background:new 0 0 244.1 80;" xml:space="preserve">
<style type="text/css">
	.e02ca448{fill:#CFA654;}
	.w760c781{fill:#AB292B;}
</style>
<g>
	<path class="e02ca448" d="M45.5,80c0,0,8.1-17.3,27.4-24s37.9-6.6,37.9-6.6s-33-7.9-58.3,13c0,0,6.7-11.1,27.1-16.4s32.4-0.6,32.4-0.6
		s-14.1-6.1-35.7-2.9S48.3,55.9,48.3,55.9s8.9-18.5,39.2-18.5s48.3,12.5,48.3,12.5s1.1,0.8-1.3,1.6c0,0-8.8,1.8-11.3,2.2
		c-2.5,0.4-4.1,0.2-7.3-0.1S69.1,49.2,45.5,80z"/>
	<path class="e02ca448" d="M121.7,55.7c0,0,11.3-0.6,16.6-2.5c5.3-1.9,19.2-8.7,19.2-8.7l8.5,7.9c0,0-9.7,4.9-16.1,6.4
		S130.4,62,121.7,55.7z"/>
	<path class="w760c781" d="M30.7,47.6c0,0,23.2-17.7,52.9-15.4s50,13.9,54.3,15.4s7.4-0.4,9.3-1.3s8.3-5,8.3-5s-10.9-13.1-23.1-19.7
		S83.1-2.8,47.1,19.5c0,0,17.6-9.3,44.8-6.1s50.6,23.2,52,24.8c0,0-29.3-20.1-58.6-20.4S38.9,29.3,38.9,29.3s24.5-13.2,58.9-5
		s37.1,16.2,37.1,16.2s-25.1-12.2-50.8-12.2S42,36.9,30.7,47.6z"/>
	<path class="w760c781" d="M0,72.3c0,0,8.9-35.8,39.7-52.4s54.7-16.1,74.2-9.7s34.2,19.9,41.6,27.8c7.4,7.9,18.4,19.8,36.7,19.8
		S223,42.7,223,42.7s7.9,0,12.9-0.9s8.3-0.4,8.3-0.4s-5.5-5.9-17.1-5.9c0,0-5-0.3-8.9,5.4S200.5,51,194.7,51s-19.7-2-29.4-14.7
		S132,0,87.5,0S4.3,33.1,0,72.3z"/>
	<path class="e02ca448" d="M169.7,37.1l9.9,7.8c0,0,0.8,0.1,2.2-0.7s5.2-3,8.9-4.4s5.4-1.2,7-2.7c1.6-1.5,6.7-7.3,15.3-7.3
		s10.8,3.4,11.6,3.6c0.8,0.2,0.7-0.5,0-1.7s-4.3-5.9-16.8-5.9s-15.6,5.3-15.6,5.3S179.8,29.8,169.7,37.1z"/>
	<g>
		<path class="w760c781" d="M213.2,40c-2.5,0-4.5-2-4.5-4.5c0-2.5,2-4.5,4.5-4.5c2.5,0,4.5,2,4.5,4.5C217.6,38,215.6,40,213.2,40z
			 M213.2,33.4c-1.2,0-2.2,1-2.2,2.2c0,1.2,1,2.2,2.2,2.2c1.2,0,2.2-1,2.2-2.2C215.3,34.3,214.4,33.4,213.2,33.4z"/>
	</g>
</g>
</svg>
