<?xml version="1.0" encoding="utf-8"?>
<!-- Generator: Adobe Illustrator 25.4.1, SVG Export Plug-In . SVG Version: 6.00 Build 0)  -->
<svg version="1.1" id="Layer_1" xmlns="http://www.w3.org/2000/svg" xmlns:xlink="http://www.w3.org/1999/xlink" x="0px" y="0px"
	 viewBox="0 0 363.7 80" style="enable-background:new 0 0 363.7 80;" xml:space="preserve">
<style type="text/css">
	.pee21aac{fill:#1C7FC2;}
</style>
<g>
	<path class="pee21aac" d="M88.7,53.8h31.6c-1.1-0.5-2.5-1.3-4-2.4H85.1c-1.3-0.8-2.4-1.7-3.6-2.4h31.8c-0.8-0.7-1.5-1.5-2.2-2.4h-33
		c-0.9-0.6-1.6-1.1-2.1-1.5h33.9c-0.5-0.7-0.9-1.5-1.3-2.4H73.1c-0.6-0.5-1.2-1-1.8-1.5H108c-0.3-0.8-0.5-1.6-0.6-2.4H68.6
		c-0.7-0.6-1.3-1.2-2-1.8h40.5c0-0.5-0.1-1.1-0.1-1.6c0-0.3,0-0.5,0-0.8H64c-0.3-0.2-0.5-0.5-0.8-0.7c-0.7-0.6-1.3-1.1-1.8-1.5h45.8
		c0.1-0.8,0.2-1.6,0.4-2.4H52.4c-0.1-0.6-0.3-1.1-0.5-1.8h56.2c0.3-0.8,0.6-1.6,1-2.4H51.3c-0.1-0.4-0.2-0.8-0.4-1.3
		c0-0.2-0.1-0.3-0.2-0.5h59.4c0.5-0.8,1.1-1.6,1.7-2.4H49.8c-0.3-0.6-0.6-1.2-0.9-1.8h64.7c0.9-0.9,1.9-1.7,3-2.4H47.4
		c-0.4-0.6-0.8-1.2-1.2-1.8h73.4c2-1,4.2-1.8,6.3-2.4H44.3c-0.6-0.7-1-1.2-1.3-1.5h83.7V9.5H36.6c0,0,0,0,0-0.1c0-0.5,0.5-1.3,1-2.1
		h89.2V4.9H38.5c0-0.4,0-0.8-0.2-1.1c-0.2-0.4-0.6-0.8-1-1.1h89.5V0.3H26.9c-3.8-0.1-6.5-0.5-7.3,0c-1,0.7,0.5,3.9,1.4,5.2
		s0.7,1.3,2.2,0s2.6-0.3,3.9,0.9c1.3,1.3,1.2,3.5-0.3,3.3c-1.5-0.1-2.4,0.5-2.4,1.4c0,0.9,3.2,3.8,5,3.1c1.7-0.7,4.1,0.2,3.7,3.2
		S29.5,20.9,26,19S13.1,8.1,9.3,5.5S0.7,4.8,0,8.7s6.6,5.9,8.5,3.7c1.8-2.2,5.8,0.9,5.8,0.9c8.3,5.6,10.4,15,12.1,18.2
		c1.7,3.2,3.6,3.6,7.4,1.6c3.8-2,3.9-3.9,14.4,5.2c10.5,9.1,16.2,7,16.2,7c12.4,21.7,29.4,33.5,31,34.6V80h31.4v-2.4H96.5
		c-0.5-0.7-1.3-1.6-2.3-2.7h32.6v-2.4h-3.6c0.1-0.3,0.1-0.7-0.4-1.2c-0.1-0.1-0.4-0.3-0.8-0.5h4.7v-2.4h-9.5c-1.3-0.6-2.8-1.3-4.4-2
		h13.9V64h-19.2c-1.1-0.5-2.3-1-3.4-1.5h22.5v-2.4H99.3c-1.1-0.6-2.3-1.2-3.6-2h31.1v-2.4h-35C90.7,55.1,89.7,54.5,88.7,53.8z
		 M59.9,40.5c-1-0.2-5-4.4-5.8-5.2c-0.4-0.3-0.7-1.4-1.1-3h4.8c0,0.1,0,0.3,0,0.4c-0.1,0.9,2.8,4.3,2.9,5.7
		C60.8,39.9,61,40.7,59.9,40.5z M79.4,53.8h5.5c1.4,0.4,2.5,1.1,3.6,1.6c0.2,0.1,0.4,0.2,0.7,0.4H78.7
		C78.2,55.1,78.1,54.3,79.4,53.8z M117.7,70.8c1.3,0.7,2.5,1.3,3.3,1.8H91.9c-0.6-0.6-1.2-1.2-1.8-1.8H117.7z M109.7,66.4
		c1.1,0.6,2.3,1.3,3.7,2H87.9c0.2-0.7,0.2-1.3,0.2-2H109.7z M102.2,62.5c1.1,0.6,2.1,1.1,2.9,1.5H87.4c-0.3-0.5-0.6-1-0.9-1.5H102.2
		z M97.6,60.1H84.3c-0.8-0.8-1.6-1.4-2.4-2h11.9C95,58.8,96.3,59.4,97.6,60.1z"/>
	<path class="pee21aac" d="M255,46.7l-10.8-25.3h-7.4l-11.5,29.3h8.3l2.3-5h9.1l2.7,5h7.4h1.7h5.3V28.2h-7V46.7z M237.1,39.4l3-7.5l3,7.5
		L237.1,39.4z"/>
	<path class="pee21aac" d="M326.9,50.6V37.2c0,0,0,0,0,0c0-4.7-2.7-9.8-9.2-9.8c-4.7,0-7.8,1.7-9.2,2.6l0.5-1.8h-6.9l-3,10.2l-3.6-10.2
		h-4.8l-3.6,10.2l-2.7-10.2h-6.1l5.2,22.5h6.1l3.5-10.6l3.7,10.6h5.9l5.4-19.3l2,3.9c0,0,1.4-1.5,5.2-1.5c3.8,0,4.1,3.5,4.1,3.5
		s-2.7-0.8-5.4-0.8c-2.7,0-7.3,1.7-7.3,7.3s4,7.3,7.3,7.3c3.3,0,5.9-2.5,6-2.5v2.1H326.9z M316.6,45.7c-1.5,0-2.8-1-2.8-2.2
		c0-1.2,1.2-2.2,2.8-2.2c1.5,0,2.8,1,2.8,2.2C319.3,44.7,318.1,45.7,316.6,45.7z"/>
	<rect x="255" y="20.4" class="pee21aac" width="7" height="5.4"/>
	<path class="pee21aac" d="M209.8,27.6c-4.6,0-8.5,2.7-10.4,6.6v-6h-7V30c-1-1.1-3-2.9-6.8-2.9c-4.5,0-7,3.4-7.9,5.5v-0.4
		c0,0-1.1-4.9-6.7-4.9c-3.3,0-5.2,1.6-6.2,3v-2h-7v6.4c-1.8-4.2-5.9-7.2-10.7-7.2c-6.4,0-11.6,5.3-11.6,11.9c0,1.2,0.2,2.4,0.5,3.5
		l-3.7-2.7c0,0-2.2,3.5-6.6,3.5c0,0-6.1,0.2-6.1-7.4c0-7.6,5.3-7.8,6.5-7.8c1.2,0,3.2-0.1,6,3l5.2-5c0,0-2.8-5.2-10.8-5.2
		c-8,0-14.5,6.5-14.5,15.2c0,8.7,7.1,14.8,13.9,14.8s10.7-5.3,11-6c0-0.1,0.1-0.2,0.1-0.3c1.9,3.9,5.8,6.5,10.4,6.5
		c4.8,0,8.9-2.9,10.7-7.2v6.4h7V37.3c0,0,0.2-2.6,2.7-2.6c2.5,0,3.1,2.7,3.1,4.1v11.9h7v-6.5c0.8,1.4,2,2.7,3.8,3.7
		c7.4,4,10.9-2,10.9-2v0.8h0c0,0.4,0,1,0,1.1c-0.1,0.3-0.7,4.1-5.7,4.1s-6.4-2.1-6.4-2.1l-3,4.8c0,0,3.1,3.1,10.4,3.1
		c7.3,0,11.7-5.2,11.7-11.1h0v-1.7c1.9,3.9,5.8,6.6,10.4,6.6c6.4,0,11.6-5.3,11.6-11.9S216.2,27.6,209.8,27.6z M146.8,44.2
		c-2.2,0-4-2.1-4-4.7c0-2.6,1.8-4.7,4-4.7c2.2,0,4,2.1,4,4.7C150.9,42.1,149.1,44.2,146.8,44.2z M187.5,43.1c-2.2,0-3.9-2.1-3.9-4.6
		c0-2.6,1.8-4.6,3.9-4.6c2.2,0,3.9,2.1,3.9,4.6C191.4,41,189.7,43.1,187.5,43.1z M209.6,44.2c-2.2,0-4-2.1-4-4.7
		c0-2.6,1.8-4.7,4-4.7c2.2,0,4,2.1,4,4.7C213.6,42.1,211.8,44.2,209.6,44.2z"/>
	<path class="pee21aac" d="M270.7,30.8v-2.6h-7v22.5h7v-9.8c0,0,0.9-5.2,5.3-5.2v-7.4C276,28.2,272.5,27.7,270.7,30.8z"/>
	<path class="pee21aac" d="M355.7,36.4c-2.8-0.7-2.7-2-2.7-2.1c0-0.2,0-1.5,1.9-1.6c1.8-0.1,5.6,2.3,5.6,2.3l3.1-4.3
		c-2-2-5.3-3.3-5.3-3.3c-0.8-0.4-6.4-1.4-9.6,1.6c-0.4,0.3-0.7,0.7-0.9,1c0.5-1.2,0.7-1.9,0.7-1.9H341l-4.1,11.2L333,28.2h-7.4
		l0.2,0.3l6.9,20.3c0,0,0.3,0.4,0.3,1.3c0,0.9-0.8,1.2-1.2,1.2c-0.5,0-2.3-1.4-2.3-1.4l-3.3,5.6c0,0,3.1,2.6,6.7,2.6
		c3.6,0,5.1-3,6.3-5.6c0.8-1.7,4.7-11.8,7.2-18.4c-0.1,1.2,0.2,2.4,0.4,3.4c0.6,2.3,3.3,3.8,5.9,4.3c2.6,0.5,3.1,1.2,3.7,1.7
		c0.5,0.5,0.5,2.2-2.6,2.2c-3.1,0-5.1-2.2-5.1-2.2l-3.6,3.9c0,0,4.9,4.1,9.4,4.1c4.5,0,9.4-2.6,9.4-7.7
		C363.7,38.7,358.5,37.1,355.7,36.4z"/>
</g>
</svg>
