<?xml version="1.0" encoding="utf-8"?>
<!-- Generator: Adobe Illustrator 25.4.1, SVG Export Plug-In . SVG Version: 6.00 Build 0)  -->
<svg version="1.1" id="Layer_1" xmlns="http://www.w3.org/2000/svg" xmlns:xlink="http://www.w3.org/1999/xlink" x="0px" y="0px"
	 viewBox="0 0 100.63 80" style="enable-background:new 0 0 100.63 80;" xml:space="preserve">
<style type="text/css">
	.m7d18e26{fill:#216092;}
	.x13b406f{fill:#EB7204;}
	.f3c182b8{fill:#0D2060;}
	.ocdd3dd1{fill:#C20E2F;}
	.j840df9a{fill:#D5441D;}
</style>
<g>
	<path class="m7d18e26" d="M31.77,13.43c-0.15,0.01-0.3,0.03-0.46,0.03c-3.53,0-7.07-0.02-10.6,0.01c-2.93,0.03-5.13,1.35-6.55,3.92
		c-0.51,0.91-0.7,1.91-0.71,2.94c0,1.1,0.01,2.21-0.01,3.31c-0.01,0.35,0.09,0.45,0.44,0.44c2.41-0.08,4.76,0.22,7.05,0.99
		c3.3,1.11,6.11,2.97,8.5,5.49c0.19,0.2,0.17,0.32-0.01,0.5c-3.69,3.82-8.12,6.08-13.46,6.43c-0.68,0.05-1.37,0.06-2.05,0.04
		c-0.37-0.01-0.47,0.08-0.47,0.46c0.02,3.3,0.01,6.59,0.01,9.89c0,3.83,0,7.66,0.01,11.48c0,0.36-0.04,0.46-0.42,0.31
		C6.06,56.8,1.85,51.66,0.41,44.26c-0.16-0.8-0.25-1.6-0.32-2.41c-0.01-0.09,0.03-0.2-0.09-0.26c0-7.71,0-15.43,0-23.14
		c0.12-0.05,0.08-0.16,0.09-0.25c0.09-0.76,0.2-1.52,0.37-2.27C2.3,7.9,8.8,1.74,16.91,0.32C17.56,0.2,18.23,0.2,18.87,0
		c6.54,0,13.08,0,19.62,0c-0.63,0.75-1.37,1.38-2.01,2.12c-1.11,1.29-2.08,2.68-2.86,4.19C32.47,8.54,31.86,10.92,31.77,13.43z"/>
	<path class="x13b406f" d="M73.04,40.51c0.3,1.05,0.68,2.06,1.36,2.94c3.31,4.36,9.08,3.31,11.38,0.39c0.93-1.19,1.36-2.55,1.38-4.05
		c0.02-2.09,0.25-4.15,0.87-6.15c1.07-3.43,3.06-6.24,5.67-8.66c0.19-0.18,0.29-0.11,0.44,0.03c2.69,2.57,4.6,5.63,5.66,9.21
		c0.37,1.25,0.6,2.52,0.74,3.82c0.01,0.1-0.04,0.23,0.09,0.3c0,8.08,0,16.16,0,24.23c-0.18,0.07-0.1,0.24-0.12,0.36
		c-0.3,2.76-1.12,5.35-2.49,7.77c-2.37,4.19-5.79,7.22-10.24,9.07c-0.12,0.05-0.31,0.04-0.32,0.24c-0.14,0-0.28,0-0.42,0
		c0.16-0.09,0.09-0.25,0.09-0.38c0-6.84,0-13.69,0-20.53c0-0.48-0.02-0.5-0.51-0.34c-4.23,1.4-8.48,1.46-12.73,0.13
		c-2.85-0.89-5.4-2.33-7.6-4.37c0,0,0,0,0,0c0.02-0.19,0.17-0.28,0.28-0.4c0.59-0.63,1.23-1.22,1.77-1.88
		c1.14-1.4,2.12-2.9,2.88-4.56c0.8-1.75,1.3-3.55,1.56-5.45C72.89,41.65,72.76,41.05,73.04,40.51z"/>
	<path class="f3c182b8" d="M31.77,13.43c0.09-2.51,0.7-4.88,1.86-7.12c0.78-1.51,1.75-2.9,2.86-4.19c0.64-0.74,1.38-1.37,2.01-2.12
		c0.03,0,0.06,0,0.08,0c2.11,1.96,3.9,4.18,5.15,6.8c0.93,1.96,1.48,4.02,1.56,6.2c0.01,0.15-0.01,0.31-0.02,0.46
		c-0.07-0.01-0.14-0.02-0.21-0.02c-4.3,0-8.6,0-12.9,0c-0.11,0-0.22,0.03-0.33,0.04C31.8,13.47,31.78,13.45,31.77,13.43z"/>
	<path class="f3c182b8" d="M100.63,11.74c-0.01,0.01-0.03,0.01-0.04,0.02c-0.94,1.82-2.28,1.87-3.51,1.64c-1.43-0.27-2.43-1.37-2.56-2.92
		c-0.18-2.1-0.2-4.21,0.01-6.31c0.13-1.28,0.68-2.36,2.05-2.78c0.05-0.02,0.11-0.02,0.2-0.04c0,0.74,0.01,1.47-0.01,2.19
		c-0.01,0.26,0.08,0.33,0.33,0.33c1.17-0.01,2.34,0,3.52,0c0,0.06,0,0.11,0,0.17c-0.07-0.01-0.08,0.06-0.1,0.1
		c-0.58,1.05-1.42,1.65-2.67,1.59c-0.25-0.01-0.5,0.02-0.75-0.01c-0.27-0.03-0.33,0.09-0.32,0.33c0.02,0.47,0,0.95,0.01,1.42
		c0.01,1.02-0.05,2.04,0.14,3.05c0.12,0.65,0.47,1,1.12,1.05c0.86,0.07,1.72,0.06,2.59,0.01C100.63,11.63,100.63,11.68,100.63,11.74
		z"/>
	<path class="ocdd3dd1" d="M31.83,13.47c0.11-0.01,0.22-0.04,0.33-0.04c4.3,0,8.6,0,12.9,0c0.07,0,0.14,0.01,0.21,0.02
		c0.01,0.43,0.02,0.87,0.02,1.3c0,8.15,0.05,16.29-0.02,24.44c-0.03,3.62,2.45,6.28,5.48,6.99c3.2,0.75,6.48-0.84,8-3.87
		c0.35-0.71,0.56-1.45,0.72-2.22c0.13,0.11,0.08,0.26,0.08,0.39c-0.02,1.27,0.19,2.52,0.48,3.74c0.56,2.36,1.54,4.55,2.95,6.53
		c0.88,1.25,1.85,2.43,3.01,3.44c0.09,0.08,0.19,0.17,0.2,0.31c-2.75,2.5-5.95,4.11-9.58,4.9c-9.86,2.14-20.14-3.52-23.58-12.99
		c-0.76-2.08-1.18-4.23-1.19-6.44c-0.02-8.76-0.01-17.52-0.01-26.28C31.82,13.61,31.82,13.54,31.83,13.47z"/>
	<path class="j840df9a" d="M66.17,54.5c-0.01-0.14-0.11-0.22-0.2-0.31c-1.16-1.01-2.12-2.19-3.01-3.44c-1.4-1.99-2.38-4.17-2.95-6.53
		c-0.29-1.23-0.5-2.47-0.48-3.74c0-0.13,0.04-0.28-0.08-0.39c0-3.72,0.74-7.26,2.71-10.47c1.05-1.72,2.34-3.23,3.8-4.61
		c0.16-0.15,0.26-0.23,0.48-0.03c2.93,2.73,5.02,5.96,5.94,9.9c0.36,1.55,0.54,3.13,0.58,4.73c0.01,0.31,0.04,0.61,0.07,0.92
		c-0.28,0.54-0.15,1.14-0.23,1.71c-0.26,1.9-0.76,3.7-1.56,5.45c-0.76,1.66-1.74,3.16-2.88,4.56c-0.54,0.67-1.18,1.26-1.77,1.88
		c-0.11,0.12-0.26,0.21-0.28,0.4c0,0,0,0,0,0C66.27,54.51,66.22,54.51,66.17,54.5z"/>
	<polygon class="ocdd3dd1" points="66.32,54.52 66.32,54.52 66.31,54.51 	"/>
	<path class="f3c182b8" d="M65.77,15.14c0.78,0,1.54,0,2.3,0c0.45,0,0.89,0,1.34-0.03c0.82-0.06,1.17-0.37,1.31-1.19
		c0.05-0.29,0.06-0.58,0.1-0.94c-1.2,0.63-2.41,0.58-3.63,0.37c-1.56-0.26-2.35-0.98-2.65-2.55c-0.29-1.48-0.3-2.98-0.07-4.46
		c0.22-1.41,1.07-2.34,2.53-2.6c1.26-0.23,2.53-0.23,3.79,0.05c1.42,0.31,2.11,1.4,2.35,2.72c0.1,0.57,0.09,1.14,0.08,1.71
		c-0.03,1.86,0.09,3.72-0.07,5.57c-0.17,1.94-1.22,2.97-3.15,3.17c-0.8,0.08-1.59,0.09-2.37-0.11
		C66.74,16.63,66.07,16.01,65.77,15.14z M70.83,8.7c0.02-0.82,0.01-1.41-0.08-1.99c-0.11-0.79-0.44-1.11-1.21-1.22
		C69,5.41,68.46,5.41,67.92,5.51c-0.67,0.12-0.99,0.41-1.09,1.09c-0.18,1.32-0.16,2.65,0.04,3.97c0.09,0.6,0.46,0.91,1.08,1
		c0.54,0.07,1.09,0.07,1.63,0c0.67-0.08,1.01-0.42,1.13-1.09C70.82,9.81,70.8,9.14,70.83,8.7z"/>
	<path class="f3c182b8" d="M75.7,15.14c1.02,0,1.98,0,2.94,0c0.06,0,0.11,0,0.17,0c1.58-0.02,2.02-0.51,1.94-2.14
		c-1.16,0.61-2.38,0.55-3.6,0.35c-1.57-0.26-2.4-1.07-2.66-2.64c-0.25-1.5-0.27-3.01-0.01-4.5c0.19-1.08,0.71-1.96,1.81-2.38
		c0.3-0.12,0.42-0.12,0.41,0.27c-0.02,1.82-0.01,3.63-0.01,5.45c0,1.63,0.43,2.07,2.06,2.07c0.22,0,0.45-0.01,0.67-0.04
		c0.83-0.1,1.27-0.55,1.35-1.38c0.12-1.18-0.03-2.38,0.08-3.56c0.12-1.28,0.68-2.28,1.92-2.81c0.3-0.13,0.42-0.14,0.42,0.26
		c-0.02,2.81-0.01,5.62-0.01,8.42c0,0.62-0.01,1.23-0.15,1.83c-0.32,1.39-1.12,2.31-2.59,2.55c-0.86,0.14-1.73,0.17-2.59,0.02
		C76.83,16.74,76.14,16.14,75.7,15.14z"/>
	<path class="f3c182b8" d="M86.82,12.96c0,1.21-0.01,2.34,0.01,3.48c0.01,0.34-0.07,0.4-0.39,0.28c-1.25-0.49-1.73-1.52-1.89-2.74
		c-0.18-1.39-0.07-2.79-0.08-4.18c0-1.02-0.04-2.04,0.06-3.06c0.19-1.81,1.16-2.82,2.97-3.07c1-0.14,2.01-0.13,3,0.03
		c1.47,0.23,2.41,1.1,2.66,2.56c0.25,1.42,0.25,2.87,0.03,4.3c-0.28,1.81-1.26,2.67-3.08,2.86C88.99,13.53,87.89,13.55,86.82,12.96z
		 M86.81,8.51c0.03,0.65,0.02,1.31,0.14,1.96c0.12,0.67,0.46,1.01,1.14,1.09c0.53,0.06,1.06,0.06,1.59,0
		c0.66-0.08,1.04-0.43,1.13-1.09c0.18-1.31,0.18-2.62,0-3.93c-0.08-0.6-0.41-0.91-1-1.03c-0.62-0.12-1.25-0.1-1.87,0
		c-0.57,0.09-0.87,0.44-0.98,0.99C86.83,7.17,86.84,7.84,86.81,8.51z"/>
	<path class="f3c182b8" d="M62.8,11.61c-0.36,0.84-0.97,1.31-1.74,1.56c-1.48,0.47-2.98,0.44-4.45-0.05c-1.03-0.34-1.57-1.17-1.77-2.17
		c-0.31-1.57-0.31-3.17-0.02-4.75c0.25-1.36,1.09-2.23,2.5-2.47c1.14-0.19,2.28-0.22,3.42,0c1.37,0.27,2.27,1.35,2.46,2.91
		c0.07,0.57,0.11,1.14,0.03,1.71c-0.11,0.77-0.48,1.11-1.26,1.11c-1.52,0.01-3.05,0.01-4.57-0.01c-0.34,0-0.38,0.1-0.35,0.4
		c0.16,1.44,0.44,1.72,1.9,1.75C60.21,11.63,61.47,11.61,62.8,11.61z M59.06,7.6c0.6,0,1.2-0.01,1.8,0c0.2,0,0.26-0.05,0.26-0.26
		c-0.01-1.42-0.47-1.88-1.89-1.89c-0.07,0-0.14,0-0.21,0c-1.5,0.01-1.88,0.36-1.96,1.85c0,0.01,0,0.03,0,0.04
		c-0.05,0.21,0.05,0.26,0.25,0.26C57.89,7.6,58.48,7.6,59.06,7.6z"/>
</g>
</svg>
