<?xml version="1.0" encoding="utf-8"?>
<!-- Generator: Adobe Illustrator 25.4.1, SVG Export Plug-In . SVG Version: 6.00 Build 0)  -->
<svg version="1.1" id="Layer_1" xmlns="http://www.w3.org/2000/svg" xmlns:xlink="http://www.w3.org/1999/xlink" x="0px" y="0px"
	 viewBox="0 0 211.3 80" style="enable-background:new 0 0 211.3 80;" xml:space="preserve">
<style type="text/css">
	.f74b7bd3{opacity:0.36;fill:#FF0000;}
	.ce441222{fill:url(#SVGID_1_);}
	.v2757858{fill:#47A374;}
	.hc99d804{fill:#00908B;}
	.g4cb388c{fill:#006D94;}
	.g0cca632{fill:#024291;}
	.u2f599e3{fill:#2B3866;}
	.mbb8065f{fill:#FF0000;}
	.s39bd96d{fill:#265FA3;}
	.a4c7a24c{fill:#8DBF60;}
	.ce4412220{fill:url(#SVGID_00000047041542394502708440000011836758704759795339_);}
</style>
<g>
	<path class="f74b7bd3" d="M118.57,11.8c0.01,0.01,0.04,0.02,0.06,0.04C118.6,11.82,118.58,11.81,118.57,11.8z"/>
	
		<radialGradient id="SVGID_1_" cx="120.6631" cy="31.6693" r="40.8323" gradientTransform="matrix(0.9998 0.0205 -0.0145 0.7091 0.4848 6.7436)" gradientUnits="userSpaceOnUse">
		<stop  offset="0" style="stop-color:#085193"/>
		<stop  offset="0.6902" style="stop-color:#399A80"/>
		<stop  offset="1" style="stop-color:#8DBF60"/>
	</radialGradient>
	<path class="ce441222" d="M187.98,0.73c-1.76,2.49-7.39,6-18.29,8.49c-1.72,0.39-3.16,0.66-4.42,0.83c-6.72,0.91-8.47-0.88-22.21-0.76
		c-14.02,0.13-21.99,1.93-23.96,2.43c0,0,0,0,0,0c-0.24,0.06-0.39,0.1-0.45,0.12c-0.02,0-0.03,0.01-0.03,0.01
		c0.41,0.31,0.8,0.62,1.18,0.95c0,0,0,0,0.01,0.01c1.3,1.14,2.36,2.4,3.21,3.7c0.12,0.18,0.24,0.37,0.35,0.55c0,0,0,0,0,0.01
		c2.41,3.94,3.07,8.12,3.24,10.35c0.08,1.02,0.06,1.63,0.06,1.63c-1.17,17.85-13.83,22.9-17.78,23.34
		c-3.95,0.44-17.12,1.17-22.61-14.19c-1.48-4.14-1.75-7.92-1.35-11.24v0c0.42-3.51,1.59-6.49,2.86-8.82c0,0,0,0,0,0
		c0.2-0.37,0.4-0.73,0.61-1.06c1.8-2.97,3.58-4.63,3.58-4.63s-0.01,0-0.02,0c-0.77-0.13-20.18-3.41-38.39-2.26
		c-2.01,0.13-3.98,0.11-5.88-0.03C31.99,9.02,20.41,0,20.41,0s13.25-0.22,45.52,3c32.27,3.22,36.37,7.97,36.37,7.97
		c-1.37,0.28-2.69,0.72-3.95,1.28c-0.14,0.06-0.27,0.12-0.41,0.19c-6.61,3.1-11.31,9.52-11.31,14.49c0,6,4.67,20.2,17.05,20.2
		s20.93-8.53,20.93-19.03c0-10.5-10.02-15.66-10.02-15.66s-4.54,1.76-4.9,1.83c-6.07,2.85-12.73,7.02-13.76,14.19
		c-1.02,7.17,3.29,13.25,8.97,13.25c5.68,0,8.66-3.37,8.66-7.54c0-4.17-1.83-7.03-6-6.81c-4.11,0.22-6.37,2.06-6.44,2.12
		c0.95-2.19,3-5.34,7.97-6.88c4.98-1.54,10.9,2.71,10.9,8.42c0,5.71-2.78,14.2-14.56,14.2c-11.78,0-14.49-12.8-14.49-15.15
		s-1.68-15.44,24-22.03C140.64,1.47,187.98,0.73,187.98,0.73z"/>
	<path class="v2757858" d="M91.96,12.44c-0.67-0.07-15.88-1.62-26.91,1.03c-11.27,2.71-23.85,8.78-42.88,4.46c0,0,11.9-4.71,25.51-7.79
		c1.9,0.14,3.87,0.16,5.88,0.03C71.78,9.03,91.19,12.31,91.96,12.44z"/>
	<path class="hc99d804" d="M88.06,12.59c0,0-12.24,2.39-19.7,6.85c-7.46,4.46-21.29,11.1-38.42,11.48
		C29.95,30.92,49.32,14.56,88.06,12.59z"/>
	<path class="g4cb388c" d="M88.06,13.96c0,0-29.47,7.08-48.02,26.62c0,0,15.2-1.04,29.64-14.65C69.68,25.92,75.83,19.17,88.06,13.96z"/>
	<path class="g0cca632" d="M91.98,12.44c0,0-1.79,1.66-3.58,4.63c-2.9,2.21-6.33,5.39-10.32,9.95C62.43,44.91,54.09,44.97,54.09,44.97
		C62.16,30.75,91.98,12.44,91.98,12.44z"/>
	<path class="u2f599e3" d="M87.78,18.14c-1.27,2.33-2.44,5.32-2.86,8.82v0C79.7,38.53,71.11,42,71.11,42
		C78.13,28.66,87.64,18.3,87.78,18.14z"/>
	<path class="v2757858" d="M189.15,17.53c-21.17,5.39-32.42-2.01-43.68-4.72c-10.02-2.41-23.5-1.35-26.37-1.08
		c1.97-0.51,9.94-2.31,23.96-2.43c13.74-0.12,15.49,1.67,22.21,0.76C177.92,13.14,189.15,17.53,189.15,17.53z"/>
	<path class="hc99d804" d="M121.94,12.11c0,0,12.81,2.86,20.27,7.32s21.24,10.44,38.36,10.82C180.57,30.26,160.69,14.09,121.94,12.11z"/>
	<path class="g4cb388c" d="M122.46,13.83c0,0,29.47,6.55,48.02,26.09c0,0-15.15-0.62-29.58-14.23C140.9,25.69,134.69,19.05,122.46,13.83z
		"/>
	<path class="mbb8065f" d="M118.57,11.8c0.01,0.01,0.04,0.02,0.06,0.04C118.6,11.82,118.58,11.81,118.57,11.8z"/>
	<path class="g0cca632" d="M157.51,45.74c0,0-9.42-1.48-25.06-19.37c-3.59-4.1-6.73-7.58-9.43-9.85c-0.85-1.3-1.91-2.56-3.21-3.7
		c0,0,0-0.01-0.01-0.01c-0.46-0.45-0.83-0.73-1.04-0.89C121.42,13.64,149.82,32.2,157.51,45.74z"/>
	<path class="u2f599e3" d="M140.04,41.64c0,0-8.18-3.31-13.43-14.21c-0.17-2.23-0.83-6.41-3.24-10.35
		C123.66,17.4,133.07,28.4,140.04,41.64z"/>
	<path class="s39bd96d" d="M106.47,22.3c0,0-1.85-1.43-1.56-2.98s1.38-0.95,1.38-0.95s0.24,0.02,0.07,0.59
		C106.19,19.52,106.3,21.68,106.47,22.3z"/>
	<path class="s39bd96d" d="M107.18,21.75c-0.02,0.07-0.09-3.62,1.88-5.41c0,0,1.12-0.62,1.94,0.13c0.82,0.75-0.11,1.45-0.71,1.79
		C109.69,18.59,107.6,20.55,107.18,21.75z"/>
	<path class="s39bd96d" d="M109.25,21.19c0,0,1.13-2.52,3-3.11c1.87-0.59,2.34,0.84,2.16,1.17c-0.18,0.33-0.73,0.53-2.05,0.71
		C111.04,20.14,109.25,21.19,109.25,21.19z"/>
	<path class="a4c7a24c" d="M187.98,0.73c-1.76,2.49-7.39,6-18.29,8.49c-1.72,0.39-3.16,0.66-4.42,0.83c-6.72,0.91-8.47-0.88-22.21-0.76
		c-14.02,0.13-21.99,1.93-23.96,2.43c0,0,0,0,0,0c-0.24,0.06-0.39,0.1-0.45,0.12c-0.02,0-0.03,0.01-0.03,0.01
		c0.41,0.31,0.8,0.62,1.18,0.95c0,0,0,0,0.01,0.01c1.3,1.14,2.36,2.4,3.21,3.7c0.12,0.18,0.24,0.37,0.35,0.55c0,0,0,0,0,0.01
		c2.41,3.94,3.07,8.12,3.24,10.35c0.08,1.02,0.06,1.63,0.06,1.63c-1.17,17.85-13.83,22.9-17.78,23.34
		c-3.95,0.44-17.12,1.17-22.61-14.19c-1.48-4.14-1.75-7.92-1.35-11.24v0c0.42-3.51,1.59-6.49,2.86-8.82c0,0,0,0,0,0
		c0.2-0.37,0.4-0.73,0.61-1.06c1.8-2.97,3.58-4.63,3.58-4.63s-0.01,0-0.02,0c-0.77-0.13-20.18-3.41-38.39-2.26
		c-2.01,0.13-3.98,0.11-5.88-0.03C31.99,9.02,20.41,0,20.41,0s13.25-0.22,45.52,3c32.27,3.22,36.37,7.97,36.37,7.97
		c-1.37,0.28-2.69,0.72-3.95,1.28c-0.14,0.06-0.27,0.12-0.41,0.19c-6.61,3.1-11.31,9.52-11.31,14.49c0,6,4.67,20.2,17.05,20.2
		s20.93-8.53,20.93-19.03c0-10.5-10.02-15.66-10.02-15.66s-0.16,0.06-0.43,0.17c-1.06-1.19-2.18-2.48-3.03-3.47
		c1.2-0.38,2.48-0.74,3.83-1.09C140.64,1.47,187.98,0.73,187.98,0.73z"/>
	
		<linearGradient id="SVGID_00000112597612295336822670000001101814770637195949_" gradientUnits="userSpaceOnUse" x1="114.0955" y1="9.0417" x2="98.5095" y2="19.469">
		<stop  offset="0" style="stop-color:#8DBF60"/>
		<stop  offset="0.9986" style="stop-color:#4EA08D"/>
	</linearGradient>
	<path style="fill:url(#SVGID_00000112597612295336822670000001101814770637195949_);" d="M114.16,12.61
		c-1.14,0.44-4.17,1.6-4.47,1.66c-4.93,2.32-10.25,5.5-12.62,10.45l-4.39-2.96c2.22-4.2,7.24-9.08,18.45-12.62
		C111.98,10.14,113.1,11.42,114.16,12.61z"/>
	<polygon class="hc99d804" points="5.12,62.84 0,79.9 14.05,79.65 15.05,76.89 6.65,76.83 11,62.84 	"/>
	<polygon class="hc99d804" points="94.97,66.66 91.27,79.65 96.15,79.65 99.79,66.66 	"/>
	<polygon class="hc99d804" points="95.53,63.19 95.21,65.25 99.79,65.25 100.56,63.19 	"/>
	<polygon class="hc99d804" points="131.02,66.66 127.32,79.65 132.2,79.65 135.84,66.66 	"/>
	<polygon class="hc99d804" points="131.58,63.19 131.26,65.25 135.84,65.25 136.61,63.19 	"/>
	<polygon class="hc99d804" points="156.19,66.66 152.49,79.65 157.37,79.65 161.01,66.66 	"/>
	<polygon class="hc99d804" points="150.49,62.89 145.6,79.65 150.49,79.65 155.31,62.89 	"/>
	<polygon class="hc99d804" points="156.75,63.19 156.43,65.25 161.01,65.25 161.78,63.19 	"/>
	<path class="hc99d804" d="M32.58,79.65l3.76-13.06c0,0,3.73-0.56,5.23,0.56c0,0,5.26-1.71,6.97,0.12c1.71,1.82-1.97,12.38-1.97,12.38
		h-5.03c0,0,4.53-11.03,1.23-11.03c-3.29,0-4.65,5.67-5.59,11.03H32.58z"/>
	<path class="hc99d804" d="M159.1,79.65l3.76-13.06c0,0,3.73-0.56,5.23,0.56c0,0,5.26-1.71,6.97,0.12c1.71,1.82-1.97,12.38-1.97,12.38
		h-5.03c0,0,4.53-11.03,1.23-11.03s-4.65,5.67-5.59,11.03H159.1z"/>
	<path class="hc99d804" d="M73.89,67.28c-2.79-2.68-9.02,0.91-9.02,0.91l-0.06,0.04c-0.07-0.41-0.19-0.74-0.39-0.95
		c-1.71-1.82-6.97-0.12-6.97-0.12c-1.5-1.12-5.23-0.56-5.23-0.56l-3.76,13.06h4.62c0.94-5.35,2.29-11.03,5.59-11.03
		s-1.23,11.03-1.23,11.03h5.03c0,0,1.34-3.84,2.02-7.29c1.09-4.32,3.65-3.73,3.65-3.73c3.29,0-1.23,11.03-1.23,11.03h5.03
		C71.92,79.65,75.69,69.01,73.89,67.28z"/>
	<path class="hc99d804" d="M106.41,79.65c0.21-0.18,9.94-16.76,9.94-16.76h7.82c0,0-1.97,1.79-3.85,2.91c-1.88,1.12-4.47,7.53-4.47,7.53
		h3.85l0.65-6.9h5.41l0.15,13.22h-6.41l-0.03-3.23h-5.29l-1.56,3.23H106.41z"/>
	<path class="hc99d804" d="M133.61,79.65l3.91-13c0,0,4.38,0.03,4.5,0c0.12-0.03,0.65,0.24,0.71,0.68c0,0,2.03-1.39,4.85-0.9l-0.71,2.25
		c0,0-3.7-0.62-4.91,1s-3.38,9.97-3.38,9.97H133.61z"/>
	<path class="hc99d804" d="M91.27,73.63c0,0,4.03-7.34-5.72-7.34c-9.75,0-11.07,7.94-11.07,7.94S73.05,80,81.25,80S90,76.03,90,76.03
		h-5.14h-0.42c0,0-0.79,1.81-2.4,1.81c-1.61,0-1.98-1.74-1.1-4.21H91.27z M84.27,68.6c2.05,0,1.39,3.31,1.39,3.31h-4.08
		C81.58,71.91,82.22,68.6,84.27,68.6z"/>
	<path class="hc99d804" d="M192.71,73.63c0,0,4.03-7.34-5.72-7.34c-9.75,0-11.07,7.94-11.07,7.94S174.49,80,182.69,80
		c8.2,0,8.75-3.97,8.75-3.97h-5.14h-0.42c0,0-0.79,1.81-2.4,1.81c-1.61,0-1.98-1.74-1.1-4.21H192.71z M185.71,68.6
		c2.05,0,1.39,3.31,1.39,3.31h-4.08C183.02,71.91,183.66,68.6,185.71,68.6z"/>
	<path class="hc99d804" d="M27.9,66.28c-6.85,0-8.88,4.02-8.88,4.02s4.29,0.44,5.2-0.44c0.91-0.88,1.41-1.68,3.03-1.26
		c1.62,0.41,1.76,2.65,0,3.23c-1.76,0.59-8.97,0.06-10.76,4.15c-1.79,4.09,6.35,4.94,9.2,3c0,0,0.47,0.68,0.59,0.68
		c0.12,0,4.41,0,4.41,0l2.53-8.62C33.23,71.04,34.75,66.28,27.9,66.28z M24.14,77.86c-3.18,0-1.85-2.5-1.09-2.94
		c0.76-0.44,4.35-1.32,4.35-1.32S27.32,77.86,24.14,77.86z"/>
	<path class="hc99d804" d="M205.82,70.03h5.47c0,0,0.46-3.75-7.5-3.75s-8.71,4.65-8.53,5.62c0.18,0.97,2.16,2.09,6.86,2.78
		c0,0,1.52,0.33,1.52,1.52s-1.32,1.72-2.51,1.72c-1.19,0-2.09-1.12-2.38-1.68h-5.12c0,0-0.73,3.65,7.5,3.65
		c8.23,0,8.67-4.38,8.67-4.99c0,0-0.07-1.83-2.65-2.43c-2.58-0.6-5.69-1.08-5.69-2.69C201.46,68.18,205.14,67.98,205.82,70.03z"/>
</g>
</svg>
