<?xml version="1.0" encoding="utf-8"?>
<!-- Generator: Adobe Illustrator 25.4.1, SVG Export Plug-In . SVG Version: 6.00 Build 0)  -->
<svg version="1.1" xmlns="http://www.w3.org/2000/svg" xmlns:xlink="http://www.w3.org/1999/xlink" x="0px" y="0px"
	 viewBox="0 0 200.3 80" style="enable-background:new 0 0 200.3 80;" xml:space="preserve">
<style type="text/css">
	.y7890365{fill:#E30613;}
	.h7185d28{fill-rule:evenodd;clip-rule:evenodd;fill:#0D3F88;}
	.v9f83152{fill-rule:evenodd;clip-rule:evenodd;fill:#FF0D0F;}
</style>
<g id="Layer_1">
</g>
<g id="Layer_2">
	<g>
		<path class="y7890365" d="M119.2,74.9h2.5l-0.8-4.8c-0.1-0.4-0.1-0.9-0.2-1.5c-0.1-0.6-0.1-1.2-0.1-2h-0.2c-0.1,0.9-0.1,1.6-0.2,2.3
			c-0.1,0.6-0.1,1.1-0.2,1.2L119.2,74.9L119.2,74.9z M114.6,79.7l4-15.2h3.7l3.9,15.2h-3.6l-0.5-2.5h-3.5l-0.6,2.5H114.6L114.6,79.7
			z M131.7,79.7h-3.5V64.5h3.5V79.7L131.7,79.7z M134.7,79.7V64.5h4.3c1.9,0,3.3,0.4,4.3,1.1c1,0.7,1.4,1.8,1.4,3.2
			c0,1-0.2,1.8-0.8,2.4c-0.5,0.7-1.2,1.1-2.1,1.4l3.2,7.1h-3.6l-3-7.1h-0.3v7.1H134.7L134.7,79.7z M138.1,71c0,0,0.1,0,0.2,0
			c0.1,0,0.2,0,0.2,0c0.9,0,1.6-0.2,2.1-0.6c0.5-0.4,0.7-0.9,0.7-1.6c0-0.7-0.2-1.2-0.7-1.6c-0.5-0.4-1.2-0.5-2.1-0.5h-0.4V71
			L138.1,71z M149.1,79.7l-3-15.2h3.5l0.7,5.6c0.1,0.8,0.2,1.7,0.3,3c0.1,1.2,0.2,2.6,0.4,4h0.2c0.1-1.7,0.3-3.2,0.4-4.5
			c0.1-1.4,0.2-2.3,0.3-2.8l0.9-5.2h3.3l0.8,6c0.1,0.9,0.2,1.9,0.3,3c0.1,1.1,0.2,2.3,0.3,3.6h0.2c0.1-1.3,0.2-2.7,0.3-3.9
			c0.1-1.3,0.3-2.4,0.4-3.5l0.8-5.1h3.3l-3.1,15.2h-3.6l-0.9-6.2c-0.2-1.3-0.3-2.5-0.4-3.5c-0.1-1-0.2-1.9-0.2-2.8h-0.2
			c-0.2,1.4-0.3,2.7-0.5,3.8c-0.1,1.1-0.3,2-0.3,2.5l-0.9,6.2H149.1L149.1,79.7z M167.4,74.9h2.5l-0.8-4.8c-0.1-0.4-0.1-0.9-0.2-1.5
			c-0.1-0.6-0.1-1.2-0.1-2h-0.2c-0.1,0.9-0.1,1.6-0.2,2.3c-0.1,0.6-0.1,1.1-0.2,1.2L167.4,74.9L167.4,74.9z M162.8,79.7l4-15.2h3.7
			l3.9,15.2h-3.6l-0.5-2.5h-3.5l-0.6,2.5H162.8L162.8,79.7z M177.8,79.7v-6.2l-4-9h3.8l1.3,4c0.2,0.6,0.4,1.2,0.5,1.7
			c0.1,0.5,0.2,1,0.3,1.5c0.1-0.6,0.2-1.2,0.3-1.8c0.1-0.5,0.3-1,0.4-1.5l1.3-3.9h3.7l-4.1,9.1v6.1H177.8L177.8,79.7z M185.5,76.2
			l3.1-0.7c0.1,0.6,0.3,1.1,0.6,1.5c0.3,0.3,0.8,0.5,1.3,0.5c0.5,0,0.8-0.1,1.1-0.4c0.3-0.3,0.4-0.6,0.4-1.1c0-0.4-0.1-0.8-0.4-1.2
			c-0.3-0.4-1-1-2-1.7c-1.4-1-2.4-1.9-2.9-2.6c-0.5-0.7-0.8-1.5-0.8-2.3c0-1.2,0.4-2.1,1.3-2.9c0.9-0.7,2-1.1,3.4-1.1
			c1.3,0,2.4,0.3,3.2,0.8c0.8,0.6,1.3,1.4,1.6,2.5l-2.8,0.8c-0.1-0.6-0.3-1.1-0.6-1.4c-0.3-0.3-0.7-0.5-1.2-0.5
			c-0.5,0-0.8,0.1-1.1,0.4c-0.3,0.3-0.4,0.6-0.4,1c0,0.7,0.8,1.6,2.3,2.7c0.4,0.3,0.6,0.5,0.8,0.6c1.1,0.8,1.9,1.5,2.3,2.2
			c0.4,0.7,0.7,1.4,0.7,2.2c0,1.3-0.4,2.4-1.3,3.2c-0.9,0.8-2.1,1.2-3.6,1.2c-1.3,0-2.4-0.3-3.3-1C186.2,78.3,185.7,77.4,185.5,76.2
			L185.5,76.2z"/>
		<path class="h7185d28" d="M188.7,12.7L188.7,12.7l-0.3,0c-2.7,2.2-5.5,4.4-8.4,6.7l-5.2,37.9h7.8c7,0,13.7-2.4,17-20.4
			C202.4,21.5,196.1,13,188.7,12.7z M192,35.9c-1.4,9.8-3.8,11.6-8,11.9l0,0l3.3-24.4C190.5,23.6,193.4,26.1,192,35.9z"/>
		<path class="h7185d28" d="M164.3,30.8l-1.7,12.1L162,32.4c-1,0.7-2.1,1.4-3.1,2.1l1.4,22.8h9.4l3.6-32.9
			C170.4,26.5,167.4,28.7,164.3,30.8z"/>
		<path class="h7185d28" d="M166.8,12.7l-0.8,5.9c2-2,4-4,5.8-5.9H166.8z"/>
		<path class="h7185d28" d="M160.7,12.7h-9.1l-2.5,22.4c4.3-4.2,8.4-8.1,12.2-11.9L160.7,12.7z"/>
		<path class="h7185d28" d="M148.5,41.2l-1.8,16h7.8l3.1-21.9C154.7,37.3,151.6,39.3,148.5,41.2z"/>
		<polygon class="h7185d28" points="110.4,47.5 114.1,12.7 104.3,12.7 99.6,57.3 115.6,57.3 116.9,47.5 		"/>
		<path class="h7185d28" d="M144.3,57.3l-0.5-13.1c-3.3,2-6.7,4.1-10.1,6.2h1.1l-0.2,6.9H144.3z"/>
		<path class="h7185d28" d="M142.5,12.7h-11.7L118,57.3h9.8l1.4-6.9h4c3.6-3.4,7.1-6.7,10.5-10L142.5,12.7z M134.9,43.1h-4.3l4.8-20.3
			L134.9,43.1z"/>
		<path class="h7185d28" d="M100.1,25.3c0.3-8-5.2-12.3-12.6-12.5v0h-8.7l-5.4,44.6h8.7l2.2-18.1l3.2,18.1h8.7l-3.5-19.9
			C97.5,37.2,99.9,31.2,100.1,25.3z M92.5,26c-0.5,5.3-3.9,7.1-7.5,7.6l1.6-13.3C89.6,20.8,92.8,22.1,92.5,26z"/>
		<polygon class="h7185d28" points="73.2,23.8 74.5,12.7 58.2,12.7 52.4,57.3 69.2,57.3 70.5,46.2 63.8,46.2 64.6,40 70.4,40 71.6,29.9 
			65.9,29.9 66.7,23.8 		"/>
		<polygon class="h7185d28" points="45.6,12.7 39.2,38.5 38.4,12.7 29,12.7 31.5,57.3 42.8,57.3 55,12.7 		"/>
		<path class="h7185d28" d="M15.6,12.7C7.1,12.7,2,22.7,0.4,35c-1.6,12.3,1.8,22.3,10,22.3c8.2,0,14.2-10,15.7-22.3
			C27.7,22.7,24.1,12.7,15.6,12.7z M16.6,35c-1,7.1-3.2,12.9-5.7,12.9c-2.5,0-3.1-5.8-2.1-12.9c1-7.1,2.9-12.9,5.5-12.9
			C16.9,22.1,17.6,27.9,16.6,35z"/>
		<path class="v9f83152" d="M193.6,0c-1.8,4.7-5.3,8.8-10.3,12.7c-0.8,0.6-1.7,1.3-2.6,1.9c-2.1,1.5-4.3,2.9-6.8,4.3
			c-2.5,1.4-5.1,2.9-7.9,4.3c3-3.1,6-5.9,8.3-8.7c0.5-0.6,1-1.2,1.5-1.8c2.5-3.4,4-6.7,3.3-10.1h6.1l0-2.6H193.6z"/>
	</g>
</g>
</svg>
