<?xml version="1.0" encoding="utf-8"?>
<!-- Generator: Adobe Illustrator 25.4.1, SVG Export Plug-In . SVG Version: 6.00 Build 0)  -->
<svg version="1.1" id="Layer_1" xmlns="http://www.w3.org/2000/svg" xmlns:xlink="http://www.w3.org/1999/xlink" x="0px" y="0px"
	 viewBox="0 0 254.9 80" style="enable-background:new 0 0 254.9 80;" xml:space="preserve">
<style type="text/css">
	.s3322fb4{fill:#0C0C11;}
	.j4fbae84{fill:#EC2227;}
	.p9ce162f{fill:#F1BE1D;}
	.fac751b6{fill:#F1BF1E;}
	.acff199d{fill:#F1C024;}
	.jfb1a6e4{fill:#F1BF1F;}
	.o09a3d21{fill:#F1C022;}
	.i02ee1bf{fill:#F2C229;}
	.e8da4e69{fill:#F04F53;}
	.lae22efc{fill:#EB1019;}
	.j4fbae840{fill:#F1BE1E;}
	.j4fbae841{fill:#F7EE1E;}
	.j4fbae842{fill:#EC1F24;}
</style>
<path class="s3322fb4" d="M84.9-885.5c-0.7-0.1-1.8,0-2.5,0c0.5-0.4,1.2-0.7,1.6-0.5c0.1,0,0.1,0,0.2,0.1
	C84.4-885.8,84.7-885.6,84.9-885.5z"/>
<g>
	<path class="j4fbae84" d="M148,44.6c1.8-5.1,3.4-9.7,5-14.4c0.3-0.9,0.6-1.8,1-2.6c0.8-1.6,2.1-2.2,3.6-1.6c1.3,0.5,2,1.9,1.5,3.4
		c-0.8,2.3-1.6,4.7-2.5,7c-2.2,5.7-4.3,11.4-6.5,17c-0.3,0.9-0.7,1.7-1.1,2.6c-1.3,2.7-3.4,4.2-6.4,4.5c-1.8,0.1-3.5,0.1-5.2-0.4
		c-1.3-0.4-1.8-1.3-1.7-2.6c0.1-1.4,1.1-1.8,2.3-1.9c0.1,0,0.2,0,0.3,0c4.4,0.1,4.4,0.1,6.1-3.8c0.3-0.8,0.3-1.4,0-2.2
		c-2.5-6.1-4.9-12.2-7.3-18.3c-0.3-0.7-0.6-1.4-0.7-2.2c-0.1-1.5,0.7-2.6,2.1-3c1.4-0.4,2.7-0.2,3.4,1.3c0.6,1.2,1.1,2.5,1.5,3.8
		C144.9,35.5,146.4,39.9,148,44.6z"/>
	<path class="j4fbae84" d="M188.5,33.9c0-4.4,0-8.8,0-13.2c0-0.6,0-1.2,0.1-1.8c0.4-1.4,1.3-2.3,2.8-2.3c1.5,0,2.6,0.7,3.1,2.2
		c0.2,0.7,0.2,1.4,0.2,2.1c0,8.7,0,17.4,0,26.1c0,0.3,0,0.7,0,1c-0.1,2.1-1.4,3.5-3.2,3.4c-1.8-0.1-3-1.4-3-3.5
		C188.4,43.3,188.5,38.6,188.5,33.9z"/>
	<path class="j4fbae84" d="M243.7,29.5c2.9-3.7,5.7-4.5,9.2-2.6c1.7,0.9,2.3,2.2,1.8,3.6c-0.5,1.4-1.8,1.9-3.7,1.3
		c-4.1-1.2-5.8-0.2-6.6,3.9c-0.7,3.4-0.5,6.8-0.5,10.2c0,1,0,2-0.1,3c-0.2,1.5-1.5,2.6-3,2.6c-1.6,0-2.6-0.8-3-2.3
		c-0.2-0.7-0.2-1.4-0.2-2.1c0-5.4,0-10.9,0-16.3c0-0.7,0.1-1.4,0.2-2.1c0.3-1.8,1.2-2.6,2.9-2.6c1.7,0,2.5,0.7,2.9,2.5
		C243.6,28.7,243.6,29,243.7,29.5z"/>
	<path class="j4fbae84" d="M100.8,29.4c3-3.7,5.8-4.4,9.2-2.5c1.7,0.9,2.3,2.2,1.7,3.6c-0.6,1.4-1.8,1.8-3.6,1.3
		c-0.8-0.2-1.6-0.4-2.4-0.5c-1.8-0.2-2.9,0.7-3.6,2.3c-0.6,1.5-0.9,3.1-0.9,4.7c-0.1,3-0.1,5.9-0.1,8.9c0,0.9-0.1,1.9-0.5,2.7
		c-0.6,1.1-1.6,1.6-2.9,1.6c-1.2-0.1-2.1-0.7-2.5-1.8c-0.1-0.3-0.3-0.6-0.3-0.9c-0.2-6.6-0.2-13.3,0-19.9c0.1-1.8,1.1-2.7,2.7-2.8
		c1.7-0.1,2.5,0.5,3.1,2.3C100.6,28.6,100.7,28.9,100.8,29.4z"/>
	<path class="j4fbae84" d="M232.6,38.8c0,3,0,5.9,0,8.9c0,2.3-1.2,3.7-3.1,3.8c-1.9,0.1-3.2-1.3-3.2-3.6c-0.1-6.1-0.1-12.2,0-18.3
		c0-2.3,1.3-3.6,3.2-3.5c1.9,0.1,3,1.3,3,3.6C232.6,32.6,232.6,35.7,232.6,38.8z"/>
	<path class="p9ce162f" d="M229.6,23.1c-2.9,0-5.3-2.3-5.4-5.1c-0.1-2.9,2.4-5.4,5.3-5.4c2.9,0,5.3,2.4,5.3,5.3
		C234.9,20.7,232.5,23.1,229.6,23.1z"/>
	<path class="fac751b6" d="M171.9,62.5c0.9-0.8,1.7-1.2,2.5-1.4c2.2-0.4,4.1,0.9,4.2,3.1c0.1,2,0,4.1,0,6.1c0,0.9-0.4,1.5-1.3,1.5
		c-1,0-1.3-0.7-1.3-1.6c0-1.6,0-3.2,0-4.8c0-1.2-0.3-2.3-1.8-2.3c-1.4,0-2.2,0.8-2.2,2.2c-0.1,1.5,0,3.1-0.1,4.6
		c0,1-0.3,1.8-1.4,1.9c-1.2,0-1.3-1-1.3-1.9c0-3.6,0-7.2,0-10.9c0-0.9,0.1-1.9,1.3-1.9c1.3,0,1.4,1,1.4,2
		C171.9,60.2,171.9,61.2,171.9,62.5z"/>
	<path class="fac751b6" d="M226.1,62.9c0.9-1.1,1.7-1.6,2.7-1.8c2.1-0.4,3.9,0.8,4.1,2.8c0.2,2.2,0.1,4.4,0.1,6.6c0,0.8-0.5,1.4-1.4,1.3
		c-0.9,0-1.2-0.7-1.3-1.5c-0.1-1.6,0-3.2-0.1-4.8c0-1.1-0.1-2.3-1.6-2.4c-1.3-0.1-2.3,0.9-2.4,2.4c-0.1,1.5,0,3,0,4.4
		c0,0.9-0.2,1.7-1.3,1.8c-1.2,0-1.4-0.8-1.4-1.8c0-2.4,0-4.7,0-7.1c0-0.8,0-1.6,1-1.8C225.5,61,225.9,61.6,226.1,62.9z"/>
	<path class="fac751b6" d="M250.3,71.9c-1.5,0-3-0.3-4-1.6c-0.5-0.6-0.9-1.4-0.1-2c0.8-0.7,1.4-0.1,1.9,0.6c0.8,1.2,1.9,1.5,3.2,1.2
		c0.6-0.1,1.1-0.4,1.1-1.1c0-0.5-0.4-0.9-0.9-1.1c-1-0.3-2-0.6-3-0.9c-1.4-0.5-2.6-1.2-2.5-2.9c0-1.4,1.2-2.5,3-2.9
		c1.7-0.3,3.4-0.1,4.8,1.1c0.6,0.5,1.1,1.2,0.4,2c-0.7,0.7-1.4,0.4-2-0.3c-0.7-0.8-1.5-1.3-2.6-1c-0.5,0.1-1,0.3-1.1,0.9
		c-0.1,0.6,0.4,0.9,0.9,1c0.8,0.3,1.6,0.4,2.4,0.7c2.3,0.7,3.4,1.7,3.2,3.2c-0.1,1.8-1.6,3-4,3.2C250.7,71.9,250.5,71.9,250.3,71.9z
		"/>
	<path class="fac751b6" d="M188.2,64.5c0,1.9,0,3.8,0,5.8c0,0.9-0.3,1.6-1.2,1.6c-1,0-1.4-0.7-1.4-1.6c0-3.8,0-7.7,0-11.5
		c0-0.9,0.4-1.6,1.3-1.5c0.9,0,1.3,0.7,1.3,1.5C188.2,60.6,188.2,62.6,188.2,64.5z"/>
	<path class="acff199d" d="M183.4,66.7c0,1.2,0,2.4,0,3.6c0,0.8-0.4,1.6-1.3,1.6c-1,0.1-1.4-0.7-1.4-1.5c0-2.6,0-5.2,0-7.7
		c0-0.8,0.4-1.5,1.4-1.5c0.9,0,1.3,0.7,1.3,1.6C183.5,64,183.4,65.3,183.4,66.7z"/>
	<path class="acff199d" d="M190.3,66.5c0-1.2,0-2.4,0-3.6c0-0.9,0.3-1.7,1.3-1.7c1,0,1.4,0.8,1.4,1.7c0,2.5,0,4.9,0,7.4
		c0,0.9-0.4,1.7-1.4,1.7c-1,0-1.3-0.9-1.3-1.8C190.2,68.9,190.3,67.7,190.3,66.5z"/>
	<path class="jfb1a6e4" d="M218.9,66.4c0-1.3,0-2.5,0-3.8c0-0.8,0.4-1.4,1.2-1.5c0.9,0,1.4,0.6,1.4,1.5c0,2.6,0,5.1,0,7.7
		c0,0.9-0.4,1.5-1.4,1.5c-1,0-1.3-0.7-1.3-1.6C218.9,69,218.9,67.7,218.9,66.4C218.9,66.4,218.9,66.4,218.9,66.4z"/>
	<path class="o09a3d21" d="M221.6,58.6c-0.2,0.8-0.7,1.3-1.5,1.2c-0.8-0.1-1.2-0.5-1.1-1.3c0.1-0.9,0.7-1.3,1.5-1.2
		C221.1,57.3,221.5,57.8,221.6,58.6z"/>
	<path class="i02ee1bf" d="M193,58.5c-0.1,0.8-0.5,1.3-1.3,1.3c-0.9,0-1.4-0.4-1.4-1.3c0-0.7,0.5-1.2,1.2-1.2
		C192.4,57.2,192.9,57.7,193,58.5z"/>
	<path class="o09a3d21" d="M182.1,57.3c0.8,0.1,1.3,0.5,1.3,1.2c0,0.9-0.5,1.3-1.4,1.3c-0.8,0-1.3-0.4-1.3-1.2
		C180.7,57.8,181.3,57.3,182.1,57.3z"/>
	<path class="e8da4e69" d="M60.7,74.5c0,0.4-0.2,0.6-0.5,0.7c-0.2,0.1-0.5,0-0.4-0.3c0.1-0.3,0.2-0.5,0.5-0.5
		C60.5,74.3,60.6,74.5,60.7,74.5z"/>
	<path class="lae22efc" d="M0.6,38.9c0.2,0.3,0.2,0.7,0,1.1C0.4,39.6,0.4,39.3,0.6,38.9z"/>
	<path class="j4fbae84" d="M184.5,48c-1.1-3-1.1-6.1-1-9.3c0-1.7,0.1-3.4,0-5.1c-0.2-2.7-0.9-5.3-3.7-6.4c-5-1.9-10.1-2-15,0.6
		c-1.6,0.9-2.7,2.3-3,4.1c-0.4,1.8,0.8,3.1,2.7,3.1c1.4,0,1.9-1,2.5-1.9c1.9-2.7,5.3-3.7,8.3-2.5c1.7,0.7,2,2.1,2.1,3.6
		c0,1.4-1.3,1.1-2.1,1.3c-3,0.8-6,1.3-9,2.1c-3.6,0.9-5.7,3.5-5.5,7c0.1,3.2,2.5,5.9,6,6.5c3.1,0.6,6,0,8.7-1.6
		c0.8-0.5,1.6-1.4,2.4-1.4c0.8,0,1.1,1.3,1.8,2c0.2,0.2,0.4,0.4,0.6,0.6c1.1,0.9,2.2,1,3.3,0.2C184.5,50.2,185,49.2,184.5,48z
		 M177.3,40.6c-0.2,4.4-2.7,6.8-6.8,6.6c-1.9-0.1-3.3-1.3-3.6-2.8c-0.2-1.7,0.6-3,2.7-3.6c2.3-0.7,4.7-1.3,7.1-1.7
		C178.2,38.9,176.9,40.3,177.3,40.6z"/>
	<path class="j4fbae84" d="M222.5,48.1c-1.1-3-1.3-6.1-1-8.7c0-2.6,0.1-4.7-0.2-6.7c-0.5-3.6-2.2-5.5-5.8-6.3c-2.8-0.6-5.7-0.6-8.5-0.2
		c-1.8,0.3-3.5,0.9-5,2.1c-1.4,1.1-2.3,2.5-2.3,4.3c0,1.2,0.6,2,1.7,2.3c1,0.3,2.1,0.3,2.8-0.8c0.4-0.6,0.8-1.2,1.2-1.7
		c1.7-2,6-2.8,8.2-1.5c1.4,0.8,1.6,2.2,1.6,3.6c0,1.2-1.3,0.9-2.1,1.1c-2.9,0.8-5.9,1.3-8.9,2c-3.7,0.9-5.9,3.6-5.8,7
		c0.1,3.4,2.6,6,6.2,6.6c3.5,0.6,6.6-0.3,9.4-2.3c1.2-0.9,1.9-1.2,2.7,0.4c0.3,0.6,0.9,1.1,1.5,1.5c1,0.8,2.1,0.6,3.1,0
		C222.3,50.2,222.9,49.3,222.5,48.1z M208.5,47.2c-1.9-0.1-3.4-1.2-3.7-2.9c-0.3-1.6,0.7-3,2.7-3.6c2.5-0.7,5.1-1.2,7.7-1.8
		C215.7,44.4,213.2,47.4,208.5,47.2z"/>
	<path class="j4fbae84" d="M129,27.2c-9.1-4.3-18.4,1.5-18.4,11.5c0,7.2,4.4,12.1,11.3,12.7c7,0.6,12.3-3.4,13.5-10.3
		C136.4,35.1,133.8,29.4,129,27.2z M128.2,43.5c-1,2.2-2.9,3.3-5.3,3.3c-2.4,0-4.2-1.3-5.2-3.4c-0.7-1.5-0.9-3-0.9-4.5
		c0-1.7,0.2-3.3,0.9-4.8c1-2.1,2.6-3.3,5-3.4c2.5-0.1,4.3,1,5.4,3.1C129.7,36.9,129.7,40.2,128.2,43.5z"/>
	<path class="p9ce162f" d="M215.9,62.4c-1.7-1.7-3.9-1.7-6.4,0.3c-0.2-0.9-0.5-1.6-1.5-1.5c-1,0.1-1.1,0.9-1.1,1.8c0,3.7,0,7.5,0,11.2
		c0,0.9,0.1,1.8,1.2,1.7c1.1,0,1.2-0.9,1.2-1.8c0-1.2,0-2.4,0-3.6c2.8,2,5,1.9,6.6,0C217.8,68.4,217.8,64.3,215.9,62.4z M212.1,69.8
		c-1.5,0-2.5-1.3-2.5-3.3c0-2.1,1-3.4,2.5-3.4c1.4,0,2.5,1.4,2.5,3.3C214.7,68.4,213.6,69.8,212.1,69.8z"/>
	<path class="j4fbae840" d="M242.1,69.2c-0.2,0.2-0.4,0.3-0.7,0.5c-1.5,0.8-3.1,0.3-3.8-1.1c-0.5-1-0.4-1.6,0.9-1.5c0.7,0.1,1.3,0,2,0
		c0,0,0,0,0,0c0.8,0,1.5,0,2.3,0c1.6-0.1,2.1-0.8,1.8-2.4c-0.4-1.9-1.9-3.3-3.8-3.6c-2.5-0.4-4.7,0.6-5.7,2.7
		c-1.1,2.4-0.6,5.4,1.2,7c1.7,1.4,5,1.6,6.8,0.3c0.8-0.6,1.9-1.4,1.1-2.4C243.5,67.6,242.8,68.7,242.1,69.2z M238.3,63.5
		c0.4-0.4,1-0.5,1.5-0.5c1.2,0,2.5,1.2,2.2,2.1c-0.4,1.2-1.5,0.2-2.1,0.5c-0.4,0-0.7,0-0.9,0c-0.5-0.1-1.3,0.4-1.5-0.5
		C237.4,64.5,237.8,63.9,238.3,63.5z"/>
	<g>
		<path class="j4fbae84" d="M22.3,5.7c-0.7-0.4-1.1,0.2-1.6,0.2C20.5,6,20.4,6,20.3,6.2c0,0,0,0.1,0,0.1c0.1,0.1,0.2,0.2,0.4,0.3
			C21.2,6.3,21.7,6,22.3,5.7z"/>
		<path class="j4fbae84" d="M54.8,12.2C54.7,12.2,54.7,12.2,54.8,12.2C54.7,12.2,54.7,12.2,54.8,12.2C54.7,12.2,54.7,12.2,54.8,12.2
			L54.8,12.2L54.8,12.2C54.7,12.2,54.8,12.2,54.8,12.2C54.8,12.2,54.8,12.2,54.8,12.2z"/>
		<path class="j4fbae84" d="M53.4,11.8c0.5,0.1,0.9,0.3,1.4,0.4C54.6,11.2,54,11.6,53.4,11.8z"/>
		<path class="j4fbae84" d="M15.9,10.3L15.9,10.3L15.9,10.3C15.9,10.2,15.9,10.3,15.9,10.3C15.9,10.3,15.9,10.3,15.9,10.3z"/>
		<path class="j4fbae84" d="M69.2,54.4c0-0.1-0.1-0.3-0.1-0.4c-0.1,0.1-0.3,0.2-0.3,0.3c0,0.1,0.1,0.3,0.1,0.5
			C69.1,54.6,69.2,54.5,69.2,54.4z"/>
		<path class="j4fbae84" d="M77.7,51.6c-3.5,8.3-8.2,15.8-14.2,22.6c8.1-5.2,12.5-12.8,14.5-22c0.3-0.3,0.5-0.8,0.2-1.1
			C78,50.9,77.7,51.3,77.7,51.6z"/>
		<path class="j4fbae84" d="M68.5,65.7c3-2.9,4.9-6.7,6.6-10.6c4.3-9.9,5.8-20.1,2.2-30.5c-4.3-12.5-13.7-19.8-25.9-24
			C50.1,0.1,48.7,0,47.3,0c-5.5,0-8.7,4.1-7.5,9.5c0.5,2,2.1,3.2,3.8,2.2c2.8-1.6,5.8-0.9,8.7-1.5c2.9-0.5,5.9,0.7,8.3,2.8
			c-0.4,0.5-0.9-0.1-1.2,0.3c0,0.4,0.8,0.6,0.4,1.1c-1.7-0.7-3.1-2.4-5.2-2.2c0,0.2,0.4,0.7-0.3,0.6c0,0,0,0,0,0c0,0,0,0,0,0
			c-0.4-0.4-0.7-0.3-1.2-0.2c0.3,0.3,0.5,0.5,0.9,0.5c0,0,0,0,0,0c8.1,4,13.2,10.5,15.6,19.2c0,0,0,0,0,0c0,0,0,0,0,0
			c-0.1,0.3-0.1,0.7,0.3,0.8c0.4,0.1,0.3-0.3,0.3-0.6c0-0.5,0.1-1.1-0.3-1.5c0,0,0,0,0,0c0,0,0,0,0,0c-0.5-3.9-2.4-7.2-4.1-10.7
			C73.8,27,77,46.1,67.3,59.1c-0.1-0.2-0.2-0.4-0.3-0.6c0.2-0.3,0.4-0.6,0.6-1.1c-0.9,0-0.8,0.6-1,1c-0.5,0.3-0.7,0.8-1,1.3
			c0,0,0,0,0,0c-0.3,0.4-0.6,0.7-1,1.1c-9.2,11.1-23.6,15-36.2,11.3C11.9,67.4,1.1,48.2,5.2,31c2.5-10.4,9-17.9,17.6-23.9
			c0.5-0.3,1.1-0.5,1.4-1.2c-1.4-0.2-2.3,1.1-3.6,0.9c0,0.1,0,0.3,0,0.4c-0.5,0-0.9,0.2-1.2,0.6c-0.1,0.1-0.3,0.3-0.4,0.4
			c-0.4,0.3-0.9,0.6-1.3,0.9c-0.5,0.5-0.9,1-1.6,1c0,0,0,0,0,0c0,0,0,0,0,0h0c0,0,0,0,0,0c0,0,0,0,0,0c0-0.8,0.8-1,1.3-1.3
			c0.1-0.2,0.2-0.4,0.4-0.7c-0.3-1.1,1-1,1.3-1.7c-0.8-0.3-1.3,0.1-2,0.4c-5.6,3.3-9.8,7.9-12.6,13.8c-5.4,11.3-5.6,23-2,34.7
			C5.9,66.6,12.5,75,24.6,78c2.2,0.5,4.4,1.2,6.6,1.3c0.1,0.1,0.3,0.1,0.4,0.1c1.4,0.3,2.8,0.3,4.3-0.1c-0.7-0.6-1.2-0.2-1.7,0
			c-0.7-0.6-1.5-0.2-2.3-0.3c0,0,0,0,0,0c-2.1-0.5-4.3-0.8-6.3-1.7c-0.1-0.3-0.3-0.4-0.6-0.5c0.4,0.1,0.8,0.1,1.2,0.2
			c0.6,0,1-0.2,0.2-0.6c-0.6-0.3-1.3-0.4-1.9-0.6c-0.4-0.2-0.8-0.3-1.2-0.5c-0.3-0.3-0.7-0.5-1.1-0.5c0,0,0,0,0,0c0,0,0,0,0,0
			c-1.6-1-3.3-1.7-4.6-3c-0.1-0.1-0.1-0.3-0.2-0.4c0.2-0.1,0.4-0.1,0.6,0.1c4.1,2.5,8.5,4.2,13.3,5.2c1.3,0.3,2.7,0.2,3.9,0.8
			c0,0,0,0,0,0c0,0,0,0,0,0c-0.4,0-0.9-0.1-1.1,0.5c0.4,0.2,0.8,0.2,1.2,0.1c0,0,0,0,0,0c0.6,0,1.2,0,1.8,0
			c10.5-0.1,19.8-3.4,27.3-10.9c0,0,0.2,0,0.4,0c-0.7,2.1-2.5,3.3-3.6,5C64,70.3,66.2,67.9,68.5,65.7z M69,61
			c0.7-1.4,1.2-2.9,2.1-4.3c0.9-2,1.7-4,2.6-5.9c0.1-0.4,0.2-0.9,0.8-1.2c-0.2,0.5,0,1.1-0.5,1.5c0,0.2-0.1,0.5,0.2,0.6
			c0.5,0.2,0.5-0.3,0.6-0.6c0.6-2.2,1.2-4.4,1.8-6.5c0.2-0.7,0.3-1.4,0.4-2.1c0.1-0.7,0.2-1.3,0.4-2c0.3,0.9,0.4,1.8,0,2.7
			c-0.3,5.3-2,10-5.3,14.2c-0.7,1.5-1.8,2.6-2.7,3.9c-0.1,0.4-0.3,0.7-0.8,0.9C68.3,61.7,68.7,61.4,69,61z M16,10.2
			C16,10.2,16,10.2,16,10.2C16,10.2,16,10.2,16,10.2c-0.8,1.4-2.2,2.2-3.4,3.2C13.4,12,14.1,10.6,16,10.2z M24.2,76.2
			C24.2,76.2,24.2,76.2,24.2,76.2C24.2,76.2,24.2,76.2,24.2,76.2C24.2,76.2,24.2,76.2,24.2,76.2z"/>
		<path class="j4fbae84" d="M53.1,79.9c1.5-0.2,2.4-1.3,3.3-2.4c-1.7,0.6-3.5,1-5.1,2C51.7,80.4,52.5,79.8,53.1,79.9z"/>
		<path class="j4fbae84" d="M27.3,76.9c0.4,0.4,0.9,0.3,1.3,0.4c0.3,0.2,0.7,0.5,0.9,0c0.1-0.3-0.3-0.3-0.6-0.3c0,0,0,0,0,0v0
			C28.4,77,27.9,76.2,27.3,76.9z"/>
		<path class="j4fbae84" d="M74.2,52.3c0-0.1-0.4-0.1-0.4-0.1c-0.2,0.3-0.4,0.6-0.1,1.1C74,53,74.3,52.7,74.2,52.3z"/>
	</g>
	<path class="p9ce162f" d="M204,62.4c-1.7-1.7-3.9-1.7-6.4,0.3c-0.2-0.9-0.5-1.6-1.5-1.5c-1,0.1-1.1,0.9-1.1,1.8c0,3.7,0,7.5,0,11.2
		c0,0.9,0.1,1.8,1.2,1.7c1.1,0,1.2-0.9,1.2-1.8c0-1.2,0-2.4,0-3.6c2.8,2,5,1.9,6.6,0C206,68.4,205.9,64.3,204,62.4z M200.2,69.8
		c-1.5,0-2.5-1.3-2.5-3.3c0-2.1,1-3.4,2.5-3.4c1.4,0,2.5,1.4,2.5,3.3C202.8,68.4,201.7,69.8,200.2,69.8z"/>
	<path class="p9ce162f" d="M166.2,62.4c-1.7-1.7-3.9-1.7-6.4,0.3c-0.2-0.9-0.5-1.6-1.5-1.5c-1,0.1-1.1,0.9-1.1,1.8c0,3.7,0,7.5,0,11.2
		c0,0.9,0.1,1.8,1.2,1.7c1.1,0,1.2-0.9,1.2-1.8c0-1.2,0-2.4,0-3.6c2.8,2,5,1.9,6.6,0C168.2,68.4,168.1,64.3,166.2,62.4z M162.5,69.8
		c-1.5,0-2.5-1.3-2.5-3.3c0-2.1,1-3.4,2.5-3.4c1.4,0,2.5,1.4,2.5,3.3C165.1,68.4,164,69.8,162.5,69.8z"/>
	<path class="j4fbae841" d="M42.8,30.5c-0.1,0.1-1.7,1.6-5.7,4C32.9,37,21.8,47.1,15.5,47.1c-6.1,0-8.7-7.9-8.9-8.3
		c0.1,0.4,2.1,5.7,8.2,5.7c6.3,0,19-10,23.5-12C42.4,30.7,42.8,30.5,42.8,30.5z"/>
	<path class="j4fbae842" d="M42.8,30.5C42.8,30.5,42.8,30.5,42.8,30.5c0,0-0.4,0.2-4.5,2c-4.5,2-17.2,12-23.5,12c-6.1,0-8.1-5.3-8.2-5.7
		c0,0,0,0,0,0c0.4,0.2,0.8,0.4,1.2,0.5c7.8,3,14-2.4,22.7-6.1C39.1,29.5,42.5,30.4,42.8,30.5C42.8,30.5,42.8,30.5,42.8,30.5z"/>
	<path class="j4fbae842" d="M51.7,28.9C51.7,28.9,51.7,28.9,51.7,28.9L51.7,28.9c-0.4,0.2-7.3,3.7-17,13.4c-3.4,3.4-7,6.8-11.2,9.2
		c-2.7,1.6-5.9,2.7-9.1,2.2c-0.7-0.1-1.5-0.3-2.2-0.5c-0.6-0.2-1.1-0.6-1.6-1c-0.1-0.1-0.3-0.2-0.4-0.4c-0.2-0.2-0.5-0.5-0.7-0.7
		c0,0,0,0,0,0c0,0,0,0,0,0c-0.5-0.6-1-1.3-1.3-1.9c0,0,4.7,3.2,11.7-0.8C26.9,44.3,43.2,29,51.7,28.9z"/>
	<path class="j4fbae841" d="M51.7,28.9c-0.1,0.1-1.7,1.5-3.8,3.4c-2.2,2-12.1,11.9-14.6,14.3c-2.5,2.4-6,6.3-12.9,8
		c-4.8,1.1-8.2-1-9.7-2.5c0.5,0.4,1,0.8,1.6,1c0.7,0.3,1.5,0.4,2.2,0.5c3.2,0.5,6.3-0.6,9.1-2.2c4.2-2.4,7.8-5.8,11.2-9.2
		C44.4,32.6,51.3,29.1,51.7,28.9L51.7,28.9z"/>
	<path class="j4fbae842" d="M47.1,35.7c0,0-0.4,0.2-1,0.9l0,0c-1.1,1.2-3.1,3.9-6,10c-4.6,9.7-10.4,10.7-12.5,11c-2.1,0.3-5.1,0.3-8-1.1
		c0,0,0,0,0,0l0,0c0.4-0.1,6.5-1.2,10.7-4.9c4.3-3.9,5.3-5,7.8-7.5C40.5,41.6,43.9,36.4,47.1,35.7z"/>
	<path class="j4fbae841" d="M47.1,35.7c-0.9,1.1-4.7,9.9-6.2,13.4c-1.5,3.5-4.8,8-10,9.3c-5,1.3-10.9-1.8-11.2-2c2.9,1.4,5.9,1.4,8,1.1
		c2.1-0.3,7.9-1.3,12.5-11c2.9-6.1,4.9-8.8,6-10l0,0L47.1,35.7L47.1,35.7z"/>
	<path class="j4fbae842" d="M64.6,50.9c-0.2,0.2-7.5,10.4-17.3,3.4c0,0-3.5-2.6-3.7-6.8c-0.2-4.2,3.1-7.7,3.2-7.9c0,0,0,0,0,0l0,0l0,0
		c-0.2,0.5-1.9,6.6,2.5,10C54,53.2,58.1,53.5,64.6,50.9C64.6,50.9,64.6,50.9,64.6,50.9L64.6,50.9z"/>
	<path class="j4fbae841" d="M64.6,50.9c-6.5,2.6-10.6,2.3-15.2-1.3c-4.4-3.4-2.7-9.5-2.5-10l0,0c-0.1,0.4-1.4,6,5.5,9.5
		C59,52.6,64.1,51.1,64.6,50.9z"/>
	<path class="j4fbae842" d="M63.9,35.6c-4.2,5.9-13.2,1.6-14.4,1c-0.1,0-0.1-0.1-0.1-0.1h0c0,0,0,0,0,0s9.4,1,11.1-3.7
		c1.7-4.7-4.5-4.8-4.5-4.8c0.3-0.1,0.5-0.3,0.8-0.4c0,0,0,0,0,0C61,26.1,68.1,29.7,63.9,35.6z"/>
	<path class="j4fbae841" d="M63.5,38.2c-5.1,2.8-12.9-1.1-14-1.6c1.2,0.6,10.2,4.8,14.4-1c4.2-5.9-2.8-9.5-7.1-7.9
		c3.7-1.6,6.2-0.1,7.9,1.2C66.5,30.3,68.9,35.2,63.5,38.2z"/>
</g>
</svg>
