<?xml version="1.0" encoding="utf-8"?>
<!-- Generator: Adobe Illustrator 25.4.1, SVG Export Plug-In . SVG Version: 6.00 Build 0)  -->
<svg version="1.1" id="Layer_1" xmlns="http://www.w3.org/2000/svg" xmlns:xlink="http://www.w3.org/1999/xlink" x="0px" y="0px"
	 viewBox="0 0 118.3 80" style="enable-background:new 0 0 118.3 80;" xml:space="preserve">
<style type="text/css">
	.e7361c09{fill:#004C96;}
	.ha70dd4f{fill:#FFFFFF;}
	.jebacb84{fill:#0360A2;}
</style>
<g id="g94" transform="translate(278.3771,204.5995)">
	<g id="path96">
		<polygon class="e7361c09" points="-191.1,-188.1 -192.1,-188.9 -182.3,-200.7 -182.6,-198.2 -182.7,-198.2 		"/>
	</g>
</g>
<g id="g98" transform="translate(340.5246,164.3671)">
	<g id="path100">
		<g>
			<path class="e7361c09" d="M-248.8-128.7l-0.4-1.2c8.3-2.9,15.2-6.4,15.3-6.5l2.9-1.5l-2.4,2.8l-0.1-0.1
				C-234.6-134.6-241.1-131.4-248.8-128.7z"/>
		</g>
	</g>
</g>
<g id="g102" transform="translate(105.5968,61.7094)">
	<g id="path104">
		<g>
			<path class="e7361c09" d="M-74.2,0.3l-1.9-2.1l1.3-0.1c0,0,2.8-0.3,6.6-2l0.5,1.2c-2.5,1.1-4.5,1.6-5.7,1.9l0.2,0.2L-74.2,0.3z"/>
		</g>
	</g>
</g>
<g id="g20" transform="translate(289.5548,215.7895)">
	<path id="path22" class="e7361c09" d="M-199.2-203.3c-11.4,14.5-22.1,29.6-31.4,37.8c4-0.6,8.1-1.6,14.3-3.6
		C-211.4-180.2-202.8-197-199.2-203.3 M-245.1-171.5c-0.2,0-0.4,0.1-0.4,0.3c0,0.1,0,0.1,0.1,0.2c0.2,0.2,0.4,0.4,0.6,0.5
		c0.3,0.1,0.6,0.2,0.9,0.3c0.4,0.1,0.9,0.2,1.4,0.2c0.6,0.1,1.2,0.1,1.8,0.1c0.8,0,1.6,0.1,2.4,0.1c0.2,0,0.4,0,0.6,0
		c0.1,0,0.2,0,0.3,0c0.1,0,0.2,0,0.3,0C-239.9-170.7-241.1-170.8-245.1-171.5C-245-171.5-245.1-171.5-245.1-171.5 M-231.6-168.4
		c0.5,0.2,0.5,0.3,1,0.5c0.4-0.3,0.4-0.4,0.8-0.7L-231.6-168.4z M-229.4-167.4c3.2,1.5,5.3,3.2,7.5,5.3c3.6,3.6,4.1,5,4.7,7.6
		c0-1.3,0-2.8,0.1-4c0.2-3.5,1.7-8.1,4.2-13.7c-5.3,1.7-10,2.8-15.1,3.5C-228.6-168.2-228.9-167.8-229.4-167.4 M-217.4-152.9
		c-1.1-4.6-3.8-9.9-12.6-14c-7.3,6.1-14.4,9.5-20.2,11.3c-0.4,0.1,0.1,0.1-0.3,0.2c-3.2,0.9-7.3,1.3-7.4,1.3l-0.4-0.4
		c0,0,3.6-0.4,6.8-1.4c5.9-1.8,12.8-5.3,20.3-11.6c-0.8-0.3-1.2-0.5-2-0.8c-7.3,0.4-11.7-1.1-12.6-2.2c-0.3-0.3-0.5-0.7-0.2-1.1
		c0.2-0.3,0.6-0.5,1-0.4c4.6,0.9,8.8,2.1,11.5,3c1.1-0.1,2.3-0.2,3.6-0.3c0.4,0,0.7-0.1,1.1-0.1c10.1-8.8,21.5-21.5,34.2-38l0,1.2
		c-0.1,0.1-2.6,4.5-5.8,10.7c0,0.1,0-0.1-0.1-0.1c-3.3,6.2-7.3,14.2-10.6,21.7c7.8-2.5,15.7-6.1,27.2-11.9l-0.8,1
		c-8.2,4.2-16.1,8.6-26.8,12.1c-2.5,5.8-4.8,11.5-4.8,15.6"/>
</g>
<g id="g24" transform="translate(295.3664,150.2558)">
	<g id="path26">
		<path class="e7361c09" d="M-203.2-116.9c0,18.4-14.9,33.4-33.4,33.4s-33.4-14.9-33.4-33.4s14.9-33.4,33.4-33.4
			S-203.2-135.3-203.2-116.9"/>
	</g>
</g>
<g id="g28" transform="translate(145.2316,119.0668)">
	<path id="path30" class="ha70dd4f" d="M-100.8-75.8c-0.1,0-0.3,0.1-0.3,0.2c-0.1,0.1,0,0.3,0.2,0.5c0.5,0.4,4,2.1,7.8,1.2
		C-95.2-74.4-98.8-75.4-100.8-75.8C-100.7-75.8-100.7-75.8-100.8-75.8 M-73.1-58.4c0,0-0.1-3.2-3.5-6.9c-3.9-4.2-10.4-6.5-16.4-8.2
		c-5,0.3-7.6-0.6-8.3-1.2c-0.5-0.4-0.4-0.9-0.2-1.2c0.2-0.3,0.6-0.5,1-0.4c2.5,0.4,6,1.3,8.8,2.1c2.6-0.1,2.8-0.2,6.5-0.8
		c14.1-2.5,26.9-6,46.9-15.3l-0.9,1.2c-20,9.3-34.3,12.6-43.7,14.1c-3,0.5-5.5,1.1-7.8,1.2c5.6,1.7,11.1,4.1,14.8,8.1
		c3.5,3.9,3.6,7.1,3.6,7.3L-73.1-58.4z"/>
</g>
<g id="g32" transform="translate(232.3146,62.1332)">
	<path id="path34" class="ha70dd4f" d="M-160.2-0.7c-2.1-7.3,1.1-18.6,9.6-33.7c2.9-5.2,6.4-10.8,8.9-14.5c-26.6,31.5-45.3,43-54.4,46.5
		c-3.1,1.2-4.3,1.2-4.3,1.2l-0.4-0.5c0,0,1.6-0.1,4.6-1.2c9.6-3.7,30.1-15.8,59.2-53.3l-0.2,2.4c-0.3,0.4-26.1,33.8-22,51.7
		L-160.2-0.7z"/>
</g>
<g id="g36" transform="translate(297.1574,220.5326)">
	<path id="path38" class="ha70dd4f" d="M-204.4-209.5c-11.4,14.5-20.8,25.7-30,33.9c4-0.6,8.1-1.6,14.3-3.6
		C-215.3-190.3-208-203.2-204.4-209.5 M-252.7-177.2c-0.2,0-0.4,0.1-0.4,0.3c0,0.1,0,0.1,0.1,0.2c0.2,0.2,0.4,0.4,0.6,0.5
		c0.3,0.1,0.6,0.2,0.9,0.3c0.4,0.1,0.9,0.2,1.4,0.2c0.6,0.1,1.2,0.1,1.8,0.1c0.8,0,1.6,0.1,2.4,0.1c0.2,0,0.4,0,0.6,0
		c0.1,0,0.2,0,0.3,0c0.1,0,0.2,0,0.3,0C-247.5-176.4-248.7-176.6-252.7-177.2C-252.7-177.2-252.7-177.2-252.7-177.2 M-239.2-174.1
		c0.5,0.2,0.5,0.3,1,0.5c0.4-0.3,0.4-0.4,0.8-0.7L-239.2-174.1z M-237-173.1c3.2,1.5,5.3,3.2,7.5,5.3c3.6,3.6,4.1,5,4.7,7.6
		c0-1.3,0-2.8,0.1-4c0.2-3.5,1.7-8.1,4.2-13.7c-5.3,1.7-10,2.8-15.1,3.5C-236.2-173.9-236.5-173.6-237-173.1 M-224.4-157.2
		c-0.1,0-0.2,0-0.3-0.1c-0.1-0.2-0.2-1.1-0.3-1.3c-1.1-4.6-3.8-9.9-12.6-14c-7.7,6.4-15.2,10.2-21.2,11.9c-3.2,0.9-6.5,1.2-6.6,1.2
		l-0.4-0.5c0,0,3.7-0.4,6.9-1.3c5.9-1.7,12.7-5.7,20.2-12c-0.8-0.3-1.2-0.5-2-0.8c-7.3,0.4-11.7-1.1-12.6-2.2
		c-0.3-0.3-0.5-0.7-0.2-1.1c0.2-0.3,0.6-0.5,1-0.4c4.6,0.9,8.8,2.1,11.5,3c1.1-0.1,2.3-0.2,3.6-0.3c0.4,0,0.7-0.1,1.1-0.1
		c10.1-8.8,21.5-21.5,34.2-38l0,1.1c-0.2,0.3-9.8,17.5-16.4,32.5c7.8-2.5,16.6-6.2,28.1-12l-0.8,1c-8.2,4.2-17,8.7-27.6,12.2
		c-2.5,5.8-4.8,11.5-4.8,15.6c0,0-0.1,5.2-0.1,5.2C-223.9-157.5-224.2-157.2-224.4-157.2"/>
</g>
<g id="g40" transform="translate(151.1603,104.684)">
	<path id="path42" class="ha70dd4f" d="M-104.8-56.8c-0.1,0-0.3,0.3-0.4,1.2c-0.1,1.1-0.1,9,0,11.8c0,1.3,0.1,2,0.2,2.3
		c0.1-0.3,0.1-1,0.1-2.3c0.1-2.2,0.3-10.4,0.3-11.8C-104.6-56.6-104.7-56.8-104.8-56.8L-104.8-56.8z M-105-40.8
		c-0.1,0-0.1,0-0.2-0.1c0-0.1-0.1-0.1-0.1-0.2c0-0.1-0.1-0.2-0.1-0.3c0-0.1-0.1-0.2-0.1-0.3c0-0.1,0-0.3-0.1-0.4
		c0-0.2,0-0.3-0.1-0.5c0-0.2,0-0.4,0-0.6c0-0.2,0-0.4,0-0.6c-0.1-2.6-0.1-10.7,0-11.9c0-0.4,0.1-1.6,0.8-1.6c0.1,0,0.2,0,0.4,0.1
		c0.3,0.2,0.6,0.7,0.6,1.5c0,1.5-0.2,9.6-0.3,11.9c0,0.2,0,0.4,0,0.6c0,0.2,0,0.4-0.1,0.6c0,0.2,0,0.3-0.1,0.5
		c0,0.1-0.1,0.3-0.1,0.4c0,0.1-0.1,0.2-0.1,0.3c0,0.1-0.1,0.2-0.1,0.3c0,0.1-0.1,0.1-0.1,0.2c0,0-0.1,0.1-0.1,0.1
		C-104.9-40.8-105-40.8-105-40.8"/>
</g>
<g id="g44" transform="translate(232.3146,62.1332)">
	<path id="path46" class="ha70dd4f" d="M-160.2-0.7c-2.1-7.3,1.1-18.6,9.6-33.7c2.9-5.2,6.4-10.8,8.9-14.5c-26.6,31.5-45.3,43-54.4,46.5
		c-3.1,1.2-4.4,1.4-4.5,1.4l-0.6-0.6c0,0,2.2-0.3,5.2-1.4c9.6-3.7,29.8-15.7,58.8-53.2l-0.2,2.4c-0.3,0.4-26.1,33.8-22,51.7
		L-160.2-0.7z"/>
</g>
<g id="g48" transform="translate(297.2296,220.6034)">
	<path id="path50" class="ha70dd4f" d="M-204.4-209.6c-11.4,14.5-20.8,25.7-30,33.9c4-0.6,8.1-1.6,14.3-3.6
		C-215.3-190.4-208-203.3-204.4-209.6 M-252.7-177.3c-0.2,0-0.4,0.1-0.4,0.3c0,0.1,0,0.1,0.1,0.2c0.2,0.2,0.4,0.4,0.6,0.5
		c0.3,0.1,0.6,0.2,0.9,0.3c0.4,0.1,0.9,0.2,1.4,0.2c0.6,0.1,1.2,0.1,1.8,0.1c0.8,0,1.6,0.1,2.4,0.1c0.2,0,0.4,0,0.6,0
		c0.1,0,0.2,0,0.3,0c0.1,0,0.2,0,0.3,0C-247.5-176.5-248.8-176.7-252.7-177.3C-252.7-177.3-252.7-177.3-252.7-177.3 M-239.3-174.2
		c0.5,0.2,0.5,0.3,1,0.5c0.4-0.3,0.4-0.4,0.8-0.7L-239.3-174.2z M-237.1-173.2c3.2,1.5,5.3,3.2,7.5,5.3c3.6,3.6,4.1,5,4.7,7.6
		c0-1.3,0-2.8,0.1-4c0.2-3.5,1.7-8.1,4.2-13.7c-5.3,1.7-10,2.8-15.1,3.5C-236.2-174-236.5-173.7-237.1-173.2 M-224.5-157.3
		c-0.1,0-0.2,0-0.3-0.1c-0.1-0.2-0.2-1.1-0.3-1.3c-1.1-4.6-3.8-9.9-12.6-14c-7.7,6.4-15.1,10.4-21.1,12.1c-3.2,0.9-6.8,1.3-6.8,1.3
		l-0.6-0.6c0,0,4-0.4,7.1-1.3c5.9-1.7,12.7-5.7,20.2-12c-0.8-0.3-1.2-0.5-2-0.8c-7.3,0.4-11.7-1.1-12.6-2.2
		c-0.3-0.3-0.5-0.7-0.2-1.1c0.2-0.3,0.6-0.5,1-0.4c4.6,0.9,8.8,2.1,11.5,3c1.1-0.1,2.3-0.2,3.6-0.3c0.4,0,0.7-0.1,1.1-0.1
		c10.1-8.8,21.5-21.5,34.2-38l0,1.1c-0.2,0.3-9.8,17.5-16.4,32.5c7.8-2.5,16.6-6.2,28.1-12l-0.8,1c-8.2,4.2-17,8.7-27.6,12.2
		c-2.5,5.8-4.8,11.5-4.8,15.6c0,0-0.1,5.2-0.1,5.2C-223.9-157.5-224.2-157.3-224.5-157.3"/>
</g>
<path id="path52_00000023250764837410094500000000118379516997886647_" class="e7361c09" d="M1.3,80H0v-7.1h1.3V80z"/>
<g id="g54_00000118387373034984704280000001946127144086795166_" transform="translate(26.2204,13.807)">
	<path id="path56_00000131366900293176604160000015278336687910261674_" class="e7361c09" d="M-19.6,63h4.6l-2.3-4.4L-19.6,63z
		 M-22.7,66.2l4.7-8.6h1.5l4.8,8.6h-1.6l-1.1-2.1h-5.8l-1.1,2.1H-22.7z"/>
</g>
<g id="g58" transform="translate(57.9606,3.682)">
	<path id="path60" class="e7361c09" d="M-41.3,76.3v-7.1h7.1v1.1h-5.8v1.8h3.5v1.1h-3.5v2.1h5.9v1.1H-41.3z"/>
</g>
<g id="g62" transform="translate(104.4953,22.6742)">
	<path id="path64" class="e7361c09" d="M-73,51.3h-3.8v2.3h3.8c0.4,0,0.6-0.1,0.7-0.3c0.1-0.1,0.1-0.3,0.1-0.5V52
		C-72.2,51.5-72.5,51.3-73,51.3 M-78.1,57.3v-7.1h5.7c1,0,1.5,0.5,1.5,1.4v1.6c0,0.9-0.5,1.4-1.5,1.4h-0.9l3.1,2.8H-72l-2.8-2.8
		h-1.9v2.8H-78.1z"/>
</g>
<path id="path66" class="e7361c09" d="M37.8,78.9h5.9v-5h-5.9V78.9z M36.5,74.6c0-0.6,0.1-1.1,0.4-1.3c0.2-0.2,0.7-0.4,1.4-0.4h5.1
	c0.7,0,1.1,0.1,1.4,0.4c0.2,0.2,0.4,0.7,0.4,1.3v3.7c0,0.6-0.1,1.1-0.4,1.3C44.4,79.9,44,80,43.3,80h-5.1c-0.7,0-1.1-0.1-1.4-0.3
	c-0.2-0.2-0.4-0.7-0.4-1.3V74.6z"/>
<g id="g68" transform="translate(174.4284,13.807)">
	<path id="path70" class="e7361c09" d="M-120.7,63h4.6l-2.3-4.4L-120.7,63z M-123.8,66.2l4.7-8.6h1.5l4.8,8.6h-1.6l-1.1-2.1h-5.8
		l-1.1,2.1H-123.8z"/>
</g>
<path id="path72" class="e7361c09" d="M65.1,80h-1.3v-7.1h1.3V80z"/>
<g id="g74" transform="translate(236.4924,22.6742)">
	<path id="path76" class="e7361c09" d="M-163,51.3h-3.8v2.3h3.8c0.4,0,0.6-0.1,0.7-0.3c0.1-0.1,0.1-0.3,0.1-0.5V52
		C-162.3,51.5-162.5,51.3-163,51.3 M-168.1,57.3v-7.1h5.7c1,0,1.5,0.5,1.5,1.4v1.6c0,0.9-0.5,1.4-1.5,1.4h-0.9l3.1,2.8h-1.8
		l-2.8-2.8h-1.9v2.8H-168.1z"/>
</g>
<g id="g78" transform="translate(257.2677,3.682)">
	<path id="path80" class="e7361c09" d="M-177.2,76.3l-2.7-7.1h1.4l2,5.4l2.1-5.4h0.9l2,5.4l2-5.4h1.2l-2.7,7.1h-1l-2-5.3l-2.1,5.3H-177.2
		z"/>
</g>
<g id="g82" transform="translate(296.4054,12.0756)">
	<path id="path84" class="e7361c09" d="M-203.9,65.3h3.8l-1.9-3.4L-203.9,65.3z M-206.7,67.9l4.1-7.1h1.2l4.2,7.1h-1.5l-0.9-1.7h-4.9
		l-0.9,1.7H-206.7z"/>
</g>
<g id="g86" transform="translate(331.6603,3.682)">
	<path id="path88" class="e7361c09" d="M-227.9,76.3v-3.1l-3.7-4h1.6l2.8,3.1l2.7-3.1h1.6l-3.7,4v3.1H-227.9z"/>
</g>
<g id="g90" transform="translate(373.3166,22.6215)">
	<path id="path92" class="e7361c09" d="M-256.3,51.4h-5v1.8h4.5c0.7,0,1.1,0.1,1.4,0.4c0.2,0.2,0.4,0.7,0.4,1.3v0.9
		c0,0.6-0.1,1.1-0.4,1.3c-0.2,0.2-0.7,0.4-1.4,0.4h-4.3c-0.7,0-1.1-0.1-1.4-0.4c-0.2-0.2-0.4-0.7-0.4-1.3v-0.2l1.2-0.3v1.1h5.3v-2
		h-4.6c-0.7,0-1.1-0.1-1.4-0.4c-0.2-0.2-0.4-0.7-0.4-1.3V52c0-0.7,0.1-1.1,0.4-1.3c0.2-0.2,0.7-0.4,1.4-0.4h3.9
		c0.6,0,1.1,0.1,1.3,0.3c0.3,0.2,0.4,0.6,0.4,1.2V52l-1.2,0.3V51.4z"/>
</g>
<g id="g106" transform="translate(305.4894,238.2821)">
	<path id="path108" class="jebacb84" d="M-210.1-232.9l-0.4,4.1l-0.6-0.1l0.3-3.2"/>
</g>
<g id="g110" transform="translate(341.8097,166.0956)">
	<path id="path112" class="e7361c09" d="M-234.8-137.8l0.2,0.1l-2.1,2.5l-0.5-0.4l1.6-1.8L-234.8-137.8z"/>
</g>
<g id="g114" transform="translate(305.4894,238.2821)">
	<path id="path116" class="e7361c09" d="M-210.1-232.9l-0.4,4.1l-0.6-0.1l0.3-3.2"/>
</g>
</svg>
