<?xml version="1.0" encoding="utf-8"?>
<!-- Generator: Adobe Illustrator 25.4.1, SVG Export Plug-In . SVG Version: 6.00 Build 0)  -->
<svg version="1.1" id="Layer_1" xmlns="http://www.w3.org/2000/svg" xmlns:xlink="http://www.w3.org/1999/xlink" x="0px" y="0px"
	 viewBox="0 0 499.9 80" style="enable-background:new 0 0 499.9 80;" xml:space="preserve">
<style type="text/css">
	.k70ff1b5{fill:#030303;}
	.w4041352{fill:#C92020;}
	.b04628c9{fill:#2B2A29;}
</style>
<g>
	<path class="k70ff1b5" d="M56.8,8.6v14.2c-2,0.1-4.1,0.2-6.1,0.3V8.6H56.8z"/>
	<path class="k70ff1b5" d="M56.8,27.3v27.2h-6.1V27.9C52.7,27.7,54.7,27.5,56.8,27.3z"/>
	<path class="k70ff1b5" d="M31.8,24.6c-2,0.2-3.9,0.4-5.8,0.7l-4.5-11.2l-4.9,12.7c-2.4,0.5-4.6,1-6.7,1.5l7.5-19.7h7.9L31.8,24.6z"/>
	<path class="k70ff1b5" d="M43.7,54.5h-6.1l-5.5-13.9H11.4L6.1,54.5H0L7.1,36c1.6-0.6,3.9-1.2,6.9-2l-0.6,1.6h16.8L28.3,31
		c1.8-0.3,3.7-0.6,5.7-0.9L43.7,54.5z"/>
	<polygon class="w4041352" points="242.3,44.4 216.6,8.6 210.5,8.6 210.5,54.5 216.6,54.5 216.6,18.7 242.3,54.5 248.4,54.5 248.4,8.6 
		242.3,8.6 	"/>
	<path class="w4041352" d="M338.4,8.6h-6.1v25.7c0,8.8-2.2,15.7-14.4,15.7c-12.2,0-11.2-15.7-11.2-15.7V8.6h-6.1v25.7
		c0,0-2.3,20.9,18.6,20.9s19.2-20.9,19.2-20.9V8.6z"/>
	<polygon class="w4041352" points="271.9,8.6 255.9,8.6 255.9,14.1 271.9,14.1 271.9,54.5 278,54.5 278,14.1 293.9,14.1 293.9,8.6 
		278,8.6 	"/>
	<polygon class="w4041352" points="428.4,8.6 413.4,29.8 399.2,8.6 391.7,8.6 410.3,35.4 410.3,54.5 416.4,54.5 416.4,35.4 436,8.6 	"/>
	<path class="w4041352" d="M374.3,33.9c0,0,13.7-1.8,13.7-11.8s-8.2-13.4-13.2-13.4c-5,0-19.1,0-19.1,0h-6.1v45.9h6.1V33.9h10.5
		c0,0,4.3,0.5,9,7.6c4.6,7.1,8.5,13,8.5,13h8l-10.6-15.6C381.2,38.9,377,34.1,374.3,33.9z M368.1,28.9c-1.2,0-9.1,0-12.3,0V13.2
		h16.6c0,0,9,0.1,9,8.3C381.4,29.7,369.7,28.9,368.1,28.9z"/>
	<path class="k70ff1b5" d="M110.8,54.5H103c0,0-4-5.8-8.3-12.8C90.3,34.6,85,34,85,34H74.7v20.5h-6.1V26.3c2-0.2,4-0.3,6.1-0.5v3.3H91
		c0,0,7,0,9-4.8c2.3-0.1,4.6-0.2,7-0.3c-1.2,6.6-9,9-12.9,9.7c2.5,1.1,5.1,3.6,6.3,5.3C101.9,41.3,110.8,54.5,110.8,54.5z"/>
	<path class="k70ff1b5" d="M107.2,22.2v0.2c-2.1,0-4.3-0.1-6.7-0.1c0-0.2,0-0.5,0-0.7c0-7.5-8.6-8-8.6-8H74.7v8.7c-2,0-4.1,0.1-6.1,0.1
		V8.6h3.1v0h20.2C98.2,8.6,107.2,11.6,107.2,22.2z"/>
	<path class="w4041352" d="M154.8,10.1v5.1c-3.1-2.5-17.3-2.4-18.6-2.3c-1,0.1-9.6,0.8-13,9.8c0,0-2.5-0.1-6.7-0.2
		c2.8-8.7,9.6-14.9,19.6-14.9C149.6,7.6,154.8,10.1,154.8,10.1z"/>
	<path class="w4041352" d="M155.2,49.1v5.4c0,0-16,0.9-18.8,0.8c-2.9-0.1-7.3-0.8-9.9-2.2c-2.6-1.4-11.5-7.4-11.5-20.7
		c0-3,0.4-5.9,1.1-8.6c2.4,0,4.6-0.1,6.7,0c-0.7,2.2-1.1,4.7-1.1,7.9c0,17.5,13.7,18.5,13.7,18.5s8.5,0,12.9,0
		S155.2,49.1,155.2,49.1z"/>
	<path class="w4041352" d="M499.9,0l-16,80h-27.7l5.9-29.9l0.4-1.9c0.4-0.2,0.8-0.3,1.2-0.5c9.6-3.6,17.8-6.9,20.3-8.9l-18.9,5.7l-2,0.6
		L471.9,0H499.9z"/>
	<path class="k70ff1b5" d="M462.5,48.2l-0.4,1.9L441.5,80h-38.3c0,0,4.5-2.3,18-15.2c1.1-1,2.3-2.3,3.6-3.8
		C431.5,58.9,448.3,53.4,462.5,48.2z"/>
	<path class="k70ff1b5" d="M471.9,0l-8.9,45.1l-33.1,10C446.3,35.6,471.9,0,471.9,0z"/>
	<g>
		<path class="w4041352" d="M170.3,23.7c0-0.6,0-0.9,0-0.9s2.5-8.7,8.7-8.7h21.5V8.6h-24.1c0,0-10.8-0.5-13.6,15
			C165.2,23.5,168.5,23.6,170.3,23.7z"/>
		<path class="w4041352" d="M178.6,49.1c0,0-8.2-1.7-8.2-10c0-2,0-4,0-5.9h30.2v-5.4h-30.2c0-1.4,0-2.5,0-3.4c-2.6-0.1-5.8,0.1-7.7,0.2
			c-0.3,2.1-0.5,4.4-0.5,7c0,23.6,14.8,22.9,14.8,22.9h24.9v-5.4H178.6z"/>
	</g>
	<g>
		<path class="b04628c9" d="M140.4,62v14.9h-1.8V62H140.4z"/>
		<path class="b04628c9" d="M145.8,62l4.2,12.5l4.2-12.5h2.4v14.9h-1.7V64.5h0l-4.1,12.4h-1.5l-4.1-12.4h0v12.4h-1.7V62H145.8z"/>
		<path class="b04628c9" d="M165.2,62c1.3,0,2.3,0.4,3,1.2c0.7,0.8,1,1.9,1,3.3c0,1.4-0.3,2.5-1,3.3c-0.7,0.8-1.7,1.2-3,1.2h-4v6.1h-1.8
			V62H165.2z M164.6,69.1c1,0,1.7-0.2,2.2-0.7c0.5-0.5,0.7-1.2,0.7-2c0-0.9-0.2-1.6-0.7-2c-0.5-0.5-1.2-0.7-2.2-0.7h-3.4v5.5H164.6z
			"/>
		<path class="b04628c9" d="M171.4,76.9V62h5.9c1.2,0,2.1,0.1,2.7,0.4c0.6,0.3,1.1,0.7,1.5,1.4c0.4,0.7,0.5,1.4,0.5,2.3
			c0,1.1-0.3,2-0.9,2.7c-0.6,0.7-1.5,1.2-2.8,1.4c0.5,0.3,0.8,0.5,1.1,0.7c0.5,0.5,1,1.2,1.5,2l2.3,4.1h-2.2l-1.7-3.1
			c-0.5-0.9-0.9-1.6-1.3-2.1c-0.3-0.5-0.6-0.8-0.9-1c-0.3-0.2-0.5-0.3-0.8-0.4c-0.2,0-0.5-0.1-1-0.1h-2v6.6H171.4z M173.1,68.6h3.8
			c0.8,0,1.4-0.1,1.9-0.3c0.5-0.2,0.8-0.5,1-0.9c0.2-0.4,0.4-0.9,0.4-1.3c0-0.7-0.2-1.3-0.7-1.7c-0.5-0.5-1.2-0.7-2.1-0.7h-4.2V68.6
			z"/>
		<path class="b04628c9" d="M184.4,66.5c0.3-0.9,0.7-1.8,1.2-2.5c0.5-0.7,1.2-1.3,2-1.7c0.8-0.4,1.7-0.6,2.8-0.6c1,0,2,0.2,2.8,0.6
			c0.8,0.4,1.4,1,2,1.7c0.5,0.7,0.9,1.6,1.2,2.5c0.3,0.9,0.4,1.9,0.4,2.9c0,1-0.1,2-0.4,2.9c-0.3,0.9-0.7,1.8-1.2,2.5
			c-0.5,0.7-1.2,1.3-2,1.7c-0.8,0.4-1.7,0.6-2.8,0.6c-1,0-2-0.2-2.8-0.6c-0.8-0.4-1.4-1-2-1.7c-0.5-0.7-0.9-1.6-1.2-2.5
			c-0.3-0.9-0.4-1.9-0.4-2.9C184,68.4,184.1,67.5,184.4,66.5z M186,71.7c0.2,0.7,0.4,1.4,0.8,2s0.8,1.1,1.4,1.4
			c0.6,0.4,1.3,0.5,2.1,0.5c0.8,0,1.5-0.2,2.1-0.5c0.6-0.4,1.1-0.8,1.4-1.4c0.4-0.6,0.6-1.2,0.8-2c0.2-0.7,0.3-1.5,0.3-2.2
			c0-0.8-0.1-1.5-0.3-2.2c-0.2-0.7-0.4-1.4-0.8-2c-0.4-0.6-0.8-1.1-1.4-1.4c-0.6-0.4-1.3-0.5-2.1-0.5c-0.8,0-1.5,0.2-2.1,0.5
			c-0.6,0.4-1.1,0.8-1.4,1.4c-0.4,0.6-0.6,1.2-0.8,2c-0.2,0.7-0.3,1.5-0.3,2.2C185.7,70.2,185.8,71,186,71.7z"/>
		<path class="b04628c9" d="M201.9,76.9L197.3,62h1.9l3.8,12.9h0l3.8-12.9h1.8l-4.7,14.9H201.9z"/>
		<path class="b04628c9" d="M211.8,62v14.9h-1.8V62H211.8z"/>
		<path class="b04628c9" d="M216.6,62l6.9,12.1h0V62h1.7v14.9h-1.9l-6.9-12h0v12h-1.7V62H216.6z"/>
		<path class="b04628c9" d="M236,76.7c-0.8,0.3-1.5,0.5-2.3,0.5c-1,0-1.9-0.2-2.6-0.6c-0.8-0.4-1.4-1-2-1.7c-0.5-0.7-1-1.5-1.2-2.4
			c-0.3-0.9-0.4-1.8-0.4-2.8c0-1.1,0.1-2.1,0.4-3.1c0.3-1,0.7-1.8,1.2-2.6c0.5-0.7,1.2-1.3,2-1.8c0.8-0.4,1.7-0.7,2.7-0.7
			c0.7,0,1.4,0.1,2,0.3c0.6,0.2,1.2,0.5,1.7,0.9c0.5,0.4,0.9,0.9,1.3,1.5c0.3,0.6,0.6,1.4,0.7,2.2h-1.8c-0.1-0.6-0.2-1.1-0.5-1.5
			c-0.2-0.4-0.5-0.7-0.9-1c-0.3-0.3-0.7-0.5-1.2-0.6c-0.4-0.1-0.9-0.2-1.4-0.2c-0.8,0-1.5,0.2-2.1,0.5c-0.6,0.4-1,0.8-1.4,1.4
			c-0.4,0.6-0.6,1.3-0.8,2c-0.2,0.8-0.3,1.5-0.3,2.3c0,0.8,0.1,1.5,0.3,2.2c0.2,0.7,0.5,1.4,0.9,1.9c0.4,0.6,0.9,1,1.4,1.3
			c0.6,0.3,1.2,0.5,1.9,0.5c0.7,0,1.3-0.1,1.8-0.4c0.5-0.3,1-0.6,1.3-1c0.4-0.4,0.6-1,0.8-1.5c0.2-0.6,0.3-1.2,0.2-1.9h-4.2v-1.7
			h5.8v7.9h-1.1l-0.5-1.9C237.5,75.8,236.8,76.4,236,76.7z"/>
		<path class="b04628c9" d="M245.8,63.7V62h10.5v1.7H252v13.3h-1.8V63.7H245.8z"/>
		<path class="b04628c9" d="M259.6,62v6.4h6.9V62h1.8v14.9h-1.8v-6.8h-6.9v6.8h-1.8V62H259.6z"/>
		<path class="b04628c9" d="M280.3,62v1.7h-7.3v4.7h6.8v1.7h-6.8v5.2h7.4v1.7h-9.2V62H280.3z"/>
		<path class="b04628c9" d="M296.7,62v1.7h-7.3v4.7h6.8v1.7h-6.8v5.2h7.4v1.7h-9.2V62H296.7z"/>
		<path class="b04628c9" d="M297.7,62h2.1l3.3,5.8l3.4-5.8h2l-4.4,7.3l4.6,7.7h-2.1l-3.5-6.2l-3.7,6.2h-2l4.6-7.7L297.7,62z"/>
		<path class="b04628c9" d="M315.9,62c1.3,0,2.3,0.4,3,1.2c0.7,0.8,1,1.9,1,3.3c0,1.4-0.3,2.5-1,3.3c-0.7,0.8-1.7,1.2-3,1.2h-4v6.1h-1.8
			V62H315.9z M315.3,69.1c1,0,1.7-0.2,2.2-0.7c0.5-0.5,0.7-1.2,0.7-2c0-0.9-0.2-1.6-0.7-2c-0.5-0.5-1.2-0.7-2.2-0.7h-3.4v5.5H315.3z
			"/>
		<path class="b04628c9" d="M331.2,62v1.7h-7.3v4.7h6.8v1.7h-6.8v5.2h7.4v1.7h-9.2V62H331.2z"/>
		<path class="b04628c9" d="M333.4,76.9V62h5.9c1.2,0,2.1,0.1,2.7,0.4c0.6,0.3,1.1,0.7,1.5,1.4c0.4,0.7,0.5,1.4,0.5,2.3
			c0,1.1-0.3,2-0.9,2.7c-0.6,0.7-1.5,1.2-2.8,1.4c0.5,0.3,0.8,0.5,1.1,0.7c0.5,0.5,1,1.2,1.5,2l2.3,4.1h-2.2l-1.7-3.1
			c-0.5-0.9-0.9-1.6-1.3-2.1c-0.3-0.5-0.6-0.8-0.9-1c-0.3-0.2-0.5-0.3-0.8-0.4c-0.2,0-0.5-0.1-1-0.1h-2v6.6H333.4z M335.1,68.6h3.8
			c0.8,0,1.4-0.1,1.9-0.3c0.5-0.2,0.8-0.5,1-0.9c0.2-0.4,0.4-0.9,0.4-1.3c0-0.7-0.2-1.3-0.7-1.7c-0.5-0.5-1.2-0.7-2.1-0.7h-4.2V68.6
			z"/>
		<path class="b04628c9" d="M348.5,62v14.9h-1.8V62H348.5z"/>
		<path class="b04628c9" d="M360.6,62v1.7h-7.3v4.7h6.8v1.7h-6.8v5.2h7.4v1.7h-9.2V62H360.6z"/>
		<path class="b04628c9" d="M364.6,62l6.9,12.1h0V62h1.7v14.9h-1.9l-6.9-12h0v12h-1.7V62H364.6z"/>
		<path class="b04628c9" d="M384.1,64.1c-0.7-0.5-1.5-0.8-2.4-0.8c-0.8,0-1.5,0.2-2,0.5c-0.6,0.3-1,0.8-1.4,1.3c-0.4,0.6-0.6,1.2-0.8,1.9
			c-0.2,0.7-0.3,1.5-0.3,2.3c0,0.9,0.1,1.7,0.3,2.4c0.2,0.8,0.4,1.4,0.8,2c0.4,0.6,0.8,1,1.4,1.3c0.6,0.3,1.2,0.5,2,0.5
			c0.6,0,1.1-0.1,1.5-0.3c0.4-0.2,0.8-0.5,1.2-0.9c0.3-0.4,0.6-0.8,0.8-1.4c0.2-0.5,0.3-1.1,0.3-1.7h1.8c-0.2,1.9-0.7,3.3-1.7,4.4
			c-1,1-2.3,1.6-4,1.6c-1,0-1.9-0.2-2.7-0.6c-0.8-0.4-1.4-0.9-1.9-1.6c-0.5-0.7-0.9-1.5-1.1-2.5c-0.3-0.9-0.4-2-0.4-3.1
			s0.1-2.1,0.4-3.1c0.3-1,0.7-1.8,1.2-2.5c0.5-0.7,1.2-1.3,2-1.7c0.8-0.4,1.7-0.6,2.7-0.6c0.7,0,1.3,0.1,2,0.3
			c0.6,0.2,1.2,0.5,1.6,0.9c0.5,0.4,0.9,0.9,1.2,1.5c0.3,0.6,0.5,1.3,0.6,2.1h-1.8C385.2,65.4,384.7,64.6,384.1,64.1z"/>
		<path class="b04628c9" d="M398.5,62v1.7h-7.3v4.7h6.8v1.7h-6.8v5.2h7.4v1.7h-9.2V62H398.5z"/>
	</g>
</g>
</svg>
