<?xml version="1.0" encoding="utf-8"?>
<!-- Generator: Adobe Illustrator 25.4.1, SVG Export Plug-In . SVG Version: 6.00 Build 0)  -->
<svg version="1.1" id="Layer_1" xmlns="http://www.w3.org/2000/svg" xmlns:xlink="http://www.w3.org/1999/xlink" x="0px" y="0px"
	 viewBox="0 0 311.9 80" style="enable-background:new 0 0 311.9 80;" xml:space="preserve">
<style type="text/css">
	.r1793c4d{fill-rule:evenodd;clip-rule:evenodd;fill:#1464AB;}
	.o71865cd{fill-rule:evenodd;clip-rule:evenodd;fill:url(#SVGID_1_);}
	.k41696a8{fill-rule:evenodd;clip-rule:evenodd;fill:#D4D7DE;}
</style>
<g>
	<path class="r1793c4d" d="M196.3,79c0,0,13.4-9.8,21.3-21.7c7.9-11.9,19.1-31,36-34.9S301.4,12.3,311.9,0c0,0,0,15.4-19.1,25.9
		c-19.1,10.5-44.7,8.7-51.7,20.5c0,0,7.7-1.4,20.1-4c12.4-2.6,35.2-13.1,35.2-13.1s-9.2,18.6-31,24.3c-21.8,5.7-32.2,1.7-39.7,11
		c0,0,8.2-1,17.8-2.2s27.6-6,27.6-6s-4.6,8.9-18.3,13.8S210.2,73.2,196.3,79z"/>
	<linearGradient id="SVGID_1_" gradientUnits="userSpaceOnUse" x1="247.2136" y1="7.4642" x2="178.1008" y2="95.1534">
		<stop  offset="0" style="stop-color:#FFFFFF"/>
		<stop  offset="8.490125e-02" style="stop-color:#F6F6F6"/>
		<stop  offset="0.2229" style="stop-color:#DEDEDE"/>
		<stop  offset="0.3968" style="stop-color:#B7B7B7"/>
		<stop  offset="0.5999" style="stop-color:#808080"/>
		<stop  offset="0.8245" style="stop-color:#3B3B3B"/>
		<stop  offset="1" style="stop-color:#000000"/>
	</linearGradient>
	<path class="o71865cd" d="M193.1,78.3c0,0,9.4-4.9,20.7-22.9c11.3-18,21.8-28.4,29.7-31.2c0,0-24.7,6.3-35,20.5
		C198.1,58.9,198.1,72.5,193.1,78.3z"/>
	<rect y="50.3" class="k41696a8" width="188" height="1"/>
	<rect x="78.3" y="21.7" class="r1793c4d" width="3.8" height="21.3"/>
	<rect x="184.9" y="21.7" class="r1793c4d" width="3.8" height="21.3"/>
	<g>
		<polygon class="r1793c4d" points="3.7,58.2 0.9,58.2 0.9,77.7 0.9,79.4 3.7,79.4 11.9,79.4 11.9,77.7 3.7,77.7 		"/>
		<rect x="15.9" y="58.2" class="r1793c4d" width="2.8" height="21.3"/>
		<rect x="124.3" y="58.2" class="r1793c4d" width="2.8" height="21.3"/>
		<polygon class="r1793c4d" points="88.7,74.4 74.5,59.1 73.6,58.2 72.8,58.2 72.8,79.5 74.5,79.5 74.5,63.6 88.7,79 89.1,79.5 89.6,80 
			90.5,80 90.5,79.5 90.5,58.2 88.7,58.2 		"/>
		<path class="r1793c4d" d="M31.9,68.2c0,0,5.3-0.7,5.3-5.4c0-4.7-6.7-4.6-6.7-4.6h-4.7H23v21.3h2.8c6.4,0,12-1,12-6.1
			C37.9,68.2,31.9,68.2,31.9,68.2z M34,63.3c0,4.7-8.1,4.1-8.1,4.1v-7.7C25.8,59.8,34,58.6,34,63.3z M25.8,78.1v-9
			c0,0,8.8-0.9,8.8,4.5C34.7,79.1,25.8,78.1,25.8,78.1z"/>
		<polygon class="r1793c4d" points="52.6,58.2 46.9,68.5 41,58.2 37.5,58.2 45.1,70.6 45.1,79.4 47.9,79.4 47.9,70.1 55.3,58.2 		"/>
		<path class="r1793c4d" d="M61.1,58.2l-9.8,21.3h2.3l3.4-8.1c1.7,0,5.5,0,7.3,0l3.4,8H71l-9.3-21.3H61.1z M57.8,69.6l2.9-6.8l2.9,6.8
			H57.8z"/>
		<polygon class="r1793c4d" points="147.7,74.4 133.5,59.1 132.6,58.2 131.7,58.2 131.7,79.5 133.5,79.5 133.5,63.6 147.7,79 148,79.5 
			148.6,80 149.4,80 149.4,79.5 149.4,58.2 147.7,58.2 		"/>
		<polygon class="r1793c4d" points="114.6,76 111.3,66 114.1,58.6 112.1,58.6 110.4,63.2 108.9,58.6 105.4,58.6 108.7,68 105.8,76 
			100.2,58.6 96.6,58.6 104,79.4 106.4,79.4 109.6,70.7 112.7,79.4 115.1,79.4 122.8,58.6 120.8,58.6 		"/>
		<path class="r1793c4d" d="M179.7,66.6c-1.9-0.7-2.9-2-2.9-3.3c0-1.3,1.2-3.9,4-3.9c2.8,0,4.3,2.5,4.3,2.5l1-2.5c0,0-2.9-1.5-5.4-1.5
			c-2.5,0-6.4,2.1-6.4,6.3s5.2,5.4,6.9,6c1.7,0.6,3.6,1.8,3.6,4.3c0,2.5-2,4.2-5,4.2c-2.9,0-5-2.9-5-2.9l-0.9,2.5
			c1.1,1,4.2,1.7,5.9,1.7c1.6,0,7.4-0.9,7.4-6.2C187.3,68.4,181.7,67.4,179.7,66.6z"/>
		<path class="r1793c4d" d="M169,77.5c-0.8,0.5-2.5,1.2-5.4,1.2c-4.3,0-8.3-4-8.3-9.5c0-5.5,3.7-9.9,8.2-9.9c4.5,0,7.4,3.1,7.4,3.1
			l0.8-2.5c0,0-2.7-1.9-8.2-1.9c-5.5,0-11.3,4-11.3,11.5S158.5,80,163.6,80c5.1,0,8.2-1.2,8.2-1.2v-9H169V77.5z"/>
	</g>
	<circle class="r1793c4d" cx="96.6" cy="21.7" r="1.9"/>
	<circle class="r1793c4d" cx="8.6" cy="20.2" r="1.9"/>
	<circle class="r1793c4d" cx="12.8" cy="20.2" r="1.9"/>
	<circle class="r1793c4d" cx="25.2" cy="46.5" r="1.9"/>
	<circle class="r1793c4d" cx="29.4" cy="46.5" r="1.9"/>
	<circle class="r1793c4d" cx="42.3" cy="46.5" r="1.9"/>
	<circle class="r1793c4d" cx="46.5" cy="46.5" r="1.9"/>
	<circle class="r1793c4d" cx="36.3" cy="46.5" r="1.9"/>
	<circle class="r1793c4d" cx="101.5" cy="21.7" r="1.9"/>
	<circle class="r1793c4d" cx="135.9" cy="22.6" r="1.9"/>
	<circle class="r1793c4d" cx="166.9" cy="17.4" r="1.9"/>
	<circle class="r1793c4d" cx="149" cy="47" r="1.9"/>
	<path class="r1793c4d" d="M71.8,21.7c0,0,0,12.9,0,15.3c0,2.5-1.8,2.9-5.6,2.9c-3.8,0-3.8-3.1-3.8-3.1V21.5h-3.6c0,0,0,12.7,0,13.8
		S58.6,40,54.6,40c-4,0-4-3.8-4-3.8v-9.1h-3.5c0,0,0,8.4,0,9.2S46.5,40,42.8,40c-3.7,0-3.9-3.4-3.9-3.4v-9.4h-3.5c0,0,0,7.9,0,9.2
		c0,1.3-1.1,3.7-4.4,3.7s-3.7-3.3-3.7-3.3v-9.6h-3.6l-0.3,0c0,0,0,7.4,0,10.3c0,2.9-4.3,2.3-5.6,2.3c-1.3,0-1-1.3-1-1.3V25
		c0,0-1.2,0-2.5,0c-1.3,0-2.7,2.1-2.7,2.1s-1.6,0-5.1,0c-3.5,0-5.9,2.2-5.9,9.2c0,7,7.7,6.7,7.7,6.7s2,0,7.8,0c5.8,0,9.4-1,9.4-1
		s3.2,1,6.1,1s5.8-1.3,5.8-1.3s3.9,1.3,6.7,1.3c2.8,0,6.5-1.1,6.5-1.1s1.9,0.9,4.4,0.9c2.5,0,6.7-0.9,6.7-0.9c0.8,0.6,1.7,0.9,8,0.9
		s6.3-5.4,6.3-5.4V21.7H71.8z M12.8,39.9H5.9c0,0-3.6,0-3.6-4.4S4.7,30,7.1,30c2.3,0,5.7,0,5.7,0V39.9z"/>
	<path class="r1793c4d" d="M159.5,39c0-1.1-0.1-6.9-0.5-8.1c-0.4-1.2-1.2-4.1-5.4-4.1c-4.2,0-8.8,0.4-8.8,0.4l0,3.8c0,0,2.6-2.3,5.5-2.3
		s5.3,1,5.3,3.5s0,7.3,0,7.3s-14.4,1.2-16.2-0.5c-1.8-1.8-1.2-11.8-1.2-11.8h-3.8c0,0,0.5,10-0.4,11.2c-0.9,1.2-4,1.5-6.2,1.5
		c0,0,0.1-7.6-0.4-9.3s-1.8-4-5.3-4c-3.4,0-9,0.7-9,0.7v3.6c0,0,1.9-2,4.9-2.2c3-0.2,6-0.2,6,2c0,2.2,0,9,0,9l-14.4,0.1
		c-0.3,0-0.6,0-0.8,0c-1.3,0-1-1.3-1-1.3V25c0,0-1.2,0-2.5,0c-1.9,0-1.9,2.1-1.9,2.1s-2.4,0-6,0c-3.5,0-5.9,2.2-5.9,9.2
		c0,7,7.7,6.7,7.7,6.7s2,0,7.8,0c1,0,1.8,0,2.7-0.1h19.8c0,0,4.8-0.2,6.9-1.1c0,0,3.2,1.1,6.7,1.1c3.5,0,18.8,0,18.8,0v-3.1
		C161.8,39.9,159.5,40,159.5,39z M103.9,39.9H97c0,0-3.6,0-3.6-4.4s2.4-5.5,4.8-5.5c2.3,0,5.7,0,5.7,0V39.9z"/>
	<path class="r1793c4d" d="M165,39.9v2.9c0,0,2,0.4,7.8,0.4c5.8,0,8.6-2.2,9.1-6.1c0.5-3.9,0.3-15.3,0.3-15.3l-4.1-0.1l0.1,14.2
		c0,0,0.3,4.2-3.9,4.1l-4.8-18.3h-4.1l4.6,18.3L165,39.9z"/>
</g>
</svg>
