<svg width="348" height="81" viewBox="0 0 348 81" fill="none" xmlns="http://www.w3.org/2000/svg">
<rect width="347.45" height="80" transform="translate(0 0.400391)" fill="#E3222D"/>
<path d="M317.288 33.0255L311.542 38.006L311.481 38.0592L318.64 50.6546C318.898 51.111 318.825 51.6963 318.459 52.0765L317.411 53.1678L305.658 45.3892L307.779 42.0359L307.279 41.7051L302.088 46.2027C296.406 51.111 290.026 53.9433 285.439 53.6012C283.586 53.4604 282.151 52.818 281.179 51.6811C278.471 48.5561 280.053 42.3514 285.111 36.2305L285.706 36.6221C283.029 40.325 282.323 43.8721 283.917 45.678C284.545 46.4079 285.439 46.8225 286.572 46.9099C289.382 47.1227 293.347 45.2864 297.18 41.9941L298.611 40.728L280.973 29.0525L282.078 28.0945C282.861 27.4178 283.955 27.201 284.936 27.528L309.677 35.7741L310.357 35.1888L310.246 35.1166C308.4 33.8961 306.68 31.6645 307.241 29.638L311.459 25.9845C312.72 24.8896 314.184 24.0986 315.81 23.6349C317.503 23.1483 318.943 23.1369 319.856 23.2129C321.152 23.3193 322.235 23.6881 322.616 24.148C322.838 24.418 323.272 25.2279 322.495 26.9386C321.706 28.6723 319.955 30.7215 317.293 33.0293L317.288 33.0255ZM24.0635 53.0232H31.149V38.7473C31.149 35.0898 33.1091 32.938 36.3239 32.938C39.5388 32.938 41.0451 34.9416 41.0451 38.6485V53.0232H48.1305V37.447C48.1305 30.6873 44.2103 26.3799 37.9829 26.3799C34.9168 26.3799 32.4571 27.4824 31.0002 29.5354V26.9806H24.0673V53.0232H24.0635ZM65.8367 26.3761C57.5462 26.3761 51.7686 32.1358 51.7686 39.998C51.7686 47.8604 57.5462 53.6202 65.8367 53.6202C74.1274 53.6202 79.9048 47.9098 79.9048 39.998C79.9048 32.0864 74.1274 26.3761 65.8367 26.3761ZM58.9533 39.998C58.9533 35.9415 61.8173 32.9342 65.8367 32.9342C69.8562 32.9342 72.7202 35.9377 72.7202 39.998C72.7202 44.0585 69.8562 47.0619 65.8367 47.0619C61.8173 47.0619 58.9533 44.0585 58.9533 39.998ZM90.8802 53.0232V41.1043C90.8802 35.4967 94.1941 33.4931 98.3166 33.1927V26.5813C95.3038 26.6802 92.2873 27.9347 90.7314 30.1856V26.9806H83.7985V53.0232H90.8802ZM126.357 26.9766H117.113C115.859 34.991 115.405 36.7437 112.392 46.2103C110.234 37.5458 109.83 35.242 109.078 26.9766H101.894C102.847 36.1925 104.658 44.8074 107.32 53.0194H116.465C119.177 45.4082 120.736 39.9486 121.739 34.4398C122.742 39.9486 124.302 45.4082 127.013 53.0194H136.158C138.82 44.8036 140.628 36.1925 141.585 26.9766H134.4C133.645 35.242 133.245 37.5458 131.086 46.2103C128.073 36.7437 127.62 34.991 126.365 26.9766H126.357ZM157.903 53.624C163.982 53.624 168.756 50.5178 171.216 44.9594H162.979C161.774 46.4613 160.115 47.214 157.956 47.214C154.589 47.214 152.179 45.3626 151.374 42.4046H171.822V40.5C171.822 32.2842 166.197 26.3761 157.956 26.3761C149.715 26.3761 143.991 32.0864 143.991 39.998C143.991 47.9098 149.769 53.6202 157.907 53.6202L157.903 53.624ZM151.523 37.1466C152.476 34.493 154.738 32.7898 158.002 32.7898C161.266 32.7898 163.379 34.4436 164.283 37.1466H151.523ZM188.926 62.6381C196.614 62.6381 201.286 57.9314 201.286 50.2668V26.9766H194.353V29.4326C192.946 27.5812 190.13 26.3761 187.168 26.3761C180.235 26.3761 175.11 31.8355 175.11 39.1465C175.11 46.4575 180.284 51.9169 187.168 51.9169C190.031 51.9169 192.793 50.765 194.2 49.0123V50.0654C194.2 53.9205 192.29 56.1256 188.876 56.1256C186.717 56.1256 185.01 55.2245 184.406 53.7722H176.066C177.425 59.1823 182.397 62.6381 188.926 62.6381ZM188.423 45.3588C184.807 45.3588 182.295 42.8532 182.295 39.1465C182.295 35.4396 184.758 32.9342 188.423 32.9342C192.087 32.9342 194.601 35.4892 194.601 39.1465C194.601 42.8038 192.087 45.3588 188.423 45.3588ZM219.167 34.9416H227.004C227.557 33.4399 228.965 32.5882 230.923 32.5882C232.983 32.5882 234.239 33.4893 234.239 34.8922C234.239 36.0441 233.384 36.6943 231.626 36.8958L227.507 37.3976C221.528 38.0972 218.515 40.7546 218.515 45.3626C218.515 50.3202 222.08 53.6278 227.557 53.6278C230.471 53.6278 233.033 52.4264 234.39 50.4722V53.027H241.323V35.8465C241.323 29.7368 237.655 26.3799 230.875 26.3799C224.846 26.3799 220.777 29.3832 219.17 34.9454L219.167 34.9416ZM225.597 44.8074C225.597 43.454 226.501 42.6556 228.663 42.3552L231.576 41.9561C232.579 41.8039 233.434 41.6063 234.239 41.4047V42.0055C234.239 45.3092 232.327 47.3661 229.063 47.3661C227.004 47.3661 225.597 46.3661 225.597 44.8112V44.8074ZM246.632 53.0232H253.718V38.7473C253.718 35.0898 255.678 32.938 258.893 32.938C262.107 32.938 263.614 34.9416 263.614 38.6485V53.0232H270.7V37.447C270.7 30.6873 266.779 26.3799 260.552 26.3799C257.484 26.3799 255.026 27.4824 253.569 29.5354V26.9806H246.636V53.0232H246.632ZM205.893 20.7683C205.893 18.1146 207.853 16.3125 210.362 16.3125C212.871 16.3125 214.831 18.1146 214.831 20.7683C214.831 23.4219 212.871 25.2241 210.362 25.2241C207.853 25.2241 205.893 23.4219 205.893 20.7683ZM213.882 26.9766V53.0194H206.796V26.9766H213.882Z" fill="white"/>
</svg>
