<?xml version="1.0" encoding="utf-8"?>
<!-- Generator: Adobe Illustrator 25.4.1, SVG Export Plug-In . SVG Version: 6.00 Build 0)  -->
<svg version="1.1" id="Layer_1" xmlns="http://www.w3.org/2000/svg" xmlns:xlink="http://www.w3.org/1999/xlink" x="0px" y="0px"
	 viewBox="0 0 264.2 80" style="enable-background:new 0 0 264.2 80;" xml:space="preserve">
<style type="text/css">
	.y70c42b0{fill:#35B0E2;}
</style>
<g>
	<path class="y70c42b0" d="M60.27,79.85h20.17l16.98-79.8H76.55C76.55,0.04,60.62,79.04,60.27,79.85z"/>
	<path class="y70c42b0" d="M61.33,18.24l3.77-18.2H46.47H24.18H5.31L0,18.83l20.43-0.2C15.69,42.04,8.14,79.3,7.9,79.85h21.23
		l13.34-61.42L61.33,18.24z"/>
	<polygon class="y70c42b0" points="242.38,0.04 218.79,47.96 214.07,0.04 191.78,0.04 202.28,79.85 223.51,79.85 264.2,0.04 	"/>
	<path class="y70c42b0" d="M146.14,17.53c0,0,16.28,0.12,16.28,11.62h22.65c0,0-0.47-29.11-38.45-29.11c0,0-39.63-2.83-45.65,38.49
		c0,0-8.26,41.32,35.27,41.32c0,0,34.44,4.21,46.59-31.29h-22.17c0,0-5.66,12.74-21.23,12.74s-19.34-14.03-17.46-20.52
		C121.96,40.77,125.61,17.53,146.14,17.53z"/>
</g>
</svg>
