<?xml version="1.0" encoding="utf-8"?>
<!-- Generator: Adobe Illustrator 25.4.1, SVG Export Plug-In . SVG Version: 6.00 Build 0)  -->
<svg version="1.1" id="Layer_1" xmlns="http://www.w3.org/2000/svg" xmlns:xlink="http://www.w3.org/1999/xlink" x="0px" y="0px"
	 viewBox="0 0 108.78 80" style="enable-background:new 0 0 108.78 80;" xml:space="preserve">
<style type="text/css">
	.v2f561f0{fill:url(#SVGID_1_);}
	.udb0ae92{fill:url(#SVGID_00000147198973064312874650000006779768489888525497_);}
	.haf782ed{fill:url(#SVGID_00000153679594827291337890000006579883177965154473_);}
	.p2f2751e{fill:url(#SVGID_00000044886454153403477880000017599206901782128813_);}
	.s06b570f{fill:url(#SVGID_00000142883688317326141750000002131254155496034993_);}
	.l35d01a2{fill:url(#SVGID_00000048465491637470120620000001022318801240762245_);}
	.x08f4dbb{fill:url(#SVGID_00000093137806758859147670000011024549658358130357_);}
	.j44c9624{fill:url(#SVGID_00000078034432495666278100000005643787320457896887_);}
	.n95ba8b2{fill:#00584D;}
</style>
<g>
	<g>
		<linearGradient id="SVGID_1_" gradientUnits="userSpaceOnUse" x1="5.9597" y1="36.0112" x2="90.6013" y2="45.5636">
			<stop  offset="0.1795" style="stop-color:#76572F"/>
			<stop  offset="0.2729" style="stop-color:#644A2F"/>
			<stop  offset="0.3629" style="stop-color:#8C7450"/>
			<stop  offset="0.4602" style="stop-color:#D8C6A7"/>
			<stop  offset="1" style="stop-color:#7A4F32"/>
		</linearGradient>
		<path class="v2f561f0" d="M74.64,18.14c-9.25-1-34.82-6.98-49.15,8.07C11.16,41.26,0,63.03,0,63.03h3.63c0,0,4.99-17.68,17.23-26.48
			c12.24-8.8,22.76-10.61,30.83-10.16s18.95,0.27,25.48-2.36c0,0-11.34,0.36-19.86-0.91c-8.52-1.27-25.94-0.54-38,12.42
			c0,0,8.71-12.51,22.94-14.69C56.5,18.68,75,21.22,82.08,21.4c7.07,0.18,14.87-2.81,14.87-2.81S83.89,19.14,74.64,18.14z"/>
		
			<linearGradient id="SVGID_00000011027855394921309920000017199533517504026557_" gradientUnits="userSpaceOnUse" x1="5.6042" y1="39.1607" x2="90.2458" y2="48.7131">
			<stop  offset="0.1795" style="stop-color:#76572F"/>
			<stop  offset="0.2729" style="stop-color:#644A2F"/>
			<stop  offset="0.3629" style="stop-color:#8C7450"/>
			<stop  offset="0.4602" style="stop-color:#D8C6A7"/>
			<stop  offset="1" style="stop-color:#7A4F32"/>
		</linearGradient>
		<path style="fill:url(#SVGID_00000011027855394921309920000017199533517504026557_);" d="M21,39.13c0,0,4.58-0.18,6.21,0.95
			c1.63,1.13,1.27,6.35,1.27,6.35s4.99-6.03,2.27-8.52S21,39.13,21,39.13z"/>
		
			<linearGradient id="SVGID_00000150088348299853252180000017410488519500328349_" gradientUnits="userSpaceOnUse" x1="6.3743" y1="32.3375" x2="91.0159" y2="41.8899">
			<stop  offset="0.1795" style="stop-color:#76572F"/>
			<stop  offset="0.2729" style="stop-color:#644A2F"/>
			<stop  offset="0.3629" style="stop-color:#8C7450"/>
			<stop  offset="0.4602" style="stop-color:#D8C6A7"/>
			<stop  offset="1" style="stop-color:#7A4F32"/>
		</linearGradient>
		<path style="fill:url(#SVGID_00000150088348299853252180000017410488519500328349_);" d="M38.59,33.19
			c-6.03-1.18-14.1,3.08-14.37,3.17c0,0,8.93-1.27,12.97-0.95c4.04,0.32,8.93,4.23,8.93,4.23S44.62,34.37,38.59,33.19z"/>
		
			<linearGradient id="SVGID_00000165921177347731397040000010415506492518019994_" gradientUnits="userSpaceOnUse" x1="6.8669" y1="27.9722" x2="91.5085" y2="37.5246">
			<stop  offset="0.1795" style="stop-color:#76572F"/>
			<stop  offset="0.2729" style="stop-color:#644A2F"/>
			<stop  offset="0.3629" style="stop-color:#8C7450"/>
			<stop  offset="0.4602" style="stop-color:#D8C6A7"/>
			<stop  offset="1" style="stop-color:#7A4F32"/>
		</linearGradient>
		<path style="fill:url(#SVGID_00000165921177347731397040000010415506492518019994_);" d="M61.9,31.33
			c-5.35-0.5-9.98-2.9-18.45-2.77C34.97,28.7,26.8,34.1,26.8,34.1s8.37-3.97,16.19-3.36c5.06,0.4,8.62,1.22,15.24,1.86
			c6.62,0.63,10.57-1.27,10.57-1.27S67.25,31.83,61.9,31.33z"/>
		
			<linearGradient id="SVGID_00000113326963021864584460000008224467776796401806_" gradientUnits="userSpaceOnUse" x1="7.3878" y1="23.3567" x2="92.0294" y2="32.9091">
			<stop  offset="0.1795" style="stop-color:#76572F"/>
			<stop  offset="0.2729" style="stop-color:#644A2F"/>
			<stop  offset="0.3629" style="stop-color:#8C7450"/>
			<stop  offset="0.4602" style="stop-color:#D8C6A7"/>
			<stop  offset="1" style="stop-color:#7A4F32"/>
		</linearGradient>
		<path style="fill:url(#SVGID_00000113326963021864584460000008224467776796401806_);" d="M19.14,21.77
			c1.18-3.17,4.67-3.85,4.67-3.85s-5.67-1.36-7.25,3.4c-1.59,4.76,1.72,10.61,1.72,10.61S17.96,24.94,19.14,21.77z"/>
		
			<linearGradient id="SVGID_00000006693795712747516160000006140222959131059597_" gradientUnits="userSpaceOnUse" x1="7.5237" y1="22.1532" x2="92.1653" y2="31.7056">
			<stop  offset="0.1795" style="stop-color:#76572F"/>
			<stop  offset="0.2729" style="stop-color:#644A2F"/>
			<stop  offset="0.3629" style="stop-color:#8C7450"/>
			<stop  offset="0.4602" style="stop-color:#D8C6A7"/>
			<stop  offset="1" style="stop-color:#7A4F32"/>
		</linearGradient>
		<path style="fill:url(#SVGID_00000006693795712747516160000006140222959131059597_);" d="M21.68,20.45
			c-3.4,4.04-2.49,9.88-2.49,9.88s0.91-3.63,3.13-7.62c2.22-3.99,6.12-4.99,6.12-4.99S25.08,16.41,21.68,20.45z"/>
		
			<linearGradient id="SVGID_00000101818282211531015690000016214211682236058498_" gradientUnits="userSpaceOnUse" x1="7.6174" y1="21.3229" x2="92.259" y2="30.8753">
			<stop  offset="0.1795" style="stop-color:#76572F"/>
			<stop  offset="0.2729" style="stop-color:#644A2F"/>
			<stop  offset="0.3629" style="stop-color:#8C7450"/>
			<stop  offset="0.4602" style="stop-color:#D8C6A7"/>
			<stop  offset="1" style="stop-color:#7A4F32"/>
		</linearGradient>
		<path style="fill:url(#SVGID_00000101818282211531015690000016214211682236058498_);" d="M21.18,28.56c0,0,2.9-3.67,4.85-5.93
			c1.95-2.27,5.94-4.26,5.94-4.26s-3.13-0.05-6.57,2.86C21.95,24.12,21.18,28.56,21.18,28.56z"/>
		
			<linearGradient id="SVGID_00000176743307006949689740000004474114870886936195_" gradientUnits="userSpaceOnUse" x1="9.4763" y1="4.8512" x2="94.1179" y2="14.4036">
			<stop  offset="0.1795" style="stop-color:#76572F"/>
			<stop  offset="0.2729" style="stop-color:#644A2F"/>
			<stop  offset="0.3629" style="stop-color:#8C7450"/>
			<stop  offset="0.4602" style="stop-color:#D8C6A7"/>
			<stop  offset="1" style="stop-color:#7A4F32"/>
		</linearGradient>
		<path style="fill:url(#SVGID_00000176743307006949689740000004474114870886936195_);" d="M57.32,5.99
			c-4.13,4.72-10.88,7.07-10.88,7.07C51.52,7.75,49.66,0,49.66,0s0.45,3.94-1.54,7.89c-2,3.94-5.76,5.85-5.76,5.85
			C46.34,9.17,43.4,3.49,43.4,3.49s0.82,4.04-1.5,7.66c-2.31,3.63-6.3,6.03-6.3,6.03C52.33,16.37,57.32,5.99,57.32,5.99z"/>
	</g>
	<g>
		<path class="n95ba8b2" d="M21,67.29c0-2.09,1.41-2.68,3.45-2.68s3.22,1.5,3.22,1.5v-2.49c0,0-1.41,0.14-3.13,0
			c-1.72-0.14-5.62,0.18-5.62,3.67c0,3.49,7.17,5.6,7.17,8.66c0,1.95-1.6,2.86-3.32,2.86c-1.72,0-3.49-0.86-4.49-2.36v2.31
			c0,0,2.04,1.24,4.49,1.24c2.45,0,5.53-1.69,5.53-4.64S21,69.38,21,67.29z"/>
		<path class="n95ba8b2" d="M49.43,77.86v-9.48h-2c0,0,0,6.85,0,7.3c0,0.45-0.5,2.81-2.49,2.81c-2,0-2.18-2-2.18-2v-8.12h-1.81
			c0,0,0,6.03,0,7.75c0,1.72,1.27,3.87,3.45,3.87s3.17-2.19,3.17-2.19c0,1.18,0.32,1.54,0.32,1.54h1.95
			C49.29,79.12,49.43,77.86,49.43,77.86z"/>
		<path class="n95ba8b2" d="M38.14,77.86v-3.22l0.02-3.51c0,0,0.02-2.63-3.42-2.9c-3.45-0.27-4.56,2.18-4.1,2.92
			c0.45,0.75,1.43,0.25,1.42-0.39c-0.01-0.63,1.03-2.27,2.93-1.72c0.77,0.22,1.35,0.87,1.43,1.68c0.12,1.17-0.75,2.2-1.76,2.66
			c-1.39,0.64-3.29,0.74-4.16,2.18c-1.13,1.87,0.47,4.45,2.6,4.45c2.18,0,3.17-2.19,3.17-2.19c0,1.18,0.32,1.54,0.32,1.54h1.95
			C38,79.12,38.14,77.86,38.14,77.86z M36.14,75.68c0,0.45-0.5,2.94-2.49,2.81c-1.81-0.11-1.59-2.04-1.59-2.04s-0.09-0.95,1.81-1.81
			c1.9-0.86,2.27-0.84,2.27-0.84V75.68z"/>
		<path class="n95ba8b2" d="M94.73,77.86v-9.48h-2c0,0,0,6.85,0,7.3c0,0.45-0.5,2.81-2.49,2.81s-2.18-2-2.18-2v-8.12h-1.81
			c0,0,0,6.03,0,7.75c0,1.72,1.27,3.87,3.45,3.87c2.18,0,3.17-2.19,3.17-2.19c0,1.18,0.32,1.54,0.32,1.54h1.95
			C94.59,79.12,94.73,77.86,94.73,77.86z"/>
		<path class="n95ba8b2" d="M66.39,78.23v-9.67h-2.04v11.02h1.35h0.7h0.56C66.55,79.58,66.39,78.23,66.39,78.23z"/>
		<path class="n95ba8b2" d="M61.49,78.23V62.39l-2.04,0.63v5.52c-0.49-0.2-1.14-0.33-2.02-0.33c-4.06,0-5.51,3.9-5.51,6.73
			c0,2.83,1.66,5.05,4.31,5.05c1.58,0,2.63-0.69,3.22-1.25v0.83h1.35h0.7h0.56C61.66,79.58,61.49,78.23,61.49,78.23z M57.32,78.49
			c-0.63,0-3.51-0.07-3.51-4.06c0-3.99,2.09-5.35,3.79-5.35c1.7,0,1.86,0.88,1.86,0.95v6.44C59.45,77.47,57.95,78.49,57.32,78.49z"
			/>
		<path class="n95ba8b2" d="M99.76,78.23V62.39l-2.04,0.63v16.55h1.35h0.7h0.56C99.93,79.58,99.76,78.23,99.76,78.23z"/>
		<circle class="n95ba8b2" cx="65.37" cy="65.43" r="1.02"/>
		<path class="n95ba8b2" d="M107.88,62.39c-1.07-0.32-2.91-0.43-3.82,0.52c-0.91,0.95-1.35,2.72-1.35,3.85v1.88h-0.79v0.84h0.79v10.09
			h1.35h0.7h0.56c-0.39,0-0.56-1.35-0.56-1.35v-8.74h2.02v-0.84h-2.02v-2.52c0,0-0.18-3.11,0.97-3.11c1.16,0,0.82,1.16,2.15,1.16
			S108.94,62.71,107.88,62.39z"/>
		<path class="n95ba8b2" d="M80.58,72.86c0,0.6,0,5.54,0,5.54s-2.61,0.63-4.99-0.05c-2.38-0.68-4.17-4.08-4.17-6.82
			c0-2.74,2.24-6.91,5.69-6.91c3.45,0,5.49,1.84,5.49,1.84v-2.79c0,0-0.95,0.25-1.86,0c-0.91-0.25-6.28-0.86-9.09,2.09
			c-2.81,2.95-2.97,7.37-1.97,9.84c1,2.47,3.51,4.35,6.98,4.29c3.47-0.07,5.17-0.77,6.05-0.45v-6.71c0,0-0.07-0.86,0.39-0.86h-2.97
			C80.13,71.85,80.58,72.26,80.58,72.86z"/>
	</g>
	<g>
		<path class="n95ba8b2" d="M53.29,55.26c0,0.36-0.09,0.64-0.28,0.82c-0.28,0.27-0.69,0.26-0.71,0.26h-2.37
			c-0.23-1.12-1.26-5.11-3.99-5.11c-0.04,0-0.91-0.01-1.41,0.62c-0.35,0.44-0.43,1.07-0.22,1.85l0.66-0.17
			c-0.15-0.56-0.11-0.99,0.1-1.25c0.29-0.37,0.87-0.36,0.87-0.37c2.11,0,3.04,3.28,3.3,4.43h-6.55c-0.39,0-0.69-0.11-0.9-0.32
			c-0.36-0.36-0.36-0.93-0.36-0.94V49h-0.68v6.32c0,0.4-0.09,0.7-0.27,0.86c-0.19,0.18-0.43,0.16-0.48,0.15h-1.9
			c-0.3,0-0.52-0.08-0.68-0.26c-0.25-0.27-0.3-0.68-0.31-0.9v-3.4h-0.68v3.23c0,0.03,0,0.09,0,0.18v0.43c0,0.61-0.6,0.71-0.69,0.72
			h-1.8c-0.23-1.12-1.26-5.11-3.99-5.11c-0.05,0-0.91-0.01-1.41,0.62c-0.35,0.44-0.43,1.07-0.22,1.85l0.66-0.17
			c-0.15-0.56-0.11-0.99,0.1-1.25c0.29-0.37,0.87-0.36,0.87-0.37c2.11,0,3.04,3.28,3.3,4.43h-6.66c-0.25,0-0.44-0.07-0.58-0.22
			c-0.32-0.32-0.32-0.91-0.32-0.92v-3.45H25v3.84c0,0.66-0.82,0.74-0.94,0.75h-1.29c-1.16,0-1.39-0.74-1.43-0.9v-4.74h-0.68v0.75
			h-1.33c-0.66,0-1.21,0.3-1.6,0.86c-0.32,0.47-0.49,1.09-0.49,1.76c0,1.34,0.72,2.69,2.1,2.69c0.72,0,1.2-0.32,1.52-0.7
			c0.28,0.47,0.85,0.97,1.9,0.97h1.32v0c0.36-0.02,0.94-0.18,1.29-0.58c0.04,0.06,0.08,0.11,0.13,0.16
			c0.27,0.28,0.63,0.42,1.07,0.42l9.19,0c0.3-0.03,0.77-0.19,1.07-0.57c0.03,0.03,0.05,0.07,0.07,0.1c0.29,0.31,0.69,0.47,1.18,0.47
			l1.87,0c0.01,0,0.05,0,0.1,0c0.18,0,0.55-0.04,0.87-0.33c0.11-0.09,0.19-0.21,0.26-0.34c0.04,0.05,0.07,0.09,0.11,0.13
			c0.34,0.35,0.81,0.53,1.39,0.53l9.6,0c0,0,0.01,0,0.03,0c0.14,0,0.72-0.03,1.16-0.44c0.33-0.31,0.49-0.76,0.49-1.32V49h-0.68
			V55.26z M19.34,56.07c-0.93,0-1.42-1.01-1.42-2.01c0-0.96,0.43-1.93,1.41-1.93h1.33v2.88C20.62,55.15,20.37,56.07,19.34,56.07z"/>
		<rect x="55.5" y="49" class="n95ba8b2" width="0.68" height="7.92"/>
		<path class="n95ba8b2" d="M103.29,55.26c0,0.36-0.09,0.64-0.28,0.82c-0.28,0.27-0.69,0.26-0.71,0.26h-1.98c-0.39,0-0.69-0.11-0.9-0.32
			c-0.36-0.36-0.36-0.93-0.36-0.94v-3.42h-0.68v3.41c0,0,0,0,0,0h0c0,0.13-0.06,1.27-1.28,1.27c-0.93,0-1.22-0.54-1.29-1.01
			c0-0.16-0.02-0.28-0.03-0.35v-2.75H95.1v2.78c0,0.13,0.01,0.25,0.03,0.38c-0.01,0.16-0.05,0.36-0.18,0.52
			c-0.2,0.25-0.58,0.38-1.13,0.38c-0.55,0-0.93-0.13-1.14-0.39c-0.13-0.16-0.18-0.35-0.19-0.51c0.03-0.22,0.02-0.39,0.02-0.4
			l-0.01,0l0.01-2.76h-0.68v2.75c-0.01,0.07-0.03,0.21-0.02,0.39c-0.03,0.19-0.11,0.44-0.28,0.62c-0.19,0.2-0.47,0.3-0.84,0.3H87.4
			l-0.06,0c-0.01,0-0.43,0.05-1.18-0.48l2.58-2.04l0.02-0.13c0-0.03,0.09-0.67-0.4-1.24c-0.47-0.54-1.27-0.81-2.39-0.81
			c-3,0-3.03,1.78-3.03,1.85v0.12l0.08,0.09c0.02,0.03,0.6,0.72,1.96,2.05c0.03,0.03,0.06,0.06,0.1,0.09l-0.54,0.42l0,0.01
			c-0.08,0.03-0.31,0.1-0.86,0.1l-4.44,0v-4.75H78.9c-1.64,0-3.82,0.29-3.82,2.84c0,1.86,1.37,2.5,2.12,2.59h1.35l0,0.35
			c-0.01,0.07-0.2,1.69-1.45,1.69v0.68c1.49,0,2.04-1.5,2.12-2.34v-0.38h4.44c0.74,0,1.21-0.12,1.4-0.35l0.52-0.41
			c0.98,0.75,1.64,0.74,1.82,0.72h3.27c0.57,0,1.02-0.18,1.34-0.52c0.04-0.04,0.07-0.09,0.1-0.14c0,0,0.01,0.01,0.01,0.01
			c0.34,0.43,0.91,0.65,1.67,0.65s1.33-0.22,1.67-0.65c0-0.01,0.01-0.01,0.01-0.02c0.31,0.42,0.82,0.71,1.6,0.71
			c0.82,0,1.32-0.37,1.61-0.81c0.06,0.1,0.13,0.19,0.22,0.28c0.34,0.35,0.81,0.53,1.39,0.53l1.96,0c0,0,0.01,0,0.03,0
			c0.14,0,0.72-0.03,1.16-0.44c0.33-0.31,0.49-0.76,0.49-1.32V49h-0.68V55.26z M77.25,56.34c-0.15-0.02-1.48-0.23-1.48-1.91
			c0-1.45,0.82-2.09,2.79-2.16l0,4.06L77.25,56.34z M85.46,55.23c-1.02-1-1.6-1.64-1.81-1.89c0.07-0.29,0.45-1.06,2.33-1.06
			c0.89,0,1.53,0.2,1.86,0.57c0.19,0.22,0.24,0.45,0.25,0.59l-2.47,1.95C85.57,55.33,85.51,55.28,85.46,55.23z"/>
		<rect x="105.5" y="49" class="n95ba8b2" width="0.68" height="7.92"/>
		<path class="n95ba8b2" d="M73.16,52.23c-0.4-0.42-0.96-0.63-1.67-0.63v0.68c0.51,0,0.9,0.14,1.17,0.42c0.45,0.46,0.43,1.18,0.43,1.21
			v2.39h-3.2v0.68h3.88l0-3.06C73.77,53.87,73.81,52.9,73.16,52.23z"/>
		<path class="n95ba8b2" d="M68.3,51.78h-0.68l0,3.72c0,0,0.02,0.31-0.18,0.53c-0.16,0.18-0.43,0.26-0.81,0.26h-1.9
			c-0.16,0-0.98-0.06-0.98-0.98V50.6h-0.68v0.84h-1.33c-0.66,0-1.21,0.3-1.6,0.86c-0.32,0.47-0.49,1.09-0.49,1.76
			c0,1.34,0.72,2.69,2.1,2.69c0.69,0,1.16-0.29,1.48-0.65c0.33,0.68,1.06,0.88,1.5,0.88h1.9c0.58,0,1.03-0.17,1.32-0.49
			c0.4-0.44,0.35-0.99,0.35-1.01V51.78z M61.74,56.07c-0.93,0-1.42-1.01-1.42-2.01c0-0.96,0.43-1.93,1.41-1.93h1.33v2.88
			C63.03,55.15,62.77,56.07,61.74,56.07z"/>
		<rect x="18.57" y="48.66" class="n95ba8b2" width="0.97" height="0.68"/>
		<rect x="20.23" y="48.66" class="n95ba8b2" width="0.97" height="0.68"/>
		<rect x="61.13" y="48.66" class="n95ba8b2" width="0.97" height="0.68"/>
		<rect x="62.79" y="48.66" class="n95ba8b2" width="0.97" height="0.68"/>
		<rect x="65.07" y="58.7" class="n95ba8b2" width="0.97" height="0.68"/>
		<rect x="66.74" y="58.7" class="n95ba8b2" width="0.97" height="0.68"/>
		<rect x="34.63" y="58.52" class="n95ba8b2" width="0.97" height="0.68"/>
		<rect x="36.3" y="58.52" class="n95ba8b2" width="0.97" height="0.68"/>
		<rect x="22.93" y="58.52" class="n95ba8b2" width="0.97" height="0.68"/>
		<rect x="24.6" y="58.52" class="n95ba8b2" width="0.97" height="0.68"/>
		<rect x="30.38" y="58.52" class="n95ba8b2" width="0.97" height="0.68"/>
		<rect x="46.4" y="49" class="n95ba8b2" width="0.68" height="0.97"/>
	</g>
</g>
</svg>
