<?xml version="1.0" encoding="utf-8"?>
<!-- Generator: Adobe Illustrator 25.4.1, SVG Export Plug-In . SVG Version: 6.00 Build 0)  -->
<svg version="1.1" id="Layer_1" xmlns="http://www.w3.org/2000/svg" xmlns:xlink="http://www.w3.org/1999/xlink" x="0px" y="0px"
	 viewBox="0 0 212.5 80" style="enable-background:new 0 0 212.5 80;" xml:space="preserve">
<style type="text/css">
	.i7b7029a{fill:#D42D2D;}
	.z0747f4a{fill:#297C34;}
	.v21a747d{fill:#F5DB02;}
	.s5c076f2{fill:#C72822;}
</style>
<g>
	<path class="i7b7029a" d="M19.6,52.8c0,0,9.6,4.6,23.1,4.6s29.6,0,29.6,0s-13.5,3-28.5,3S21.5,54.8,19.6,52.8z"/>
	<path class="z0747f4a" d="M51,51c0,0,23.9-0.3,40.2-4.9s30.5-11.6,34.1-15.9c0,0-29.4,10.2-36.1,11.7C82.4,43.4,51,51,51,51z"/>
	<path class="v21a747d" d="M40.7,54.8c0,0,28.2,0.6,45.3-0.9s37.8-5.5,49.4-10.2c11.6-4.6,21.1-10.2,26.1-15.4c5-5.3,15.9-21,18.3-23.1
		s4.1-4.4,6.8-5.1c0,0-11.8-1.5-19.8,12.2c0,0-1.3,2.4-6.4,1.5c-5.1-0.9-25.5-8.1-78.3,23.3c0,0,23.8-12,38.3-15s13.6,4.1,11.1,7.2
		c-2.6,3.1-16.6,14.5-43.2,20.4S40.7,54.8,40.7,54.8z"/>
	<path class="s5c076f2" d="M2.5,77.4c0,1.5,0.2,2,0.7,2.1c0.3,0.1,0.7,0.1,0.9,0.1c0.1,0,0.1,0,0.1,0.1c0,0.1-0.1,0.1-0.3,0.1
		c-1,0-1.8-0.1-1.9-0.1s-0.9,0.1-1.7,0.1c-0.2,0-0.3,0-0.3-0.1c0-0.1,0.1-0.1,0.1-0.1c0.1,0,0.5,0,0.7-0.1c0.5-0.1,0.5-0.7,0.5-2.3
		l0-10.4c0-0.7,0.1-0.9,0.2-0.9s0.5,0.4,0.6,0.6c0.3,0.3,3,3.2,5.8,6.2c1.8,1.9,3.8,4.1,4.4,4.7l-0.2-9.2c0-1.2-0.1-1.6-0.7-1.7
		c-0.3-0.1-0.7-0.1-0.9-0.1c-0.1,0-0.1-0.1-0.1-0.1c0-0.1,0.1-0.1,0.4-0.1c0.8,0,1.7,0.1,1.9,0.1c0.2,0,0.8-0.1,1.5-0.1
		c0.2,0,0.3,0,0.3,0.1c0,0.1-0.1,0.1-0.2,0.1c-0.1,0-0.2,0-0.4,0.1c-0.6,0.1-0.7,0.5-0.7,1.6l0,10.6c0,1.2,0,1.3-0.2,1.3
		c-0.1,0-0.4-0.2-1.3-1.2C11.6,78.7,8.9,76,7,73.9c-2.1-2.3-4.2-4.6-4.7-5.2L2.5,77.4z"/>
	<path class="s5c076f2" d="M23.3,68.3c0.2-0.5,0.3-0.6,0.4-0.6c0.2,0,0.2,0.2,0.4,0.5c0.3,0.6,2.8,6.5,3.8,8.7c0.6,1.3,1,1.5,1.4,1.6
		c0.2,0.1,0.5,0.1,0.6,0.1c0.1,0,0.2,0,0.2,0.1c0,0.1-0.2,0.1-0.4,0.1c-0.2,0-1.4,0-2.5,0c-0.3,0-0.6,0-0.6-0.1c0-0.1,0-0.1,0.1-0.1
		c0.1,0,0.3-0.2,0.1-0.4L25.5,75c0-0.1-0.1-0.1-0.1-0.1h-3.7c-0.1,0-0.1,0-0.2,0.1l-0.9,2.3c-0.1,0.4-0.2,0.7-0.2,1
		c0,0.3,0.3,0.4,0.5,0.4H21c0.1,0,0.2,0.1,0.2,0.1c0,0.1-0.1,0.1-0.2,0.1c-0.4,0-1.3-0.1-1.4-0.1c-0.2,0-1,0.1-1.6,0.1
		c-0.2,0-0.3,0-0.3-0.1c0-0.1,0.1-0.1,0.1-0.1c0.1,0,0.3,0,0.5,0c0.7-0.1,1-0.6,1.3-1.3L23.3,68.3z M25.1,74.3c0.1,0,0.1,0,0.1-0.1
		l-1.6-3.9c-0.1-0.2-0.2-0.2-0.3,0l-1.5,3.9c0,0.1,0,0.1,0.1,0.1H25.1z"/>
	<path class="s5c076f2" d="M36.9,74.7c0,1.4,0,2.5,0.1,3.1c0.1,0.4,0.1,0.7,0.6,0.8c0.2,0,0.6,0.1,0.7,0.1c0.1,0,0.1,0.1,0.1,0.1
		c0,0.1-0.1,0.1-0.3,0.1c-0.9,0-1.9-0.1-2-0.1c-0.1,0-1.2,0.1-1.7,0.1c-0.2,0-0.3,0-0.3-0.1c0-0.1,0-0.1,0.1-0.1
		c0.1,0,0.3,0,0.5-0.1c0.3-0.1,0.4-0.4,0.5-0.8c0.1-0.6,0.1-1.7,0.1-3.1v-6l-2.3,0c-1,0-1.4,0.1-1.6,0.5c-0.2,0.3-0.2,0.4-0.3,0.5
		c0,0.1-0.1,0.1-0.2,0.1c0,0-0.1,0-0.1-0.1c0-0.2,0.3-1.4,0.3-1.6c0-0.1,0.1-0.3,0.2-0.3c0.1,0,0.3,0.1,0.7,0.2
		c0.5,0.1,1.1,0.1,1.3,0.1h6c0.5,0,0.9,0,1.1-0.1c0.2,0,0.4-0.1,0.5-0.1c0.1,0,0.1,0.1,0.1,0.2c0,0.4-0.1,1.5-0.1,1.6
		c0,0.1-0.1,0.2-0.1,0.2c-0.1,0-0.1-0.1-0.1-0.3l0-0.2c-0.1-0.4-0.4-0.8-1.9-0.8l-2,0V74.7z"/>
	<path class="s5c076f2" d="M48.6,74.7c0,1.4,0,2.5,0.1,3.1c0.1,0.4,0.1,0.7,0.6,0.8c0.2,0,0.6,0.1,0.7,0.1c0.1,0,0.1,0.1,0.1,0.1
		c0,0.1-0.1,0.1-0.3,0.1c-0.9,0-1.9-0.1-2-0.1c-0.1,0-1.1,0.1-1.6,0.1c-0.2,0-0.3,0-0.3-0.1c0-0.1,0-0.1,0.1-0.1
		c0.1,0,0.3,0,0.5-0.1c0.3-0.1,0.4-0.3,0.4-0.8c0.1-0.6,0.1-1.7,0.1-3.1v-2.5c0-2.2,0-2.6,0-3.1c0-0.5-0.2-0.7-0.5-0.8
		c-0.2,0-0.4-0.1-0.5-0.1c-0.1,0-0.1-0.1-0.1-0.1c0-0.1,0.1-0.1,0.3-0.1c0.5,0,1.5,0,1.6,0c0.1,0,1.1,0,1.6,0c0.2,0,0.3,0,0.3,0.1
		c0,0.1-0.1,0.1-0.1,0.1c-0.1,0-0.2,0-0.4,0c-0.4,0.1-0.5,0.3-0.6,0.8c0,0.5,0,0.9,0,3.1V74.7z"/>
	<path class="s5c076f2" d="M60.9,67.8c3.6,0,6.3,2,6.3,5.4c0,3.2-2.6,5.9-6.4,5.9c-4.4,0-6.2-3.1-6.2-5.7C54.5,71.1,56.5,67.8,60.9,67.8z
		 M61.2,78.5c1.4,0,4.3-0.7,4.3-4.9c0-3.5-2.3-5.3-4.8-5.3c-2.7,0-4.6,1.6-4.6,4.7C56.2,76.4,58.3,78.5,61.2,78.5z"/>
	<path class="s5c076f2" d="M73.2,77c0,1.2,0.2,1.5,0.6,1.6c0.3,0.1,0.7,0.1,0.8,0.1c0.1,0,0.1,0.1,0.1,0.1c0,0.1-0.1,0.1-0.3,0.1
		c-0.9,0-1.5-0.1-1.7-0.1s-0.8,0.1-1.5,0.1c-0.2,0-0.3,0-0.3-0.1c0-0.1,0.1-0.1,0.1-0.1c0.1,0,0.4,0,0.7-0.1
		c0.4-0.1,0.5-0.5,0.5-1.8v-8.2c0-0.6,0.1-0.7,0.2-0.7c0.2,0,0.5,0.3,0.6,0.4c0.3,0.2,2.6,2.5,5,4.9c1.6,1.5,3.3,3.2,3.8,3.7
		l-0.2-7.2c0-0.9-0.1-1.3-0.6-1.3c-0.3-0.1-0.7-0.1-0.8-0.1c-0.1,0-0.1-0.1-0.1-0.1c0-0.1,0.1-0.1,0.3-0.1c0.7,0,1.5,0,1.7,0
		c0.2,0,0.7,0,1.4,0c0.2,0,0.3,0,0.3,0.1c0,0.1-0.1,0.1-0.2,0.1c-0.1,0-0.2,0-0.4,0c-0.5,0.1-0.6,0.4-0.6,1.3l0,8.4c0,0.9,0,1-0.1,1
		c-0.2,0-0.3-0.1-1.2-0.9c-0.2-0.1-2.5-2.2-4.2-3.9c-1.9-1.8-3.6-3.6-4.1-4.1L73.2,77z"/>
	<path class="s5c076f2" d="M92.4,68.3c0.2-0.5,0.3-0.6,0.4-0.6c0.2,0,0.2,0.2,0.4,0.5c0.3,0.6,2.8,6.5,3.8,8.7c0.6,1.3,1,1.5,1.4,1.6
		c0.2,0.1,0.5,0.1,0.6,0.1c0.1,0,0.2,0,0.2,0.1c0,0.1-0.2,0.1-0.4,0.1c-0.2,0-1.4,0-2.5,0c-0.3,0-0.6,0-0.6-0.1c0-0.1,0-0.1,0.1-0.1
		c0.1,0,0.3-0.2,0.1-0.4L94.5,75c0-0.1-0.1-0.1-0.1-0.1h-3.7c-0.1,0-0.1,0-0.2,0.1l-0.9,2.3c-0.1,0.4-0.2,0.7-0.2,1
		c0,0.3,0.3,0.4,0.5,0.4h0.1c0.1,0,0.2,0.1,0.2,0.1c0,0.1-0.1,0.1-0.2,0.1c-0.4,0-1.3-0.1-1.4-0.1c-0.2,0-1,0.1-1.6,0.1
		c-0.2,0-0.3,0-0.3-0.1c0-0.1,0.1-0.1,0.1-0.1c0.1,0,0.3,0,0.5,0c0.7-0.1,1-0.6,1.3-1.3L92.4,68.3z M94.1,74.3c0.1,0,0.1,0,0.1-0.1
		l-1.6-3.9c-0.1-0.2-0.2-0.2-0.3,0l-1.5,3.9c0,0.1,0,0.1,0.1,0.1H94.1z"/>
	<path class="s5c076f2" d="M105.8,74.8c0,2.1,0,3,0.3,3.2c0.3,0.2,0.9,0.3,2.1,0.3c0.8,0,1.5,0,1.9-0.4c0.2-0.2,0.3-0.5,0.4-0.8
		c0-0.1,0.1-0.2,0.2-0.2c0.1,0,0.1,0.1,0.1,0.2c0,0.2-0.1,1-0.2,1.4c-0.1,0.3-0.2,0.4-1,0.4c-1.1,0-2,0-2.8-0.1c-0.7,0-1.3,0-1.7,0
		c-0.1,0-0.3,0-0.7,0c-0.3,0-0.7,0-0.9,0c-0.2,0-0.3,0-0.3-0.1c0-0.1,0-0.1,0.1-0.1c0.1,0,0.3,0,0.5-0.1c0.3-0.1,0.3-0.3,0.4-0.8
		c0.1-0.6,0.1-1.7,0.1-3.1v-2.5c0-2.2,0-2.6,0-3.1c0-0.5-0.1-0.7-0.7-0.8c-0.1,0-0.4,0-0.5,0c-0.1,0-0.1-0.1-0.1-0.1
		c0-0.1,0.1-0.1,0.3-0.1c0.7,0,1.7,0,1.8,0c0.1,0,1.3,0,1.8,0c0.2,0,0.3,0,0.3,0.1c0,0.1-0.1,0.1-0.1,0.1c-0.1,0-0.3,0-0.5,0
		c-0.5,0.1-0.6,0.3-0.6,0.8c0,0.5,0,0.9,0,3.1V74.8z"/>
	<path class="s5c076f2" d="M126.2,66.6c0.2-0.6,0.3-0.7,0.4-0.7s0.2,0.1,0.4,0.6c0.3,0.6,3.1,7.6,4.2,10.2c0.7,1.5,1.2,1.8,1.6,1.9
		c0.3,0.1,0.5,0.1,0.7,0.1c0.1,0,0.2,0,0.2,0.1c0,0.1-0.2,0.1-0.4,0.1c-0.3,0-1.6,0-2.8,0c-0.3,0-0.5,0-0.5-0.1
		c0-0.1,0.1-0.1,0.1-0.1c0.1,0,0.2-0.2,0.1-0.5l-1.7-4.2c0-0.1-0.1-0.1-0.2-0.1h-3.9c-0.1,0-0.1,0.1-0.2,0.1l-1.1,3
		c-0.2,0.4-0.3,0.8-0.3,1.1c0,0.3,0.4,0.5,0.7,0.5h0.2c0.1,0,0.2,0,0.2,0.1c0,0.1-0.1,0.1-0.3,0.1c-0.4,0-1.2-0.1-1.4-0.1
		s-1.2,0.1-2.1,0.1c-0.2,0-0.3,0-0.3-0.1c0-0.1,0.1-0.1,0.2-0.1c0.1,0,0.4,0,0.5,0c0.8-0.1,1.2-0.7,1.5-1.6L126.2,66.6z M128.1,73.3
		c0.1,0,0.1-0.1,0.1-0.1l-1.7-4.6c-0.1-0.3-0.2-0.3-0.3,0l-1.6,4.6c0,0.1,0,0.1,0.1,0.1H128.1z"/>
	<path class="s5c076f2" d="M139.7,74.7c0,1.4,0,2.5,0.1,3.1c0.1,0.4,0.1,0.7,0.6,0.8c0.2,0,0.6,0.1,0.7,0.1c0.1,0,0.1,0.1,0.1,0.1
		c0,0.1-0.1,0.1-0.3,0.1c-0.9,0-1.9-0.1-2-0.1c-0.1,0-1.1,0.1-1.6,0.1c-0.2,0-0.3,0-0.3-0.1c0-0.1,0-0.1,0.1-0.1
		c0.1,0,0.3,0,0.5-0.1c0.3-0.1,0.4-0.3,0.4-0.8c0.1-0.6,0.1-1.7,0.1-3.1v-2.5c0-2.2,0-2.6,0-3.1c0-0.5-0.2-0.7-0.5-0.8
		c-0.2,0-0.4-0.1-0.5-0.1c-0.1,0-0.1-0.1-0.1-0.1c0-0.1,0.1-0.1,0.3-0.1c0.5,0,1.5,0,1.6,0c0.1,0,1.1,0,1.6,0c0.2,0,0.3,0,0.3,0.1
		c0,0.1-0.1,0.1-0.1,0.1c-0.1,0-0.2,0-0.4,0c-0.4,0.1-0.5,0.3-0.6,0.8c0,0.5,0,0.9,0,3.1V74.7z"/>
	<path class="s5c076f2" d="M148,72.2c0-2.2,0-2.6,0-3.1c0-0.5-0.1-0.7-0.7-0.8c-0.1,0-0.4,0-0.5,0c-0.1,0-0.1-0.1-0.1-0.1
		c0-0.1,0.1-0.1,0.3-0.1c0.7,0,1.8,0,1.9,0c0.2,0,1.5,0,2,0c1,0,2.1,0.1,3,0.6c0.4,0.3,1.1,1,1.1,2c0,1.1-0.5,2.1-2,3.3
		c1.3,1.5,2.4,2.8,3.3,3.7c0.9,0.8,1.4,0.9,1.8,1c0.3,0.1,0.5,0.1,0.6,0.1c0.1,0,0.1,0.1,0.1,0.1c0,0.1-0.1,0.1-0.4,0.1h-1
		c-0.9,0-1.3-0.1-1.7-0.3c-0.7-0.3-1.3-1-2.2-2.1c-0.7-0.8-1.4-1.7-1.7-2.1c-0.1-0.1-0.1-0.1-0.2-0.1l-2,0c-0.1,0-0.1,0-0.1,0.1v0.3
		c0,1.4,0,2.5,0.1,3.1c0.1,0.4,0.1,0.7,0.6,0.8c0.2,0,0.6,0.1,0.7,0.1c0.1,0,0.1,0.1,0.1,0.1c0,0.1-0.1,0.1-0.3,0.1
		c-0.9,0-1.9-0.1-2-0.1c0,0-1.1,0.1-1.6,0.1c-0.2,0-0.3,0-0.3-0.1c0-0.1,0-0.1,0.1-0.1c0.1,0,0.3,0,0.5-0.1c0.3-0.1,0.3-0.3,0.4-0.8
		c0.1-0.6,0.1-1.7,0.1-3.1V72.2z M149.4,73.4c0,0.1,0,0.1,0.1,0.2c0.2,0.1,1.1,0.2,1.8,0.2c0.4,0,0.8,0,1.2-0.3c0.5-0.3,1-1.1,1-2.2
		c0-1.8-1.1-2.8-2.8-2.8c-0.5,0-1,0.1-1.1,0.1c-0.1,0-0.1,0.1-0.1,0.2V73.4z"/>
	<path class="s5c076f2" d="M172.6,76.8L172.6,76.8c0.5-1.2,1.9-5.3,2.5-7.2c0.2-0.5,0.2-0.7,0.2-0.9c0-0.3-0.1-0.4-0.9-0.4
		c-0.1,0-0.1-0.1-0.1-0.1c0-0.1,0.1-0.1,0.3-0.1c0.8,0,1.5,0,1.6,0c0.1,0,0.8,0,1.3,0c0.1,0,0.2,0,0.2,0.1c0,0.1,0,0.2-0.1,0.2
		c-0.1,0-0.4,0-0.5,0.1c-0.5,0.2-0.7,0.7-1,1.5c-0.7,1.8-2.3,6.4-2.9,8c-0.4,1.1-0.5,1.2-0.7,1.2c-0.2,0-0.3-0.2-0.5-0.7l-3.1-7.9
		c-0.5,1.3-2.7,6.5-3.3,7.9c-0.3,0.6-0.4,0.8-0.6,0.8c-0.2,0-0.3-0.2-0.6-1.1l-2.8-8.5c-0.3-0.8-0.4-0.9-0.8-1.1
		c-0.2-0.1-0.6-0.1-0.7-0.1c-0.1,0-0.1-0.1-0.1-0.1c0-0.1,0.1-0.1,0.3-0.1c0.8,0,1.7,0,1.9,0c0.1,0,0.9,0,1.7,0c0.2,0,0.3,0,0.3,0.1
		c0,0.1-0.1,0.1-0.2,0.1c-0.1,0-0.4,0-0.6,0.1c-0.1,0-0.2,0.1-0.2,0.3c0,0.2,0.1,0.7,0.3,1.3c0.3,0.9,1.9,6.2,2.1,6.8h0l3.3-8.1
		c0.2-0.6,0.3-0.7,0.4-0.7c0.1,0,0.2,0.2,0.4,0.7L172.6,76.8z"/>
	<path class="s5c076f2" d="M183.4,68.3c0.2-0.5,0.3-0.6,0.4-0.6c0.2,0,0.2,0.2,0.4,0.5c0.3,0.6,2.8,6.5,3.8,8.7c0.6,1.3,1,1.5,1.4,1.6
		c0.2,0.1,0.5,0.1,0.6,0.1c0.1,0,0.2,0,0.2,0.1c0,0.1-0.2,0.1-0.4,0.1c-0.2,0-1.4,0-2.5,0c-0.3,0-0.6,0-0.6-0.1c0-0.1,0-0.1,0.1-0.1
		c0.1,0,0.3-0.2,0.1-0.4l-1.4-3.3c0-0.1-0.1-0.1-0.1-0.1h-3.7c-0.1,0-0.1,0-0.2,0.1l-0.9,2.3c-0.1,0.4-0.2,0.7-0.2,1
		c0,0.3,0.3,0.4,0.5,0.4h0.1c0.1,0,0.2,0.1,0.2,0.1c0,0.1-0.1,0.1-0.2,0.1c-0.4,0-1.3-0.1-1.4-0.1c-0.2,0-1,0.1-1.6,0.1
		c-0.2,0-0.3,0-0.3-0.1c0-0.1,0.1-0.1,0.1-0.1c0.1,0,0.3,0,0.5,0c0.7-0.1,1-0.6,1.3-1.3L183.4,68.3z M185.2,74.3
		c0.1,0,0.1,0,0.1-0.1l-1.6-3.9c-0.1-0.2-0.2-0.2-0.3,0l-1.5,3.9c0,0.1,0,0.1,0.1,0.1H185.2z"/>
	<path class="s5c076f2" d="M195.8,75.2c0-0.8-0.1-1.1-0.3-1.5c-0.1-0.2-2.3-3.4-2.8-4.2c-0.4-0.5-0.8-0.9-1.1-1c-0.2-0.1-0.5-0.2-0.7-0.2
		c-0.1,0-0.2-0.1-0.2-0.1c0-0.1,0.1-0.1,0.2-0.1c0.3,0,1.5,0,1.6,0c0.1,0,0.8,0,1.4,0c0.2,0,0.2,0,0.2,0.1c0,0.1-0.1,0.1-0.3,0.2
		c-0.1,0.1-0.2,0.1-0.2,0.2c0,0.2,0.1,0.4,0.2,0.6l2.9,4.5c0.3-0.6,2.3-3.7,2.6-4.2c0.2-0.3,0.3-0.6,0.3-0.7c0-0.2-0.1-0.3-0.3-0.4
		c-0.1,0-0.2-0.1-0.2-0.2c0-0.1,0.1-0.1,0.3-0.1c0.4,0,1,0,1.1,0c0.1,0,1.3,0,1.6,0c0.1,0,0.2,0,0.2,0.1c0,0.1-0.1,0.2-0.2,0.2
		c-0.2,0-0.5,0.1-0.7,0.2c-0.3,0.2-0.5,0.3-0.8,0.7c-0.5,0.6-2.8,4-3.1,4.6c-0.3,0.5-0.2,1-0.2,1.4v1.2c0,0.2,0,0.8,0.1,1.4
		c0,0.4,0.1,0.7,0.6,0.8c0.2,0,0.6,0.1,0.7,0.1c0.1,0,0.1,0.1,0.1,0.1c0,0.1-0.1,0.1-0.3,0.1c-0.9,0-1.9-0.1-2-0.1
		c-0.1,0-1.1,0.1-1.6,0.1c-0.2,0-0.3,0-0.3-0.1c0-0.1,0-0.1,0.1-0.1c0.1,0,0.3,0,0.5-0.1c0.3-0.1,0.4-0.3,0.5-0.8c0-0.6,0-1.2,0-1.4
		V75.2z"/>
	<path class="s5c076f2" d="M206.2,78.7c-0.2-0.1-0.2-0.2-0.2-0.5c0-0.7,0.1-1.3,0.1-1.5c0-0.2,0-0.2,0.1-0.2c0.1,0,0.1,0.1,0.1,0.2
		c0,0.1,0,0.3,0.1,0.5c0.3,1,1.5,1.4,2.5,1.4c1.6,0,2.4-0.8,2.4-1.9c0-1-0.6-1.5-2-2.5l-0.7-0.5c-1.7-1.2-2.3-2.1-2.3-3.1
		c0-1.7,1.4-2.7,3.5-2.7c0.6,0,1.3,0.1,1.7,0.2c0.3,0.1,0.4,0.1,0.6,0.1c0.1,0,0.2,0,0.2,0.1c0,0.1-0.1,0.5-0.1,1.5
		c0,0.2,0,0.3-0.1,0.3s-0.1-0.1-0.1-0.2c0-0.2-0.1-0.6-0.2-0.7c-0.1-0.2-0.6-0.7-2.1-0.7c-1.2,0-2.1,0.5-2.1,1.6
		c0,0.9,0.5,1.4,2.1,2.4l0.5,0.3c1.9,1.2,2.6,2.2,2.6,3.5c0,0.8-0.3,1.8-1.5,2.5c-0.7,0.4-1.7,0.5-2.5,0.5
		C207.7,79.1,206.8,79,206.2,78.7z"/>
</g>
</svg>
