<?xml version="1.0" encoding="utf-8"?>
<!-- Generator: Adobe Illustrator 25.4.1, SVG Export Plug-In . SVG Version: 6.00 Build 0)  -->
<svg version="1.1" id="Layer_1" xmlns="http://www.w3.org/2000/svg" xmlns:xlink="http://www.w3.org/1999/xlink" x="0px" y="0px"
	 viewBox="0 0 374.3 80" style="enable-background:new 0 0 374.3 80;" xml:space="preserve">
<style type="text/css">
	.m2759fe4{fill-rule:evenodd;clip-rule:evenodd;fill:#1E1D4D;}
	.o46a5b5a{fill-rule:evenodd;clip-rule:evenodd;fill:#EB4F1C;}
	.m7c13e70{fill-rule:evenodd;clip-rule:evenodd;fill:#FFFFFF;}
	.r9698349{fill:#1E1D4D;}
	.ja12d01c{fill:#EE7600;}
</style>
<g>
	<polygon class="m2759fe4" points="0,0 20,0 76.5,80 0,80 0,0 	"/>
	<polygon class="o46a5b5a" points="0,54 69.6,70 73.4,75.6 0,63.2 0,54 	"/>
	<polygon class="m7c13e70" points="73.4,75.6 0,63.2 0,71.9 76.5,80 73.4,75.6 	"/>
	<polygon class="m7c13e70" points="17.3,24.2 16.6,15.8 16,24.2 13.5,19.7 14.6,24.6 11,20.9 13.3,25.4 9.1,22.5 12.2,26.4 7.5,24.6 
		11.4,27.7 6.6,26.9 11.1,29.1 2.5,29.8 11,30.5 6.5,32.5 11.3,31.9 7.5,34.9 12.1,33.2 9.1,36.9 13.2,34.3 11.2,38.7 14.6,35.1 
		13.7,39.8 16,35.5 16.6,43.6 17.4,35.4 20,39.8 19,35 22.3,38.6 20.2,34.3 24.1,37.1 21.3,33.1 26,34.7 21.9,31.8 26.9,32.3 
		22.3,30.5 30.5,29.8 22.2,29 26.9,27.1 21.9,27.6 25.8,24.5 21.1,26.4 24.6,22.8 20,25.4 22.4,20.9 18.7,24.6 19.6,19.6 17.3,24.2 
			"/>
	<path class="r9698349" d="M76.2,58.5v-0.6c0.8-0.1,1.4-0.4,1.8-0.9c0.4-0.5,1.1-1.9,2-4.1l6.4-15H87l7.6,17.3c0.5,1.1,0.9,1.9,1.2,2.1
		c0.3,0.3,0.8,0.5,1.5,0.6v0.6h-7.8v-0.6c0.9-0.1,1.5-0.2,1.7-0.3c0.3-0.1,0.4-0.4,0.4-0.8c0-0.1,0-0.4-0.1-0.8
		c-0.1-0.4-0.2-0.8-0.4-1.2l-1.2-2.9h-8.1c-0.8,2-1.3,3.2-1.4,3.7c-0.2,0.4-0.2,0.8-0.2,1c0,0.5,0.2,0.9,0.6,1.1
		c0.3,0.1,0.7,0.2,1.5,0.3v0.6H76.2z M89.4,50.6l-3.5-8.4l-3.5,8.4H89.4z"/>
	<path class="r9698349" d="M98.4,57.9c1.2-0.1,2.1-0.3,2.4-0.6c0.4-0.3,0.6-1,0.6-2.2V41.5c0-1.1-0.2-1.8-0.6-2.2
		c-0.4-0.3-1.2-0.5-2.4-0.6v-0.6h9.1v0.6c-1.2,0.1-2.1,0.3-2.4,0.6c-0.4,0.3-0.6,1-0.6,2.2v13.6c0,1.2,0.2,1.9,0.6,2.2
		c0.4,0.3,1.2,0.5,2.4,0.6v0.6h-9.1V57.9z"/>
	<path class="r9698349" d="M108.4,57.9c1.2-0.1,1.9-0.3,2.2-0.7c0.3-0.3,0.4-1.2,0.4-2.4V41.5c0-1.1-0.2-1.8-0.5-2.1
		c-0.3-0.3-1-0.5-2.1-0.6v-0.6h8.5c1.8,0,3.2,0.2,4.4,0.7c2.2,0.8,3.3,2.4,3.3,4.7c0,1.5-0.5,2.7-1.5,3.5c-1,0.8-2.3,1.4-4,1.6
		l6.3,7.8c0.4,0.5,0.8,0.8,1.2,1c0.4,0.2,0.9,0.4,1.5,0.4v0.6h-4.9l-7.7-9.4l-1.3,0.1v6c0,1.1,0.2,1.8,0.5,2.2
		c0.3,0.3,1.1,0.5,2.2,0.6v0.6h-8.5V57.9z M118.9,47.3c1.6-0.7,2.4-1.9,2.4-3.8c0-1.8-0.7-3-2.2-3.6c-0.8-0.3-1.8-0.5-3.1-0.5
		c-0.9,0-1.4,0.1-1.6,0.2c-0.2,0.1-0.3,0.4-0.3,0.9V48C116.3,47.9,117.9,47.7,118.9,47.3z"/>
	<path class="r9698349" d="M136.5,57.9c1.3-0.1,2.1-0.4,2.4-0.9c0.4-0.4,0.5-1.5,0.5-3.1V41.5c0-1.1-0.2-1.8-0.5-2.2
		c-0.3-0.3-1.1-0.5-2.4-0.6v-0.6h6l7,15.2l6.9-15.2h6.1v0.6c-1.1,0.1-1.9,0.3-2.2,0.6c-0.3,0.3-0.5,1-0.5,2.1v13.6
		c0,1.1,0.2,1.8,0.5,2.1c0.3,0.3,1.1,0.5,2.2,0.6v0.6H154v-0.6c1.2-0.1,2-0.3,2.3-0.7c0.3-0.3,0.5-1.2,0.5-2.5V41l-7.8,17.4h-0.4
		l-7.7-16.7V54c0,1.7,0.2,2.8,0.7,3.3c0.3,0.3,1,0.6,2.1,0.7v0.6h-7.2V57.9z"/>
	<path class="ja12d01c" d="M168.1,51.9c0.9-0.6,2.7-1.4,5.5-2.4v-1.3c0-1-0.1-1.7-0.3-2.1c-0.3-0.7-1-1-2.1-1c-0.5,0-1,0.1-1.4,0.4
		c-0.5,0.3-0.7,0.6-0.7,1.1c0,0.1,0,0.3,0.1,0.6c0,0.3,0.1,0.5,0.1,0.5c0,0.6-0.2,0.9-0.6,1.2c-0.2,0.1-0.5,0.2-0.7,0.2
		c-0.4,0-0.8-0.1-1-0.4c-0.2-0.3-0.4-0.6-0.4-1c0-0.7,0.4-1.4,1.3-2.2c0.9-0.8,2.1-1.1,3.8-1.1c1.9,0,3.2,0.6,3.9,1.9
		c0.4,0.7,0.6,1.7,0.6,3v6c0,0.6,0,1,0.1,1.2c0.1,0.4,0.4,0.6,0.8,0.6c0.2,0,0.4,0,0.6-0.1c0.1-0.1,0.4-0.2,0.8-0.5v0.8
		c-0.3,0.4-0.7,0.7-1,1c-0.6,0.4-1.1,0.6-1.7,0.6c-0.7,0-1.2-0.2-1.5-0.7c-0.3-0.4-0.5-1-0.5-1.6c-0.8,0.7-1.4,1.1-1.9,1.5
		c-0.9,0.5-1.8,0.8-2.6,0.8c-0.9,0-1.6-0.3-2.2-0.9c-0.6-0.6-0.9-1.4-0.9-2.3C166,54,166.7,52.8,168.1,51.9z M173.6,50.2
		c-1.1,0.4-2.1,0.8-2.8,1.3c-1.4,0.9-2.2,1.9-2.2,3c0,0.9,0.3,1.6,0.9,2c0.4,0.3,0.8,0.4,1.3,0.4c0.7,0,1.3-0.2,1.9-0.6
		c0.6-0.4,0.9-0.8,0.9-1.4V50.2z"/>
	<path class="ja12d01c" d="M181.8,58c0.9-0.1,1.5-0.2,1.8-0.5c0.3-0.2,0.4-0.8,0.4-1.6v-6.7c0-1-0.1-1.7-0.3-2.1c-0.2-0.4-0.5-0.6-1-0.6
		c-0.1,0-0.2,0-0.4,0c-0.2,0-0.3,0.1-0.5,0.1v-0.5c0.6-0.2,1.1-0.4,1.7-0.6s1-0.4,1.2-0.4c0.5-0.2,1-0.4,1.5-0.6
		c0.1,0,0.1,0,0.1,0.1c0,0,0,0.2,0,0.3v2.5c0.6-0.9,1.3-1.6,1.8-2.1c0.6-0.5,1.2-0.7,1.9-0.7c0.5,0,0.9,0.2,1.2,0.5
		c0.3,0.3,0.5,0.7,0.5,1.1c0,0.4-0.1,0.8-0.4,1c-0.2,0.3-0.6,0.4-0.9,0.4c-0.4,0-0.8-0.2-1.1-0.5c-0.4-0.3-0.7-0.5-0.9-0.5
		c-0.3,0-0.8,0.3-1.3,0.8c-0.5,0.6-0.8,1.1-0.8,1.7v6.7c0,0.9,0.2,1.5,0.6,1.8c0.4,0.3,1.1,0.5,2,0.5v0.5h-7.4V58z"/>
	<path class="ja12d01c" d="M197,53.8h0.5c0.2,1.1,0.5,2,0.9,2.6c0.7,1.1,1.7,1.7,3.1,1.7c0.7,0,1.3-0.2,1.8-0.6c0.4-0.4,0.6-0.9,0.6-1.6
		c0-0.4-0.1-0.8-0.4-1.2c-0.2-0.4-0.7-0.8-1.3-1.1l-1.7-1c-1.2-0.7-2.1-1.3-2.7-2c-0.6-0.7-0.9-1.5-0.9-2.4c0-1.1,0.4-2,1.2-2.7
		s1.8-1.1,3-1.1c0.5,0,1.1,0.1,1.7,0.3c0.6,0.2,1,0.3,1.1,0.3c0.2,0,0.3,0,0.4-0.1c0.1,0,0.1-0.1,0.2-0.2h0.4l0.1,4.2h-0.5
		c-0.2-1-0.5-1.7-0.8-2.3c-0.6-1-1.5-1.5-2.7-1.5c-0.7,0-1.2,0.2-1.6,0.6c-0.4,0.4-0.6,0.9-0.6,1.5c0,0.9,0.7,1.7,2.1,2.5l2,1.1
		c2.1,1.2,3.2,2.5,3.2,4c0,1.2-0.4,2.1-1.3,2.9c-0.9,0.7-2,1.1-3.5,1.1c-0.6,0-1.3-0.1-2-0.3c-0.8-0.2-1.2-0.3-1.3-0.3
		c-0.1,0-0.2,0-0.3,0.1c-0.1,0.1-0.2,0.2-0.2,0.3H197V53.8z"/>
	<path class="ja12d01c" d="M211,58c0.8-0.1,1.4-0.3,1.6-0.6c0.3-0.3,0.4-1,0.4-2.1V41c0-0.6-0.1-1-0.2-1.2c-0.1-0.3-0.5-0.4-1.1-0.4
		c-0.1,0-0.2,0-0.3,0c-0.1,0-0.2,0-0.4,0.1v-0.5c0.4-0.1,1-0.3,1.6-0.5c0.6-0.2,1.1-0.3,1.3-0.4l1.4-0.4l0,0.1v9.2
		c0.6-0.7,1.2-1.2,1.7-1.6c0.9-0.6,1.8-0.9,2.8-0.9c1.6,0,2.7,0.7,3.3,2c0.3,0.7,0.5,1.7,0.5,2.8v6.1c0,1.1,0.1,1.7,0.4,2.1
		c0.2,0.3,0.7,0.5,1.5,0.6v0.4h-6.5V58c0.9-0.1,1.4-0.3,1.7-0.6c0.2-0.3,0.4-1,0.4-2.1v-6.1c0-1-0.2-1.7-0.5-2.3
		c-0.3-0.6-0.9-0.9-1.8-0.9c-0.8,0-1.5,0.3-2.3,0.8c-0.7,0.6-1.1,0.9-1.1,1.1v7.4c0,1.1,0.1,1.8,0.4,2.1c0.3,0.3,0.8,0.5,1.7,0.6
		v0.4H211V58z"/>
	<path class="ja12d01c" d="M231.5,51.9c0.9-0.6,2.7-1.4,5.5-2.4v-1.3c0-1-0.1-1.7-0.3-2.1c-0.3-0.7-1-1-2.1-1c-0.5,0-1,0.1-1.4,0.4
		c-0.5,0.3-0.7,0.6-0.7,1.1c0,0.1,0,0.3,0.1,0.6c0,0.3,0.1,0.5,0.1,0.5c0,0.6-0.2,0.9-0.6,1.2c-0.2,0.1-0.5,0.2-0.7,0.2
		c-0.4,0-0.8-0.1-1-0.4c-0.2-0.3-0.4-0.6-0.4-1c0-0.7,0.4-1.4,1.3-2.2c0.9-0.8,2.1-1.1,3.8-1.1c1.9,0,3.2,0.6,3.9,1.9
		c0.4,0.7,0.6,1.7,0.6,3v6c0,0.6,0,1,0.1,1.2c0.1,0.4,0.4,0.6,0.8,0.6c0.2,0,0.4,0,0.6-0.1s0.4-0.2,0.8-0.5v0.8
		c-0.3,0.4-0.7,0.7-1,1c-0.6,0.4-1.1,0.6-1.7,0.6c-0.7,0-1.2-0.2-1.5-0.7c-0.3-0.4-0.5-1-0.5-1.6c-0.8,0.7-1.4,1.1-1.9,1.5
		c-0.9,0.5-1.8,0.8-2.6,0.8c-0.9,0-1.6-0.3-2.2-0.9c-0.6-0.6-0.9-1.4-0.9-2.3C229.3,54,230.1,52.8,231.5,51.9z M237,50.2
		c-1.1,0.4-2.1,0.8-2.8,1.3c-1.4,0.9-2.2,1.9-2.2,3c0,0.9,0.3,1.6,0.9,2c0.4,0.3,0.8,0.4,1.3,0.4c0.7,0,1.3-0.2,1.9-0.6
		c0.6-0.4,0.9-0.8,0.9-1.4V50.2z"/>
	<path class="ja12d01c" d="M244.9,58c0.9-0.1,1.6-0.3,1.9-0.6c0.3-0.3,0.5-0.8,0.5-1.7V41.2c0-0.7-0.1-1.1-0.2-1.4
		c-0.2-0.4-0.6-0.6-1.2-0.6c-0.1,0-0.3,0-0.5,0c-0.2,0-0.4,0.1-0.6,0.1v-0.5c1.3-0.4,3-0.8,4.9-1.4c0.1,0,0.1,0,0.1,0.1
		c0,0.1,0,0.2,0,0.4v17.9c0,0.9,0.1,1.4,0.4,1.7c0.3,0.3,0.9,0.4,1.9,0.5v0.4h-7.2V58z"/>
	<path class="ja12d01c" d="M255.1,58c0.9-0.1,1.6-0.3,1.9-0.6c0.3-0.3,0.5-0.8,0.5-1.7V41.2c0-0.7-0.1-1.1-0.2-1.4
		c-0.2-0.4-0.6-0.6-1.2-0.6c-0.1,0-0.3,0-0.5,0c-0.2,0-0.4,0.1-0.6,0.1v-0.5c1.3-0.4,3-0.8,4.9-1.4c0.1,0,0.1,0,0.1,0.1
		c0,0.1,0,0.2,0,0.4v17.9c0,0.9,0.1,1.4,0.4,1.7c0.3,0.3,0.9,0.4,1.9,0.5v0.4h-7.2V58z"/>
	<path class="ja12d01c" d="M273.2,57.9c1.2-0.1,2.1-0.3,2.4-0.6c0.4-0.3,0.6-1,0.6-2.2V41.5c0-1.1-0.2-1.8-0.6-2.2
		c-0.4-0.3-1.2-0.5-2.4-0.6v-0.6h9.1v0.6c-1.2,0.1-2.1,0.3-2.4,0.6c-0.4,0.3-0.6,1-0.6,2.2v13.6c0,1.2,0.2,1.9,0.6,2.2
		c0.4,0.3,1.2,0.5,2.4,0.6v0.6h-9.1V57.9z"/>
	<path class="ja12d01c" d="M286.4,53.8h0.5c0.2,1.1,0.5,2,0.9,2.6c0.7,1.1,1.7,1.7,3.1,1.7c0.7,0,1.3-0.2,1.8-0.6
		c0.4-0.4,0.6-0.9,0.6-1.6c0-0.4-0.1-0.8-0.4-1.2s-0.7-0.8-1.3-1.1l-1.7-1c-1.2-0.7-2.1-1.3-2.7-2c-0.6-0.7-0.9-1.5-0.9-2.4
		c0-1.1,0.4-2,1.2-2.7c0.8-0.7,1.8-1.1,3-1.1c0.5,0,1.1,0.1,1.7,0.3s1,0.3,1.1,0.3c0.2,0,0.3,0,0.4-0.1c0.1,0,0.1-0.1,0.2-0.2h0.4
		l0.1,4.2H294c-0.2-1-0.5-1.7-0.8-2.3c-0.6-1-1.5-1.5-2.7-1.5c-0.7,0-1.2,0.2-1.6,0.6c-0.4,0.4-0.6,0.9-0.6,1.5
		c0,0.9,0.7,1.7,2.1,2.5l2,1.1c2.1,1.2,3.2,2.5,3.2,4c0,1.2-0.4,2.1-1.3,2.9c-0.9,0.7-2,1.1-3.5,1.1c-0.6,0-1.3-0.1-2-0.3
		c-0.8-0.2-1.2-0.3-1.3-0.3c-0.1,0-0.2,0-0.3,0.1c-0.1,0.1-0.2,0.2-0.2,0.3h-0.4V53.8z"/>
	<path class="ja12d01c" d="M299.3,58c0.9-0.1,1.6-0.3,1.9-0.6c0.3-0.3,0.5-0.8,0.5-1.7V41.2c0-0.7-0.1-1.1-0.2-1.4
		c-0.2-0.4-0.6-0.6-1.2-0.6c-0.1,0-0.3,0-0.5,0c-0.2,0-0.4,0.1-0.6,0.1v-0.5c1.3-0.4,3-0.8,4.9-1.4c0.1,0,0.1,0,0.1,0.1
		c0,0.1,0,0.2,0,0.4v17.9c0,0.9,0.1,1.4,0.4,1.7c0.3,0.3,0.9,0.4,1.9,0.5v0.4h-7.2V58z"/>
	<path class="ja12d01c" d="M313.2,51.9c0.9-0.6,2.7-1.4,5.5-2.4v-1.3c0-1-0.1-1.7-0.3-2.1c-0.3-0.7-1-1-2.1-1c-0.5,0-1,0.1-1.4,0.4
		c-0.5,0.3-0.7,0.6-0.7,1.1c0,0.1,0,0.3,0.1,0.6c0,0.3,0.1,0.5,0.1,0.5c0,0.6-0.2,0.9-0.6,1.2c-0.2,0.1-0.5,0.2-0.7,0.2
		c-0.4,0-0.8-0.1-1-0.4c-0.2-0.3-0.4-0.6-0.4-1c0-0.7,0.4-1.4,1.3-2.2c0.9-0.8,2.1-1.1,3.8-1.1c1.9,0,3.2,0.6,3.9,1.9
		c0.4,0.7,0.6,1.7,0.6,3v6c0,0.6,0,1,0.1,1.2c0.1,0.4,0.4,0.6,0.8,0.6c0.2,0,0.4,0,0.6-0.1c0.1-0.1,0.4-0.2,0.8-0.5v0.8
		c-0.3,0.4-0.7,0.7-1,1c-0.6,0.4-1.1,0.6-1.7,0.6c-0.7,0-1.2-0.2-1.5-0.7c-0.3-0.4-0.5-1-0.5-1.6c-0.8,0.7-1.4,1.1-1.9,1.5
		c-0.9,0.5-1.8,0.8-2.6,0.8c-0.9,0-1.6-0.3-2.2-0.9c-0.6-0.6-0.9-1.4-0.9-2.3C311,54,311.7,52.8,313.2,51.9z M318.6,50.2
		c-1.1,0.4-2.1,0.8-2.8,1.3c-1.4,0.9-2.2,1.9-2.2,3c0,0.9,0.3,1.6,0.9,2c0.4,0.3,0.8,0.4,1.3,0.4c0.7,0,1.3-0.2,1.9-0.6
		c0.6-0.4,0.9-0.8,0.9-1.4V50.2z"/>
	<path class="ja12d01c" d="M327.4,58c0.7-0.1,1.2-0.3,1.5-0.5c0.3-0.3,0.4-0.9,0.4-1.8v-7.6c0-0.6-0.1-1.1-0.2-1.3
		c-0.2-0.4-0.6-0.6-1.2-0.6c-0.1,0-0.2,0-0.3,0c-0.1,0-0.2,0-0.4,0v-0.5c0.4-0.1,1.4-0.4,2.9-0.9l1.4-0.5c0.1,0,0.1,0,0.1,0.1
		c0,0,0,0.1,0,0.2v2.2c0.9-0.9,1.6-1.4,2.1-1.8c0.8-0.5,1.6-0.7,2.4-0.7c0.7,0,1.3,0.2,1.8,0.6c1.1,0.8,1.6,2.1,1.6,4v7
		c0,0.7,0.1,1.2,0.4,1.6c0.3,0.3,0.8,0.5,1.4,0.5v0.4h-6.4V58c0.7-0.1,1.2-0.3,1.5-0.6c0.3-0.3,0.4-1,0.4-2v-6.4
		c0-0.9-0.2-1.6-0.5-2.1c-0.3-0.6-0.9-0.8-1.8-0.8c-0.6,0-1.2,0.2-1.8,0.6c-0.3,0.2-0.8,0.6-1.3,1.1v8.4c0,0.7,0.2,1.2,0.5,1.4
		c0.3,0.2,0.8,0.4,1.5,0.4v0.4h-6.5V58z"/>
	<path class="ja12d01c" d="M354.6,44.8c0.4,0.2,0.8,0.5,1.2,0.9v-4.8c0-0.6-0.1-1-0.2-1.3c-0.1-0.2-0.5-0.3-1-0.3c-0.1,0-0.2,0-0.3,0
		c-0.1,0-0.3,0-0.6,0.1v-0.5l1.2-0.3c0.4-0.1,0.9-0.2,1.3-0.4c0.4-0.1,0.8-0.3,1.2-0.4c0.2,0,0.4-0.1,0.8-0.3l0.1,0l0,1.6
		c0,0.6,0,1.2,0,1.8c0,0.6,0,1.2,0,1.8l0,12.2c0,0.6,0.1,1.1,0.2,1.4c0.2,0.3,0.6,0.4,1.3,0.4c0.1,0,0.2,0,0.3,0c0.1,0,0.2,0,0.3,0
		v0.5c-0.1,0-0.8,0.3-2.2,0.7l-2.3,0.9l-0.1-0.1v-1.8c-0.6,0.6-1,1-1.4,1.3c-0.7,0.4-1.6,0.7-2.5,0.7c-1.7,0-3.1-0.7-4.1-2
		c-1.1-1.3-1.6-2.8-1.6-4.5c0-2.2,0.6-4,1.9-5.6c1.3-1.5,2.8-2.3,4.6-2.3C353.3,44.3,354,44.5,354.6,44.8z M355,56.4
		c0.5-0.5,0.7-0.9,0.7-1.3v-6.4c0-1.3-0.3-2.2-1-2.7c-0.7-0.5-1.4-0.8-2-0.8c-1.3,0-2.2,0.6-2.9,1.7c-0.7,1.1-1,2.5-1,4.1
		c0,1.6,0.4,3,1.1,4.3c0.7,1.3,1.9,1.9,3.3,1.9C353.9,57.1,354.5,56.9,355,56.4z"/>
	<path class="ja12d01c" d="M365.3,53.8h0.5c0.2,1.1,0.5,2,0.9,2.6c0.7,1.1,1.7,1.7,3.1,1.7c0.7,0,1.3-0.2,1.8-0.6
		c0.4-0.4,0.6-0.9,0.6-1.6c0-0.4-0.1-0.8-0.4-1.2s-0.7-0.8-1.3-1.1l-1.7-1c-1.2-0.7-2.1-1.3-2.7-2c-0.6-0.7-0.9-1.5-0.9-2.4
		c0-1.1,0.4-2,1.2-2.7c0.8-0.7,1.8-1.1,3-1.1c0.5,0,1.1,0.1,1.7,0.3s1,0.3,1.1,0.3c0.2,0,0.3,0,0.4-0.1c0.1,0,0.1-0.1,0.2-0.2h0.4
		l0.1,4.2h-0.5c-0.2-1-0.5-1.7-0.8-2.3c-0.6-1-1.5-1.5-2.7-1.5c-0.7,0-1.2,0.2-1.6,0.6c-0.4,0.4-0.6,0.9-0.6,1.5
		c0,0.9,0.7,1.7,2.1,2.5l2,1.1c2.1,1.2,3.2,2.5,3.2,4c0,1.2-0.4,2.1-1.3,2.9c-0.9,0.7-2,1.1-3.5,1.1c-0.6,0-1.3-0.1-2-0.3
		c-0.8-0.2-1.2-0.3-1.3-0.3c-0.1,0-0.2,0-0.3,0.1c-0.1,0.1-0.2,0.2-0.2,0.3h-0.4V53.8z"/>
</g>
</svg>
