<?xml version="1.0" encoding="utf-8"?>
<!-- Generator: Adobe Illustrator 25.4.1, SVG Export Plug-In . SVG Version: 6.00 Build 0)  -->
<svg version="1.1" id="Layer_1" xmlns="http://www.w3.org/2000/svg" xmlns:xlink="http://www.w3.org/1999/xlink" x="0px" y="0px"
	 viewBox="0 0 120.55 80.27" style="enable-background:new 0 0 120.55 80.27;" xml:space="preserve">
<style type="text/css">
	.r5674c51{fill:#12470D;}
	.ra023f7e{fill:#13480E;}
</style>
<g>
	<g id="_x23_12470dff">
		<path id="path3019" class="r5674c51" d="M41.77,1.89c5.51-0.86,11.08-1.24,16.64-1.42C59.7,0.26,61,0.3,62.29,0.28
			c2.65,0.03,5.32-0.11,7.96,0.19c16.88,0.5,33.76,2.28,50.29,5.8c-2.6-0.06-5.19-0.37-7.78-0.44c-11.25-0.52-22.57,0.08-33.67,2.02
			c-1.54,0.25-3.04,0.72-4.54,1.13c-4.23,1.22-8.45,2.58-12.38,4.58c-1.93,1.03-3.89,2.19-5.23,3.95c-0.4,0.57-0.91,1.26-0.67,1.99
			c0.34,0.81,1.21,1.18,1.98,1.48c2.42,0.84,4.99,1.05,7.52,1.29c8,0.8,15.99,1.64,23.98,2.59c5.53,0.69,11.08,1.34,16.56,2.41
			c1.22,0.29,2.52,0.44,3.59,1.15c-2.8,0.49-5.64,0.7-8.47,1.04c-12.74,1.35-25.52,2.28-38.31,3.12c-1.23,0.13-2.53,0.3-3.6,0.98
			c-0.74,0.46-1.18,1.46-0.81,2.3c0.35,0.77,1.08,1.28,1.8,1.67c1.81,0.96,3.81,1.45,5.8,1.91c4.2,0.9,8.47,1.4,12.74,1.81
			c5.66,0.54,11.34,0.84,17.01,1.11c-0.56,0.61-1.39,0.84-2.16,1.09c-2.29,0.67-4.66,0.99-7.02,1.32
			c-6.6,0.82-13.25,1.24-19.89,1.61c-4.84,0.11-9.68,0.12-14.51-0.24c-3.4-0.28-6.83-0.67-10.09-1.73c-1.51-0.52-3.05-1.2-4.16-2.39
			c-0.74-0.8-1.13-1.91-0.99-3c0.19-1.54,1.04-2.9,1.97-4.11c1-1.26,2.48-1.97,3.92-2.59c-11.25-0.38-22.5-0.7-33.71-1.75
			c-2.32-0.23-4.65-0.49-6.93-0.98C1.6,29.38,0.58,29.21,0,28.42c1.02-0.89,2.38-1.18,3.66-1.51c2.96-0.69,5.97-1.14,8.98-1.58
			c6.61-0.93,13.25-1.62,19.89-2.31c-3.51-1.41-7.07-2.8-10.28-4.83c-1.46-0.95-2.92-2.01-3.87-3.49c-0.65-0.97-0.83-2.28-0.3-3.35
			c0.62-1.3,1.81-2.19,3-2.95c2.35-1.43,4.95-2.39,7.56-3.25C32.93,3.79,37.34,2.77,41.77,1.89z"/>
		<path id="path3021" class="r5674c51" d="M70.83,55.81c0.76,0,1.51-0.01,2.27,0.02c0.1,2.78,0.03,5.56,0.03,8.34
			c-0.78,0.04-1.56,0.04-2.33,0.01C70.77,61.39,70.71,58.6,70.83,55.81z"/>
		<path id="path3023" class="r5674c51" d="M38.46,55.98c0.78-0.16,1.59-0.14,2.37-0.01c0.15,1.42,0.03,2.86,0.07,4.29
			c-0.04,1.36,0.09,2.72-0.08,4.07c-0.78,0.12-1.6,0.17-2.37-0.03C38.4,61.53,38.39,58.75,38.46,55.98z"/>
		<path id="path3025" class="r5674c51" d="M42.61,55.89c1.58-0.05,3.17-0.06,4.75,0c0.31,0.23,0.09,0.72,0.16,1.06
			c-1.62,0.14-3.26,0.04-4.88,0.05C42.62,56.63,42.61,56.26,42.61,55.89z"/>
		<path id="path3027" class="r5674c51" d="M67.31,56c0.77-0.09,1.56-0.09,2.33-0.02c0.08,2.38,0.01,4.77,0.04,7.15
			c0.07,0.65-0.34,1.4-1.06,1.38c-3.54,0.05-7.08,0-10.62,0.02c-0.26,0.04-0.67-0.03-0.79,0.28c-0.12,0.6-0.02,1.23-0.2,1.83
			c-0.76,0.04-1.54,0.06-2.3-0.04c-0.08-0.65-0.04-1.3-0.08-1.95c-0.75-0.19-1.89,0.09-2.22-0.83c-0.2-1.24-0.04-2.52-0.09-3.77
			c-0.07-0.63,0.29-1.38,0.99-1.4c1.26-0.06,2.54-0.11,3.8,0.06c0.17,1.43-0.1,2.89,0.17,4.32c1.26,0.09,2.52,0.02,3.79,0.04
			c0.7-0.02,1.41,0.08,2.09-0.12c0.02-0.96,0.07-1.93-0.05-2.88c-1.32-0.16-2.66,0.02-3.98-0.12c-0.08-0.45-0.13-0.93,0.07-1.35
			c1.71,0.02,3.42-0.03,5.14,0.02c0.57-0.01,1.06,0.46,1.07,1.03c0.07,1.06,0,2.13,0.05,3.19c0.56,0.24,1.18,0.15,1.77,0.11
			C67.35,60.62,67.26,58.31,67.31,56z"/>
		<path id="path3029" class="r5674c51" d="M75.44,55.99c0.77-0.09,1.56-0.08,2.33-0.01c0.03,0.86-0.03,1.72,0.08,2.57
			c1.49,0.09,2.97-0.04,4.46,0.05c0.63,0.03,1.12,0.61,1.07,1.23c0,1.16,0.03,2.33-0.02,3.49c0,0.65-0.6,1.15-1.24,1.1
			c-2.45,0.01-4.91,0.02-7.36-0.01c-0.39-0.43-0.69-0.94-0.85-1.5c0.48-0.17,0.98-0.17,1.48-0.22
			C75.49,60.46,75.39,58.22,75.44,55.99 M77.8,59.88c-0.09,0.98-0.11,1.98,0.01,2.95c1.08,0.04,2.17,0.05,3.26,0
			c0.13-0.97,0.1-1.97,0.01-2.94C79.99,59.78,78.89,59.79,77.8,59.88z"/>
		<path id="path3031" class="r5674c51" d="M91.04,55.95c0.77-0.02,1.55-0.04,2.32,0.03c0.04,0.85,0,1.71,0.06,2.56
			c1.47,0.11,2.94-0.01,4.41,0.06c0.52,0,1.04,0.38,1.1,0.92c0.11,1.1-0.07,2.22,0.11,3.32c2.04,0.03,4.08,0.07,6.12,0
			c0.15-0.97,0.12-1.97,0.01-2.95c-1.26-0.17-2.53,0.01-3.79-0.11c-0.45-0.24-0.18-0.89-0.2-1.3c1.74-0.09,3.5-0.04,5.24-0.04
			c0.49-0.03,0.93,0.32,1.03,0.8c0.18,1.17-0.08,2.36,0.17,3.52c0.59,0.03,1.2,0.09,1.78-0.08c0.05-2.25-0.03-4.51,0.04-6.76
			c0.77-0.02,1.55-0.03,2.32,0c0.05,2.32,0.01,4.65,0.02,6.98c0.05,0.58-0.25,1.3-0.9,1.36c-1.14,0.09-2.29,0.01-3.44,0.04
			c-5.31-0.02-10.62,0.04-15.93,0.04c-0.78,0-1.57-0.04-2.34,0.08c-0.07,0.65-0.06,1.3-0.13,1.94c-0.78,0.12-1.59,0.15-2.36-0.01
			c-0.04-0.65-0.04-1.3-0.15-1.95c-0.67-0.15-1.63,0.02-1.95-0.76c-0.25-0.98-0.06-2.01-0.12-3.01c0.03-0.73-0.19-1.75,0.61-2.15
			c0.75-0.28,1.57-0.11,2.36-0.16c0.64-0.02,1.53,0,1.78,0.74c0.26,1.27-0.01,2.6,0.22,3.88c0.49,0.01,0.99,0.01,1.48-0.01
			C91.17,60.64,90.9,58.28,91.04,55.95 M93.41,59.91c-0.04,0.97-0.07,1.94,0.02,2.91c1.08,0.03,2.19,0.13,3.26-0.04
			c0.19-0.94,0.06-1.92,0.05-2.87C95.64,59.76,94.51,59.77,93.41,59.91z"/>
		<path id="path3033" class="r5674c51" d="M104.53,55.98c0.81-0.07,1.63-0.08,2.45,0.02c-0.01,0.36-0.02,0.71-0.03,1.07
			c-0.79,0.03-1.58,0.02-2.37,0.01C104.53,56.72,104.52,56.35,104.53,55.98z"/>
		<path id="path3035" class="r5674c51" d="M112.92,55.91c0.78-0.04,1.56-0.04,2.33,0c0.03,2.73,0.04,5.46-0.01,8.19
			c-0.77,0.02-1.54,0.02-2.31,0C112.88,61.36,112.9,58.64,112.92,55.91z"/>
		<path id="path3037" class="r5674c51" d="M22.28,56.2c0.78-0.11,1.58-0.15,2.36,0.02c0.08,2.77,0.07,5.56,0.01,8.33
			c-0.78,0.17-1.59,0.14-2.38,0.02c-0.13-1.84-0.03-3.7-0.06-5.54C22.22,58.08,22.14,57.13,22.28,56.2z"/>
		<path id="path3039" class="r5674c51" d="M35.26,56.12c0.78-0.03,1.56-0.04,2.33,0.01c0.02,2.4,0.02,4.79,0,7.19
			c0.03,0.61-0.4,1.23-1.04,1.24c-2.88,0.12-5.77-0.1-8.64,0.11c-0.06,0.78-0.03,1.57-0.07,2.36c-0.76,0.02-1.52,0.07-2.27-0.07
			c-0.18-1.75-0.04-3.52-0.08-5.28c0.01-0.99-0.05-1.98,0.06-2.96c0.75,0.07,1.64-0.2,2.29,0.14c0.07,1.42,0,2.84,0.03,4.25
			c0.77,0.09,1.56,0.11,2.33-0.03c0.08-0.45,0.15-0.92,0.03-1.37c-0.28-0.34-0.76-0.38-1.13-0.56c-0.04-0.8-0.07-1.6,0.04-2.4
			c1.53-0.15,3.09-0.11,4.63-0.03c0.05,0.05,0.15,0.15,0.2,0.19c0.09,0.74,0.03,1.49,0.01,2.24c-0.34,0.14-0.71,0.23-1.03,0.43
			c-0.32,0.42-0.13,1-0.06,1.48c0.76,0.13,1.55,0.11,2.31,0.01C35.26,60.76,35.19,58.44,35.26,56.12z"/>
		<path id="path3041" class="r5674c51" d="M6.29,56.44c1.62,0,3.24-0.04,4.85,0.02c0.01,0.36,0.01,0.71,0.01,1.07
			c-1.63,0.07-3.25,0.03-4.88,0.02C6.25,57.18,6.26,56.8,6.29,56.44z"/>
		<path id="path3043" class="r5674c51" d="M16.22,58.86c-0.06-0.61,0.63-0.84,1.12-0.82c1.19,0,2.38-0.08,3.56,0.07
			c0.12,1.66,0.02,3.34,0.06,5.01c-0.02,0.49,0.07,1.07-0.31,1.45c-0.36,0.41-0.96,0.37-1.45,0.39c-3.89-0.01-7.78,0.01-11.67-0.01
			c-0.66,0.06-1.44-0.28-1.46-1.03c-0.06-1.3-0.03-2.59-0.02-3.89c-0.03-0.61,0.47-1.19,1.09-1.16c1.32-0.02,2.66-0.07,3.98,0.04
			c0.17,1.38-0.01,2.77,0.11,4.16c0.41,0.01,0.81,0.01,1.22,0c0.1-1.38-0.05-2.78,0.09-4.16c0.76-0.1,1.54-0.12,2.31-0.04
			c0.38,0.01,0.3,0.5,0.32,0.75c0.01,1.14-0.02,2.29,0.01,3.44c1.13,0.04,2.27,0.04,3.41,0c0.02-0.44,0.02-0.88,0-1.31
			c-0.76-0.06-1.74,0.21-2.3-0.45C16.13,60.51,16.23,59.67,16.22,58.86z"/>
		<path id="path3045" class="r5674c51" d="M42.84,58.97c0.25-0.44,0.8-0.53,1.26-0.52c0.81,0,1.62-0.03,2.43,0.03
			c0.47,0.03,0.89,0.39,0.97,0.86c0.17,1.23-0.11,2.49,0.18,3.7c0.41,0.03,0.83,0.02,1.24-0.01c0.27-1.49,0.02-3.01,0.19-4.51
			c0.77-0.12,1.55-0.09,2.32-0.03c0.22,1.53,0.05,3.1,0.1,4.65c0.08,0.66-0.36,1.42-1.09,1.39c-2.18,0.03-4.36,0.01-6.54,0.01
			c-0.53,0.03-1.09-0.27-1.18-0.83c-0.15-0.93-0.03-1.88-0.07-2.82C42.68,60.23,42.55,59.55,42.84,58.97z"/>
		<path id="path3047" class="r5674c51" d="M46.54,65.64c1.61,0,3.22-0.03,4.83,0.02c0.01,0.35,0.02,0.71,0.02,1.07
			c-1.63,0.07-3.26,0.03-4.89,0.02C46.49,66.38,46.5,66.01,46.54,65.64z"/>
		<path id="path3049" class="r5674c51" d="M20.52,69.57c0.75-0.08,1.51-0.07,2.26-0.02c0.25,0.9,0.09,1.84,0.13,2.75
			c-0.03,1.84,0.07,3.69-0.06,5.53c-0.78,0.13-1.6,0.15-2.38-0.01c-0.09-1.84-0.02-3.68-0.04-5.52
			C20.45,71.39,20.37,70.47,20.52,69.57z"/>
		<path id="path3051" class="r5674c51" d="M44.15,70.32c0.81-0.05,1.62-0.05,2.43-0.01c0.01,0.36,0,0.73-0.03,1.09
			c-0.79,0.02-1.58,0.03-2.38,0C44.16,71.03,44.16,70.68,44.15,70.32z"/>
		<path id="path3053" class="r5674c51" d="M59.92,70.32c0.81-0.06,1.62-0.04,2.43-0.02c0.02,0.37,0.01,0.74-0.03,1.11
			c-0.79,0.01-1.59,0.02-2.38-0.02C59.93,71.03,59.92,70.67,59.92,70.32z"/>
		<path id="path3055" class="r5674c51" d="M23.94,71.89c0.59-0.09,1.2-0.03,1.8-0.05c0.19,0.21,0.38,0.41,0.58,0.62
			c0.15-0.21,0.29-0.41,0.44-0.62c2.59,0.02,5.17-0.01,7.76,0.01c0.3-0.04,0.66,0.11,0.59,0.48c0,1.83,0.05,3.67-0.03,5.5
			c-1.06,0.16-2.14,0.05-3.21,0.08c-1.22-0.03-2.45,0.07-3.67-0.06c-0.11-1.22-0.05-2.45-0.04-3.67c1.59-0.04,3.18,0.04,4.77-0.06
			c-0.02-0.23-0.04-0.46-0.07-0.69c-1.82,0-3.65-0.02-5.47,0.01c-0.55-0.01-1.11,0.39-1.14,0.96c-0.08,1.15,0.04,2.31-0.07,3.46
			c-0.79,0.08-1.62,0.16-2.4-0.05c-0.06-1.88-0.06-3.76-0.01-5.64C23.8,72.1,23.89,71.96,23.94,71.89 M30.47,75.44
			c-0.01,0.29-0.01,0.59,0,0.89c0.75,0.08,1.5,0.06,2.24,0.02c0.04-0.31,0.03-0.62-0.01-0.93C31.96,75.33,31.21,75.31,30.47,75.44z"
			/>
		<path id="path3057" class="r5674c51" d="M36.35,71.92c2.24-0.13,4.49-0.11,6.72-0.01c0.15,1.69,0.04,3.4,0.07,5.09
			c-0.04,1.09,0.12,2.2-0.15,3.27h-2.25c-0.07-0.78-0.06-1.57-0.18-2.35c-1.41-0.07-2.81,0.03-4.22-0.07
			C36.26,75.87,36.23,73.89,36.35,71.92 M38.46,73.33c-0.05,0.98-0.08,1.97,0.02,2.95c0.72,0.04,1.44,0.03,2.16,0.01
			c0.21-0.98,0.09-2,0.04-2.99C39.94,73.25,39.19,73.22,38.46,73.33z"/>
		<path id="path3059" class="r5674c51" d="M44.35,71.88c0.73-0.09,1.46-0.07,2.19,0.04c0.15,0.87,0.07,1.75,0.09,2.62
			c-0.02,1.09,0.06,2.19-0.06,3.28c-0.79,0.11-1.6,0.15-2.38-0.02c-0.09-1.63-0.02-3.27-0.05-4.9
			C44.17,72.56,44.04,72.13,44.35,71.88z"/>
		<path id="path3061" class="r5674c51" d="M52.09,71.92c1.22-0.16,2.45-0.04,3.67-0.08c1,0.03,2.01-0.09,3,0.09
			c0.12,1.96,0.14,3.93,0.03,5.9c-1.07,0.18-2.16,0.05-3.23,0.08c-1.21-0.04-2.43,0.07-3.64-0.08c-0.11-1.22-0.07-2.44-0.04-3.66
			c1.59-0.06,3.18,0.03,4.77-0.06c-0.02-0.23-0.04-0.47-0.07-0.7c-1.51-0.03-3.03,0.05-4.54-0.04
			C51.98,72.89,51.97,72.4,52.09,71.92 M54.37,75.41c-0.35,0.16-0.16,0.61-0.2,0.9c0.76,0.08,1.54,0.12,2.3-0.02
			c0-0.27,0-0.54,0-0.81C55.79,75.31,55.07,75.3,54.37,75.41z"/>
		<path id="path3063" class="r5674c51" d="M59.9,72.91c0.05-0.35-0.14-0.98,0.37-1.03c0.7-0.06,1.43-0.12,2.1,0.12
			c0.05,1.91,0.02,3.83,0.02,5.74c-0.75,0.31-1.58,0.14-2.36,0.14C59.76,76.24,59.98,74.56,59.9,72.91z"/>
		<path id="path3065" class="r5674c51" d="M63.43,72c0.57-0.31,1.27-0.11,1.89-0.16c0.14,0.2,0.29,0.41,0.44,0.61
			c0.16-0.2,0.32-0.4,0.47-0.6c1.26,0.02,2.52-0.11,3.77,0.09c0.18,1.41,0,2.83,0.12,4.24c0.43,0.09,0.88,0.09,1.31,0
			c0.11-1.41-0.09-2.84,0.1-4.24c0.77-0.13,1.57-0.15,2.35,0.01c0.18,1.4,0.01,2.81,0.13,4.21c0.43,0.13,0.87,0.12,1.31,0.02
			c0.11-1.41-0.06-2.83,0.12-4.24c1.94-0.2,3.91-0.04,5.87-0.09c1.43,0.03,2.87-0.08,4.29,0.07c0.15,1.98,0.13,3.97,0.04,5.95
			c-1.44,0.12-2.89,0.02-4.34,0.05c-0.85-0.03-1.72,0.09-2.56-0.11c-0.04-1.21-0.02-2.41-0.01-3.62c1.6-0.08,3.19,0.06,4.79-0.08
			c-0.02-0.22-0.04-0.44-0.06-0.66c-1.84-0.02-3.67-0.06-5.51,0.03c-0.19,1.16,0.01,2.35-0.12,3.52c-0.08,0.58-0.64,0.98-1.21,0.93
			c-2.53,0.01-5.05,0-7.58,0c-0.55,0.03-1.21-0.17-1.37-0.76c-0.23-1.16,0.08-2.37-0.15-3.53c-0.47-0.31-1.13-0.17-1.64-0.01
			c-0.1,1.41,0.05,2.82-0.09,4.22c-0.79,0.1-1.6,0.15-2.38-0.03c-0.08-1.49-0.01-2.98-0.04-4.48C63.36,72.88,63.3,72.43,63.43,72
			 M81.06,75.41c-0.04,0.31-0.04,0.62-0.01,0.93c0.75,0.04,1.5,0.06,2.24-0.02c-0.01-0.28,0.07-0.58-0.04-0.85
			C82.55,75.23,81.78,75.38,81.06,75.41z"/>
		<path id="path3067" class="r5674c51" d="M86.87,71.94c0.77-0.15,1.57-0.14,2.35-0.01c0.2,1.44-0.02,2.9,0.14,4.35
			c0.65,0.03,1.3,0.03,1.95,0.02c0.22-1.42,0.01-2.87,0.12-4.31c0.78-0.24,1.64-0.22,2.43-0.01c0.07,1.41-0.01,2.82,0.05,4.23
			c1.76,0.16,3.54,0.06,5.31,0.08c0.01-0.31,0.01-0.63,0.01-0.94c-1.41-0.12-2.82-0.02-4.23-0.08c-0.15-1.11-0.13-2.24-0.01-3.35
			c2.11-0.16,4.23-0.05,6.34-0.04c0.01,0.49,0.01,0.98,0,1.48c-1.29,0.06-2.59-0.02-3.88,0.05c-0.01,0.22-0.01,0.45-0.01,0.67
			c1.3,0.05,2.6-0.02,3.89,0.04c0.02,0.89,0.06,1.79-0.01,2.69c-0.04,0.54-0.46,1.08-1.04,1.09c-2.07,0.08-4.14-0.07-6.2,0.06
			C93.6,78.47,94,79.35,93.76,80c-0.78,0.06-1.57,0.09-2.35-0.03c-0.13-0.66,0.16-1.44-0.23-2.01c-1.43-0.17-2.88,0.09-4.31-0.14
			C86.74,75.86,86.74,73.89,86.87,71.94z"/>
	</g>
	<g id="_x23_13480eff">
		<path id="path3070" class="ra023f7e" d="M16.19,56.21c1.63-0.12,3.27-0.07,4.89-0.03c0.02,0.37,0.01,0.75-0.04,1.12
			c-1.61,0-3.22,0.03-4.83-0.02C16.2,56.93,16.19,56.57,16.19,56.21z"/>
		<path id="path3072" class="ra023f7e" d="M63.14,65.6c0.81-0.09,1.63-0.09,2.43,0c0.01,0.36,0,0.72-0.03,1.08
			c-0.79,0.02-1.58,0.02-2.37,0C63.15,66.32,63.14,65.96,63.14,65.6z"/>
		<path id="path3074" class="ra023f7e" d="M11.03,66.01c1.62-0.09,3.26-0.09,4.88,0c0.01,0.36,0,0.73-0.01,1.09
			c-1.62,0.03-3.24,0.03-4.85,0C11.02,66.74,11.02,66.37,11.03,66.01z"/>
	</g>
	<g id="_x23_fefefeff">
	</g>
</g>
</svg>
