<?xml version="1.0" encoding="utf-8"?>
<!-- Generator: Adobe Illustrator 25.4.1, SVG Export Plug-In . SVG Version: 6.00 Build 0)  -->
<svg version="1.1" xmlns="http://www.w3.org/2000/svg" xmlns:xlink="http://www.w3.org/1999/xlink" x="0px" y="0px"
	 viewBox="0 0 241.2 80" style="enable-background:new 0 0 241.2 80;" xml:space="preserve">
<style type="text/css">
	.uf578072{fill:#E00A0A;}
</style>
<g id="Layer_1">
</g>
<g id="Layer_2">
	<g>
		<polygon class="uf578072" points="8.3,14.5 4.2,17.2 7.7,31.1 8.9,31.4 12.9,19.4 		"/>
		<polygon class="uf578072" points="21.8,25.8 21.8,20.4 16.4,20.4 11.9,32.7 13.4,33.9 		"/>
		<polygon class="uf578072" points="15.7,36.9 16.3,38 27.5,35.4 29.5,29.6 24.2,28.4 		"/>
		<polygon class="uf578072" points="32.6,41.8 28.6,38.3 16.9,41.1 16.9,42.1 28.7,45.7 		"/>
		<path class="uf578072" d="M15.7,46.6l9.6,9.8l4.8-2.1L28.3,49l-12-3.6C16.3,45.4,15.9,46.4,15.7,46.6z"/>
		<polygon class="uf578072" points="22.6,59 13.6,49.5 12.7,50.2 16.4,65.2 22.2,65.5 		"/>
		<polygon class="uf578072" points="22.1,69.1 17.4,69.1 19.4,76.9 25.1,74 		"/>
		<polygon class="uf578072" points="31.6,68.5 26.7,63.2 25.1,66.9 28.2,71.7 		"/>
		<polygon class="uf578072" points="36.8,61.4 32.6,58.2 28.6,59.9 34.1,65.5 		"/>
		<polygon class="uf578072" points="40.2,52.5 33.7,50.6 33.7,53.7 38.6,57.1 		"/>
		<polygon class="uf578072" points="41.2,44.6 36,44.2 33.4,47.1 41,49.5 		"/>
		<polygon class="uf578072" points="40.5,35.5 33.4,37.2 36.2,40 41.2,40 		"/>
		<polygon class="uf578072" points="32.6,30.8 32.3,33.9 39.6,32.2 38.2,28 		"/>
		<polygon class="uf578072" points="27.7,25 31.6,26.6 36.3,24.2 33.4,19.6 		"/>
		<polygon class="uf578072" points="25.4,17.9 25.4,22.4 31,17 28.4,14.5 		"/>
		<polygon class="uf578072" points="17.6,16.2 21.8,16.2 24.7,11.9 20.5,9.3 		"/>
		<polygon class="uf578072" points="16.9,7.8 11.5,6.2 10.9,10.8 14.5,14.8 		"/>
		<polygon class="uf578072" points="7.2,5.5 1.2,5.2 3.2,13.2 7.2,10 		"/>
		<path class="uf578072" d="M0,0l0.5,1.7c0,0,19.3-2,32.9,13.1c13.5,15.1,11.8,27.1,11.4,36c-0.4,8.9-10,22.7-22.6,29.1h64.9L36.8,15.9
			C36.8,15.9,25.8-0.8,0,0z"/>
		<path class="uf578072" d="M110.1,52.4h-1c-0.3,0-0.5,0.2-0.5,0.5v15.9c0,0.3,0.2,0.5,0.5,0.5h1c0.3,0,0.5-0.2,0.5-0.5V52.9
			C110.6,52.6,110.4,52.4,110.1,52.4z"/>
		<path class="uf578072" d="M105.3,52.4h-5.1h-1c-0.3,0-0.5,0.2-0.5,0.5v1V59v1v8.8c0,0.3,0.2,0.5,0.5,0.5h1c0.3,0,0.5-0.2,0.5-0.5v-8.3
			h4.7c0.3,0,0.5-0.2,0.5-0.5v-1c0-0.3-0.2-0.5-0.5-0.5h-4.7v-4.2h4.7c0.3,0,0.5-0.2,0.5-0.5v-1C105.7,52.6,105.5,52.4,105.3,52.4z"
			/>
		<path class="uf578072" d="M157.1,56.6c0-0.3-0.2-0.5-0.5-0.5h-1c-0.3,0-0.5,0.2-0.5,0.5v0.5c0,0-0.7-1.2-2.6-1.2
			c-1.9,0-4.1,1.9-4.1,6.2s1.8,6.1,3.7,6.1c1.3,0,2.4-0.9,3-1.5v1.9c0,1.6-0.4,3-2.1,3c-1.2,0-2-0.9-2.3-1.4c0-0.1-0.1-0.2-0.2-0.3
			c0,0,0,0,0,0l0,0c-0.2-0.2-0.5-0.4-0.8-0.4c-0.6,0-1.1,0.5-1.1,1.1c0,0.1,0,0.3,0.1,0.4l0,0c0,0,0,0,0,0c0,0.1,0.1,0.1,0.1,0.2
			c1.4,2.8,4.3,2.6,4.3,2.6c4.6,0,4.1-5.2,4.1-5.2V56.6z M152.8,66.4c-1.6,0-2.4-1.6-2.4-3.8c0-2.2,0.8-4.4,2.5-4.4
			c1.1,0,1.9,1,2.3,1.7v4.8C155.2,64.7,154.4,66.4,152.8,66.4z"/>
		<path class="uf578072" d="M145.2,60.1C145.2,60,145.2,60,145.2,60.1c0-0.7-0.3-2.3-1.6-3.4c-1.6-1.4-4.5-0.1-4.9,0.4c0,0,0,0,0,0
			c-0.3,0.2-0.4,0.5-0.4,0.8c0,0.5,0.4,0.9,0.9,0.9c0.2,0,0.4-0.1,0.6-0.2l0,0c0,0,0.6-0.5,1.8-0.5c1.2,0,1.7,1.1,1.7,2.2v1.3
			c-0.5-0.4-1.3-0.7-2.5-0.7c-2.9,0-3.8,2.7-3.8,4.5c0,1.7,1,4.1,3.3,4.1c2.3,0,3-1.7,3-1.7v1.1c0,0.3,0.2,0.5,0.5,0.5h1
			c0.3,0,0.5-0.2,0.5-0.5v-8.6c0,0,0,0,0-0.1V60.1z M141.1,67.1c-1.1,0-2.1-0.8-2.1-1.9c0-1,0.6-2.4,2.4-2.4c1.8,0,1.8,1.4,1.8,1.4
			v1C143.2,66.1,142.2,67.1,141.1,67.1z"/>
		<path class="uf578072" d="M180.9,52.4h-1c-0.3,0-0.5,0.2-0.5,0.5v5.2c0,0-0.8-2-2.9-2c-2.1,0-4.2,2.6-4.2,6.8c0,4.2,2.5,6.6,4.2,6.6
			c1.3,0,2.4-1.4,2.9-2.1v1.5c0,0.3,0.2,0.5,0.5,0.5h1c0.3,0,0.5-0.2,0.5-0.5V52.9C181.3,52.6,181.1,52.4,180.9,52.4z M176.8,67
			c-2.1,0-2.6-3.6-2.6-4.5c0-0.9,0.6-4.2,2.7-4.2c1.4,0,2.1,1.5,2.5,2.5v3.6C179.4,64.4,178.9,67,176.8,67z"/>
		<path class="uf578072" d="M121.5,56.3h-1c-0.3,0-0.5,0.2-0.5,0.5v6c0,0.7-0.2,2.9-2.1,2.9c-1.9,0-2.1-2.1-2.1-2.9v-6
			c0-0.3-0.2-0.5-0.5-0.5h-1c-0.3,0-0.5,0.2-0.5,0.5v6.1c0,0,0,0.1,0,0.1c0.2,2.7,1.9,3.9,3.1,4.4v5.5c0,0.3,0.2,0.5,0.5,0.5h1
			c0.3,0,0.5-0.2,0.5-0.5v-5.5c1.2-0.5,2.9-1.7,3.1-4.4c0,0,0-0.1,0-0.1v-6.1C122,56.5,121.8,56.3,121.5,56.3z"/>
		<path class="uf578072" d="M131.9,58.8c1-0.4,1.9-1.2,1.9-2.8c0-3.7-4-3.5-4-3.5h-3.7c-0.3,0-0.5,0.2-0.5,0.5v0v1v4.5v1v8.3v1v0
			c0,0.3,0.2,0.5,0.5,0.5h1c0,0,0,0,0,0h2.6c1,0,5.1-1.8,5.1-5.5C135,60.8,132.8,59.3,131.9,58.8z M129.9,54.4
			C129.9,54.4,129.9,54.4,129.9,54.4c0.6,0,1.6,0.2,1.6,1.4c0,1.6-0.9,2.2-1.9,2.2h-1.9v-3.6H129.9z M127.7,60h2.2
			c1.7,0,3.4,2.1,2.7,4.7c-0.7,2.6-3.3,2.6-3.3,2.6h-1.6V60z"/>
		<path class="uf578072" d="M208.3,66.6c-0.7,0-1.3,0.6-1.3,1.3c0,0.7,0.6,1.3,1.3,1.3c0.7,0,1.3-0.6,1.3-1.3
			C209.7,67.2,209.1,66.6,208.3,66.6z"/>
		<path class="uf578072" d="M239.8,67.2c0,0-1.9,0.1-1.9-2.8v-6.2h2c0.3,0,0.5-0.2,0.5-0.5v-1c0-0.3-0.2-0.5-0.5-0.5h-2v-3.4
			c0-0.3-0.2-0.5-0.5-0.5h-1c-0.3,0-0.5,0.2-0.5,0.5v3.4h-1.2c-0.3,0-0.5,0.2-0.5,0.5v1c0,0.3,0.2,0.5,0.5,0.5h1.2v6v0.5V66
			c0,0-0.1,3.2,3.8,3.3c0,0,0,0,0,0c0,0,0,0,0,0c0,0,0.1,0,0.1,0l0,0c0.5-0.1,0.9-0.5,0.9-1C240.8,67.7,240.3,67.2,239.8,67.2z"/>
		<path class="uf578072" d="M192.2,60.1C192.2,60,192.2,60,192.2,60.1c0-0.7-0.3-2.3-1.6-3.4c-1.6-1.4-4.5-0.1-4.9,0.4c0,0,0,0,0,0
			c-0.3,0.2-0.4,0.5-0.4,0.8c0,0.5,0.4,0.9,0.9,0.9c0.2,0,0.4-0.1,0.6-0.2l0,0c0,0,0.6-0.5,1.8-0.5c1.2,0,1.7,1.1,1.7,2.2v1.3
			c-0.5-0.4-1.3-0.7-2.5-0.7c-2.9,0-3.8,2.7-3.8,4.5c0,1.7,1,4.1,3.3,4.1s3-1.7,3-1.7v1.1c0,0.3,0.2,0.5,0.5,0.5h1
			c0.3,0,0.5-0.2,0.5-0.5v-8.6c0,0,0,0,0-0.1V60.1z M188.1,67.1c-1.1,0-2.1-0.8-2.1-1.9c0-1,0.6-2.4,2.4-2.4c1.8,0,1.8,1.4,1.8,1.4
			v1C190.2,66.1,189.2,67.1,188.1,67.1z"/>
		<path class="uf578072" d="M167.4,56.3c-2.1-0.9-4.6,1.7-4.6,1.7v-5.2c0-0.3-0.2-0.5-0.5-0.5h-1c-0.3,0-0.5,0.2-0.5,0.5v15.9
			c0,0.3,0.2,0.5,0.5,0.5h1c0.3,0,0.5-0.2,0.5-0.5v-8.7c0,0,1-2,3.1-2c0,0,1.6-0.1,1.6,2.3v8.4c0,0.3,0.2,0.5,0.5,0.5h1
			c0.3,0,0.5-0.2,0.5-0.5V60C169.3,60,169.5,57.2,167.4,56.3z"/>
		<path class="uf578072" d="M204,52.4h-1c-0.3,0-0.5,0.2-0.5,0.5v5.2c0,0-0.8-2-2.9-2c-2.1,0-4.2,2.6-4.2,6.8c0,4.2,2.5,6.6,4.2,6.6
			c1.3,0,2.4-1.4,2.9-2.1v1.5c0,0.3,0.2,0.5,0.5,0.5h1c0.3,0,0.5-0.2,0.5-0.5V52.9C204.5,52.6,204.3,52.4,204,52.4z M200,67
			c-2.1,0-2.6-3.6-2.6-4.5c0-0.9,0.6-4.2,2.7-4.2c1.4,0,2.1,1.5,2.5,2.5v3.6C202.5,64.4,202.1,67,200,67z"/>
		<path class="uf578072" d="M219.2,56.6c-1.5-0.9-4,0.2-5.1,1.3v-1c0-0.3-0.2-0.5-0.5-0.5h-1c-0.3,0-0.5,0.2-0.5,0.5v11.9
			c0,0.3,0.2,0.5,0.5,0.5h1c0.3,0,0.5-0.2,0.5-0.5V60c0,0,0.9-1.9,3.1-1.9c0,0,1.4,0.2,1.4,2.1v8.7c0,0.3,0.2,0.5,0.5,0.5h1
			c0.3,0,0.5-0.2,0.5-0.5v-8.7C220.6,60.1,220.7,57.5,219.2,56.6z"/>
		<path class="uf578072" d="M228.2,56c-4.1,0-4.7,5.4-4.7,6.8c0,1.4,0.6,6.8,4.7,6.8c1.9,0,3.3-2.5,3.4-2.8c0.1-0.2,0.5-1.2-0.2-1.5
			c-0.7-0.3-0.9,0.3-0.9,0.3c-0.9,2-2.5,2-2.5,2c-1.8,0-2.6-2.3-2.9-4h7c0.3,0,0.5-0.2,0.5-0.5v-1C232.5,62,232.2,56,228.2,56z
			 M225.1,61.5c0.3-1.6,1.3-3.6,3.1-3.6c2.2,0,2.7,3.6,2.7,3.6H225.1z"/>
		<path class="uf578072" d="M241.2,32.8c0-3.8-3.1-6.9-6.9-6.9c-3.8,0-6.9,3.1-6.9,6.9c0,2,0.8,3.8,2.2,5h-16.9l0-15h-1.9v16.7
			c0,0.4-0.2,1.1-1.1,1.1c-1.2,0-1.5-0.6-1.5-1.2h-1.9c0,1.5,1,3,3.4,3c2,0,2.9-1.6,3-2.8h21.6C238.1,39.6,241.2,36.6,241.2,32.8z
			 M234.3,37.8c-2.8,0-5-2.2-5-5c0-2.8,2.2-5,5-5c2.8,0,5,2.2,5,5C239.3,35.5,237,37.8,234.3,37.8z"/>
		<rect x="206.3" y="22.8" class="uf578072" width="1.9" height="15.3"/>
		<circle class="uf578072" cx="233.9" cy="23.8" r="1.1"/>
		<path class="uf578072" d="M184.4,41.5c0-0.6-0.5-1.1-1.1-1.1s-1.1,0.5-1.1,1.1c0,0.6,0.5,1.1,1.1,1.1S184.4,42.1,184.4,41.5z"/>
		<path class="uf578072" d="M180.5,40.5c-0.6,0-1.1,0.5-1.1,1.1c0,0.6,0.5,1.1,1.1,1.1c0.6,0,1.1-0.5,1.1-1.1
			C181.5,40.9,181.1,40.5,180.5,40.5z"/>
		<path class="uf578072" d="M163.8,41.5c0,0.6,0.5,1.1,1.1,1.1c0.6,0,1.1-0.5,1.1-1.1c0-0.6-0.5-1.1-1.1-1.1
			C164.3,40.5,163.8,40.9,163.8,41.5z"/>
		<circle class="uf578072" cx="142.6" cy="23.3" r="1.1"/>
		<path class="uf578072" d="M199.7,37.8c0-0.3,0-0.8-0.4-1.2c-0.4-0.4-1-0.7-1.8-0.7H195l0,0l0,0c-0.1,0-0.3,0-0.3-0.1
			c-0.1-0.1-0.1-0.2-0.1-0.5v-5.1c0-0.3,0.2-1.2,1.8-1.2c1.1,0,1.4,0.5,1.5,0.6c0.2,0.3,0.2,0.7,0.2,0.7V34h1.9l0-3.6
			c0-0.1,0-1.3-0.9-2.3c-0.6-0.6-1.5-1-2.6-1c-2.9,0-3.6,2.2-3.6,3v5.1c0,1,0.4,1.6,0.7,1.9c0.6,0.6,1.5,0.6,1.7,0.6h2.6
			c0.1,0,0.2,0,0.2,0c-0.1,0.8-0.7,3.4-4.7,3.4c-4.4,0-4.7-3.5-4.7-3.9V27h-1.9v10.4l0,0c0,0.1,0.3,5.7,6.6,5.7
			C199.1,43.1,199.7,38.4,199.7,37.8z"/>
		<rect x="111.2" y="21.8" class="uf578072" width="1.9" height="18"/>
		<path class="uf578072" d="M105,37v-4.4c0-0.1-0.1-5.7-6.6-5.7v1.9c4.6,0,4.7,3.5,4.7,3.9V37c0,0.2,0,0.6-0.6,0.7h-4.2v1.9h4.2
			C103.6,39.5,105,38.9,105,37z"/>
		<path class="uf578072" d="M163.3,39.5c1.2-0.1,2.9-0.9,2.9-3v-10h-1.9v10c0,0.9-0.8,1.1-1.1,1.1h-17.3c-0.3,0-0.7,0-1,0
			c0.1-0.1,0.2-0.2,0.3-0.4c1.5-1.9,1.6-2.9,1.5-3.8c0-0.1,0-0.2,0-0.2v-3.5l0-0.1c-0.1-0.9-0.8-2.7-2.7-2.7h-3.3
			c-0.2,0-1.1,0-1.8,0.7c-0.3,0.3-0.7,0.9-0.7,1.9v4.7l0,0.1c0,0,0.2,1.9,1.9,3.4c-0.1,0-0.1,0-0.1,0l0,0l-13.2,0
			c-0.6,0-0.6-0.5-0.6-0.7l-0.1-4.4l0,0c0-0.1-0.1-5.7-6.6-5.7v1.9c4.6,0,4.7,3.5,4.7,3.9V37c0,0.2,0,0.6-0.6,0.7h-4.2v1.9h4.2
			c0.5,0,1.1-0.2,1.6-0.5c0.5,0.4,1.1,0.5,1.6,0.5h13.2c0,0,0,0,0.1,0c0.3,0,1.4,0,2.6-0.5c0.9,0.3,2,0.5,3.3,0.5L163.3,39.5
			L163.3,39.5z M142.6,37c-2.1-0.9-2.4-2.7-2.5-2.9v-4.6c0-0.2,0-0.4,0.2-0.5c0.1-0.1,0.4-0.2,0.5-0.2c0,0,0,0,0,0l3.4,0
			c0.6,0,0.8,0.8,0.8,1v3.5c0,0.1,0,0.3,0,0.4c0,0.5,0.1,1-1.1,2.4C143.5,36.5,143,36.8,142.6,37z"/>
	</g>
</g>
</svg>
