<?xml version="1.0" encoding="utf-8"?>
<!-- Generator: Adobe Illustrator 25.3.1, SVG Export Plug-In . SVG Version: 6.00 Build 0)  -->
<svg version="1.1" id="Layer_1" xmlns="http://www.w3.org/2000/svg" xmlns:xlink="http://www.w3.org/1999/xlink" x="0px" y="0px"
	 viewBox="0 0 356.5 80" style="enable-background:new 0 0 356.5 80;" xml:space="preserve">
<style type="text/css">
	.b14e2099{fill:#ED4138;}
	.p1275c4a{fill:#00693A;}
	.l7af5fdf{fill:#DF1804;}
	.v8df2072{fill:#214078;}
	.j5656488{fill:#3487C7;}
	.ub0b0f25{fill:url(#SVGID_1_);}
	.p1e99dba{fill:url(#SVGID_2_);}
	.h5491155{fill:#184A8A;}
	.rb7fc257{fill:url(#SVGID_3_);}
	.td429604{fill:url(#SVGID_4_);}
	.e6aaae15{fill:url(#SVGID_5_);}
	.p1275c4a1{fill:url(#SVGID_6_);}
	.h4ed38ed{fill:#9E8266;}
	.i0ea0bda{fill:#322E26;}
	.p1275c4a4{fill:#332F27;}
	.e5430d61{fill:#791722;}
	.tcfae403{fill:url(#SVGID_7_);}
	.pc034a03{fill:url(#SVGID_8_);}
	.ob3dc64c{fill:url(#SVGID_9_);}
	.n9003341{fill:url(#SVGID_10_);}
	.i838dffc{fill:url(#SVGID_11_);}
	.pe29a3bf{fill:url(#SVGID_12_);}
	.l7af5fdf2{fill:url(#SVGID_13_);}
	.l7af5fdf3{fill:url(#SVGID_14_);}
	.m411a696{fill:url(#SVGID_15_);}
	.l7af5fdf5{fill:url(#SVGID_16_);}
	.q50561f7{fill:url(#SVGID_17_);}
	.l7af5fdf7{fill:url(#SVGID_18_);}
	.d63f964b{fill:url(#SVGID_19_);}
	.h4cb0e22{fill:url(#SVGID_20_);}
	.tb019dc1{fill:url(#SVGID_21_);}
	.c1b2efd7{fill:#222325;}
	.gb1a5e45{fill:#A0925A;}
	.kc407a02{fill:#061E34;}
	.jfd842a4{fill:#028E8F;}
	.h390dc41{fill:#D5192C;}
	.v454eb87{fill:#FAC201;}
	.v4e09568{fill:url(#SVGID_22_);}
	.y7462bfc{fill:url(#SVGID_23_);}
	.ebfcb59b{fill:url(#SVGID_24_);}
	.t82477b3{fill:url(#SVGID_25_);}
	.b200e2f0{fill:#9F8A58;}
	.uda7d985{fill:#749ED4;}
	.i8889500{fill:#045991;}
	.v9083b2c{fill:#1F9A8D;}
	.lae1cb58{fill:#222D68;}
	.de965197{fill:#14152E;}
	.l8f957da{fill:#62B3E4;}
	.kd644159{fill:#FEFEFE;}
	.ib0628cd{fill:none;}
	.ub0b0f250{fill:#FC0302;}
	.be2fd1ad{fill:#FE0807;}
	.gc2ca272{fill:#98684C;}
	.q8ef0b40{fill:#86754D;}
	.qcaa11e6{fill:#42484D;}
	.dfd26e90{fill:#41474C;}
	.ub0b0f256{fill:#43494D;}
	.ub0b0f257{fill:#DF073D;}
	.ub0b0f258{fill:#DE023A;}
	.oe60aefd{fill:#FFFFFF;}
	.if45597f{fill:#6F6E6C;}
	.v7c6a91a{fill:#072F67;}
	.n1f739e1{fill:#53A220;}
	.ga69bb5f{fill:#FDC013;}
	.t543f4f1{fill:url(#SVGID_26_);}
	.nca06b64{fill:url(#SVGID_27_);}
	.l06806cb{fill:url(#SVGID_28_);}
	.g72f6ad9{fill:#793A98;}
	.k431268d{fill:url(#SVGID_29_);}
	.je1dd1bc{fill:url(#SVGID_30_);}
	.h54911550{fill:url(#SVGID_31_);}
	.p09d3c61{fill:url(#SVGID_32_);}
	.e299c14b{fill:url(#SVGID_33_);}
</style>
<g>
	<path class="gc2ca272" d="M80.44,0.18c-0.82,0.52-1.79,0.65-2.67,1.02c-3.12,1.32-5.9,3.13-8.29,5.52
		c-9.07,9.04-18.14,18.09-27.2,27.14c-2.52,2.51-5.4,4.41-8.85,5.4c-1.43,0.41-2.88,0.66-4.37,0.76c-3.26,0.2-6.51,0.08-9.77,0.1
		c-4.56,0.02-9.13,0.01-13.69,0c-0.31,0-0.62,0.06-0.97-0.07c0.08-0.36,0.38-0.54,0.61-0.77c5.45-5.47,10.91-10.93,16.36-16.41
		c5.73-5.76,11.43-11.55,17.18-17.29c2.37-2.36,5.23-3.93,8.46-4.79c0.86-0.23,1.82-0.46,2.71-0.6c0.14-0.02,0.15-0.01,0.3-0.02
		C60.32,0.18,70.38,0.18,80.44,0.18z"/>
	<path class="q8ef0b40" d="M0.27,79.79c1.63-0.64,3.24-1.27,4.76-2.08c2.25-1.21,4.3-2.69,6.11-4.5c9.02-9.01,18.05-18,27.06-27.01
		c2.78-2.78,6.03-4.7,9.88-5.57c1.15-0.26,2.31-0.45,3.49-0.45c7.98-0.01,15.95-0.01,23.93-0.01c0.12,0,0.25,0.02,0.4,0.03
		c-0.14,0.35-0.44,0.54-0.68,0.78C64.09,52.08,52.98,63.19,41.83,74.28c-2.47,2.46-5.39,4.25-8.85,5c-1.38,0.3-2.79,0.53-4.22,0.52
		c-9.16-0.02-18.31-0.01-27.47-0.01C0.95,79.79,0.61,79.79,0.27,79.79z"/>
	<path class="qcaa11e6" d="M131.96,36.43c-4.81,0-8.78,0-12.76,0c-0.22,0-0.44,0.01-0.65,0c-0.54-0.05-0.82-0.28-0.83-0.8
		c-0.03-1.08-0.03-2.17,0-3.25c0.01-0.53,0.28-0.74,0.84-0.78c0.25-0.02,0.5,0,0.74,0c7.08-0.01,14.16,0,21.24-0.03
		c1.08,0,2.17-0.09,3.23-0.31c1.81-0.37,2.68-1.33,2.84-3.16c0.08-0.87,0.08-1.73-0.01-2.59c-0.15-1.39-0.83-2.22-2.16-2.58
		c-0.51-0.14-1.02-0.22-1.55-0.26c-3.07-0.2-6.14-0.1-9.22-0.13c-2.23-0.02-4.47,0.01-6.7-0.23c-1.44-0.16-2.88-0.37-4.27-0.84
		c-2.24-0.76-3.66-2.26-4.16-4.57c-0.44-2.05-0.48-4.12-0.02-6.17c0.59-2.64,2.42-4.08,4.94-4.75c1.32-0.35,2.67-0.54,4.04-0.59
		c7.79-0.27,15.58-0.06,23.37-0.12c0.96-0.01,1.21,0.25,1.23,1.21c0.01,0.68,0.01,1.36,0,2.05c-0.01,1.07-0.25,1.29-1.33,1.29
		c-6.09,0-12.17,0-18.26,0c-1.18,0-2.36,0.03-3.54,0.02c-0.63,0-1.24,0.09-1.84,0.21c-1.37,0.28-2.17,1.13-2.34,2.53
		c-0.11,0.92-0.1,1.86,0,2.79c0.11,1.09,0.77,1.8,1.94,2.1c1.08,0.28,2.2,0.39,3.32,0.39c3.73,0.01,7.45,0.02,11.18,0.01
		c1.99,0,3.97,0.11,5.91,0.57c1.09,0.26,2.12,0.64,3.09,1.23c1.58,0.97,2.57,2.38,2.81,4.17c0.3,2.21,0.32,4.44-0.08,6.66
		c-0.45,2.52-1.97,4.14-4.34,5c-1.23,0.45-2.5,0.68-3.81,0.78C140.25,36.62,135.68,36.32,131.96,36.43z"/>
	<path class="dfd26e90" d="M254.3,36.08c-0.33,0.2-0.62,0.12-0.88,0.12c-1.55,0.01-3.1,0-4.66,0.01c-0.44,0-0.86-0.05-1.3-0.09
		c-0.8-0.08-1.37-0.44-1.83-1.1c-2.69-3.86-5.41-7.7-8.11-11.55c-1.07-1.52-2.13-3.03-3.21-4.59c0.25-0.2,0.5-0.13,0.72-0.13
		c1.77,0.03,3.54-0.02,5.3-0.16c1.64-0.13,3.17-0.58,4.44-1.67c1.26-1.08,1.86-2.45,1.5-4.13c-0.31-1.44-1.34-2.26-2.64-2.75
		c-1.19-0.46-2.46-0.68-3.72-0.7c-3.54-0.06-7.08-0.05-10.61-0.05c-0.9,0-1.22,0.34-1.26,1.23c-0.01,0.22,0,0.43,0,0.65
		c0,7.81,0,15.61,0,23.42c0,0.28,0.02,0.56-0.01,0.84c-0.05,0.52-0.3,0.8-0.83,0.81c-1.71,0.02-3.41,0.02-5.12,0
		c-0.6-0.01-0.88-0.33-0.94-0.93c-0.02-0.18,0-0.37,0-0.56c0-9.33,0-18.65,0-27.98c0-0.22-0.02-0.44,0.01-0.65
		c0.07-0.55,0.42-0.88,0.98-0.92c0.18-0.02,0.37,0,0.56,0c5.37,0,10.74-0.02,16.11,0.01c2.48,0.01,4.95,0.24,7.31,1.1
		c1.93,0.7,3.58,1.8,4.95,3.34c2.66,3.02,2.07,6.83-0.29,9.32c-1.44,1.52-3.23,2.48-5.19,3.13c-1.47,0.49-1.52,0.64-0.59,1.86
		C248.04,27.99,251.1,32.04,254.3,36.08z"/>
	<path class="dfd26e90" d="M319.7,16.56c0,2.97-0.05,5.95,0.01,8.92c0.07,3.29-1.39,5.76-3.93,7.69c-2.22,1.69-4.78,2.56-7.48,3.08
		c-2.15,0.42-4.32,0.5-6.49,0.36c-3.6-0.23-7.03-1.05-10.07-3.13c-1.08-0.74-2.03-1.62-2.81-2.69c-1.11-1.53-1.64-3.25-1.64-5.12
		c-0.01-6.35,0-12.71,0-19.06c0-1.13,0.22-1.36,1.35-1.36c1.4-0.01,2.79-0.01,4.19,0c1.11,0,1.3,0.19,1.3,1.28
		c0,6.07,0.06,12.15-0.02,18.22c-0.05,3.82,2.16,5.64,4.64,6.49c2.21,0.76,4.48,0.87,6.79,0.61c1.15-0.13,2.26-0.38,3.32-0.83
		c1.86-0.78,3.25-2.04,3.8-4.04c0.2-0.72,0.26-1.46,0.26-2.2c-0.01-6.04,0-12.09,0-18.13c0-1.29,0.12-1.41,1.45-1.41
		c1.3,0,2.61,0,3.91,0c1.3,0,1.41,0.12,1.41,1.45C319.71,9.99,319.7,13.28,319.7,16.56z"/>
	<path class="dfd26e90" d="M356.29,36.31c-1.43,0-2.67,0-3.91,0c-0.84,0-1.68-0.02-2.51,0c-0.93,0.02-1.67-0.32-2.28-1.04
		c-1.08-1.28-2.19-2.53-3.29-3.8c-1.68-1.95-3.35-3.9-5.03-5.85c-0.08-0.09-0.16-0.19-0.25-0.28c-0.61-0.63-0.86-0.64-1.43,0.01
		c-0.86,0.98-1.7,1.97-2.55,2.96c-1.98,2.3-3.96,4.6-5.93,6.92c-0.6,0.71-1.32,1.08-2.26,1.08c-1.99-0.01-3.97,0-5.96,0
		c-0.09,0-0.17-0.04-0.31-0.08c0.64-0.92,1.41-1.68,2.12-2.49c3.7-4.22,7.42-8.42,11.13-12.63c0.54-0.61,0.55-0.72,0.03-1.33
		c-2.5-2.92-5.01-5.83-7.51-8.75c-1.17-1.36-2.34-2.73-3.52-4.08c-0.28-0.33-0.48-0.65-0.29-1.09c0.18-0.42,0.55-0.6,0.97-0.6
		c1.43-0.01,2.86-0.05,4.28,0.02c0.99,0.05,1.82,0.49,2.48,1.28c2.21,2.6,4.46,5.16,6.69,7.74c0.28,0.33,0.56,0.67,0.86,0.98
		c0.48,0.5,0.76,0.49,1.22-0.03c0.72-0.81,1.43-1.63,2.14-2.46c1.72-2,3.47-3.97,5.14-6c0.88-1.07,1.97-1.55,3.32-1.53
		c1.12,0.01,2.24,0,3.35,0c0.19,0,0.38-0.02,0.56,0.01c0.76,0.12,1.21,0.94,0.62,1.59c-0.65,0.71-1.29,1.43-1.92,2.15
		c-3.12,3.61-6.24,7.22-9.36,10.84c-0.45,0.52-0.44,0.66,0.02,1.18c2.7,3.08,5.4,6.15,8.1,9.23
		C352.71,32.22,354.42,34.17,356.29,36.31z"/>
	<path class="ub0b0f256" d="M148.45,71.39c0.07,0.44-0.11,0.71-0.2,1c-0.28,0.83-0.89,1.23-1.77,1.23c-1.06-0.01-2.11,0-3.17,0
		c-1.93,0-3.85-0.01-5.78,0c-0.97,0-1.21,0.25-1.22,1.2c-0.01,0.65-0.02,1.3,0.01,1.95c0.03,0.67,0.34,0.85,1.02,0.67
		c0.18-0.05,0.36-0.05,0.55-0.05c4.35,0,8.69,0,13.04,0c0.15,0,0.31-0.03,0.44,0.09c0.01,0.06,0.04,0.12,0.02,0.18
		c-0.74,2.38-0.49,1.95-2.54,1.95c-9.87,0.01-19.75,0.01-29.62,0.01c-0.19,0-0.37,0-0.56,0c-1.03-0.02-1.45-0.59-1.17-1.59
		c0.1-0.35,0.36-0.51,0.67-0.57c0.3-0.06,0.61-0.06,0.92-0.06c3.91,0,7.82,0,11.74,0c0.22,0,0.44,0.01,0.65-0.01
		c0.57-0.05,0.87-0.31,0.9-0.87c0.04-0.74,0.04-1.49,0-2.23c-0.03-0.62-0.31-0.85-0.95-0.91c-0.25-0.02-0.5-0.01-0.74-0.01
		c-3.04,0-6.09,0-9.13,0c-0.25,0-0.5,0.01-0.74-0.02c-0.72-0.1-1.04-0.48-1-1.2c0.03-0.67,0.35-0.99,1.05-1.05
		c0.22-0.02,0.43,0,0.65,0c3.04,0,6.09,0,9.13,0c0.25,0,0.5,0.01,0.74-0.01c0.67-0.05,0.96-0.32,1-0.98c0.03-0.49,0.03-0.99,0-1.49
		c-0.04-0.66-0.33-0.92-1-0.97c-0.12-0.01-0.25,0-0.37,0c-1.99,0-3.97,0.02-5.96-0.01c-0.78-0.01-1.39,0.24-1.82,0.9
		c-0.07,0.1-0.17,0.19-0.22,0.3c-0.66,1.27-1.75,1.66-3.11,1.56c-0.62-0.05-1.24-0.01-1.85-0.01c-0.15-0.28,0.09-0.41,0.19-0.57
		c1.08-1.63,2.17-3.24,3.24-4.87c0.45-0.69,1.05-1.01,1.87-0.98c0.53,0.02,1.06,0.01,1.58,0c0.33,0,0.62,0.05,0.75,0.39
		c0.06,0.38-0.31,0.61-0.3,0.96c0.16,0.21,0.39,0.16,0.6,0.16c1.77,0.01,3.54,0.01,5.31,0c1.11-0.01,1.71-1.14,1.14-2.1
		c-0.14-0.23-0.34-0.36-0.61-0.37c-0.25-0.02-0.5-0.02-0.74-0.02c-2.55,0-5.09,0-7.64,0c-0.65,0-1.29-0.08-1.92-0.28
		c-1.21-0.38-1.87-1.24-1.92-2.46c-0.07-1.79-0.06-3.6-0.01-5.39c0.02-0.93,0.57-1.62,1.37-2.08c0.54-0.31,1.13-0.51,1.76-0.52
		c0.28-0.01,0.56-0.01,0.84-0.01c7.14,0,14.28,0,21.42,0c0.75,0,1.48,0.02,2.19,0.32c1.18,0.51,1.81,1.37,1.82,2.65
		c0.01,1.58,0.02,3.16,0,4.74c-0.02,1.6-1,2.78-2.57,3.05c-0.58,0.1-1.16,0.17-1.76,0.16c-2.33-0.01-4.66-0.01-6.99-0.01
		c-0.22,0-0.44-0.02-0.65,0.01c-0.18,0.02-0.39,0.04-0.53,0.14c-0.62,0.42-0.33,1.07-0.34,1.63c0,0.43,0.33,0.66,0.83,0.71
		c0.25,0.02,0.5,0.01,0.74,0.01c3.66,0,7.33,0,10.99,0c0.31,0,0.61,0,1,0c-0.09,0.61-0.29,1.11-0.58,1.57
		c-0.24,0.38-0.61,0.61-1.08,0.63c-0.28,0.01-0.56,0.01-0.84,0.01c-3.2,0-6.4,0-9.59,0c-1.15,0-1.44,0.29-1.45,1.41
		c0,0.34-0.02,0.68,0,1.02c0.05,0.69,0.37,1.01,1.04,1.07c0.22,0.02,0.43,0,0.65,0c3.2,0,6.4,0,9.59,0
		C147.79,71.39,148.09,71.39,148.45,71.39z M134.38,54.52c-1.18,0-2.36,0-3.54,0c-2.08,0-4.16,0-6.24,0c-1.19,0-1.46,0.29-1.46,1.49
		c0,1.08,0,2.17,0,3.25c0,1.68,0.18,1.85,1.86,1.85c6.27,0,12.54,0,18.81,0c0.19,0,0.37,0.01,0.56,0c0.79-0.06,1.1-0.37,1.11-1.18
		c0.01-1.43,0.01-2.85,0-4.28c0-0.7-0.2-0.95-0.87-1.09c-0.27-0.06-0.55-0.05-0.83-0.05C140.65,54.52,137.52,54.52,134.38,54.52z"/>
	<path class="dfd26e90" d="M217.98,36.43c-2.03,0-3.92,0.02-5.81-0.01c-0.95-0.02-1.62-0.54-2.03-1.39c-1-2.02-2-4.05-3-6.07
		c-2.61-5.29-5.22-10.59-7.85-15.88c-0.17-0.35-0.25-0.78-0.67-0.99c-0.45,0.07-0.5,0.49-0.66,0.8c-1.73,3.46-3.45,6.91-5.17,10.37
		c-1.86,3.74-3.75,7.46-5.53,11.23c-0.66,1.39-1.57,2.04-3.11,1.95c-1.36-0.08-2.73-0.02-4.1-0.02c-0.27,0-0.55,0-0.87,0
		c0.19-0.65,0.52-1.14,0.79-1.65c3.83-7.17,7.67-14.34,11.51-21.51c1.24-2.32,2.5-4.62,3.71-6.95c0.39-0.76,0.95-1.08,1.78-1.07
		c1.09,0.02,2.17,0.01,3.26,0c0.82,0,1.38,0.33,1.78,1.09c2.81,5.33,5.65,10.65,8.48,15.97c2.34,4.39,4.69,8.78,7.03,13.18
		C217.66,35.76,217.79,36.04,217.98,36.43z"/>
	<path class="ub0b0f256" d="M170.71,5.26c4.84,0,9.69,0,14.53,0c0.28,0,0.56-0.01,0.83,0.06c0.56,0.13,0.88,0.55,0.9,1.14
		c0.02,0.59,0.02,1.18,0,1.77c-0.03,0.86-0.32,1.16-1.2,1.17c-1.68,0.02-3.35,0.01-5.03,0.01c-1.71,0-3.42,0-5.12,0
		c-1.11,0-1.28,0.18-1.28,1.31c0,7.97,0,15.93,0,23.9c0,0.12,0,0.25,0,0.37c0,1.38-0.11,1.5-1.47,1.5c-1.46,0-2.92,0.01-4.38,0
		c-0.91-0.01-1.17-0.25-1.18-1.15c-0.02-1.15,0-2.29,0-3.44c0-6.91,0-13.82,0-20.73c0-0.25,0.01-0.5,0-0.74
		c-0.04-0.69-0.27-0.93-0.99-0.94c-0.93-0.02-1.86,0-2.79,0c-2.45,0-4.91,0-7.36,0c-1.28,0-1.42-0.14-1.42-1.46
		c0-0.59-0.02-1.18,0-1.77c0.02-0.68,0.28-0.93,0.97-0.99c0.22-0.02,0.43,0,0.65,0C161.15,5.26,165.93,5.26,170.71,5.26z"/>
	<path class="qcaa11e6" d="M256.7,20.64c0-4.59,0-9.17,0-13.76c0-0.22-0.01-0.43,0-0.65c0.04-0.68,0.28-0.93,0.98-0.97
		c0.46-0.02,0.93,0,1.4,0c1.09,0,2.17-0.01,3.26,0c0.96,0.01,1.22,0.26,1.22,1.21c0.01,2.82,0,5.64,0,8.46c0,5.18,0,10.35,0,15.53
		c0,0.25-0.01,0.5,0.01,0.74c0.05,0.48,0.29,0.73,0.76,0.78c0.25,0.03,0.5,0.01,0.74,0.01c6.4,0,12.79,0,19.19,0
		c0.25,0,0.5-0.02,0.74,0c0.57,0.05,0.86,0.29,0.88,0.87c0.03,0.9,0.03,1.8-0.01,2.7c-0.02,0.52-0.38,0.82-0.91,0.87
		c-0.22,0.02-0.43,0.01-0.65,0.01c-8.54,0-17.07,0-25.61,0c-0.25,0-0.5,0.02-0.74-0.01c-0.71-0.09-1.18-0.57-1.26-1.28
		c-0.03-0.25-0.01-0.5-0.01-0.74C256.7,29.81,256.7,25.22,256.7,20.64z"/>
	<path class="ub0b0f256" d="M337.74,54.08c-0.08-0.6-0.58-1.06-0.71-1.64c0.1-0.41,0.43-0.45,0.73-0.46c0.65-0.03,1.3-0.03,1.95,0
		c0.59,0.03,1.11,0.26,1.36,0.83c0.63,1.39,1.7,1.76,3.17,1.7c2.6-0.1,5.21-0.03,7.82-0.02c1.07,0,2,0.36,2.74,1.15
		c0.48,0.52,0.76,1.14,0.79,1.84c0.04,0.83,0.03,1.67,0.01,2.51c-0.01,0.58-0.27,0.9-0.81,0.95c-0.62,0.05-1.24,0.05-1.86,0.01
		c-0.55-0.04-0.86-0.42-0.88-1.01c-0.02-0.68,0.01-1.36-0.01-2.05c-0.01-0.78-0.22-1-1-1c-1.92-0.01-3.85-0.01-5.77,0
		c-0.86,0.01-1.18,0.32-1.19,1.18c-0.02,1.77-0.02,3.53,0,5.3c0.01,0.81,0.24,1.03,1.08,1.03c2.7,0.01,5.4,0,8.1,0
		c0.31,0,0.61,0,0.99,0c-0.11,0.64-0.38,1.15-0.67,1.64c-0.29,0.49-0.78,0.7-1.34,0.7c-2.92,0-5.84,0.02-8.75-0.02
		c-0.89-0.01-1.67-0.39-2.31-1.04c-0.49-0.5-0.67-1.09-0.67-1.77c0.01-1.89,0-3.78,0-5.67c0-1.07-0.25-1.23-1.3-1.34
		c-1.4-0.14-2.45,0.17-2.86,1.66c-1.79,3.04-4.27,5.45-7.08,7.53c-0.4,0.3-0.85,0.5-1.37,0.5c-1.3,0-2.6,0-3.97,0
		c0.17-0.4,0.51-0.55,0.79-0.75c1.61-1.16,3.23-2.31,4.66-3.69c1.32-1.28,2.42-2.73,3.42-4.27c0.46-0.71,0.31-0.99-0.57-1
		c-1.68-0.02-3.35-0.02-5.03,0c-0.84,0.01-1.16,0.35-1.19,1.2c-0.02,0.62,0.01,1.24-0.01,1.86c-0.02,0.67-0.28,0.96-0.95,1.01
		c-0.53,0.04-1.06,0.04-1.58,0c-0.66-0.05-0.85-0.29-0.86-0.95c0-0.84,0-1.67,0.01-2.51c0.02-1.2,0.58-2.05,1.68-2.54
		c0.75-0.33,1.52-0.48,2.35-0.47c3.32,0.01,6.64,0.01,9.97,0C337.03,54.47,337.45,54.54,337.74,54.08z"/>
	<path class="ub0b0f256" d="M256.33,67.37c-1.72-0.14-1.72-0.14-2.13-1.71c-0.04-0.15-0.08-0.3-0.13-0.47c0.37-0.19,0.74-0.08,1.09-0.1
		c0.34-0.02,0.68,0,0.98,0c0.3-0.29,0.19-0.62,0.19-0.92c0.01-2.26,0.08-4.53-0.02-6.78c-0.08-1.86,1.49-2.87,2.85-2.87
		c0.34,0,0.68,0.06,1.07-0.08c0.25-0.55,0.54-1.13,0.77-1.73c0.21-0.54,0.57-0.77,1.13-0.75c0.5,0.02,0.99-0.02,1.49,0.01
		c0.76,0.05,0.93,0.32,0.66,1.01c-0.19,0.48-0.52,0.91-0.55,1.45c0.35,0.15,0.69,0.09,1.03,0.08c0.44-0.01,0.87,0.05,1.28,0.17
		c1.35,0.41,2.26,1.25,2.25,2.87c-0.04,6.54-0.02,13.07-0.02,19.61c0,1.59-0.69,2.43-2.28,2.58c-1.08,0.1-2.17,0.05-3.26,0.02
		c-0.52-0.01-0.96-0.26-1.24-0.71c-0.27-0.44-0.54-0.89-0.73-1.48c1.08,0,2.09,0.01,3.11,0c0.95-0.01,1.06-0.11,1.06-1.08
		c-0.01-2.7-0.03-5.39-0.05-8.09c-0.01-0.89-0.2-1.08-1.1-1.09c-0.96-0.01-1.92-0.01-2.89,0c-1.06,0.01-1.24,0.19-1.28,1.23
		c-0.15,3.59-0.52,7.15-1.44,10.63c-0.05,0.18-0.1,0.36-0.27,0.56c-1.05,0-2.15,0-3.39,0C255.92,75.72,256.38,71.61,256.33,67.37z
		 M264.89,61.04c0-1.05,0.01-2.1,0-3.15c-0.01-0.71-0.23-0.95-0.94-0.97c-1.15-0.02-2.29-0.02-3.44,0c-0.77,0.02-1,0.26-1,1
		c-0.01,2.04-0.01,4.08,0,6.12c0,0.79,0.25,1.09,1.03,1.13c1.08,0.05,2.17,0.05,3.25,0.01c0.85-0.04,1.09-0.36,1.1-1.26
		C264.9,62.96,264.89,62,264.89,61.04z"/>
	<path class="ub0b0f256" d="M214.22,60.32c0.04,0.35-0.1,0.61-0.19,0.87c-0.35,1-0.72,1.3-1.77,1.31c-1.96,0.03-3.91,0.01-5.87,0.02
		c-0.25,0-0.5-0.01-0.74,0.04c-0.49,0.1-0.76,0.4-0.77,0.9c-0.02,1.02-0.02,2.05,0,3.07c0.01,0.53,0.27,0.76,0.82,0.82
		c0.21,0.02,0.43,0.01,0.65,0.01c3.23,0,6.46,0,9.69,0c1.24,0,2.48,0,3.71,0c0,1.47-0.64,2.16-2.09,2.16
		c-3.66,0.01-7.33,0.01-10.99,0.01c-0.25,0-0.5-0.01-0.74,0c-0.78,0.04-1.05,0.31-1.05,1.09c-0.01,1.98,0,3.97,0,5.95
		c0,1.88-1.01,3.05-2.88,3.18c-1.3,0.09-2.61,0.03-3.91,0.03c-0.59,0-0.99-0.33-1.28-0.8c-0.26-0.42-0.48-0.86-0.7-1.28
		c0.18-0.26,0.41-0.17,0.61-0.17c1.09-0.01,2.17,0,3.26-0.01c1.04-0.01,1.26-0.23,1.27-1.25c0.01-1.83,0.01-3.66,0-5.49
		c0-1.06-0.19-1.25-1.25-1.25c-4.13-0.01-8.26,0-12.39,0c-0.22,0-0.44,0.01-0.65,0c-0.7-0.05-1.06-0.44-1.05-1.15
		c0.01-0.73,0.32-1.06,1.09-1.07c3.29-0.01,6.58,0,9.87,0c1.02,0,2.05,0.01,3.07,0c1.06-0.01,1.29-0.25,1.3-1.33
		c0.01-0.74,0.01-1.49,0-2.23c-0.01-1.1-0.18-1.27-1.32-1.27c-2.33,0-4.66,0-6.99,0c-0.22,0-0.44,0.01-0.65-0.01
		c-0.68-0.07-1.01-0.46-0.99-1.19c0.02-0.7,0.3-0.98,1.02-1.02c0.15-0.01,0.31,0,0.47,0c6.86,0,13.72,0,20.58,0
		C213.64,60.24,213.93,60.18,214.22,60.32z"/>
	<path class="ub0b0f256" d="M352.75,68.37c0.1,0.24-0.06,0.43-0.12,0.62c-0.42,1.33-0.82,1.63-2.21,1.64c-2.64,0.01-5.28,0-7.91,0
		c-0.25,0-0.5-0.01-0.74,0.02c-0.55,0.07-0.85,0.35-0.85,0.91c-0.02,1.7-0.02,3.41,0,5.11c0.01,0.58,0.28,0.83,0.85,0.89
		c0.25,0.02,0.5,0.01,0.74,0.01c4.28,0,8.57,0,12.85,0c0.31,0,0.61,0,0.99,0c-0.04,0.62-0.24,1.11-0.54,1.57
		c-0.25,0.38-0.62,0.61-1.09,0.63c-0.43,0.02-0.87,0.03-1.3,0.03c-9.84,0-19.67,0-29.51,0c-0.19,0-0.37,0.01-0.56,0
		c-0.73-0.04-1.03-0.33-1.05-1.02c-0.02-0.72,0.31-1.13,0.99-1.2c0.21-0.02,0.43-0.01,0.65-0.01c3.94,0,7.88,0,11.82,0
		c0.25,0,0.5,0.02,0.74-0.01c0.55-0.06,0.87-0.34,0.87-0.89c0.02-1.7,0.02-3.41,0-5.11c-0.01-0.56-0.31-0.84-0.86-0.91
		c-0.25-0.03-0.5-0.01-0.74-0.01c-3.01,0-6.02,0-9.03,0c-0.22,0-0.44,0.01-0.65-0.01c-0.62-0.06-0.95-0.41-0.99-1.01
		c-0.05-0.76,0.22-1.17,0.88-1.3c0.18-0.04,0.37-0.03,0.56-0.03c8.57,0,17.13,0,25.7,0C352.4,68.29,352.59,68.25,352.75,68.37z"/>
	<path class="ub0b0f256" d="M268.08,79.75c2.48-2.64,3.17-5.71,3.31-8.95c0.09-2.07,0.12-4.15,0.01-6.22c-0.1-1.93,1.26-3.12,3.08-3.17
		c1.3-0.04,2.61-0.03,3.91-0.01c1.02,0.01,2.04-0.09,3.06,0.13c1.58,0.35,2.39,1.32,2.39,2.94c0,3.9,0,7.8,0,11.71
		c0,0.34-0.06,0.68,0.08,1.02c0.63,0.52,1.37,0.28,2.06,0.31c0.68,0.03,1.36,0.01,2.16,0.01c-0.28,0.64-0.57,1.16-0.9,1.66
		c-0.22,0.34-0.56,0.53-0.93,0.53c-1.21,0.02-2.42,0.14-3.62-0.11c-1.29-0.27-2.05-1.11-2.16-2.42c-0.04-0.4-0.03-0.8-0.03-1.21
		c0-3.62,0-7.25,0-10.87c0-0.22,0.01-0.43,0-0.65c-0.05-0.55-0.26-0.81-0.8-0.82c-1.33-0.03-2.67-0.03-4,0
		c-0.62,0.02-0.8,0.26-0.8,0.9c-0.01,1.92,0,3.84,0,5.76c0,3.09-0.8,5.97-2.25,8.7c-0.31,0.58-0.68,0.8-1.32,0.77
		C270.31,79.71,269.3,79.75,268.08,79.75z"/>
	<path class="gc2ca272" d="M90.35,13.97c-0.5,1.04-1.31,1.86-1.9,2.84c-0.28,0.47-0.69,0.88-0.75,1.56c1.89,0.61,3.85,0.78,5.8,1.02
		c1.93,0.24,3.88,0.38,6,0.58c-4.05,0.67-7.99,0.88-11.85,1.98c0.61,1.65,1.84,2.77,2.7,4.12c-0.05,0.05-0.09,0.09-0.14,0.14
		c-1.38-0.83-2.75-1.67-4.13-2.5c-0.61,1.19-1.43,7.28-1.78,12.96c-0.45-0.98-0.33-2.04-0.42-3.05c-0.19-2-0.4-3.99-0.64-5.99
		c-0.15-1.28-0.33-2.56-0.67-3.94c-1.59,0.69-2.91,1.79-4.62,2.63c0.46-0.9,1.07-1.44,1.52-2.09c0.47-0.68,1.01-1.32,1.33-2.1
		c-0.17-0.29-0.43-0.34-0.71-0.41c-2.14-0.5-4.3-0.83-6.48-1.12c-1.47-0.19-2.93-0.39-4.4-0.62c3.87-0.45,7.76-0.7,11.56-1.63
		c0.14-0.55-0.2-0.88-0.43-1.22c-0.66-0.97-1.36-1.91-2.04-2.87c-0.1-0.14-0.31-0.23-0.19-0.53c1.5,0.9,2.79,2.08,4.44,2.98
		c0.99-4.44,1.27-8.83,1.75-13.21c0.21,2.17,0.37,4.35,0.65,6.51c0.28,2.19,0.51,4.39,1.01,6.52c0.43,0.13,0.64-0.13,0.89-0.3
		c0.99-0.69,1.98-1.39,2.96-2.08c0.15-0.11,0.28-0.25,0.49-0.24L90.35,13.97z"/>
	<path class="qcaa11e6" d="M201.15,54.54c-0.3-0.8-1.06-1.39-1.3-2.18c0.13-0.31,0.32-0.34,0.51-0.34c0.74-0.01,1.49-0.01,2.23,0
		c0.57,0.01,1.01,0.27,1.34,0.72c0.4,0.55,0.81,1.09,1.2,1.65c0.31,0.44,0.69,0.61,1.26,0.61c3.07-0.03,6.14-0.01,9.22-0.02
		c0.86,0,1.67,0.12,2.38,0.62c0.76,0.53,1.2,1.25,1.22,2.18c0.03,1.02,0.02,2.04,0,3.07c-0.02,0.76-0.31,1.05-1.09,1.07
		c-0.53,0.02-1.06,0.02-1.58,0c-0.7-0.03-1-0.35-1.02-1.05c-0.02-0.87,0-1.73-0.01-2.6c-0.01-0.76-0.23-0.99-0.98-1.06
		c-0.25-0.02-0.5-0.01-0.74-0.01c-7.39,0-14.77,0-22.16,0c-1.51,0-1.63,0.12-1.63,1.65c0,0.71,0.02,1.43-0.01,2.14
		c-0.02,0.63-0.28,0.9-0.91,0.93c-0.56,0.03-1.12,0.03-1.67,0c-0.52-0.03-0.9-0.36-0.91-0.88c-0.02-1.17-0.09-2.35,0.04-3.53
		c0.14-1.2,0.86-1.93,1.98-2.34c0.74-0.27,1.51-0.32,2.29-0.32c3.1,0,6.21,0,9.31-0.01C200.47,54.86,200.89,55.01,201.15,54.54z"/>
	<path class="ub0b0f256" d="M288.01,56.39c-0.2,0.54-0.35,0.98-0.52,1.4c-0.2,0.52-0.59,0.77-1.14,0.8c-0.25,0.01-0.5,0.01-0.74,0.01
		c-4.96,0-9.93,0-14.89,0c-0.16,0-0.31,0.01-0.47,0c-0.79-0.03-1.07-0.31-1.08-1.06c-0.01-0.8,0.29-1.13,1.1-1.15
		c1.36-0.02,2.73-0.01,4.09-0.01c0.28,0,0.56,0,0.84,0c1.01-0.02,1.14-0.22,0.77-1.18c-0.26-0.66-0.55-1.31-0.8-1.97
		c-0.12-0.31-0.32-0.61-0.13-1.1c0.88-0.11,1.82-0.15,2.75,0.03c0.43,0.08,0.73,0.4,0.91,0.85c0.32,0.77,0.73,1.5,1.05,2.27
		c0.34,0.82,0.87,1.16,1.79,1.13c1.92-0.06,3.85-0.02,5.77-0.02C287.49,56.39,287.68,56.39,288.01,56.39z"/>
	<path class="ub0b0f256" d="M260.13,68.61c0.74,0,1.41-0.03,2.08,0.01c0.55,0.04,0.88,0.4,1.01,0.93c0.18,0.72,0.36,1.43,0.55,2.15
		c0.22,0.86,0.44,1.72,0.69,2.67c-0.82,0-1.58,0.02-2.35-0.01c-0.67-0.03-0.95-0.52-1.12-1.07c-0.37-1.21-0.57-2.46-0.75-3.71
		C260.2,69.3,260.18,69.02,260.13,68.61z"/>
	<path class="gc2ca272" d="M90.3,13.92c0.02-0.08,0.07-0.18,0.15-0.1c0.08,0.08-0.02,0.13-0.11,0.15L90.3,13.92z"/>
	<path class="ub0b0f256" d="M134.25,58.91c-2.64,0-5.28,0-7.92,0c-0.34,0-0.68,0.01-1.01-0.1c-0.57-0.19-0.94-0.66-0.88-1.15
		c0.06-0.52,0.49-0.9,1.09-0.97c0.18-0.02,0.37-0.01,0.56-0.01c5.43,0,10.86,0,16.3,0c0.19,0,0.37-0.01,0.56,0.01
		c0.61,0.06,1.02,0.43,1.07,0.96c0.06,0.62-0.25,1-0.92,1.19c-0.31,0.09-0.62,0.06-0.92,0.06
		C139.53,58.91,136.89,58.91,134.25,58.91z"/>
	<path class="ub0b0f256" d="M264.23,63.55c-0.7,0.14-1.35,0.09-1.99,0.05c-0.6-0.03-0.93-0.44-1.07-0.99c-0.33-1.31-0.64-2.62-0.97-3.97
		c0.73-0.15,1.41-0.09,2.08-0.06c0.51,0.02,0.85,0.35,0.99,0.84C263.66,60.76,263.99,62.13,264.23,63.55z"/>
</g>
</svg>
