<?xml version="1.0" encoding="utf-8"?>
<!-- Generator: Adobe Illustrator 25.4.1, SVG Export Plug-In . SVG Version: 6.00 Build 0)  -->
<svg version="1.1" id="Layer_1" xmlns="http://www.w3.org/2000/svg" xmlns:xlink="http://www.w3.org/1999/xlink" x="0px" y="0px"
	 viewBox="0 0 324.7 80" style="enable-background:new 0 0 324.7 80;" xml:space="preserve">
<style type="text/css">
	.bd8ab5eb{fill:#2E3192;}
	.q9984e44{fill:#0090F5;}
	.w8c9cfa4{fill:#FFFFFF;}
	.gb84349d{fill:#27017A;}
	.h3d4fedc{fill:#2A0079;}
	.p3f22bed{fill:#2F017E;}
</style>
<g>
	<g>
		<path class="bd8ab5eb" d="M96.3,22.3l-6.8,20.8H95l0.9-3.5h6.2l0.9,3.5h5.7L102,22.3H96.3z M97.2,35.2l2-7.3l1.9,7.3H97.2z"/>
		<path class="bd8ab5eb" d="M319.1,43.1h5.7L318,22.3h-5.7l-6.8,20.8h5.5l0.9-3.5h6.2L319.1,43.1z M313.1,35.2l2-7.3l1.9,7.3H313.1z"/>
		<polygon class="bd8ab5eb" points="231.3,33.8 224.7,22.3 219.6,22.3 219.6,43.1 224.7,43.1 224.7,31.8 231.3,43.1 236.4,43.1 
			236.4,22.3 231.3,22.3 		"/>
		<polygon class="bd8ab5eb" points="286.5,22.3 281.4,22.3 281.4,38 281.4,43.1 286.5,43.1 295.2,43.1 295.2,38 286.5,38 		"/>
		<rect x="298.1" y="22.3" class="bd8ab5eb" width="5.1" height="20.8"/>
		<polygon class="bd8ab5eb" points="111.8,22.3 110.4,22.3 110.4,43.1 111.8,43.1 115.9,43.1 125.2,43.1 125.2,38.5 115.9,38.5 
			115.9,34.5 124.4,34.5 124.4,29.9 115.9,29.9 115.9,26.9 125.2,26.9 125.2,22.3 115.9,22.3 		"/>
		<path class="bd8ab5eb" d="M140.1,33.9c0,0,4.2-1.1,4.2-5.1s-2.1-6.5-5.8-6.5c-2.2,0-3.8,0-4.7,0h-1h-4.5v20.8h5.5v-8.3h0.9
			c0,0,1-0.2,2.3,2.6c1.2,2.9,2.5,5.7,2.5,5.7h6.1l-3.2-7.3C142.4,35.8,141.2,33.9,140.1,33.9z M135.9,30.9c-0.5,0-1.4,0-2.1,0v-4.3
			h3c0,0,2.3,0.1,2.3,2.1S136.8,30.9,135.9,30.9z"/>
		<polygon class="bd8ab5eb" points="188.5,22.3 185.7,34.9 182.9,22.3 180.2,22.3 179.7,22.3 175.8,22.3 175.8,43.1 180.2,43.1 
			180.2,27.3 183.8,43.1 187.7,43.1 191.2,27.1 191.2,43.1 195.6,43.1 195.6,22.3 191.2,22.3 		"/>
		<path class="bd8ab5eb" d="M249,35.7h3.7v2c0,0-1.2,1.4-3.9,1.4c-2.7,0-3.9-3.2-3.9-6.8s1.5-5.7,4-5.7s3.2,2.3,3.2,2.3l5.2-1
			c-0.7-2.9-2.6-5.9-8.8-5.9c-6.2,0-9,5.4-9,11.2c0,5.8,3.3,10.5,9.2,10.5c5.9,0,8.8-3.4,8.8-3.4v-8.8H249V35.7z"/>
		<path class="bd8ab5eb" d="M155.4,22c-5.1,0-9.3,3.2-9.3,10.8c0,7.5,4.1,10.8,9.3,10.8c5.1,0,9.3-3.1,9.3-10.8
			C164.7,25.2,160.5,22,155.4,22z M155.4,38.7c-2.1,0-3.8-1.8-3.8-5.9c0-4.2,1.7-5.9,3.8-5.9s3.8,1.7,3.8,5.9
			C159.2,37.1,157.5,38.7,155.4,38.7z"/>
		<path class="bd8ab5eb" d="M207.6,22c-5.1,0-9.3,3.2-9.3,10.8c0,7.5,4.1,10.8,9.3,10.8c5.1,0,9.3-3.1,9.3-10.8
			C216.8,25.2,212.7,22,207.6,22z M207.6,38.7c-2.1,0-3.8-1.8-3.8-5.9c0-4.2,1.7-5.9,3.8-5.9s3.8,1.7,3.8,5.9
			C211.4,37.1,209.7,38.7,207.6,38.7z"/>
		<path class="bd8ab5eb" d="M269.4,22c-5.1,0-9.3,3.2-9.3,10.8c0,7.5,4.1,10.8,9.3,10.8s9.3-3.1,9.3-10.8C278.7,25.2,274.5,22,269.4,22z
			 M269.4,38.7c-2.1,0-3.8-1.8-3.8-5.9c0-4.2,1.7-5.9,3.8-5.9s3.8,1.7,3.8,5.9C273.2,37.1,271.5,38.7,269.4,38.7z"/>
	</g>
	<g>
		<path class="bd8ab5eb" d="M126.9,60.1v-9h-3.3v-1.2h8v1.2h-3.4v9H126.9z"/>
		<path class="bd8ab5eb" d="M132.8,60.1V49.9h1.2v3.6c0.6-0.7,1.3-1,2.2-1c0.5,0,1,0.1,1.4,0.3c0.4,0.2,0.7,0.5,0.9,0.9
			c0.2,0.4,0.3,0.9,0.3,1.6v4.7h-1.2v-4.7c0-0.6-0.1-1.1-0.4-1.4c-0.3-0.3-0.7-0.4-1.1-0.4c-0.4,0-0.7,0.1-1,0.3
			c-0.3,0.2-0.6,0.5-0.7,0.8c-0.1,0.3-0.2,0.8-0.2,1.4v4H132.8z"/>
		<path class="bd8ab5eb" d="M145.7,57.7l1.3,0.2c-0.2,0.8-0.6,1.3-1.1,1.8c-0.5,0.4-1.3,0.6-2.1,0.6c-1.1,0-1.9-0.3-2.6-1
			c-0.6-0.7-0.9-1.6-0.9-2.8c0-1.2,0.3-2.2,1-2.9c0.6-0.7,1.5-1,2.5-1c1,0,1.8,0.3,2.4,1c0.6,0.7,0.9,1.6,0.9,2.8c0,0.1,0,0.2,0,0.3
			h-5.5c0,0.8,0.3,1.4,0.7,1.9c0.4,0.4,0.9,0.6,1.5,0.6c0.5,0,0.8-0.1,1.2-0.4C145.3,58.6,145.5,58.2,145.7,57.7z M141.6,55.7h4.1
			c-0.1-0.6-0.2-1.1-0.5-1.4c-0.4-0.5-0.9-0.7-1.5-0.7c-0.6,0-1.1,0.2-1.4,0.6S141.7,55,141.6,55.7z"/>
		<path class="bd8ab5eb" d="M152.6,60.1V49.9h1.3v9h5v1.2H152.6z"/>
		<path class="bd8ab5eb" d="M165.4,57.7l1.3,0.2c-0.2,0.8-0.6,1.3-1.1,1.8c-0.5,0.4-1.3,0.6-2.1,0.6c-1.1,0-1.9-0.3-2.6-1
			c-0.6-0.7-0.9-1.6-0.9-2.8c0-1.2,0.3-2.2,1-2.9c0.6-0.7,1.5-1,2.5-1c1,0,1.8,0.3,2.4,1c0.6,0.7,0.9,1.6,0.9,2.8c0,0.1,0,0.2,0,0.3
			h-5.5c0,0.8,0.3,1.4,0.7,1.9c0.4,0.4,0.9,0.6,1.5,0.6c0.5,0,0.8-0.1,1.2-0.4C165,58.6,165.2,58.2,165.4,57.7z M161.3,55.7h4.1
			c-0.1-0.6-0.2-1.1-0.5-1.4c-0.4-0.5-0.9-0.7-1.5-0.7c-0.6,0-1.1,0.2-1.4,0.6S161.4,55,161.3,55.7z"/>
		<path class="bd8ab5eb" d="M173.1,59.2c-0.5,0.4-0.9,0.7-1.3,0.8c-0.4,0.2-0.9,0.2-1.4,0.2c-0.8,0-1.4-0.2-1.9-0.6
			c-0.4-0.4-0.7-0.9-0.7-1.5c0-0.4,0.1-0.7,0.2-1c0.2-0.3,0.4-0.5,0.6-0.7c0.3-0.2,0.6-0.3,0.9-0.4c0.2-0.1,0.6-0.1,1.1-0.2
			c1-0.1,1.7-0.3,2.2-0.4c0-0.2,0-0.3,0-0.3c0-0.5-0.1-0.9-0.4-1.1c-0.3-0.3-0.8-0.4-1.4-0.4c-0.6,0-1,0.1-1.3,0.3
			c-0.3,0.2-0.5,0.6-0.6,1.1l-1.2-0.2c0.1-0.5,0.3-0.9,0.5-1.3c0.3-0.3,0.6-0.6,1.1-0.7c0.5-0.2,1-0.3,1.7-0.3
			c0.6,0,1.1,0.1,1.5,0.2c0.4,0.1,0.7,0.3,0.9,0.6c0.2,0.2,0.3,0.5,0.4,0.8c0,0.2,0.1,0.6,0.1,1.1V57c0,1.2,0,1.9,0.1,2.2
			c0.1,0.3,0.2,0.6,0.3,0.9h-1.3C173.2,59.8,173.1,59.5,173.1,59.2z M173,56.4c-0.5,0.2-1.1,0.3-2,0.5c-0.5,0.1-0.9,0.2-1.1,0.2
			c-0.2,0.1-0.4,0.2-0.5,0.4c-0.1,0.2-0.2,0.4-0.2,0.6c0,0.3,0.1,0.6,0.4,0.8c0.3,0.2,0.6,0.3,1.1,0.3c0.5,0,0.9-0.1,1.3-0.3
			c0.4-0.2,0.6-0.5,0.8-0.9c0.1-0.3,0.2-0.7,0.2-1.2V56.4z"/>
		<path class="bd8ab5eb" d="M180.9,60.1v-0.9c-0.5,0.7-1.2,1.1-2.1,1.1c-0.6,0-1.1-0.2-1.6-0.5c-0.5-0.3-0.9-0.8-1.1-1.4
			c-0.3-0.6-0.4-1.2-0.4-2c0-0.7,0.1-1.4,0.4-2c0.2-0.6,0.6-1.1,1.1-1.4c0.5-0.3,1-0.5,1.6-0.5c0.4,0,0.8,0.1,1.2,0.3
			c0.3,0.2,0.6,0.4,0.8,0.7v-3.6h1.2v10.2H180.9z M177,56.4c0,0.9,0.2,1.6,0.6,2.1c0.4,0.5,0.9,0.7,1.4,0.7c0.5,0,1-0.2,1.4-0.7
			c0.4-0.4,0.6-1.1,0.6-2c0-1-0.2-1.7-0.6-2.2c-0.4-0.5-0.9-0.7-1.4-0.7c-0.6,0-1,0.2-1.4,0.7C177.2,54.7,177,55.4,177,56.4z"/>
		<path class="bd8ab5eb" d="M184.1,51.3v-1.4h1.2v1.4H184.1z M184.1,60.1v-7.4h1.2v7.4H184.1z"/>
		<path class="bd8ab5eb" d="M187.2,60.1v-7.4h1.1v1c0.5-0.8,1.3-1.2,2.3-1.2c0.4,0,0.9,0.1,1.2,0.2c0.4,0.2,0.6,0.4,0.8,0.6
			c0.2,0.3,0.3,0.6,0.4,0.9c0,0.2,0.1,0.6,0.1,1.2v4.5h-1.2v-4.5c0-0.5,0-0.9-0.1-1.1c-0.1-0.3-0.3-0.5-0.5-0.6
			c-0.2-0.1-0.5-0.2-0.9-0.2c-0.5,0-1,0.2-1.4,0.5c-0.4,0.3-0.6,1-0.6,1.9v4H187.2z"/>
		<path class="bd8ab5eb" d="M194.9,60.7l1.2,0.2c0.1,0.4,0.2,0.6,0.4,0.8c0.3,0.2,0.7,0.3,1.3,0.3c0.6,0,1-0.1,1.3-0.3
			c0.3-0.2,0.5-0.6,0.6-1c0.1-0.3,0.1-0.8,0.1-1.6c-0.5,0.6-1.2,1-2,1c-1,0-1.8-0.4-2.3-1.1c-0.6-0.7-0.8-1.6-0.8-2.6
			c0-0.7,0.1-1.3,0.4-1.9c0.3-0.6,0.6-1.1,1.1-1.4c0.5-0.3,1-0.5,1.7-0.5c0.9,0,1.6,0.4,2.1,1.1v-0.9h1.1v6.4c0,1.1-0.1,2-0.3,2.4
			c-0.2,0.5-0.6,0.9-1.1,1.1c-0.5,0.3-1.1,0.4-1.9,0.4c-0.9,0-1.6-0.2-2.1-0.6C195.1,62.1,194.9,61.5,194.9,60.7z M195.9,56.3
			c0,1,0.2,1.7,0.6,2.1c0.4,0.4,0.9,0.7,1.4,0.7c0.6,0,1.1-0.2,1.4-0.7c0.4-0.4,0.6-1.1,0.6-2.1c0-0.9-0.2-1.6-0.6-2
			c-0.4-0.5-0.9-0.7-1.4-0.7c-0.6,0-1,0.2-1.4,0.7C196.1,54.7,195.9,55.4,195.9,56.3z"/>
		<path class="bd8ab5eb" d="M207.1,60.1V49.9h1.4l5.3,8v-8h1.3v10.2h-1.4l-5.3-8v8H207.1z"/>
		<path class="bd8ab5eb" d="M222,59.2c-0.5,0.4-0.9,0.7-1.3,0.8c-0.4,0.2-0.9,0.2-1.4,0.2c-0.8,0-1.4-0.2-1.9-0.6
			c-0.4-0.4-0.7-0.9-0.7-1.5c0-0.4,0.1-0.7,0.2-1c0.2-0.3,0.4-0.5,0.6-0.7c0.3-0.2,0.6-0.3,0.9-0.4c0.2-0.1,0.6-0.1,1.1-0.2
			c1-0.1,1.7-0.3,2.2-0.4c0-0.2,0-0.3,0-0.3c0-0.5-0.1-0.9-0.4-1.1c-0.3-0.3-0.8-0.4-1.4-0.4c-0.6,0-1,0.1-1.3,0.3
			c-0.3,0.2-0.5,0.6-0.6,1.1l-1.2-0.2c0.1-0.5,0.3-0.9,0.5-1.3c0.3-0.3,0.6-0.6,1.1-0.7c0.5-0.2,1-0.3,1.7-0.3
			c0.6,0,1.1,0.1,1.5,0.2c0.4,0.1,0.7,0.3,0.9,0.6c0.2,0.2,0.3,0.5,0.4,0.8c0,0.2,0.1,0.6,0.1,1.1V57c0,1.2,0,1.9,0.1,2.2
			c0.1,0.3,0.2,0.6,0.3,0.9h-1.3C222.1,59.8,222,59.5,222,59.2z M221.9,56.4c-0.5,0.2-1.1,0.3-2,0.5c-0.5,0.1-0.9,0.2-1.1,0.2
			c-0.2,0.1-0.4,0.2-0.5,0.4c-0.1,0.2-0.2,0.4-0.2,0.6c0,0.3,0.1,0.6,0.4,0.8c0.3,0.2,0.6,0.3,1.1,0.3c0.5,0,0.9-0.1,1.3-0.3
			c0.4-0.2,0.6-0.5,0.8-0.9c0.1-0.3,0.2-0.7,0.2-1.2V56.4z"/>
		<path class="bd8ab5eb" d="M227.8,58.9l0.2,1.1c-0.4,0.1-0.7,0.1-0.9,0.1c-0.5,0-0.8-0.1-1.1-0.2c-0.2-0.1-0.4-0.3-0.5-0.6
			c-0.1-0.2-0.2-0.7-0.2-1.5v-4.2h-0.9v-1h0.9v-1.8l1.2-0.7v2.6h1.3v1h-1.3V58c0,0.4,0,0.6,0.1,0.7c0,0.1,0.1,0.2,0.2,0.2
			c0.1,0.1,0.2,0.1,0.4,0.1C227.4,59,227.6,59,227.8,58.9z"/>
		<path class="bd8ab5eb" d="M229,51.3v-1.4h1.2v1.4H229z M229,60.1v-7.4h1.2v7.4H229z"/>
		<path class="bd8ab5eb" d="M231.7,56.4c0-1.4,0.4-2.4,1.1-3c0.6-0.5,1.4-0.8,2.3-0.8c1,0,1.8,0.3,2.5,1c0.6,0.7,1,1.6,1,2.7
			c0,0.9-0.1,1.7-0.4,2.2c-0.3,0.5-0.7,1-1.2,1.3c-0.5,0.3-1.1,0.5-1.8,0.5c-1,0-1.9-0.3-2.5-1C232,58.6,231.7,57.6,231.7,56.4z
			 M233,56.4c0,0.9,0.2,1.6,0.6,2.1c0.4,0.5,0.9,0.7,1.6,0.7c0.6,0,1.1-0.2,1.5-0.7c0.4-0.5,0.6-1.2,0.6-2.2c0-0.9-0.2-1.6-0.6-2.1
			c-0.4-0.5-0.9-0.7-1.5-0.7c-0.6,0-1.1,0.2-1.6,0.7C233.2,54.7,233,55.4,233,56.4z"/>
		<path class="bd8ab5eb" d="M240,60.1v-7.4h1.1v1c0.5-0.8,1.3-1.2,2.3-1.2c0.4,0,0.9,0.1,1.2,0.2c0.4,0.2,0.6,0.4,0.8,0.6
			c0.2,0.3,0.3,0.6,0.4,0.9c0,0.2,0.1,0.6,0.1,1.2v4.5h-1.2v-4.5c0-0.5,0-0.9-0.1-1.1c-0.1-0.3-0.3-0.5-0.5-0.6
			c-0.2-0.1-0.5-0.2-0.9-0.2c-0.5,0-1,0.2-1.4,0.5c-0.4,0.3-0.6,1-0.6,1.9v4H240z"/>
		<path class="bd8ab5eb" d="M252.7,59.2c-0.5,0.4-0.9,0.7-1.3,0.8c-0.4,0.2-0.9,0.2-1.4,0.2c-0.8,0-1.4-0.2-1.9-0.6
			c-0.4-0.4-0.7-0.9-0.7-1.5c0-0.4,0.1-0.7,0.2-1c0.2-0.3,0.4-0.5,0.6-0.7s0.6-0.3,0.9-0.4c0.2-0.1,0.6-0.1,1.1-0.2
			c1-0.1,1.7-0.3,2.2-0.4c0-0.2,0-0.3,0-0.3c0-0.5-0.1-0.9-0.4-1.1c-0.3-0.3-0.8-0.4-1.4-0.4c-0.6,0-1,0.1-1.3,0.3
			c-0.3,0.2-0.5,0.6-0.6,1.1l-1.2-0.2c0.1-0.5,0.3-0.9,0.5-1.3c0.3-0.3,0.6-0.6,1.1-0.7c0.5-0.2,1-0.3,1.7-0.3
			c0.6,0,1.1,0.1,1.5,0.2c0.4,0.1,0.7,0.3,0.9,0.6c0.2,0.2,0.3,0.5,0.4,0.8c0,0.2,0.1,0.6,0.1,1.1V57c0,1.2,0,1.9,0.1,2.2
			c0.1,0.3,0.2,0.6,0.3,0.9H253C252.8,59.8,252.8,59.5,252.7,59.2z M252.6,56.4c-0.5,0.2-1.1,0.3-2,0.5c-0.5,0.1-0.9,0.2-1.1,0.2
			c-0.2,0.1-0.4,0.2-0.5,0.4c-0.1,0.2-0.2,0.4-0.2,0.6c0,0.3,0.1,0.6,0.4,0.8c0.3,0.2,0.6,0.3,1.1,0.3c0.5,0,0.9-0.1,1.3-0.3
			c0.4-0.2,0.6-0.5,0.8-0.9c0.1-0.3,0.2-0.7,0.2-1.2V56.4z"/>
		<path class="bd8ab5eb" d="M255.8,60.1V49.9h1.2v10.2H255.8z"/>
		<path class="bd8ab5eb" d="M261.2,60.1l3.9-10.2h1.4l4.2,10.2h-1.5L268,57h-4.2l-1.1,3.1H261.2z M264.1,55.9h3.4l-1.1-2.8
			c-0.3-0.9-0.6-1.6-0.7-2.1c-0.1,0.7-0.3,1.3-0.5,1.9L264.1,55.9z"/>
		<path class="bd8ab5eb" d="M271.6,51.3v-1.4h1.2v1.4H271.6z M271.6,60.1v-7.4h1.2v7.4H271.6z"/>
		<path class="bd8ab5eb" d="M274.7,60.1v-7.4h1.1v1.1c0.3-0.5,0.6-0.9,0.8-1c0.2-0.2,0.5-0.2,0.8-0.2c0.4,0,0.8,0.1,1.3,0.4l-0.4,1.2
			c-0.3-0.2-0.6-0.3-0.9-0.3c-0.3,0-0.5,0.1-0.7,0.2c-0.2,0.2-0.4,0.4-0.5,0.7c-0.1,0.4-0.2,0.9-0.2,1.5v3.9H274.7z"/>
		<path class="bd8ab5eb" d="M279.4,60.1V49.9h1.2v10.2H279.4z"/>
		<path class="bd8ab5eb" d="M282.6,51.3v-1.4h1.2v1.4H282.6z M282.6,60.1v-7.4h1.2v7.4H282.6z"/>
		<path class="bd8ab5eb" d="M285.8,60.1v-7.4h1.1v1c0.5-0.8,1.3-1.2,2.3-1.2c0.4,0,0.9,0.1,1.2,0.2c0.4,0.2,0.6,0.4,0.8,0.6
			c0.2,0.3,0.3,0.6,0.4,0.9c0,0.2,0.1,0.6,0.1,1.2v4.5h-1.2v-4.5c0-0.5,0-0.9-0.1-1.1c-0.1-0.3-0.3-0.5-0.5-0.6
			c-0.2-0.1-0.5-0.2-0.9-0.2c-0.5,0-1,0.2-1.4,0.5c-0.4,0.3-0.6,1-0.6,1.9v4H285.8z"/>
		<path class="bd8ab5eb" d="M298.7,57.7l1.3,0.2c-0.2,0.8-0.6,1.3-1.1,1.8c-0.5,0.4-1.3,0.6-2.1,0.6c-1.1,0-1.9-0.3-2.6-1
			c-0.6-0.7-0.9-1.6-0.9-2.8c0-1.2,0.3-2.2,1-2.9c0.6-0.7,1.5-1,2.5-1c1,0,1.8,0.3,2.4,1c0.6,0.7,0.9,1.6,0.9,2.8c0,0.1,0,0.2,0,0.3
			h-5.5c0,0.8,0.3,1.4,0.7,1.9c0.4,0.4,0.9,0.6,1.5,0.6c0.5,0,0.8-0.1,1.2-0.4C298.2,58.6,298.5,58.2,298.7,57.7z M294.6,55.7h4.1
			c-0.1-0.6-0.2-1.1-0.5-1.4c-0.4-0.5-0.9-0.7-1.5-0.7c-0.6,0-1.1,0.2-1.4,0.6C294.9,54.5,294.6,55,294.6,55.7z"/>
	</g>
	<g id="g14_00000064353764658067378480000008770782558710038702_">
		<g id="path20_00000118370491793224232260000006642069778634692783_">
			<path class="q9984e44" d="M79,39.9c0,22-17.7,39.9-39.5,39.9S0,61.9,0,39.9C0,17.8,17.7,0,39.5,0S79,17.8,79,39.9"/>
		</g>
		<g id="path22_00000166673246202545391650000011331201712251477904_">
			<path class="w8c9cfa4" d="M73.8,19.1l-1.2,0.4l-1.4,0.1L66.1,18l-10-3.6l-14.3-0.8L30.1,15l-7.9,4.2L22,22.8l-2.6,4.8l-6.8,1.9l-2.5,2
				v2.8l2,4.1l3.5,3.2l2.7-4.2l2.3,0.3c1.4,1.9,4.3,3.9,4.1,6.6c-0.8,14.2-7.5,12.8-6.9,29.3c6.2,4,13.6,6.3,21.6,6.3
				c22.1,0,40.1-18,40.1-40.1C79.6,32.3,77.5,25.2,73.8,19.1"/>
		</g>
		<g id="path24_00000150103709237041376830000003917654975167449776_">
			<path class="gb84349d" d="M74.3,26l-2.2,2.1l3,0L74.3,26z M70.1,27.7l5.6-5.5l0.7,1.8L75.3,25l1.1,3l1.5,0l0.7,1.8l-7.8-0.2L70.1,27.7
				z M71.7,32.4l7.1-1.5l0.4,1.8L72,34.2L71.7,32.4z M78.1,33.9l1.3-0.1l0.5,5.5l-7.2,0.6l-0.1-1.8l5.9-0.5L78.1,33.9z M78.1,44.9
				c0.1-0.7,0-1.2-0.4-1.7c-0.3-0.5-0.9-0.7-1.5-0.8c-0.7-0.1-1.2,0.1-1.7,0.4c-0.5,0.4-0.7,0.9-0.8,1.6c-0.1,0.7,0,1.3,0.4,1.7
				c0.3,0.5,0.9,0.7,1.5,0.8c0.7,0.1,1.2-0.1,1.7-0.4S78,45.6,78.1,44.9 M72.2,44.2c0.2-1.2,0.6-2.2,1.5-2.8
				c0.8-0.7,1.7-0.9,2.7-0.8c1,0.1,1.8,0.6,2.4,1.5c0.6,0.9,0.9,1.9,0.7,3.1c-0.2,1.2-0.6,2.2-1.5,2.8c-0.8,0.7-1.7,0.9-2.7,0.8
				c-1-0.1-1.8-0.6-2.4-1.5C72.3,46.5,72.1,45.4,72.2,44.2 M72.2,48.6l1.5,0.6c-0.7,0.7-1.3,1.5-1.6,2.3c-0.3,0.8-0.3,1.5-0.1,2.1
				c0.2,0.6,0.7,1,1.3,1.2c0.6,0.2,1.2,0.2,1.7-0.1s0.9-0.8,1.2-1.5c0.1-0.4,0.2-0.8,0.2-1.2l-0.8-0.3l-0.4,1l-1.2-0.5l1-2.7l2.8,1
				c0.2,0.4,0.2,0.9,0.2,1.5c0,0.6-0.2,1.2-0.4,1.7c-0.4,1.2-1.1,2-2.1,2.5s-1.9,0.6-2.9,0.2c-1-0.4-1.7-1.1-2.1-2.1
				c-0.4-1-0.3-2.1,0.1-3.3C71,50.1,71.5,49.2,72.2,48.6 M69.2,55.1l6,4l-0.8,1.3l-6.1,0.8l3.9,2.6l-1,1.5l-6-4l0.9-1.4l5.8-0.8
				l-3.7-2.4L69.2,55.1z M66.2,68.2c0.5-0.5,0.8-1,0.8-1.6s-0.2-1.1-0.6-1.6c-0.5-0.5-1-0.7-1.5-0.7c-0.6,0-1.1,0.2-1.6,0.7
				c-0.5,0.5-0.8,1-0.8,1.6c0,0.6,0.2,1.1,0.6,1.6c0.4,0.5,1,0.7,1.5,0.7C65.1,68.9,65.7,68.7,66.2,68.2 M62.1,63.9
				c0.9-0.8,1.9-1.2,2.9-1.2c1.1,0,1.9,0.4,2.6,1.1c0.7,0.7,1,1.6,0.9,2.7c-0.1,1.1-0.5,2-1.4,2.8c-0.9,0.8-1.9,1.2-2.9,1.2
				c-1.1,0-1.9-0.4-2.6-1.1c-0.7-0.7-1-1.6-0.9-2.7C60.8,65.7,61.2,64.7,62.1,63.9 M57.1,71l0.7-3.5l1.4-0.8l3.5,6.3l-1.6,0.9
				L58.9,70l-0.6,2.9L58.1,73l-2.8-1l2.2,3.9l-1.6,0.9l-3.5-6.3l1.4-0.8L57.1,71z M47.3,77.8c0.7-0.1,1.2-0.4,1.5-0.9
				c0.3-0.5,0.4-1,0.3-1.7c-0.1-0.6-0.4-1.1-0.9-1.4c-0.5-0.3-1.1-0.4-1.7-0.3c-0.7,0.1-1.2,0.4-1.5,0.9c-0.3,0.5-0.4,1-0.3,1.7
				c0.1,0.6,0.4,1.1,0.9,1.4C46.1,77.9,46.6,77.9,47.3,77.8 M46.2,72c1.2-0.2,2.3-0.1,3.1,0.5c0.9,0.6,1.4,1.4,1.6,2.3
				c0.2,1,0,1.9-0.6,2.8c-0.6,0.9-1.5,1.4-2.7,1.7c-1.2,0.2-2.2,0.1-3.1-0.5s-1.4-1.3-1.6-2.3c-0.2-1,0-1.9,0.6-2.8
				C44.1,72.8,45,72.3,46.2,72 M38.4,74l0,1.6l1,0c0.3,0,0.5-0.1,0.7-0.2c0.2-0.1,0.3-0.3,0.3-0.6c0-0.5-0.3-0.8-1-0.8L38.4,74z
				 M36.6,72.7l3.2,0c0.7,0,1.3,0.2,1.7,0.6c0.4,0.4,0.6,0.9,0.6,1.5c0,0.8-0.4,1.4-1.3,1.8c0.4,0.2,0.7,0.6,1,1.3
				c0.3,0.7,0.6,1.4,0.9,2.1l-2,0c-0.1-0.2-0.3-0.7-0.6-1.4c-0.3-0.7-0.5-1.1-0.7-1.3c-0.2-0.2-0.4-0.3-0.7-0.3l-0.5,0l0,2.9l-1.8,0
				L36.6,72.7z M35.1,78.5l-0.3,1.3l-5.2-1l1.4-7.1l5.2,1L35.9,74l-3.4-0.7l-0.3,1.5l3.2,0.6l-0.3,1.3L32,76.1l-0.3,1.7L35.1,78.5z
				 M26.8,75l0-3l-2,2.2L26.8,75z M28.3,70.7l0.3,7.9l-1.8-0.7l0-1.5l-3-1.2l-1,1.1L21,75.6l5.4-5.6L28.3,70.7z"/>
		</g>
		<g id="path26_00000175317863770939636360000006092801219428774846_">
			<path class="gb84349d" d="M73,19.5c-4-0.4-5.3-1.7-7.9-2.8C42.4,7.1,20.7,13.8,20,23c-0.2,4.9,24.2,2.8,24.4-2.1
				c-8.3,3.2-28.1,3.3-19.6-2.1c9.2-5.8,30.3-4.5,38.5-0.2C67.6,20.1,71.2,21.4,73,19.5"/>
		</g>
		<g id="path28_00000023251882134812151650000010451443426787689609_">
			<path class="gb84349d" d="M28.3,26c-0.5,0-0.9,0-1.3,0c-2.1-0.1-3.9-0.4-5.1-0.8c-1.4-0.5-2.2-1.3-2.1-2.2l0,0
				c0.2-2.7,2.1-5.1,5.4-7.1c4.2-2.5,10.2-4,16.9-4.1c7.6-0.1,15.6,1.5,23.1,4.7c0.7,0.3,1.4,0.6,2,1c1.6,0.8,3,1.6,5.9,1.9l0.4,0
				l-0.3,0.3c-1.9,2-5.7,0.7-10-0.8l0,0c-4-2.1-11.2-3.5-18.8-3.6C36.1,15,29,16.4,24.9,19c-1.1,0.7-2.3,1.7-1.9,2.4
				c0.5,1.1,3.9,1.6,8.6,1.5c4.7-0.2,9.7-1,12.7-2.2l0.3-0.1l0,0.3c0,0.8-0.7,1.6-1.9,2.3c-1.1,0.6-2.5,1.2-4.3,1.6
				C35.3,25.6,31.6,26,28.3,26z M20.2,23c0,1.4,2.5,2.4,6.8,2.5c7.2,0.3,16.3-1.7,17.1-4.3c-3.1,1.1-7.9,1.9-12.5,2.1
				c-2.3,0.1-4.3,0-5.9-0.3c-1.7-0.3-2.8-0.8-3.1-1.4c-0.4-0.8,0.3-1.8,2.1-3c4.2-2.7,11.4-4.1,19.7-3.9c7.6,0.1,14.8,1.5,18.9,3.7
				c3.9,1.4,7.4,2.6,9.2,1.2c-2.6-0.3-4.1-1.1-5.6-1.8c-0.6-0.3-1.2-0.6-1.9-0.9c-7.5-3.2-15.4-4.8-23-4.6c-6.6,0.1-12.6,1.5-16.7,4
				C22.2,18.2,20.4,20.6,20.2,23z"/>
		</g>
		<g id="path30_00000026160959875031765740000002525669254753339265_">
			<path class="gb84349d" d="M18.2,73.1c0-6-2-10.3,2.9-17.3c4.4-6.4,2.3-14.9-1.6-16.6c-3.6-1.6-1.2,2.8-1.3,4.6
				C12.3,42.4,9.3,39,9.1,34C9,32,8.8,29.9,13.8,28.7c1.9-6.4,5.9-7.1,7.7-3.6c3,5.8-0.2,7.4-5.6,5.4c-3-1.1-6.7-0.5-3.8,5.7
				c1,2,4,6.8,4.1,0.8c0-1.3,0-2.8,2.9-1.2c2.1,1.1,4.5,3,6.6,5c0.4,0.4,0.8,0.4,1,2.6c0.5,4.5-0.4,8.2-4.1,13.6
				C19.3,62.1,18,67.1,18.2,73.1"/>
		</g>
		<g id="path32_00000107565258341980272860000003473466065631177108_">
			<path class="gb84349d" d="M18,73.1c0-0.5,0-0.9,0-1.4c0-0.9-0.1-1.8-0.2-2.6c-0.3-4.1-0.6-8,3.2-13.4c1.2-1.7,2-3.7,2.3-5.9
				c0.3-1.9,0.2-3.8-0.3-5.6c-0.7-2.3-1.9-4.1-3.4-4.8c-1-0.4-1.3-0.3-1.5-0.2c-0.4,0.3-0.1,1.5,0.2,2.5c0.2,0.8,0.4,1.5,0.3,2.1
				l0,0.2L18.2,44c-2.9-0.7-5.2-1.9-6.8-3.6C9.8,38.7,9,36.6,8.9,34l0-0.1c-0.1-1.9-0.2-4.1,4.8-5.3c1-3.4,2.8-5.5,4.7-5.7
				c1.3-0.1,2.5,0.7,3.3,2.2c1.7,3.3,1.2,4.9,0.6,5.6c-1,1.2-3.4,1.2-6.4,0.1c-2.1-0.8-3.5-0.4-4.1,0.2c-0.8,0.9-0.6,2.7,0.5,5.2
				c0.8,1.6,2.2,3.7,3,3.6c0.2,0,0.7-0.4,0.7-2.7l0-0.1c0-0.8,0-1.5,0.6-1.9c0.5-0.3,1.3-0.1,2.6,0.6c1.9,1,4.3,2.8,6.7,5.1
				c0,0,0.1,0.1,0.1,0.1c0.4,0.3,0.7,0.6,0.9,2.6c0.6,4.8-0.6,8.7-4.1,13.7c-3.1,4.5-4.5,9-4.6,14.5c0,0.5,0,0.9,0,1.4L18,73.1z
				 M18.3,38.7c0.3,0,0.8,0.1,1.3,0.4c1.6,0.7,3,2.6,3.7,5.1c0.5,1.8,0.6,3.8,0.4,5.8c-0.3,2.2-1.1,4.2-2.4,6
				c-3.5,5.1-3.4,8.6-3.1,12.5c0.2-1.3,0.4-2.6,0.7-3.8c0.7-2.7,2-5.2,3.7-7.7c4-5.8,4.5-9.5,4-13.5c-0.2-1.8-0.5-2.1-0.8-2.3
				c0,0-0.1-0.1-0.2-0.1c-2.4-2.2-4.7-4-6.6-5c-1.1-0.6-1.9-0.8-2.2-0.6c-0.3,0.2-0.4,0.9-0.4,1.5l0,0.1c0,1.9-0.4,3-1,3.1
				c-0.5,0.1-1.2-0.3-2-1.3C12.9,38,12.3,37,12,36.3c-1.3-2.7-1.4-4.6-0.5-5.6c1-1.1,3-0.9,4.5-0.3c2.8,1.1,5,1.1,5.9,0
				c0.8-1,0.6-2.7-0.6-5.2c-0.7-1.4-1.8-2.1-2.9-2c-1.8,0.2-3.4,2.2-4.4,5.5l0,0.1l-0.1,0C9.1,30,9.2,32,9.3,33.8l0,0.1
				c0.2,5,3.2,8.2,8.7,9.6c0-0.5-0.2-1.1-0.3-1.7c-0.3-1.3-0.6-2.5,0-2.9C17.8,38.8,18,38.7,18.3,38.7z"/>
		</g>
		<g id="path34_00000098218848135150602050000005436755264324347782_">
			<path class="gb84349d" d="M21.7,32.5c0.9,1.6,2.6,1.4,3.3,1.9c10.1,10.9,10.3,6.8,14.2,8.2c3.6,0.4,7,1.1,9.9,2.8
				c-1.6-1.6-3.1-3.2-10.1-4c-4.2,0.5-7.3-2.2-10.2-5.6c-1.4-2.3-2.9-3.8-4.4-5.2L21.7,32.5z"/>
		</g>
		<g id="path36_00000083773081207550178350000017426360994589557419_">
			<path class="gb84349d" d="M49.2,45.6c0,0-0.1,0-0.1,0c-3.2-1.9-6.9-2.5-9.8-2.7c0,0,0,0-0.1,0c-1-0.4-1.7-0.4-2.5-0.3
				c-2.1,0-4.3,0.1-11.7-7.9c-0.2-0.1-0.5-0.2-0.9-0.3c-0.8-0.2-1.9-0.5-2.5-1.6c-0.1-0.1,0-0.2,0.1-0.3l2.7-1.8
				c0.1-0.1,0.2,0,0.3,0c1.6,1.4,3.1,2.9,4.5,5.2c2.5,3,5.6,6,10,5.5c0,0,0,0,0,0c6.9,0.7,8.6,2.3,10.1,3.9l0.1,0.1
				c0.1,0.1,0.1,0.2,0,0.3C49.3,45.6,49.2,45.6,49.2,45.6z M39.3,42.4c2.5,0.3,5.7,0.7,8.6,2.1c-1.4-1.2-3.5-2.3-8.9-2.9
				c-4.6,0.5-7.8-2.6-10.4-5.7c0,0,0,0,0,0c-1.3-2.2-2.8-3.6-4.3-5L22,32.6c0.5,0.8,1.4,1.1,2.1,1.3c0.4,0.1,0.8,0.2,1.1,0.4
				c0,0,0,0,0,0c7.3,7.9,9.4,7.8,11.4,7.8C37.4,42.1,38.2,42.1,39.3,42.4z"/>
		</g>
		<g id="path38_00000117637345752375345390000003807490825888360092_">
			<path class="h3d4fedc" d="M33.5,26.7c0.6,0,1.1,0.5,1.1,1.1c0,0.6-0.5,1.1-1.1,1.1c-0.6,0-1.1-0.5-1.1-1.1
				C32.4,27.2,32.9,26.7,33.5,26.7 M34.8,24.9c-2.9,0-5.2,1.7-5.2,3.7c0,2,2.3,3.7,5.2,3.7c2.9,0,5.2-1.6,5.2-3.7
				C40,26.6,37.6,24.9,34.8,24.9"/>
		</g>
		<g id="path40_00000058559219633400125540000015138512188270013612_">
			<path class="p3f22bed" d="M34.8,33.6c-1.9,0-3.6-0.5-5-1.3c-1.4-0.9-2.1-2.1-2.1-3.4c0-1.3,0.8-2.5,2.1-3.4c1.3-0.9,3.1-1.3,5-1.3
				s3.6,0.5,5,1.3c1.4,0.9,2.1,2.1,2.1,3.4c0,1.3-0.8,2.5-2.1,3.4C38.4,33.1,36.6,33.6,34.8,33.6z M34.8,24.7
				c-3.6,0-6.5,1.8-6.5,4.1c0,2.3,2.9,4.1,6.5,4.1c3.6,0,6.5-1.8,6.5-4.1C41.3,26.5,38.3,24.7,34.8,24.7z"/>
		</g>
	</g>
</g>
</svg>
