<?xml version="1.0" encoding="utf-8"?>
<!-- Generator: Adobe Illustrator 25.4.1, SVG Export Plug-In . SVG Version: 6.00 Build 0)  -->
<svg version="1.1" id="Layer_1" xmlns="http://www.w3.org/2000/svg" xmlns:xlink="http://www.w3.org/1999/xlink" x="0px" y="0px"
	 viewBox="0 0 662.6 80" style="enable-background:new 0 0 662.6 80;" xml:space="preserve">
<style type="text/css">
	.y8374506{fill:#0E4CA1;}
	.r0acc241{fill:#AED6E2;}
	.w978c508{fill:#231F20;}
</style>
<g>
	<rect class="y8374506" width="186.2" height="11.3"/>
	<rect y="18.5" class="y8374506" width="172.7" height="11.2"/>
	<rect y="37.4" class="y8374506" width="153.4" height="11.1"/>
	<g>
		<polygon class="y8374506" points="352.1,2.1 348.4,19.5 331.9,19.5 335.7,2.1 325.8,2.1 315.9,47.7 325.7,47.7 330.1,27.9 346.6,27.9 
			342.3,47.7 352.1,47.7 362,2.1 		"/>
		<path class="y8374506" d="M315.8,10.4l2.4-8.3h-24.1h-1.5h-8.2c0,0-10.6,46.2-9.7,45.6h5.7l0,0h29.4l2.1-8.3h-25.5l2.4-11.6h22.5
			l2.1-7.8h-23l2-9.7H315.8z"/>
		<path class="y8374506" d="M400.5,10.4l2.4-8.3h-22.4h-3.2h-6.6l-9.9,45.6h9.8l0.1-0.3v0.3h15.7c0,0,12.2-0.4,14.8-13.2
			c2.6-12.9-8-15.5-12.2-15.5h-12.1l1.9-8.6H400.5z M386,27.2c0.4,0,6.3,0.1,5.6,5.4c-0.7,5.5-5.5,6.9-7.7,6.9h-11.6l2.7-12.2H386z"
			/>
		<path class="y8374506" d="M262.7,2.1h-9.7h-2.8h-7.1l-9.9,45.6h9.8l3.7-16.9h13.3c0,0,12.2-0.4,14.8-13.2
			C277.6,4.8,266.9,2.1,262.7,2.1z M265.5,15.7c-0.7,5.5-5.5,6.9-7.7,6.9h-9.2l2.7-12.2h8.6C260.3,10.4,266.2,10.5,265.5,15.7z"/>
		<path class="y8374506" d="M486.2,17.6c2.6-12.9-8-15.5-12.2-15.5h-9.7h-2.8h-7.1l-9.9,45.6h9.8l3.7-16.9h13.3
			C471.4,30.9,483.6,30.5,486.2,17.6z M462.5,10.4h8.6c0.4,0,6.3,0.1,5.6,5.4c-0.7,5.5-5.5,6.9-7.7,6.9h-9.2L462.5,10.4z"/>
		<path class="y8374506" d="M569.3,19h-12l3.6-16.9h-9.8l-9.9,45.6h9.9h15.7c0,0,12.2-0.4,14.8-13.2C584.1,21.6,573.5,19,569.3,19z
			 M572.1,32.6c-0.7,5.5-5.5,6.9-7.7,6.9h-11.6l2.6-12.2h11C566.9,27.2,572.8,27.3,572.1,32.6z"/>
		<path class="y8374506" d="M439.3,2.1l-14.1,21.6l-5.8-21.6h-10.9l9.7,32.3c0,0-1.7,3.6-3.4,4.4c-1.6,0.8-5.5,1.5-7.6,0.6l-1.9,8.3
			c0,0,6.3,1.8,11-0.4c4.7-2.2,34.9-45.3,34.9-45.3H439.3z"/>
		<path class="y8374506" d="M217.6,2.1C207-0.5,194.1,7,190,19.5c-5.5,16.9,1.8,25,12.2,28.4c10.4,3.4,23.2-4.1,27.8-16.5
			C236.1,14.7,228.6,4.7,217.6,2.1z M221.1,28.5c-2.9,8-10.3,13.2-16.1,11.4c-5.7-1.9-9.6-6.9-6-17.8c2.6-8.1,10.1-13.3,16-11.9
			C221.1,11.5,225,17.6,221.1,28.5z"/>
		<path class="y8374506" d="M545.4,2.1c0,0-10.4-1.9-15.4,5c-5,6.9-6.5,13.5-11,14.4l4.2-19.4h-9.8l-4.2,19.3c0,0-2.8,0.1-3.5-3.2
			C505,15,504.1,0.2,491.4,2.1l-1.9,7.5c0,0,5.1-1.2,5.9,2.6s0.5,10.1,4.8,12.4c0,0-7.2,0.7-20,23.1H492c0,0,9.6-14.4,11.1-16.3
			c1.3-1.7,3.4-2.8,4.6-3.1l-4.2,19.4h9.9l4.2-19.6c1.5,0.3,5.8,2.7,8.3,19.6h10.1c0,0-4.1-15.5-5.1-17.9c-1-2.4-3-4.5-4.2-4.5
			c0,0,5.5-4.6,6.7-7.8c1.2-3.2,3.5-7.2,5.4-7.5s4.3,0,4.3,0L545.4,2.1z"/>
	</g>
	<path class="y8374506" d="M661.1,2.1c0,4.7-3.1,6.8-5.7,7.7c-1.8,0.6-3.4,0.7-3.4,0.7H603l-2.4,9.5h38.5c0,0.2,0,0.3,0,0.5
		c-0.2,5.1-3.5,6.9-5.3,7.5c-0.7,0.2-1.1,0.3-1.1,0.3h-33.6l-2.4,10.8h24c0,0.2,0,0.5,0,0.7c-0.2,3.4-2.2,5.4-4.1,6.5
		c-2,1.1-3.9,1.4-3.9,1.4h-27.5l9.4-45.6H661.1z"/>
	<path class="r0acc241" d="M621.5,46.3c0,7.8-9,8.1-9,8.1H586l1.7-6.7h24.9c0,0,1.9-0.3,3.9-1.4H621.5z"/>
	<path class="r0acc241" d="M640.1,28c-1.1,12.1-8.1,11.8-8.1,11.8h-11.4c0-0.2,0-0.5,0-0.7h-24l2.4-10.8h33.6c0,0,0.5-0.1,1.1-0.3H640.1z
		"/>
	<path class="r0acc241" d="M662.6,9.8c0,9.7-10.5,10.7-10.5,10.7h-13c0-0.2,0-0.3,0-0.5h-38.5l2.4-9.5h49.1c0,0,1.5-0.1,3.4-0.7H662.6z"
		/>
	<g>
		<polygon class="w978c508" points="510,67.4 502.1,67.4 502.1,60.3 497.7,60.3 497.7,79.4 502.1,79.4 502.1,71 510,71 510,79.4 
			514.3,79.4 514.3,60.3 510,60.3 		"/>
		<polygon class="w978c508" points="263.9,72.2 263.9,60.3 259.2,60.3 259.2,79.4 263.9,79.4 272.2,66.9 272.2,79.4 277,79.4 277,60.3 
			272.2,60.3 		"/>
		<polygon class="w978c508" points="537,72.2 537,60.3 532.3,60.3 532.3,79.4 537,79.4 545.3,66.9 545.3,79.4 550.1,79.4 550.1,60.3 
			545.3,60.3 		"/>
		<polygon class="w978c508" points="442.7,60.3 434.9,60.3 433.6,60.3 430.6,60.3 430.6,79.4 434.9,79.4 434.9,64 442.7,64 442.7,79.4 
			447.1,79.4 447.1,60.3 444.1,60.3 		"/>
		<path class="w978c508" d="M207,76.1V65.5c0-2.7-2.2-5.9-7.9-5.9s-7.9,5-7.9,5l4.1,1.3c0.7-2.5,2.9-2.8,5-2.6c2.1,0.3,2.3,2.5,1.8,3.1
			c-0.4,0.6-3.7,1.3-6.9,2.1c-3.3,0.8-4.7,3.4-4.6,6.2c0.1,2.8,4.4,4.9,6.2,4.9c1.9,0,3.6-0.8,4.9-1.8c0.4-0.3,0.7-0.6,0.9-1
			c0.2,0.8,0.6,2.1,1.8,2.3c1.7,0.3,4,0,4,0v-0.8C208.5,78.4,207,78,207,76.1z M202.6,73.5c0,0,0,0.5-1.3,1.8c-1.3,1.3-3,1-4.5,0.5
			c-1.5-0.5-1.4-2.5-0.4-3.6c0.8-0.9,4.7-1.9,6.1-2.2V73.5z"/>
		<path class="w978c508" d="M309.3,76.1V65.5c0-2.7-2.2-5.9-7.9-5.9s-7.9,5-7.9,5l4.1,1.3c0.7-2.5,2.9-2.8,5-2.6c2.1,0.3,2.3,2.5,1.8,3.1
			c-0.4,0.6-3.7,1.3-6.9,2.1c-3.3,0.8-4.7,3.4-4.6,6.2c0.1,2.8,4.4,4.9,6.2,4.9c1.9,0,3.6-0.8,4.9-1.8c0.4-0.3,0.7-0.6,0.9-1
			c0.2,0.8,0.6,2.1,1.8,2.3c1.7,0.3,4,0,4,0v-0.8C310.8,78.4,309.3,78,309.3,76.1z M304.9,73.5c0,0,0,0.5-1.3,1.8
			c-1.3,1.3-3,1-4.5,0.5c-1.5-0.5-1.4-2.5-0.4-3.6c0.8-0.9,4.7-1.9,6.1-2.2V73.5z"/>
		<path class="w978c508" d="M479.9,76.1V65.5c0-2.7-2.2-5.9-7.9-5.9c-5.7,0-7.9,5-7.9,5l4.1,1.3c0.7-2.5,2.9-2.8,5-2.6
			c2.1,0.3,2.3,2.5,1.8,3.1c-0.4,0.6-3.7,1.3-6.9,2.1c-3.3,0.8-4.7,3.4-4.6,6.2c0.1,2.8,4.4,4.9,6.2,4.9c1.9,0,3.6-0.8,4.9-1.8
			c0.4-0.3,0.7-0.6,0.9-1c0.2,0.8,0.6,2.1,1.8,2.3c1.7,0.3,4,0,4,0v-0.8C481.4,78.4,479.9,78,479.9,76.1z M475.5,73.5
			c0,0,0,0.5-1.3,1.8c-1.3,1.3-3,1-4.5,0.5c-1.5-0.5-1.4-2.5-0.4-3.6c0.8-0.9,4.7-1.9,6.1-2.2V73.5z"/>
		<path class="w978c508" d="M239.3,69.6c3.3-1,3.3-4.3,3.3-4.3c0-4.9-6.8-5-6.8-5h-6.3h-4.8v3.3v4.6v3.3v4.6v3.3h4.8h6.3
			c2.6,0,7.2-1.5,7.2-5C243,71,239.3,69.6,239.3,69.6z M229.4,63.6h6.3c0,0,2-0.3,2,2.1c0,2.4-2,2.5-2,2.5h-6.3V63.6z M235.8,76.1
			h-6.3v-4.6h6.3c0,0,2.4,0.2,2.4,2.4S235.8,76.1,235.8,76.1z"/>
		<path class="w978c508" d="M335.7,69.2c1.9-0.7,2.4-3.6,3-4.8c0.6-1.2,2.9-1.2,2.9-1.2v-2.9c-4.7-1-6.2,2.2-7.1,5.2
			c-0.7,2.2-2.2,2.5-3,2.5v-7.8h-4.8v19.2h4.8v-8.5c3.7,0,5.9,8.5,5.9,8.5h4.8C340.6,73.3,335.7,69.2,335.7,69.2z"/>
		<polygon class="w978c508" points="407.1,60.3 402,72.6 397.3,60.3 395.1,60.3 394.2,60.3 391,60.3 391,79.4 395.1,79.4 395.1,66.4 
			400.5,79.4 404,79.4 409.1,66.9 409.1,79.4 413.2,79.4 413.2,60.3 409.1,60.3 		"/>
		<path class="w978c508" d="M365.5,59.6c-5.4,0-9.8,4.6-9.8,10.2c0,5.6,4.4,10.2,9.8,10.2c5.4,0,9.8-4.6,9.8-10.2
			C375.3,64.2,370.9,59.6,365.5,59.6z M365.5,76c-2.6,0-4.7-2.8-4.7-6.2c0-3.4,2.1-6.2,4.7-6.2s4.7,2.8,4.7,6.2
			C370.1,73.2,368.1,76,365.5,76z"/>
		<path class="w978c508" d="M578.2,60.3h-5.8c0,0-6.9,0.3-6.9,5.5c0,3.3,2.7,4.6,4.7,5.1c-1.9,1.6-6.4,8.5-6.4,8.5h5.9
			c0,0,4.2-6.8,4.5-7.3c0.3-0.6,1.7-0.8,1.7-0.8h2.2v8.1h4.8v-8.1v-2.9v-5.2v-2.9H578.2z M578.2,68.4h-5.8c0,0-2-0.3-2-2.7
			c0-2.4,2-2.5,2-2.5h5.8V68.4z"/>
	</g>
</g>
</svg>
