<?xml version="1.0" encoding="utf-8"?>
<!-- Generator: Adobe Illustrator 25.4.1, SVG Export Plug-In . SVG Version: 6.00 Build 0)  -->
<svg version="1.1" id="Layer_1" xmlns="http://www.w3.org/2000/svg" xmlns:xlink="http://www.w3.org/1999/xlink" x="0px" y="0px"
	 viewBox="0 0 215.2 80" style="enable-background:new 0 0 215.2 80;" xml:space="preserve">
<style type="text/css">
	.c8a1e701{fill:#0C2F45;}
	.x219ffa5{fill:url(#SVGID_1_);}
	.d3f05b8a{fill:url(#SVGID_00000174591505164228015410000012076751440299766165_);}
	.p3952397{fill:url(#SVGID_00000182501930474169773990000005719615592342022030_);}
	.xa150943{fill:url(#SVGID_00000047767555861762316490000013116712609527392447_);}
	.mec11aea{fill:url(#SVGID_00000111163017079292938180000008689069264238826369_);}
	.h99170d0{opacity:0.2;fill:url(#SVGID_00000042704292745987612750000012407719887824391062_);enable-background:new    ;}
</style>
<path class="c8a1e701" d="M42.5,79.8h-5.3l1.5-6.6h0.9L38.3,79h4.4L42.5,79.8z"/>
<path class="c8a1e701" d="M48.9,79.8h-1l1.5-6.6h0.9L48.9,79.8z M50,72.8h-0.6l0.8-1.2h1.2L50,72.8z"/>
<path class="c8a1e701" d="M62.1,79.8h-0.9l-3.9-5.5l-1.3,5.5h-0.9l1.5-6.6h1l3.8,5.5l1.3-5.5h0.9L62.1,79.8z"/>
<path class="c8a1e701" d="M75.9,74.1h-5.2l-0.4,2h5l-0.2,0.8h-5L69.5,79h5.4l-0.2,0.8h-6.3l1.5-6.6H76L75.9,74.1z"/>
<path class="c8a1e701" d="M86.5,79.8L86,78.2h-4l-1.2,1.6h-1.1l4.9-6.6h1l1.9,6.6H86.5z M85,74.2l-2.4,3.3h3.3L85,74.2z"/>
<path class="c8a1e701" d="M99.4,75c-0.2-0.3-0.4-0.6-0.8-0.7c-0.2-0.1-0.3-0.1-0.5-0.2c-0.4-0.1-0.8-0.2-1.1-0.2c-1.3,0-2,0.4-2,1
	c0,0.2,0.1,0.4,0.3,0.5c0.6,0.2,1.2,0.4,1.8,0.5c0.6,0.1,1.2,0.3,1.8,0.5c0.7,0.3,1,0.7,1,1.4c0,0.5-0.2,1-0.6,1.4
	c-0.6,0.5-1.5,0.8-2.7,0.8c-0.3,0-0.7,0-1-0.1c-0.6-0.1-1.2-0.3-1.7-0.6c-0.5-0.3-0.8-0.8-1-1.3l1-0.3c0.1,0.4,0.3,0.7,0.6,0.9
	c0.6,0.4,1.4,0.6,2.1,0.5c1.4,0,2.3-0.5,2.3-1.2c0-0.2-0.1-0.4-0.2-0.5c-0.2-0.2-0.5-0.3-1.7-0.5c-0.7-0.1-1.3-0.3-2-0.5
	c-0.6-0.2-1-0.7-1-1.3c0-0.5,0.2-1,0.6-1.3c0.5-0.4,1.3-0.7,2.4-0.7c1.7,0,2.9,0.6,3.4,1.6L99.4,75z"/>
<path class="c8a1e701" d="M114,79.8l-0.4-1.6h-4l-1.2,1.6h-1.1l4.9-6.6h1l1.9,6.6H114z M112.5,74.2l-2.4,3.3h3.3L112.5,74.2z M125.4,72.8
	h-0.6l0.8-1.2h1.2L125.4,72.8z"/>
<path class="c8a1e701" d="M127.9,74.1h-5.2l-0.4,2h5l-0.2,0.8h-5l-0.5,2.2h5.4l-0.2,0.8h-6.3l1.5-6.6h6.1L127.9,74.1z"/>
<path class="c8a1e701" d="M140.1,76.1c-0.3,0.4-0.7,0.6-1.1,0.7c-0.3,0.1-0.7,0.1-1,0.1l1.8,2.9h-1.1l-1.7-2.8h-2.8l-0.6,2.8h-0.9
	l1.5-6.6h3.7c0.4,0,0.7,0,0.9,0c0.4,0,0.8,0.1,1.1,0.3c0.4,0.3,0.7,0.8,0.7,1.3C140.5,75.3,140.3,75.7,140.1,76.1z M139.3,74.3
	c-0.4-0.2-0.8-0.3-1.2-0.2h-3.2l-0.5,2.2h3.1c0.9,0,1.3-0.1,1.6-0.2c0.3-0.2,0.5-0.6,0.5-1C139.5,74.7,139.4,74.4,139.3,74.3z"/>
<path class="c8a1e701" d="M152.8,74.1h-5.1l-0.4,2h5l-0.2,0.8h-5l-0.5,2.2h5.4l-0.2,0.8h-6.3l1.5-6.6h6.1L152.8,74.1z"/>
<path class="c8a1e701" d="M163.4,79.8l-0.4-1.6h-4l-1.2,1.6h-1.1l4.9-6.6h1l1.9,6.6H163.4z M161.9,74.2l-2.4,3.3h3.3L161.9,74.2z"/>
<path class="c8a1e701" d="M176.3,75c-0.2-0.3-0.4-0.6-0.8-0.7c-0.2-0.1-0.3-0.1-0.5-0.2c-0.4-0.1-0.8-0.2-1.1-0.2c-1.3,0-2,0.4-2,1
	c0,0.2,0.1,0.4,0.3,0.5c0.6,0.2,1.2,0.4,1.8,0.5c0.6,0.1,1.2,0.3,1.8,0.5c0.7,0.3,1,0.7,1,1.4c0,0.5-0.2,1-0.6,1.4
	c-0.6,0.5-1.5,0.8-2.7,0.8c-0.3,0-0.7,0-1-0.1c-0.6-0.1-1.2-0.3-1.7-0.6c-0.5-0.3-0.8-0.8-1-1.3l1-0.3c0.1,0.4,0.3,0.7,0.6,0.9
	c0.6,0.4,1.4,0.6,2.1,0.5c1.4,0,2.3-0.5,2.3-1.2c0-0.2-0.1-0.4-0.2-0.5c-0.2-0.2-0.5-0.3-1.7-0.5c-0.7-0.1-1.3-0.3-2-0.5
	c-0.6-0.2-1-0.7-1-1.3c0-0.5,0.2-1,0.6-1.3c0.5-0.4,1.3-0.7,2.4-0.7c1.7,0,2.9,0.6,3.4,1.6L176.3,75z"/>
<linearGradient id="SVGID_1_" gradientUnits="userSpaceOnUse" x1="-749.6746" y1="-39.9775" x2="-674.4915" y2="-39.9775" gradientTransform="matrix(0.9935 0.1142 0.1142 -0.9935 796.5137 51.1272)">
	<stop  offset="0" style="stop-color:#E12F29"/>
	<stop  offset="0.53" style="stop-color:#E5332B"/>
	<stop  offset="1" style="stop-color:#BE1622"/>
</linearGradient>
<path class="x219ffa5" d="M86.1,14.2c7-1.1,14-2,20.7-2.1c13.9-0.9,15.1,1.5,15.1,1.5s-0.3-4-0.5-6.8c-0.1-0.8-0.6-1.5-1.4-1.7
	C97.7-0.8,67.3,9.2,47.8,0c0.1,5.1-0.2,11.5,9,15c5.6,1.8,16.7,1.1,28.1-0.6L86.1,14.2z"/>
<linearGradient id="SVGID_00000165205838195850939000000014492306155410010791_" gradientUnits="userSpaceOnUse" x1="-708.9086" y1="-44.2008" x2="-708.9086" y2="-44.2008" gradientTransform="matrix(0.9935 0.1142 0.1142 -0.9935 796.5137 51.1272)">
	<stop  offset="0" style="stop-color:#C73A25"/>
	<stop  offset="0.6" style="stop-color:#F8B133"/>
</linearGradient>
<path style="fill:url(#SVGID_00000165205838195850939000000014492306155410010791_);" d="M87.2,14.1L87.2,14.1z"/>
<linearGradient id="SVGID_00000069396281074266089420000011943257218487968403_" gradientUnits="userSpaceOnUse" x1="-701.9189" y1="-45.7716" x2="-629.3552" y2="-45.7716" gradientTransform="matrix(0.9935 0.1142 0.1142 -0.9935 796.5137 51.1272)">
	<stop  offset="0" style="stop-color:#C73A25"/>
	<stop  offset="0.6" style="stop-color:#F8B133"/>
</linearGradient>
<path style="fill:url(#SVGID_00000069396281074266089420000011943257218487968403_);" d="M166.9,17.1c-11.4-5.6-35.1-5.2-45-3.5
	c2.6,8.3-25.9,2.8-28.6,9.7c-1.4,3.7,6.5,4.7,19.1,1.7C126.6,21.9,150.4,16.2,166.9,17.1L166.9,17.1z"/>
<linearGradient id="SVGID_00000177478966107175441260000001637189915625843624_" gradientUnits="userSpaceOnUse" x1="-708.9086" y1="-44.2008" x2="-708.9086" y2="-44.2008" gradientTransform="matrix(0.9935 0.1142 0.1142 -0.9935 796.5137 51.1272)">
	<stop  offset="0" style="stop-color:#E12F29"/>
	<stop  offset="0.53" style="stop-color:#E5332B"/>
	<stop  offset="1" style="stop-color:#BE1622"/>
</linearGradient>
<path style="fill:url(#SVGID_00000177478966107175441260000001637189915625843624_);" d="M87.2,14.1L87.2,14.1z"/>
<linearGradient id="SVGID_00000039823755221036967760000001111963069504078730_" gradientUnits="userSpaceOnUse" x1="1231.5752" y1="59.455" x2="1256.8994" y2="67.6466" gradientTransform="matrix(-1 0 0 -1 1356.3486 83.7736)">
	<stop  offset="0" style="stop-color:#FFFFFF"/>
	<stop  offset="0.26" style="stop-color:#EDBFC2"/>
	<stop  offset="0.77" style="stop-color:#CB4650"/>
	<stop  offset="1" style="stop-color:#BD1622"/>
</linearGradient>
<path style="fill:url(#SVGID_00000039823755221036967760000001111963069504078730_);" d="M121.9,13.6c1-0.2,2.2-0.3,3.5-0.5l0.4,1.2
	c2.6,8.3-25.9,2.8-28.6,9.7c-0.5,1.2,0.1,2.2,1.5,2.7c-2.4-0.1-4.1-0.5-5-1.2c-0.7-0.5-0.9-1.4-0.6-2.2
	C96,16.4,124.5,21.9,121.9,13.6z"/>
<linearGradient id="SVGID_00000101101074931621605290000018052219643108132791_" gradientUnits="userSpaceOnUse" x1="1271.8834" y1="79.2407" x2="1268.2422" y2="85.5518" gradientTransform="matrix(-1 0 0 -1 1356.3486 83.7736)">
	<stop  offset="0" style="stop-color:#FFFFFF"/>
	<stop  offset="0.99" style="stop-color:#FFFFFF;stop-opacity:0"/>
</linearGradient>
<path style="opacity:0.2;fill:url(#SVGID_00000101101074931621605290000018052219643108132791_);enable-background:new    ;" d="
	M121.4,8.1c-0.1-0.8-0.6-1.5-1.4-1.7c-22.3-5.9-66.2,9.2-72.2-6.2V0C67.3,9.2,97.7-0.8,120,5.1c0.8,0.2,1.3,0.9,1.4,1.7
	C121.6,9.6,121.4,8.1,121.4,8.1z"/>
<path class="c8a1e701" d="M22.5,50.2c-1.1,0.8-2.4,1.3-3.7,1.5c-1.3,0.2-2.6,0.3-3.9,0.3H7.6c-0.2,0-0.4,0.1-0.4,0.4L5.4,60
	c0,0.2-0.2,0.4-0.4,0.4H0.5c-0.2,0-0.5-0.2-0.5-0.4c0,0,0-0.1,0-0.1l4.9-21.1c0-0.2,0.2-0.4,0.4-0.4h11.6c3.2,0,3.7,0,5,0.4
	c2.2,0.6,3.5,2.7,3.5,5.3C25.4,46.5,24.4,48.7,22.5,50.2z M19.2,43c-0.2-0.3-0.5-0.5-0.8-0.6c-0.6-0.2-0.8-0.3-2.5-0.3H9.9
	c-0.2,0-0.4,0.1-0.4,0.4l-1.2,5.1c-0.1,0.2,0.1,0.5,0.3,0.6c0,0,0.1,0,0.1,0h6.2c2,0,3-0.2,3.7-0.8c0.8-0.7,1.2-1.6,1.2-2.7
	C19.8,44.1,19.6,43.5,19.2,43z"/>
<path class="c8a1e701" d="M41.9,60.3H25.1c-0.2,0-0.5-0.2-0.5-0.4c0,0,0-0.1,0-0.1l4.9-21.1c0-0.2,0.2-0.4,0.4-0.4h4.6
	c0.2,0,0.5,0.2,0.5,0.4c0,0,0,0.1,0,0.1l-3.9,16.8c-0.1,0.2,0.1,0.5,0.3,0.5c0,0,0.1,0,0.1,0h11.1c0.2,0,0.5,0.2,0.5,0.4
	c0,0,0,0.1,0,0.1L42.3,60C42.3,60.2,42.1,60.3,41.9,60.3z"/>
<path class="c8a1e701" d="M70,51.1c-0.9,3.7-1.7,5.6-3.2,7.1c-0.8,0.8-1.9,1.5-3,1.9c-2.1,0.7-4.4,1-6.7,1c-3,0-5.9-0.6-7.9-1.7
	c-2.1-1.1-3.2-3.1-3.2-5.7c0-1.3,0.2-2.7,0.6-4l2.6-11c0-0.2,0.2-0.4,0.4-0.4h4.6c0.2,0,0.5,0.2,0.5,0.4c0,0,0,0.1,0,0.1l-2.6,11
	c-0.2,0.9-0.4,1.9-0.4,2.8c0,2.6,2.1,3.9,6.2,3.9c2.1,0,3.7-0.5,4.7-1.4c0.4-0.3,0.7-0.8,1-1.2c0.5-0.9,0.6-1.3,1.2-3.9l2.7-11.5
	c0-0.2,0.2-0.4,0.4-0.4h4.5c0.2,0,0.5,0.2,0.5,0.4c0,0,0,0.1,0,0.1L70,51.1z"/>
<path class="c8a1e701" d="M92.7,44.5c-0.2,0-0.4-0.1-0.5-0.2c-0.4-0.8-1.1-1.5-1.9-1.8c-1.4-0.6-3-0.9-4.5-0.8c-3.1,0-4.7,0.9-4.7,2.6
	c0,0.6,0.3,1.2,0.8,1.4c0.2,0.1,0.5,0.2,0.7,0.3c1,0.3,2.9,0.8,4.5,1.2c1.4,0.3,2.3,0.5,2.6,0.6c1.2,0.3,2.3,0.7,3.3,1.3
	c1.7,1,2.6,2.4,2.6,4.3c0,1.8-0.7,3.5-1.8,4.8c-1.8,2-4.9,2.9-9.4,2.9c-1.2,0-2.4-0.1-3.7-0.3c-2.6-0.4-4.3-1.1-5.9-2.5
	c-1.1-0.9-1.9-2.1-2.5-3.5c-0.1-0.2,0-0.5,0.2-0.6c0,0,0.1,0,0.1,0l4.3-0.8c0.2,0,0.4,0.1,0.5,0.3c1,2.2,3.5,3.5,7.2,3.5
	c3.4,0,5.5-1.1,5.5-2.9c0-0.3-0.1-0.6-0.2-0.9c-0.4-0.6-1-0.9-3-1.3l-2.1-0.5l-2.7-0.7C81,50.5,80,50.1,79,49.6
	c-2.3-1.2-3.3-2.5-3.3-4.6c0-1.9,0.8-3.7,2.2-5c1.8-1.6,4.4-2.3,8.3-2.3c3,0,5.2,0.4,7.3,1.3c1.9,0.7,3.4,2.1,4.2,4
	c0.1,0.2,0,0.5-0.2,0.6c0,0-0.1,0-0.1,0L92.7,44.5z"/>
<path class="c8a1e701" d="M122.8,50.9c-0.8,3.6-1.6,5.5-3,7c-1.8,2.1-5.1,3.1-9.7,3.1c-6.9,0-10.4-2.4-10.4-7.1c0.1-1.3,0.3-2.7,0.6-4
	l2.6-11.2c0-0.2,0.2-0.4,0.4-0.4h2.1c0.2,0,0.5,0.2,0.5,0.4c0,0,0,0.1,0,0.1l-2.6,11.3c-0.3,1.1-0.5,2.2-0.5,3.3
	c0,3.2,2.6,4.8,7.6,4.8c3.2,0,5.7-0.8,7.1-2.2c1-1.1,1.6-2.4,2.4-5.9l2.6-11.5c0-0.2,0.2-0.4,0.4-0.4h2.1c0.2,0,0.5,0.2,0.5,0.4
	c0,0,0,0.1,0,0.1L122.8,50.9z"/>
<path class="c8a1e701" d="M143.1,60.3h-16.8c-0.2,0-0.5-0.2-0.5-0.4c0,0,0-0.1,0-0.1l4.9-21.1c0-0.2,0.2-0.4,0.4-0.4h2.2
	c0.2,0,0.5,0.2,0.5,0.4c0,0,0,0.1,0,0.1l-4.2,18.2c-0.1,0.2,0.1,0.5,0.3,0.5c0,0,0.1,0,0.1,0h13.5c0.2,0,0.5,0.2,0.5,0.4
	c0,0,0,0.1,0,0.1l-0.4,1.8C143.5,60.2,143.3,60.3,143.1,60.3z"/>
<path class="c8a1e701" d="M165.3,40.9h-8.3c-0.2,0-0.4,0.1-0.4,0.4L152.3,60c0,0.2-0.2,0.4-0.4,0.4h-2.2c-0.2,0-0.5-0.2-0.5-0.4
	c0,0,0-0.1,0-0.1l4.2-18.2c0.1-0.2-0.1-0.5-0.3-0.5c0,0-0.1,0-0.1,0h-7.8c-0.2,0-0.5-0.2-0.5-0.4c0,0,0-0.1,0-0.1l0.4-1.7
	c0-0.2,0.2-0.4,0.4-0.4h20.1c0.2,0,0.5,0.2,0.5,0.4c0,0,0,0.1,0,0.1l-0.4,1.7C165.7,40.8,165.5,40.9,165.3,40.9z"/>
<path class="c8a1e701" d="M189.4,47.9c-1,1.2-2.3,2-3.8,2.4c-0.8,0.2-1.7,0.4-2.5,0.4c-0.2,0-0.4,0.2-0.4,0.5c0,0.1,0,0.2,0.1,0.2
	l5.1,8.2c0.1,0.2,0.1,0.5-0.1,0.6c-0.1,0.1-0.2,0.1-0.3,0.1H185c-0.2,0-0.3-0.1-0.4-0.2l-5.4-9c-0.1-0.1-0.2-0.2-0.4-0.2h-8.7
	c-0.2,0-0.4,0.1-0.4,0.4l-2,8.7c0,0.2-0.2,0.4-0.4,0.4H165c-0.2,0-0.5-0.2-0.5-0.4c0,0,0-0.1,0-0.1l4.9-21.1c0-0.2,0.2-0.4,0.4-0.4
	h12.1c1.3,0,2.3,0,3,0c1.3,0,2.6,0.3,3.7,1c1.4,0.8,2.2,2.4,2.2,4.3C190.8,45.2,190.3,46.7,189.4,47.9z M186.7,41.7
	c-0.7-0.5-1.8-0.7-3.9-0.7h-10.4c-0.2,0-0.4,0.1-0.4,0.4l-1.5,6.3c-0.1,0.2,0.1,0.5,0.3,0.6c0,0,0.1,0,0.1,0h9.6
	c3.1,0,4.4-0.2,5.5-0.8c1.1-0.6,1.7-1.9,1.7-3.4C187.7,43.1,187.4,42.3,186.7,41.7L186.7,41.7z"/>
<path class="c8a1e701" d="M211.3,60l-1.3-4.7c0-0.2-0.2-0.3-0.4-0.3h-12.9c-0.1,0-0.3,0.1-0.4,0.2l-3.7,5c-0.1,0.1-0.2,0.2-0.4,0.2h-2.6
	c-0.2,0-0.5-0.2-0.5-0.4c0-0.1,0-0.2,0.1-0.3l15.8-21.1c0.1-0.1,0.2-0.2,0.4-0.2h2.8c0.2,0,0.4,0.1,0.4,0.3l5.9,21.1
	c0.1,0.2,0,0.5-0.3,0.6c-0.1,0-0.1,0-0.2,0h-2.5C211.6,60.3,211.4,60.2,211.3,60z M205.8,42.2l-6.9,9.4c-0.2,0.2-0.1,0.5,0,0.6
	c0.1,0.1,0.2,0.1,0.3,0.1h9.4c0.2,0,0.5-0.2,0.5-0.4c0-0.1,0-0.1,0-0.2l-2.5-9.4c0-0.2-0.3-0.4-0.5-0.3
	C206,42.1,205.9,42.2,205.8,42.2L205.8,42.2z"/>
</svg>
