<?xml version="1.0" encoding="utf-8"?>
<!-- Generator: Adobe Illustrator 25.4.1, SVG Export Plug-In . SVG Version: 6.00 Build 0)  -->
<svg version="1.1" xmlns="http://www.w3.org/2000/svg" xmlns:xlink="http://www.w3.org/1999/xlink" x="0px" y="0px"
	 viewBox="0 0 364.8 80" style="enable-background:new 0 0 364.8 80;" xml:space="preserve">
<style type="text/css">
	.ycac5228{fill:#FFFFFF;}
	.f55d2c61{fill-rule:evenodd;clip-rule:evenodd;fill:#1B1A54;}
	.xe6cd48f{fill-rule:evenodd;clip-rule:evenodd;fill:#2B3386;}
	.r338ad17{fill-rule:evenodd;clip-rule:evenodd;fill:#FFFFFF;}
	.g7976d3d{fill-rule:evenodd;clip-rule:evenodd;fill:#EF1C2F;}
	.pebda23c{fill-rule:evenodd;clip-rule:evenodd;fill:#2C2D89;}
	.m6aa31f2{fill:#1B1A54;}
	.o49d8c1c{fill:#4F5055;}
</style>
<g id="Layer_2">
</g>
<g id="Layer_1">
	<g>
		<path class="ycac5228" d="M88,16.8c-2.6,2.7-5,5.3-7.1,8.1c-2,2.7-3.7,5.6-4.8,8.7c-0.4,1.3-0.8,2.6-1,3.8c-0.2,1.3-0.4,2.6-0.4,3.9
			l-0.5,20.5c-0.1,4.5-1.2,9-3.7,12.2c-2.3,3-5.5,4.9-10,4.9H24.6c-0.9,0-1.7-0.4-2.3-1.1c-2.8,1.5-6,2.3-9.2,2.3
			c-4.5-0.1-8.9-1.7-12.4-5.5c-1.1-1.2-1-3,0.1-4.1c0.1-0.1,0.2-0.2,0.4-0.3l2.1-1.6c-0.1-1.5-0.1-3-0.1-4.5
			c0.1-2.2,0.3-4.3,0.9-6.3c3.4-11.3,10.2-21.7,17.9-30.4C34,14,48.2,4.3,54.7,0.7c1.3-0.7,3.7-0.9,6-0.5l0,0l0,0
			c1.2,0.2,2.5,0.6,3.6,1.2c1.4,0.8,2.5,2,2.8,3.5c0.3,1,0.2,2.2-0.3,3.4c-1.6,3.9-3.5,6.6-5.5,9.4c-1.6,2.2-3.2,4.5-4.5,7.3
			c-0.3,0.6-0.3,1.1-0.2,1.4c0.1,0.1,0.1,0.2,0.2,0.3c0.1,0.1,0.2,0.1,0.3,0.1c0.1,0,0.2,0,0.2,0c1.6-1.6,3.2-3.5,4.7-5.5
			c4.1-5.1,8.2-10.1,13.5-10.4c2-0.1,3.9-0.1,5.7,0.1c2.1,0.2,3.9,0.5,5.4,0.9c1.5,0.4,2.5,2,2,3.5C88.7,16,88.4,16.4,88,16.8
			L88,16.8z"/>
		<path class="f55d2c61" d="M86,14.7c-5.3,5.5-10.3,11.2-12.7,18c-1,2.8-1.5,5.7-1.5,8.6l-0.5,20.5c-0.2,7.3-3.2,14.2-10.8,14.2H24.6
			c-0.1-0.7-0.1-2.5-0.2-3.1C18.6,78.1,9,79.1,2.9,72.5l3.5-2.6C6.1,66,5.9,62.1,7,58.5C15.2,30.7,45.6,9,56.1,3.3
			c1.9-1,9.7-0.1,8.1,4c-2.7,6.8-7,10.1-9.9,16.6c-2.1,4.7,2.9,7.4,5.3,5c5.6-5.5,10.5-14.7,16.4-15C79.8,13.5,83.5,14,86,14.7
			L86,14.7z"/>
		<path class="xe6cd48f" d="M7,58.5c3.4-11.5,10.6-22,18.7-30.8c7.9,3,17.4,2.8,28.4-0.3c0.4,0.9,1.1,1.5,1.9,1.9c-4.7,3.6-9,7-13.2,10.7
			c-3.5,4.5-7.5,9.2-12.5,12C21.9,56.7,14.9,58.6,7,58.5L7,58.5z"/>
		<path class="r338ad17" d="M12.9,44.9c2-3.5,4.3-6.8,6.7-10c6.5,1.5,16.9,0.9,26.9-3.3l1.5,0.7C41.6,35.5,29.4,47.9,20.5,47
			C17.8,46.7,16.4,46.9,12.9,44.9L12.9,44.9z"/>
		<path class="r338ad17" d="M76.4,16.3c1.1-0.4,2.1-0.3,2.3,0.2c0.2,0.5-0.5,1.3-1.6,1.7C76,18.6,75,18.5,74.8,18
			C74.6,17.5,75.3,16.7,76.4,16.3L76.4,16.3z"/>
		<path class="xe6cd48f" d="M27.7,37.8h1v1.1h-1V37.8L27.7,37.8z M27.7,41.9h1V43h-1V41.9L27.7,41.9z M24.7,40.9h1V42h-1V40.9L24.7,40.9z
			 M22.6,37.8h1v1.1h-1V37.8L22.6,37.8z M19.5,41.9h1V43h-1V41.9L19.5,41.9z"/>
		<path class="r338ad17" d="M71,50.8l0.4-11.2H59c-3.3,0-3.2,4.5-2.5,6l3.9,7.8c0.7,1.4,1.5,2.5-0.5,2.5L56,56c-1.4,5.1-2.9,10-4.6,15.1
			h15.5c3.4,0,4.8-8,3.2-11.1l-4-7.4c-0.3-0.6-1.2-1.8,0.6-1.8H71L71,50.8z M52.2,39.6H47c-2.4,9.5-4.3,18.8-7.5,28.1
			c-1.7,4.9,5.2,5,10.3,3.2c1.8-4.9,3.3-9.8,4.5-14.7h-6.9L52.2,39.6L52.2,39.6z M9,54.7c4.3,0,8.9-0.1,13.2,0
			c5.7,0.1,14.9-7.8,20.1-15.1H45c-1.9,10.6-4.7,21.1-8.3,31.7c-2,0-4.1,0-6.1,0c1.4-3.7,2.7-7.4,3.5-11c-8.9,9.8-15.4,13.3-20,12.9
			c-3.5-0.3-5.2-2.2-7.1-3.4C6.5,64.5,6.8,59.4,9,54.7L9,54.7z M32.3,57h2.9l1.6-3.8L32.3,57L32.3,57z"/>
		<path class="r338ad17" d="M83,39.6c6.3-2.2,10.9-3.7,18.2-3.4c9.4,0.1,18.3,4.2,23.8,11.4c6,7.8,8.3,9.4,9.5,9.1
			c1.3-0.3,1.5-3.6-2.4-11c-2.7-5.1,0.8-8.8,6-8.9c4.6-0.1,23.1,5,40.7,8.8c13.7,3,27.9,4,42.1,4.4c46.2,1.2,99.1-4.5,143.9-13.9
			c-40.7,16.2-81.3,22.7-123.2,24.2c-33.3,1.3-65.6-2.7-97.8-11.5l3.3,7.4c3.6,7.9-7.8,13.5-18,9.7c-11.4,1.4-19.3-2.3-25.7-12.5
			C98.8,46.2,89.5,45,83,39.6L83,39.6z"/>
		<path class="g7976d3d" d="M86.3,39.6c7.6-2,10.4-1.9,18.5-1.1c13,1.2,17.4,8.9,23.5,16.1c4.4,5.1,7.4,5.3,8.5,2.8
			c1.2-2.6-0.4-7.7-2.3-10.8c-4.4-7.3,2.2-9.2,10.6-6.9c41.2,11.2,57.5,12.8,88.1,12.2c43.6-0.8,70-3.1,115-11.2
			C311,53.4,279.7,57.1,234.5,59.1c-26.3,1.2-51.8-3.3-72.5-7.6c-7.3-1.5-13.8-3.6-19.8-4.6c-3-0.5,0.8,4.4,2.7,9.8
			c2,5.4-3.7,9.9-12.5,8.3c-12.3-2.4-15.4-17.2-26.8-21.8C97.7,40,94.8,41,86.3,39.6L86.3,39.6z"/>
		<path class="pebda23c" d="M87.8,41.3c7.8,0.7,16,2.7,21.5,7.7c5.3,4.8,10.4,11.3,16.5,16c-10-0.4-16.4-4.5-19.9-11
			C102.6,47.8,94.5,44.6,87.8,41.3L87.8,41.3z"/>
		<path class="m6aa31f2" d="M99.9,23.5c0.1,0,0.2,0,0.2,0.1c0.1,0,0.1,0.1,0.1,0.2l2.7,7.2c0.1,0.2,0.1,0.4,0,0.5
			c-0.1,0.1-0.2,0.2-0.3,0.3c-0.2,0-0.3,0-0.4,0.1c-0.1,0-0.1,0.1-0.1,0.2c0,0.1,0.1,0.2,0.3,0.2c0.2,0,0.4,0.1,0.7,0.1
			c0.9,0,1.7,0,2.6,0c0.8,0,1.5,0,2.2,0c0.6,0,1.2,0,1.6,0c0.4,0,0.7,0,0.9,0c0.2,0,0.4-0.1,0.5-0.1c0.1-0.1,0.1-0.1,0.1-0.2
			c0-0.1,0-0.2-0.1-0.2c-0.1,0-0.2-0.1-0.3,0c-0.2,0-0.4,0-0.7,0c-0.2,0-0.5-0.1-0.7-0.1c-0.2,0-0.4-0.1-0.6-0.2
			c-0.2-0.1-0.4-0.3-0.7-0.6c-0.2-0.3-0.5-0.6-0.8-1.1c-0.3-0.5-0.6-1.1-0.9-1.9c-0.3-0.7-0.6-1.5-0.9-2.4c-0.4-0.9-0.7-1.9-1.1-2.9
			c-0.4-1.1-0.8-2.1-1.3-3.2c-0.4-1.1-0.9-2.2-1.3-3.3c-0.4-1.1-0.8-2.2-1.2-3.2c-0.4-1-0.8-1.9-1.1-2.8c-0.3-0.8-0.6-1.5-0.8-2.1
			c-0.2-0.6-0.4-1-0.5-1.2c-0.2-0.4-0.3-0.7-0.4-0.9c-0.1-0.2-0.3-0.3-0.4-0.3c-0.2,0-0.3,0.1-0.4,0.3c-0.1,0.2-0.3,0.6-0.5,1.1
			l-8.4,21.6c-0.2,0.6-0.4,1.1-0.7,1.5c-0.2,0.4-0.5,0.8-0.9,1.1c-0.3,0.3-0.8,0.4-1.3,0.5c-0.1,0-0.3,0-0.5,0c-0.2,0-0.4,0-0.5,0
			c-0.1,0-0.2,0-0.3,0.1c-0.1,0-0.1,0.1-0.1,0.2c0,0.1,0,0.2,0.2,0.3c0.1,0,0.3,0.1,0.5,0.1c0.4,0,0.9,0,1.3,0c0.4,0,0.8,0,1.2,0
			c0.4,0,0.7,0,0.9,0c0.3,0,0.4,0,0.5,0c0.4,0,0.7,0,1.1,0c0.4,0,0.8,0,1.2,0c0.4,0,0.8,0,1.2,0c0.2,0,0.3,0,0.4-0.1
			c0.1-0.1,0.1-0.1,0.1-0.3c0-0.1,0-0.2-0.1-0.2c-0.1,0-0.2-0.1-0.4-0.1h-0.5c-0.5,0-0.9-0.1-1.1-0.3c-0.2-0.2-0.3-0.5-0.3-0.8
			c0-0.2,0-0.5,0.1-0.9c0.1-0.4,0.2-0.8,0.4-1.2l1.8-4.8c0-0.1,0.1-0.2,0.1-0.2c0,0,0.1-0.1,0.2-0.1H99.9L99.9,23.5z M93.1,21.8
			c-0.1,0-0.1,0-0.1-0.1c0,0,0-0.1,0-0.2L96,13c0-0.1,0-0.1,0.1-0.2c0-0.1,0.1-0.1,0.1-0.1c0,0,0.1,0,0.1,0.1c0,0.1,0,0.1,0.1,0.2
			l3,8.6c0,0.1,0,0.1,0,0.1c0,0-0.1,0.1-0.2,0.1H93.1L93.1,21.8z M111.6,23.7c0,0.9,0,1.8,0,2.6c0,0.8,0,1.5,0,2.1
			c0,0.6-0.1,1.2-0.1,1.6c0,0.3-0.1,0.5-0.1,0.8c-0.1,0.2-0.1,0.4-0.3,0.6c-0.1,0.1-0.3,0.2-0.5,0.3c-0.1,0-0.3,0.1-0.5,0.1
			c-0.2,0-0.4,0-0.6,0c-0.2,0-0.3,0-0.4,0.1c-0.1,0-0.1,0.1-0.1,0.2c0,0.1,0,0.2,0.2,0.2c0.1,0,0.3,0.1,0.4,0.1c0.3,0,0.6,0,1,0
			c0.4,0,0.7,0,1.1,0c0.4,0,0.7,0,1,0c0.3,0,0.5,0,0.7,0c0.4,0,0.9,0,1.4,0c0.5,0,1.1,0,1.7,0.1c0.6,0,1.4,0,2.2,0.1
			c0.9,0,1.8,0,3,0c0.4,0,0.7,0,0.9,0c0.2,0,0.4-0.1,0.5-0.2c0.1-0.1,0.2-0.3,0.3-0.5c0-0.2,0.1-0.4,0.1-0.7c0-0.3,0.1-0.6,0.1-0.9
			c0-0.3,0.1-0.7,0.1-1c0-0.3,0-0.5,0-0.7c0-0.2,0-0.3,0-0.4c0-0.1-0.1-0.2-0.2-0.2c-0.1,0-0.2,0-0.2,0.1c0,0.1-0.1,0.2-0.1,0.3
			c-0.1,0.6-0.3,1.1-0.5,1.4c-0.2,0.3-0.5,0.6-0.9,0.8c-0.3,0.1-0.6,0.2-0.9,0.3c-0.3,0-0.7,0.1-1,0.1c-0.3,0-0.6,0-0.9,0
			c-0.8,0-1.4,0-1.8-0.1c-0.5-0.1-0.8-0.2-1.1-0.4c-0.3-0.2-0.4-0.4-0.5-0.8c-0.1-0.3-0.1-0.7-0.2-1.2c0-0.2,0-0.4,0-0.7
			c0-0.3,0-0.6,0-1c0-0.4,0-0.7,0-1.1c0-0.4,0-0.7,0-1c0-0.3,0-0.6,0-0.8v-2.3c0-0.1,0-0.2,0-0.2c0,0,0.1-0.1,0.1-0.1
			c0.2,0,0.4,0,0.7,0c0.3,0,0.6,0,1,0c0.4,0,0.7,0,1.1,0c0.4,0,0.7,0,1,0c0.3,0,0.5,0,0.6,0c0.4,0,0.7,0.1,0.9,0.2
			c0.2,0.1,0.4,0.2,0.5,0.4c0.1,0.2,0.2,0.3,0.3,0.5c0,0.2,0.1,0.4,0.1,0.6c0,0.2,0,0.3,0,0.5c0,0.1,0,0.1,0.1,0.2
			c0,0,0.1,0.1,0.2,0.1c0.1,0,0.2,0,0.2-0.1c0-0.1,0.1-0.1,0.1-0.2c0-0.1,0-0.2,0-0.3c0-0.1,0-0.2,0-0.3c0-0.2,0-0.3,0-0.5
			c0-0.2,0-0.4,0-0.6c0-0.2,0-0.4,0-0.5c0-0.5,0.1-0.9,0.1-1.2c0-0.3,0.1-0.5,0.1-0.7c0-0.1,0-0.3,0-0.3c0-0.1,0-0.1-0.1-0.2
			c0,0-0.1,0-0.2,0c-0.1,0-0.1,0-0.2,0.1c-0.1,0.1-0.2,0.2-0.3,0.3c-0.1,0.1-0.3,0.2-0.6,0.3c-0.2,0.1-0.5,0.1-0.9,0.1
			c-0.1,0-0.4,0-0.7,0c-0.3,0-0.7,0-1.1,0c-0.4,0-0.8,0-1.2,0c-0.4,0-0.8,0-1.1,0c-0.3,0-0.5,0-0.7,0c-0.1,0-0.1,0-0.2-0.1
			c0-0.1,0-0.1,0-0.2v-7.5c0-0.1,0-0.2,0-0.2c0,0,0.1-0.1,0.2-0.1c0.1,0,0.3,0,0.6,0c0.3,0,0.6,0,1,0c0.4,0,0.7,0,1.1,0
			c0.4,0,0.7,0,1,0c0.3,0,0.5,0,0.6,0c0.5,0.1,0.9,0.1,1.1,0.2c0.3,0.1,0.5,0.2,0.6,0.4c0.1,0.1,0.2,0.3,0.3,0.5
			c0,0.1,0.1,0.3,0.1,0.4c0,0.1,0,0.3,0.1,0.4c0,0.1,0,0.2,0,0.3c0,0.1,0,0.2,0.1,0.3c0,0.1,0.1,0.1,0.2,0.1c0.1,0,0.2,0,0.2-0.1
			c0-0.1,0.1-0.1,0.1-0.2c0-0.1,0-0.2,0-0.4c0-0.2,0-0.4,0-0.6c0-0.2,0-0.4,0-0.6c0-0.2,0-0.3,0-0.4c0-0.4,0.1-0.8,0.1-1.1
			c0-0.3,0.1-0.4,0.1-0.6c0-0.1,0-0.2,0-0.3c0-0.1,0-0.1,0-0.2c0,0-0.1-0.1-0.1-0.1c-0.1,0-0.2,0-0.2,0c-0.1,0-0.2,0-0.2,0.1
			c-0.1,0-0.3,0.1-0.5,0.1c-0.2,0-0.5,0.1-0.8,0.1c-0.1,0-0.3,0-0.7,0c-0.4,0-0.8,0-1.3,0c-0.5,0-1.1,0-1.6,0s-1.1,0-1.7,0
			c-0.5,0-1,0-1.4,0c-0.4,0-0.7,0-0.9,0c-0.2,0-0.5,0-0.8,0c-0.3,0-0.7,0-1.1,0c-0.4,0-0.8,0-1.2,0c-0.4,0-0.8,0-1.2,0
			c-0.2,0-0.4,0-0.5,0.1c-0.1,0-0.2,0.1-0.2,0.2c0,0.1,0,0.2,0.1,0.2c0.1,0,0.2,0.1,0.4,0.1c0.2,0,0.4,0,0.7,0c0.2,0,0.4,0,0.5,0.1
			c0.3,0.1,0.6,0.2,0.8,0.3c0.2,0.1,0.3,0.3,0.4,0.5c0.1,0.2,0.1,0.5,0.1,0.8c0,0.2,0,0.4,0,0.6c0,0.2,0,0.5,0,0.7
			c0,0.3,0,0.6,0,1.1c0,0.4,0,1,0,1.6c0,0.6,0,1.4,0,2.3V23.7L111.6,23.7z M128.8,23.8c0,0.9,0,1.8,0,2.6c0,0.8,0,1.5,0,2.1
			c0,0.6-0.1,1.2-0.1,1.6c0,0.3-0.1,0.5-0.1,0.8c-0.1,0.2-0.1,0.4-0.3,0.6c-0.1,0.1-0.3,0.2-0.5,0.3c-0.1,0-0.3,0.1-0.5,0.1
			c-0.2,0-0.4,0-0.6,0c-0.2,0-0.3,0-0.4,0.1c-0.1,0-0.1,0.1-0.1,0.2c0,0.1,0,0.2,0.2,0.2c0.1,0,0.2,0.1,0.4,0.1c0.3,0,0.6,0,1,0
			c0.4,0,0.7,0,1,0c0.3,0,0.7,0,0.9,0c0.3,0,0.5,0,0.6,0c0.1,0,0.3,0,0.6,0c0.3,0,0.7,0,1.1,0c0.4,0,0.9,0,1.3,0c0.5,0,0.9,0,1.3,0
			c0.2,0,0.3,0,0.4-0.1c0.1,0,0.2-0.1,0.2-0.2c0-0.1,0-0.1-0.1-0.2c-0.1,0-0.1-0.1-0.3-0.1c-0.1,0-0.3,0-0.4,0c-0.2,0-0.3,0-0.5,0
			c-0.2,0-0.3,0-0.5-0.1c-0.3,0-0.5-0.1-0.7-0.3c-0.2-0.1-0.3-0.3-0.3-0.6c-0.1-0.2-0.1-0.5-0.1-0.8c0-0.4-0.1-0.9-0.1-1.6
			c0-0.6,0-1.4,0-2.2c0-0.8,0-1.7,0-2.6v-0.4c0-0.1,0-0.1,0.1-0.2c0,0,0.1,0,0.2,0l2.6,0.1c0.1,0,0.2,0,0.3,0c0.1,0,0.2,0.1,0.2,0.2
			c0.1,0.1,0.3,0.3,0.5,0.6c0.2,0.3,0.4,0.6,0.7,1c0.3,0.4,0.6,0.8,0.9,1.2c0.3,0.4,0.6,0.8,0.9,1.3c0.5,0.8,1,1.4,1.5,2
			c0.5,0.6,0.9,1,1.3,1.4c0.4,0.4,0.8,0.7,1.2,0.9c0.3,0.1,0.5,0.2,0.8,0.3c0.3,0.1,0.6,0.1,1,0.2c0.4,0,0.8,0.1,1.4,0.1h2.8
			c0.2,0,0.3,0,0.4-0.1c0.1,0,0.1-0.1,0.1-0.2c0-0.1,0-0.1-0.1-0.2c-0.1,0-0.1-0.1-0.3-0.1s-0.2,0-0.4,0c-0.1,0-0.3,0-0.4-0.1
			c-0.1,0-0.3-0.1-0.5-0.1c-0.2-0.1-0.4-0.2-0.7-0.3c-0.3-0.1-0.6-0.3-1-0.6c-0.4-0.3-0.7-0.6-1.2-1c-0.9-0.9-1.8-2-2.9-3.3
			c-1.1-1.3-2.2-2.8-3.5-4.4c1-0.8,1.8-1.6,2.3-2.3c0.6-0.7,1-1.5,1.2-2.2c0.2-0.7,0.4-1.4,0.3-2.1c0-0.5-0.1-1-0.2-1.4
			c-0.1-0.4-0.3-0.8-0.5-1.2c-0.2-0.3-0.4-0.7-0.7-0.9c-0.2-0.3-0.5-0.4-0.7-0.6c-0.5-0.4-1.1-0.6-1.7-0.8c-0.6-0.2-1.2-0.3-1.9-0.4
			c-0.6-0.1-1.3-0.1-1.9-0.1c-0.2,0-0.5,0-0.9,0c-0.4,0-0.7,0-1.2,0c-0.4,0-0.8,0-1.2,0c-0.4,0-0.7,0-0.9,0c-0.2,0-0.4,0-0.7,0
			c-0.3,0-0.6,0-1,0c-0.4,0-0.8,0-1.2,0c-0.4,0-0.8,0-1.2,0c-0.2,0-0.4,0-0.5,0.1c-0.1,0-0.2,0.1-0.2,0.2c0,0.1,0,0.2,0.1,0.2
			c0.1,0,0.2,0.1,0.4,0.1c0.2,0,0.4,0,0.6,0c0.2,0,0.4,0,0.5,0.1c0.3,0.1,0.6,0.2,0.7,0.3c0.2,0.1,0.3,0.3,0.4,0.5
			c0.1,0.2,0.1,0.5,0.1,0.8c0,0.2,0,0.4,0,0.6c0,0.2,0,0.5,0,0.7c0,0.3,0,0.6,0,1.1c0,0.4,0,1,0,1.6c0,0.6,0,1.4,0,2.3V23.8
			L128.8,23.8z M132.3,12c0-0.1,0-0.2,0.1-0.3c0-0.1,0.1-0.1,0.2-0.1c0.1,0,0.4-0.1,0.6-0.1c0.3,0,0.6,0,1,0c0.4,0,0.7,0,1.1,0.2
			c0.4,0.1,0.8,0.3,1.2,0.5c0.4,0.2,0.8,0.6,1.1,1c0.3,0.4,0.6,0.9,0.8,1.5c0.2,0.6,0.3,1.3,0.3,2.2c0,0.8-0.1,1.5-0.3,2.1
			c-0.2,0.6-0.4,1.1-0.6,1.4c-0.3,0.4-0.5,0.7-0.8,0.9c-0.2,0.1-0.3,0.2-0.5,0.3c-0.2,0.1-0.4,0.1-0.6,0.2c-0.2,0-0.6,0-1,0
			c-0.2,0-0.5,0-0.8,0c-0.3,0-0.5-0.1-0.8-0.1c-0.3,0-0.5-0.1-0.7-0.2c-0.1,0-0.2-0.1-0.2-0.2c0-0.1-0.1-0.2-0.1-0.4V12L132.3,12z
			 M158.1,32.4c1.5,0,2.9-0.2,4.2-0.6c1.3-0.4,2.4-1,3.4-1.7c1-0.7,1.8-1.6,2.5-2.6c0.7-1,1.2-2.1,1.6-3.3c0.4-1.2,0.6-2.5,0.6-3.9
			c0-1.7-0.3-3.2-0.8-4.6c-0.5-1.4-1.3-2.5-2.4-3.5c-1-1-2.3-1.7-3.8-2.2c-1.5-0.5-3.1-0.8-5-0.8c-1.5,0-2.8,0.2-4,0.5
			c-1.2,0.3-2.2,0.8-3.1,1.4c-0.9,0.6-1.7,1.3-2.3,2c-0.6,0.8-1.2,1.6-1.6,2.4c-0.4,0.9-0.7,1.7-0.9,2.6c-0.2,0.9-0.3,1.8-0.3,2.6
			c0,0.9,0.1,1.8,0.3,2.7c0.2,0.9,0.5,1.8,0.9,2.7c0.4,0.9,0.9,1.7,1.6,2.4c0.6,0.8,1.4,1.4,2.3,2c0.9,0.6,1.9,1,3,1.3
			C155.4,32.2,156.7,32.4,158.1,32.4L158.1,32.4z M159.3,30.9c-1.1,0-2.2-0.2-3.1-0.6c-0.9-0.4-1.8-0.9-2.5-1.6
			c-0.7-0.7-1.4-1.5-1.9-2.4c-0.5-0.9-0.9-1.9-1.2-3c-0.3-1.1-0.4-2.3-0.4-3.5c0-1.5,0.1-2.7,0.4-3.8c0.3-1.1,0.7-1.9,1.2-2.7
			c0.5-0.7,1-1.3,1.7-1.7c0.6-0.4,1.3-0.7,2-0.9c0.7-0.2,1.4-0.3,2.1-0.3c1.2,0,2.4,0.3,3.4,0.7c1,0.5,2,1.2,2.7,2.1
			c0.8,0.9,1.4,2.1,1.8,3.4c0.4,1.3,0.7,2.8,0.7,4.5c0,1.4-0.1,2.6-0.4,3.7c-0.2,1-0.6,1.9-1,2.6c-0.4,0.7-0.8,1.3-1.3,1.7
			c-0.5,0.4-1,0.8-1.5,1c-0.5,0.2-1,0.4-1.5,0.5C160.1,30.9,159.7,30.9,159.3,30.9L159.3,30.9z M178.4,18.5c0-0.9,0-1.7,0-2.3
			c0-0.6,0-1.2,0-1.6c0-0.4,0-0.8,0-1.1c0-0.3,0-0.5,0-0.7c0-0.2,0-0.4,0-0.6c0-0.5,0.1-0.9,0.3-1.2c0.2-0.3,0.4-0.4,0.8-0.5
			c0.2,0,0.4-0.1,0.6-0.1c0.2,0,0.4,0,0.6,0c0.2,0,0.3,0,0.4-0.1c0.1,0,0.1-0.1,0.1-0.2c0-0.1-0.1-0.2-0.2-0.2
			c-0.1,0-0.3-0.1-0.5-0.1c-0.3,0-0.6,0-1,0c-0.4,0-0.8,0-1.2,0c-0.4,0-0.7,0-1.1,0c-0.3,0-0.6,0-0.8,0c-0.2,0-0.5,0-0.8,0
			c-0.3,0-0.7,0-1,0c-0.4,0-0.8,0-1.1,0c-0.4,0-0.8,0-1.1,0c-0.2,0-0.4,0-0.5,0.1c-0.1,0-0.2,0.1-0.2,0.2c0,0.1,0,0.2,0.1,0.2
			c0.1,0,0.2,0.1,0.4,0.1c0.2,0,0.4,0,0.5,0c0.2,0,0.3,0,0.4,0.1c0.3,0.1,0.6,0.2,0.7,0.3c0.2,0.1,0.3,0.3,0.4,0.5
			c0.1,0.2,0.1,0.5,0.1,0.8c0,0.2,0,0.4,0,0.6c0,0.2,0,0.5,0,0.7c0,0.3,0,0.6,0,1.1c0,0.4,0,1,0,1.6c0,0.6,0,1.4,0,2.3v5.2
			c0,0.9,0,1.8,0,2.6c0,0.8,0,1.5,0,2.1c0,0.6-0.1,1.2-0.1,1.6c0,0.3-0.1,0.5-0.1,0.8c-0.1,0.2-0.1,0.4-0.3,0.6
			c-0.1,0.1-0.3,0.2-0.5,0.3c-0.1,0-0.3,0.1-0.5,0.1c-0.2,0-0.4,0-0.6,0c-0.2,0-0.3,0-0.4,0.1c-0.1,0-0.1,0.1-0.1,0.2
			c0,0.1,0,0.2,0.2,0.2c0.1,0,0.2,0.1,0.4,0.1c0.3,0,0.6,0,1,0c0.4,0,0.7,0,1.1,0c0.4,0,0.7,0,1,0c0.3,0,0.5,0,0.7,0
			c0.4,0,0.8,0,1.2,0c0.4,0,0.8,0,1.2,0c0.4,0,0.8,0,1.3,0c0.7,0,1.4,0,2.2,0.1c0.8,0,1.7,0,2.8,0c0.4,0,0.7,0,0.9,0
			c0.2,0,0.4-0.1,0.5-0.1c0.1-0.1,0.2-0.1,0.3-0.2c0.1-0.1,0.1-0.2,0.1-0.4c0-0.2,0.1-0.4,0.1-0.7c0-0.3,0.1-0.5,0.1-0.8
			c0-0.3,0.1-0.6,0.1-0.8c0-0.3,0-0.5,0.1-0.7c0-0.2,0-0.3,0-0.4c0-0.2,0-0.3,0-0.4c0-0.1-0.1-0.1-0.2-0.1c-0.1,0-0.2,0-0.2,0.1
			c0,0.1-0.1,0.2-0.1,0.3c0,0.2-0.1,0.4-0.1,0.6c-0.1,0.2-0.2,0.4-0.3,0.6c-0.1,0.2-0.2,0.4-0.3,0.5c-0.2,0.3-0.5,0.5-0.9,0.6
			c-0.3,0.1-0.7,0.2-1.2,0.2c-0.4,0-0.9,0-1.4,0c-0.8,0-1.4,0-1.8-0.1c-0.5,0-0.8-0.1-1.1-0.2c-0.3-0.1-0.5-0.2-0.6-0.4
			c-0.2-0.2-0.3-0.5-0.4-1c-0.1-0.5-0.1-1.2-0.2-2.1c0-0.9,0-2,0-3.2V18.5L178.4,18.5z M190.6,23.8c0,1,0,1.8,0,2.7
			c0,0.8,0,1.5,0,2.2c0,0.6-0.1,1.2-0.1,1.6c0,0.4-0.1,0.8-0.2,1c-0.1,0.3-0.3,0.4-0.6,0.5c-0.1,0-0.3,0.1-0.5,0.1
			c-0.2,0-0.4,0-0.6,0c-0.2,0-0.3,0-0.4,0.1c-0.1,0-0.1,0.1-0.1,0.2c0,0.1,0,0.2,0.2,0.2c0.1,0,0.2,0.1,0.4,0.1c0.3,0,0.6,0,1,0
			c0.4,0,0.7,0,1.1,0c0.4,0,0.7,0,1,0c0.3,0,0.5,0,0.7,0c0.3,0,0.6,0,1.1,0c0.5,0,1,0,1.6,0c0.6,0,1.2,0,1.9,0c0.2,0,0.3,0,0.4-0.1
			c0.1,0,0.2-0.1,0.2-0.2c0-0.1,0-0.1-0.1-0.2c-0.1,0-0.2-0.1-0.4-0.1c-0.2,0-0.3,0-0.5,0c-0.2,0-0.4,0-0.5,0c-0.2,0-0.3,0-0.5-0.1
			c-0.3,0-0.5-0.1-0.7-0.3c-0.2-0.1-0.3-0.3-0.4-0.5c-0.1-0.2-0.1-0.4-0.1-0.7c0-0.4-0.1-1-0.1-1.6c0-0.6,0-1.4,0-2.2
			c0-0.8,0-1.7,0-2.7v-5.2c0-0.9,0-1.7,0-2.3c0-0.6,0-1.2,0-1.6c0-0.4,0-0.8,0-1.1c0-0.3,0-0.5,0-0.7c0-0.2,0-0.4,0-0.6
			c0-0.5,0.1-0.9,0.3-1.2c0.2-0.3,0.4-0.4,0.8-0.5c0.2,0,0.3-0.1,0.5-0.1c0.1,0,0.3,0,0.4,0c0.1,0,0.3,0,0.3-0.1
			c0.1,0,0.1-0.1,0.1-0.2c0-0.1-0.1-0.1-0.2-0.2c-0.1,0-0.3,0-0.5,0c-0.3,0-0.6,0-0.9,0c-0.3,0-0.7,0-1,0c-0.3,0-0.7,0-0.9,0
			c-0.3,0-0.5,0-0.7,0c-0.2,0-0.5,0-0.8,0c-0.3,0-0.7,0-1,0c-0.4,0-0.7,0-1.1,0c-0.4,0-0.7,0-1,0c-0.2,0-0.4,0-0.5,0
			c-0.1,0-0.2,0.1-0.2,0.2c0,0.1,0,0.2,0.1,0.2c0.1,0,0.2,0.1,0.3,0.1c0.2,0,0.4,0,0.5,0c0.2,0,0.4,0,0.5,0.1
			c0.3,0.1,0.6,0.2,0.7,0.5c0.2,0.3,0.3,0.6,0.3,1.1c0,0.2,0,0.4,0,0.6c0,0.2,0,0.5,0,0.7c0,0.3,0,0.6,0,1.1c0,0.4,0,1,0,1.6
			c0,0.6,0,1.4,0,2.3V23.8L190.6,23.8z M203.6,15.7L203.6,15.7c0.2,0.1,0.4,0.3,0.7,0.7c0.3,0.3,0.7,0.7,1.2,1.2
			c0.5,0.5,1,1,1.5,1.6c0.6,0.6,1.2,1.2,1.8,1.9c0.6,0.6,1.3,1.3,1.9,1.9c0.8,0.8,1.6,1.6,2.4,2.4c0.8,0.8,1.6,1.6,2.4,2.4
			c0.8,0.8,1.5,1.5,2.2,2.2c0.7,0.7,1.2,1.2,1.7,1.7c0.2,0.2,0.3,0.3,0.5,0.4c0.2,0.1,0.3,0.2,0.5,0.2c0.1,0,0.2-0.1,0.3-0.2
			c0.1-0.1,0.1-0.4,0.1-0.7l0.3-18.7c0-0.5,0-1,0.1-1.3c0.1-0.3,0.2-0.6,0.3-0.8c0.2-0.2,0.4-0.3,0.6-0.4c0.2,0,0.3-0.1,0.5-0.1
			c0.1,0,0.3,0,0.4,0c0.4,0,0.5-0.1,0.5-0.3c0-0.1-0.1-0.2-0.2-0.2c-0.1,0-0.3,0-0.5,0c-0.5,0-0.9,0-1.3,0c-0.4,0-0.7,0-1,0
			c-0.3,0-0.5,0-0.6,0c-0.2,0-0.5,0-0.9,0c-0.4,0-0.8,0-1.2,0c-0.5,0-1,0-1.5,0c-0.2,0-0.4,0-0.6,0c-0.1,0-0.2,0.1-0.2,0.2
			c0,0.1,0,0.2,0.1,0.2c0.1,0,0.2,0.1,0.4,0.1c0.1,0,0.3,0,0.5,0c0.2,0,0.4,0,0.6,0c0.2,0,0.4,0.1,0.5,0.1c0.2,0.1,0.4,0.2,0.6,0.4
			c0.1,0.2,0.3,0.5,0.3,0.8c0.1,0.4,0.1,0.8,0.1,1.4l0.3,13.3h-0.1c-0.1-0.1-0.3-0.3-0.7-0.7c-0.3-0.4-0.8-0.8-1.3-1.3
			c-0.5-0.5-1-1.1-1.6-1.6c-0.6-0.6-1.1-1.1-1.6-1.7c-0.5-0.5-1-1-1.4-1.4c-0.9-0.9-1.7-1.7-2.6-2.6c-0.8-0.9-1.7-1.7-2.4-2.5
			c-0.8-0.8-1.4-1.5-2-2.1c-0.6-0.6-1.1-1.1-1.5-1.5c-0.4-0.4-0.6-0.6-0.7-0.7c-0.2-0.3-0.4-0.5-0.6-0.7c-0.2-0.2-0.3-0.3-0.5-0.3
			c-0.1,0-0.2,0.1-0.3,0.3c-0.1,0.2-0.1,0.4-0.1,0.7l-0.3,17.4c0,0.9,0,1.5-0.1,2c0,0.5-0.1,0.9-0.3,1.1c-0.1,0.3-0.3,0.4-0.6,0.5
			c-0.2,0.1-0.4,0.1-0.7,0.1c-0.2,0-0.5,0-0.7,0c-0.1,0-0.3,0-0.3,0.1c-0.1,0-0.1,0.1-0.1,0.2c0,0.1,0.1,0.2,0.2,0.2
			c0.1,0,0.3,0.1,0.5,0c0.5,0,1,0,1.5,0c0.4,0,0.8,0,1.1,0c0.3,0,0.5,0,0.6,0c0.3,0,0.7,0,1.3,0c0.6,0,1.4,0,2.3,0
			c0.2,0,0.4,0,0.5-0.1c0.1,0,0.2-0.1,0.2-0.2c0-0.1,0-0.1-0.1-0.2c-0.1,0-0.2-0.1-0.4-0.1c-0.2,0-0.5,0-0.8,0
			c-0.3,0-0.5-0.1-0.8-0.2c-0.2-0.1-0.4-0.2-0.5-0.4c-0.1-0.2-0.3-0.6-0.4-1c-0.1-0.5-0.1-1.1-0.2-1.8L203.6,15.7L203.6,15.7z
			 M228.9,23.7c0,0.9,0,1.8,0,2.6c0,0.8,0,1.5,0,2.1c0,0.6-0.1,1.2-0.1,1.6c0,0.3-0.1,0.5-0.1,0.8c-0.1,0.2-0.1,0.4-0.3,0.6
			c-0.1,0.1-0.3,0.2-0.5,0.3c-0.1,0-0.3,0.1-0.5,0.1c-0.2,0-0.4,0-0.6,0c-0.2,0-0.3,0-0.4,0.1c-0.1,0-0.1,0.1-0.1,0.2
			c0,0.1,0,0.2,0.2,0.2c0.1,0,0.2,0.1,0.4,0.1c0.3,0,0.6,0,1,0c0.4,0,0.7,0,1.1,0c0.4,0,0.7,0,1,0c0.3,0,0.5,0,0.7,0
			c0.4,0,0.9,0,1.4,0c0.5,0,1.1,0,1.7,0.1c0.6,0,1.4,0,2.2,0.1c0.8,0,1.8,0,2.9,0c0.4,0,0.7,0,0.9,0c0.2,0,0.4-0.1,0.5-0.2
			c0.1-0.1,0.2-0.3,0.3-0.5c0-0.2,0.1-0.4,0.1-0.7c0-0.3,0.1-0.6,0.1-0.9c0-0.3,0.1-0.7,0.1-1c0-0.3,0-0.5,0-0.7c0-0.2,0-0.3,0-0.4
			c0-0.1-0.1-0.2-0.2-0.2c-0.1,0-0.2,0-0.2,0.1c0,0.1-0.1,0.2-0.1,0.3c-0.1,0.6-0.3,1.1-0.5,1.4c-0.2,0.3-0.5,0.6-0.9,0.8
			c-0.3,0.1-0.6,0.2-0.9,0.3c-0.3,0-0.7,0.1-1,0.1c-0.3,0-0.6,0-0.9,0c-0.7,0-1.4,0-1.8-0.1c-0.5-0.1-0.8-0.2-1.1-0.4
			c-0.2-0.2-0.4-0.4-0.5-0.8c-0.1-0.3-0.1-0.7-0.2-1.2c0-0.2,0-0.4,0-0.7c0-0.3,0-0.6,0-1c0-0.4,0-0.7,0-1.1c0-0.4,0-0.7,0-1
			c0-0.3,0-0.6,0-0.8v-2.3c0-0.1,0-0.2,0-0.2c0,0,0.1-0.1,0.1-0.1c0.1,0,0.4,0,0.7,0c0.3,0,0.6,0,1,0c0.4,0,0.7,0,1.1,0
			c0.3,0,0.7,0,0.9,0c0.3,0,0.5,0,0.6,0c0.4,0,0.7,0.1,0.9,0.2c0.2,0.1,0.4,0.2,0.5,0.4c0.1,0.2,0.2,0.3,0.3,0.5
			c0,0.2,0.1,0.4,0.1,0.6c0,0.2,0,0.3,0,0.5c0,0.1,0,0.1,0.1,0.2c0,0,0.1,0.1,0.2,0.1c0.1,0,0.1,0,0.2-0.1c0-0.1,0.1-0.1,0.1-0.2
			c0-0.1,0-0.2,0-0.3c0-0.1,0-0.2,0-0.3c0-0.2,0-0.3,0-0.5c0-0.2,0-0.4,0-0.6c0-0.2,0-0.4,0-0.5c0-0.5,0.1-0.9,0.1-1.2
			c0-0.3,0.1-0.5,0.1-0.7c0-0.1,0-0.3,0-0.3c0-0.1,0-0.1-0.1-0.2c0,0-0.1,0-0.1,0c-0.1,0-0.1,0-0.2,0.1c-0.1,0.1-0.2,0.2-0.3,0.3
			c-0.1,0.1-0.3,0.2-0.5,0.3c-0.2,0.1-0.5,0.1-0.9,0.1c-0.1,0-0.4,0-0.7,0c-0.3,0-0.7,0-1.1,0c-0.4,0-0.8,0-1.2,0
			c-0.4,0-0.8,0-1.1,0c-0.3,0-0.5,0-0.7,0c-0.1,0-0.1,0-0.2-0.1c0-0.1,0-0.1,0-0.2v-7.5c0-0.1,0-0.2,0-0.2c0,0,0.1-0.1,0.2-0.1
			c0.1,0,0.3,0,0.6,0c0.3,0,0.6,0,1,0c0.4,0,0.7,0,1.1,0c0.4,0,0.7,0,1,0c0.3,0,0.5,0,0.6,0c0.5,0.1,0.9,0.1,1.1,0.2
			c0.3,0.1,0.5,0.2,0.6,0.4c0.1,0.1,0.2,0.3,0.3,0.5c0,0.1,0.1,0.3,0.1,0.4c0,0.1,0,0.3,0,0.4c0,0.1,0,0.2,0,0.3
			c0,0.1,0,0.2,0.1,0.3c0,0.1,0.1,0.1,0.2,0.1c0.1,0,0.2,0,0.2-0.1c0-0.1,0.1-0.1,0.1-0.2c0-0.1,0-0.2,0-0.4c0-0.2,0-0.4,0-0.6
			c0-0.2,0-0.4,0-0.6c0-0.2,0-0.3,0-0.4c0-0.4,0.1-0.8,0.1-1.1c0-0.3,0.1-0.4,0.1-0.6c0-0.1,0-0.2,0-0.3c0-0.1,0-0.1,0-0.2
			c0,0-0.1-0.1-0.1-0.1c-0.1,0-0.2,0-0.2,0c-0.1,0-0.2,0-0.2,0.1c-0.1,0-0.3,0.1-0.5,0.1c-0.2,0-0.5,0.1-0.8,0.1c-0.1,0-0.3,0-0.7,0
			c-0.3,0-0.8,0-1.3,0c-0.5,0-1,0-1.6,0c-0.6,0-1.1,0-1.6,0s-1,0-1.4,0c-0.4,0-0.7,0-0.8,0c-0.2,0-0.5,0-0.8,0c-0.3,0-0.7,0-1.1,0
			c-0.4,0-0.8,0-1.2,0c-0.4,0-0.8,0-1.2,0c-0.2,0-0.4,0-0.5,0.1c-0.1,0-0.2,0.1-0.2,0.2c0,0.1,0,0.2,0.1,0.2c0.1,0,0.2,0.1,0.4,0.1
			c0.2,0,0.4,0,0.6,0c0.2,0,0.4,0,0.5,0.1c0.3,0.1,0.6,0.2,0.7,0.3c0.2,0.1,0.3,0.3,0.4,0.5c0.1,0.2,0.1,0.5,0.1,0.8
			c0,0.2,0,0.4,0,0.6c0,0.2,0,0.5,0,0.7c0,0.3,0,0.6,0,1.1c0,0.4,0,1,0,1.6c0,0.6,0,1.4,0,2.3V23.7L228.9,23.7z M253.2,24.9
			c0.1,0,0.1,0,0.2,0c0,0,0.1,0.1,0.1,0.2l2.4,6.1c0.1,0.2,0.1,0.3,0,0.5c-0.1,0.1-0.2,0.2-0.3,0.2c-0.1,0-0.3,0-0.3,0.1
			c-0.1,0-0.1,0.1-0.1,0.2c0,0.1,0.1,0.2,0.2,0.2c0.2,0,0.4,0,0.6,0.1c0.8,0,1.5,0,2.3,0c0.7,0,1.4,0,1.9,0c0.6,0,1,0,1.4,0
			c0.4,0,0.6,0,0.8,0c0.2,0,0.3,0,0.4-0.1c0.1,0,0.1-0.1,0.1-0.2c0-0.1,0-0.2-0.1-0.2c-0.1,0-0.2,0-0.3,0c-0.2,0-0.4,0-0.6,0
			c-0.2,0-0.4,0-0.7-0.1c-0.2,0-0.3-0.1-0.5-0.2c-0.2-0.1-0.4-0.3-0.6-0.5c-0.2-0.2-0.4-0.5-0.7-0.9c-0.2-0.4-0.5-0.9-0.8-1.6
			c-0.2-0.6-0.5-1.2-0.8-2c-0.3-0.8-0.7-1.6-1-2.5c-0.4-0.9-0.7-1.8-1.1-2.8c-0.4-0.9-0.8-1.9-1.1-2.8c-0.4-0.9-0.7-1.8-1.1-2.7
			c-0.4-0.9-0.7-1.6-1-2.3c-0.3-0.7-0.5-1.3-0.7-1.8c-0.2-0.5-0.4-0.8-0.4-1.1c-0.1-0.3-0.3-0.6-0.4-0.7c-0.1-0.1-0.2-0.2-0.4-0.2
			c-0.1,0-0.3,0.1-0.4,0.3c-0.1,0.2-0.3,0.5-0.4,0.9l-7.4,18.3c-0.2,0.5-0.4,0.9-0.6,1.3c-0.2,0.4-0.5,0.7-0.8,0.9
			c-0.3,0.2-0.7,0.4-1.1,0.4c-0.1,0-0.3,0-0.4,0c-0.2,0-0.3,0-0.5,0c-0.1,0-0.2,0-0.3,0.1c-0.1,0-0.1,0.1-0.1,0.2
			c0,0.1,0,0.2,0.1,0.2c0.1,0,0.2,0.1,0.4,0.1c0.4,0,0.8,0,1.1,0c0.4,0,0.7,0,1,0c0.3,0,0.6,0,0.8,0c0.2,0,0.4,0,0.5,0
			c0.3,0,0.6,0,1,0c0.4,0,0.7,0,1.1,0c0.4,0,0.7,0,1,0c0.2,0,0.3,0,0.4-0.1c0.1,0,0.1-0.1,0.1-0.2c0-0.1,0-0.1-0.1-0.2
			c-0.1,0-0.2-0.1-0.4-0.1h-0.4c-0.4,0-0.8-0.1-0.9-0.3c-0.2-0.2-0.3-0.4-0.2-0.7c0-0.2,0-0.4,0.1-0.8c0.1-0.3,0.2-0.7,0.3-1l1.6-4
			c0-0.1,0.1-0.1,0.1-0.2c0,0,0.1,0,0.2,0H253.2L253.2,24.9z M247.2,23.4c-0.1,0-0.1,0-0.1-0.1c0,0,0-0.1,0-0.1l2.7-7.2
			c0-0.1,0-0.1,0.1-0.2c0-0.1,0.1-0.1,0.1-0.1c0,0,0.1,0,0.1,0.1c0,0.1,0,0.1,0,0.2l2.7,7.3c0,0,0,0.1,0,0.1c0,0-0.1,0.1-0.1,0.1
			H247.2L247.2,23.4z M267,32.4c0.5,0,1.1,0,1.6-0.1c0.5-0.1,1.1-0.2,1.6-0.4c0.5-0.2,1-0.4,1.5-0.7c0.7-0.5,1.3-1,1.7-1.6
			c0.4-0.6,0.7-1.2,0.9-1.8c0.2-0.6,0.3-1.2,0.2-1.8c0-0.7-0.1-1.4-0.3-2c-0.2-0.6-0.4-1.2-0.8-1.8c-0.4-0.6-0.9-1.2-1.5-1.8
			c-0.6-0.6-1.4-1.2-2.3-1.9l-0.8-0.6c-0.8-0.6-1.4-1.2-1.9-1.6c-0.5-0.5-0.8-0.9-1-1.3c-0.2-0.4-0.3-0.9-0.3-1.3
			c0-0.6,0.1-1.1,0.4-1.6c0.3-0.5,0.7-0.8,1.2-1.1c0.5-0.3,1.1-0.4,1.9-0.4c0.6,0,1.2,0.1,1.6,0.3c0.4,0.2,0.8,0.3,1,0.6
			c0.3,0.2,0.5,0.4,0.6,0.6c0.2,0.3,0.4,0.5,0.5,0.8c0.1,0.3,0.2,0.5,0.2,0.7c0,0.2,0.1,0.4,0.1,0.5c0,0.2,0,0.3,0.1,0.4
			c0,0.1,0.1,0.1,0.2,0.1c0.1,0,0.2-0.1,0.3-0.2c0-0.1,0.1-0.4,0.1-0.7c0-0.8,0-1.4,0-1.9c0-0.5,0-0.8,0.1-1.1c0-0.3,0-0.5,0-0.6
			c0-0.1,0-0.2-0.1-0.2c-0.1-0.1-0.2-0.1-0.3-0.1c-0.4-0.1-0.9-0.2-1.5-0.3c-0.6-0.1-1.4-0.2-2.4-0.2c-1,0-2,0.1-2.8,0.4
			c-0.8,0.3-1.6,0.7-2.2,1.2c-0.6,0.5-1.1,1.1-1.4,1.8c-0.3,0.7-0.5,1.4-0.5,2.2c0,0.8,0.1,1.6,0.4,2.3c0.3,0.7,0.7,1.5,1.4,2.3
			c0.6,0.8,1.5,1.6,2.6,2.4l1.4,1.1c0.6,0.5,1.1,0.9,1.5,1.3c0.4,0.4,0.7,0.8,0.9,1.2c0.2,0.4,0.3,0.7,0.4,1.1
			c0.1,0.4,0.1,0.7,0.1,1.1c0,0.4-0.1,0.8-0.2,1.2c-0.2,0.4-0.4,0.8-0.7,1.1c-0.3,0.3-0.7,0.6-1.2,0.8c-0.5,0.2-1.1,0.3-1.7,0.3
			c-0.6,0-1.2-0.1-1.8-0.3c-0.6-0.2-1.1-0.5-1.5-1c-0.4-0.4-0.8-1-1-1.7c-0.1-0.3-0.1-0.5-0.2-0.8c0-0.3-0.1-0.5-0.1-0.7
			c0-0.1,0-0.2,0-0.3c0-0.1-0.1-0.2-0.2-0.2c-0.1,0-0.2,0.1-0.3,0.2c-0.1,0.1-0.1,0.3-0.1,0.6c0,0.1,0,0.3,0,0.6c0,0.3,0,0.6,0,0.9
			c0,0.4,0,0.7,0,1.1c0,0.4,0,0.8,0,1.2c0,0.2,0,0.4,0,0.5s0.1,0.2,0.2,0.3c0.1,0.1,0.2,0.1,0.4,0.2c0.6,0.3,1.3,0.5,2,0.6
			C265.4,32.3,266.2,32.4,267,32.4L267,32.4z M289.8,32.9c0.6,0,1.2,0,1.9-0.1c0.6-0.1,1.2-0.2,1.9-0.4c0.6-0.2,1.2-0.5,1.8-0.9
			c0.8-0.5,1.5-1.2,2-1.8c0.5-0.7,0.8-1.4,1-2.1c0.2-0.7,0.3-1.4,0.3-2.1c0-0.8-0.1-1.6-0.3-2.3c-0.2-0.7-0.5-1.4-1-2.1
			c-0.4-0.7-1-1.4-1.8-2.1c-0.7-0.7-1.6-1.5-2.7-2.2l-1-0.7c-1-0.7-1.7-1.4-2.2-1.9c-0.5-0.6-0.9-1.1-1.1-1.6
			c-0.2-0.5-0.3-1-0.3-1.5c0-0.7,0.2-1.3,0.5-1.8c0.3-0.5,0.8-1,1.4-1.3c0.6-0.3,1.3-0.5,2.2-0.5c0.7,0,1.4,0.1,1.9,0.3
			c0.5,0.2,0.9,0.4,1.2,0.7c0.3,0.3,0.5,0.5,0.7,0.7c0.2,0.3,0.4,0.6,0.6,0.9c0.1,0.3,0.2,0.6,0.3,0.8c0,0.2,0.1,0.4,0.1,0.5
			c0,0.2,0,0.4,0.1,0.5c0.1,0.1,0.1,0.2,0.3,0.2c0.1,0,0.2-0.1,0.3-0.2c0.1-0.2,0.1-0.4,0.1-0.8c0-0.9,0-1.6,0-2.2
			c0-0.6,0-1,0.1-1.3c0-0.3,0-0.5,0-0.7c0-0.1,0-0.2-0.1-0.3c-0.1-0.1-0.2-0.1-0.4-0.1c-0.4-0.1-1-0.3-1.8-0.4
			c-0.8-0.1-1.7-0.2-2.8-0.2c-1.2,0-2.3,0.2-3.3,0.5c-1,0.3-1.8,0.8-2.5,1.4c-0.7,0.6-1.2,1.3-1.6,2.1c-0.4,0.8-0.6,1.7-0.6,2.6
			c0,0.9,0.2,1.8,0.5,2.7c0.3,0.9,0.9,1.8,1.6,2.7c0.8,0.9,1.8,1.8,3,2.8l1.6,1.2c0.7,0.6,1.3,1.1,1.7,1.6c0.5,0.5,0.8,1,1,1.4
			c0.2,0.4,0.4,0.9,0.5,1.3c0.1,0.4,0.1,0.8,0.1,1.3c0,0.5-0.1,0.9-0.3,1.4c-0.2,0.5-0.5,0.9-0.9,1.3c-0.4,0.4-0.9,0.7-1.4,0.9
			c-0.6,0.2-1.3,0.4-2,0.4c-0.7,0-1.4-0.1-2.1-0.3c-0.7-0.2-1.2-0.6-1.7-1.1c-0.5-0.5-0.9-1.2-1.1-2c-0.1-0.3-0.2-0.6-0.2-0.9
			c-0.1-0.3-0.1-0.6-0.1-0.8c0-0.1,0-0.3-0.1-0.4c0-0.1-0.1-0.2-0.3-0.2c-0.1,0-0.2,0.1-0.3,0.3c-0.1,0.2-0.1,0.4-0.1,0.6
			c0,0.1,0,0.4,0,0.7c0,0.3,0,0.7-0.1,1.1c0,0.4,0,0.9-0.1,1.3c0,0.5,0,1,0,1.4c0,0.2,0,0.4,0,0.6c0,0.1,0.1,0.3,0.2,0.3
			c0.1,0.1,0.2,0.2,0.4,0.2c0.7,0.3,1.5,0.6,2.3,0.7C287.9,32.8,288.8,32.9,289.8,32.9L289.8,32.9z M312.2,32.8
			c1.5,0,2.9-0.2,4.2-0.6c1.3-0.4,2.4-1,3.4-1.7c1-0.7,1.8-1.6,2.5-2.7c0.7-1,1.2-2.1,1.6-3.4c0.4-1.2,0.6-2.5,0.6-3.9
			c0-1.7-0.3-3.3-0.8-4.6c-0.5-1.4-1.3-2.6-2.4-3.5c-1-1-2.3-1.7-3.8-2.2c-1.5-0.5-3.1-0.8-5-0.8c-1.5,0-2.8,0.2-4,0.5
			c-1.2,0.3-2.2,0.8-3.1,1.4c-0.9,0.6-1.7,1.3-2.3,2c-0.6,0.8-1.2,1.6-1.6,2.5c-0.4,0.9-0.7,1.8-0.9,2.7c-0.2,0.9-0.3,1.8-0.3,2.7
			c0,0.9,0.1,1.8,0.3,2.7c0.2,0.9,0.5,1.8,0.9,2.7c0.4,0.9,0.9,1.7,1.6,2.5c0.6,0.8,1.4,1.4,2.3,2c0.9,0.6,1.9,1,3,1.4
			C309.5,32.6,310.8,32.8,312.2,32.8L312.2,32.8z M313.5,31.3c-1.1,0-2.2-0.2-3.1-0.6c-0.9-0.4-1.8-0.9-2.5-1.6
			c-0.7-0.7-1.4-1.5-1.9-2.4c-0.5-0.9-0.9-2-1.2-3.1c-0.3-1.1-0.4-2.3-0.4-3.6c0-1.5,0.1-2.8,0.4-3.8c0.3-1.1,0.7-2,1.2-2.7
			c0.5-0.7,1-1.3,1.7-1.7c0.6-0.4,1.3-0.7,2-0.9c0.7-0.2,1.4-0.3,2.1-0.3c1.2,0,2.4,0.3,3.4,0.8c1,0.5,2,1.2,2.7,2.2
			c0.8,0.9,1.4,2.1,1.8,3.4c0.4,1.3,0.7,2.8,0.7,4.5c0,1.4-0.1,2.7-0.4,3.7c-0.2,1-0.6,1.9-1,2.6c-0.4,0.7-0.8,1.3-1.3,1.7
			c-0.5,0.4-1,0.8-1.5,1c-0.5,0.2-1,0.4-1.5,0.5C314.2,31.3,313.8,31.3,313.5,31.3L313.5,31.3z M331.2,32.4c0.5,0,1.1,0,1.6-0.1
			c0.5-0.1,1.1-0.2,1.6-0.4c0.5-0.2,1-0.4,1.5-0.7c0.7-0.5,1.3-1,1.7-1.6c0.4-0.6,0.7-1.2,0.9-1.8c0.2-0.6,0.3-1.2,0.2-1.8
			c0-0.7-0.1-1.4-0.3-2c-0.2-0.6-0.4-1.2-0.8-1.8c-0.4-0.6-0.9-1.2-1.5-1.8c-0.6-0.6-1.4-1.2-2.3-1.9l-0.8-0.6
			c-0.8-0.6-1.4-1.2-1.9-1.6c-0.5-0.5-0.8-0.9-1-1.3c-0.2-0.4-0.3-0.9-0.3-1.3c0-0.6,0.1-1.1,0.4-1.6c0.3-0.5,0.7-0.8,1.2-1.1
			c0.5-0.3,1.1-0.4,1.9-0.4c0.6,0,1.2,0.1,1.6,0.3c0.4,0.2,0.8,0.3,1,0.6c0.3,0.2,0.5,0.4,0.6,0.6c0.2,0.3,0.4,0.5,0.5,0.8
			c0.1,0.3,0.2,0.5,0.2,0.7c0,0.2,0.1,0.4,0.1,0.5c0,0.2,0,0.3,0.1,0.4c0,0.1,0.1,0.1,0.2,0.1c0.1,0,0.2-0.1,0.3-0.2
			c0-0.1,0.1-0.4,0.1-0.7c0-0.8,0-1.4,0-1.9c0-0.5,0-0.8,0.1-1.1c0-0.3,0-0.5,0-0.6c0-0.1,0-0.2-0.1-0.2c-0.1-0.1-0.2-0.1-0.3-0.1
			c-0.4-0.1-0.9-0.2-1.5-0.3c-0.6-0.1-1.4-0.2-2.4-0.2c-1,0-2,0.1-2.8,0.4c-0.8,0.3-1.6,0.7-2.2,1.2c-0.6,0.5-1.1,1.1-1.4,1.8
			c-0.3,0.7-0.5,1.4-0.5,2.2c0,0.8,0.1,1.6,0.4,2.3c0.3,0.7,0.7,1.5,1.4,2.3c0.6,0.8,1.5,1.6,2.6,2.4l1.4,1.1
			c0.6,0.5,1.1,0.9,1.5,1.3c0.4,0.4,0.7,0.8,0.9,1.2c0.2,0.4,0.3,0.7,0.4,1.1c0.1,0.4,0.1,0.7,0.1,1.1c0,0.4-0.1,0.8-0.2,1.2
			c-0.2,0.4-0.4,0.8-0.7,1.1c-0.3,0.3-0.7,0.6-1.2,0.8c-0.5,0.2-1.1,0.3-1.7,0.3c-0.6,0-1.2-0.1-1.8-0.3c-0.6-0.2-1.1-0.5-1.5-1
			c-0.4-0.4-0.8-1-1-1.7c-0.1-0.3-0.1-0.5-0.2-0.8c0-0.3-0.1-0.5-0.1-0.7c0-0.1,0-0.2,0-0.3c0-0.1-0.1-0.2-0.2-0.2
			c-0.1,0-0.2,0.1-0.3,0.2c-0.1,0.1-0.1,0.3-0.1,0.6c0,0.1,0,0.3,0,0.6c0,0.3,0,0.6,0,0.9c0,0.4,0,0.7,0,1.1c0,0.4,0,0.8,0,1.2
			c0,0.2,0,0.4,0,0.5c0,0.1,0.1,0.2,0.2,0.3c0.1,0.1,0.2,0.1,0.4,0.2c0.6,0.3,1.3,0.5,2,0.6C329.6,32.3,330.4,32.4,331.2,32.4
			L331.2,32.4z M352.9,24.9c0.1,0,0.1,0,0.2,0c0,0,0.1,0.1,0.1,0.2l2.4,6.1c0.1,0.2,0.1,0.3,0,0.5c-0.1,0.1-0.2,0.2-0.3,0.2
			c-0.1,0-0.3,0-0.3,0.1c-0.1,0-0.1,0.1-0.1,0.2c0,0.1,0.1,0.2,0.2,0.2c0.2,0,0.4,0,0.6,0.1c0.8,0,1.5,0,2.3,0c0.7,0,1.4,0,1.9,0
			c0.6,0,1,0,1.4,0c0.4,0,0.6,0,0.8,0c0.2,0,0.3,0,0.4-0.1c0.1,0,0.1-0.1,0.1-0.2c0-0.1,0-0.2-0.1-0.2c-0.1,0-0.2,0-0.3,0
			c-0.2,0-0.4,0-0.6,0c-0.2,0-0.4,0-0.7-0.1c-0.2,0-0.3-0.1-0.5-0.2c-0.2-0.1-0.4-0.3-0.6-0.5c-0.2-0.2-0.4-0.5-0.7-0.9
			c-0.2-0.4-0.5-0.9-0.8-1.6c-0.2-0.6-0.5-1.2-0.8-2c-0.3-0.8-0.7-1.6-1-2.5c-0.4-0.9-0.7-1.8-1.1-2.8c-0.4-0.9-0.8-1.9-1.1-2.8
			c-0.4-0.9-0.7-1.8-1.1-2.7c-0.3-0.9-0.7-1.6-1-2.3c-0.3-0.7-0.5-1.3-0.7-1.8c-0.2-0.5-0.3-0.8-0.4-1.1c-0.1-0.3-0.3-0.6-0.4-0.7
			c-0.1-0.1-0.2-0.2-0.4-0.2c-0.1,0-0.3,0.1-0.4,0.3c-0.1,0.2-0.3,0.5-0.4,0.9l-7.4,18.3c-0.2,0.5-0.4,0.9-0.6,1.3
			c-0.2,0.4-0.5,0.7-0.8,0.9c-0.3,0.2-0.7,0.4-1.1,0.4c-0.1,0-0.3,0-0.4,0c-0.2,0-0.3,0-0.5,0c-0.1,0-0.2,0-0.3,0.1
			c-0.1,0-0.1,0.1-0.1,0.2c0,0.1,0,0.2,0.1,0.2c0.1,0,0.2,0.1,0.4,0.1c0.4,0,0.8,0,1.1,0c0.4,0,0.7,0,1,0c0.3,0,0.6,0,0.8,0
			c0.2,0,0.4,0,0.5,0c0.3,0,0.6,0,1,0c0.4,0,0.7,0,1.1,0c0.4,0,0.7,0,1,0c0.2,0,0.3,0,0.4-0.1c0.1,0,0.1-0.1,0.1-0.2
			c0-0.1,0-0.1-0.1-0.2c-0.1,0-0.2-0.1-0.4-0.1h-0.4c-0.4,0-0.8-0.1-0.9-0.3c-0.2-0.2-0.3-0.4-0.2-0.7c0-0.2,0-0.4,0.1-0.8
			c0.1-0.3,0.2-0.7,0.3-1l1.6-4c0-0.1,0.1-0.1,0.1-0.2c0,0,0.1,0,0.2,0H352.9L352.9,24.9z M346.9,23.4c-0.1,0-0.1,0-0.1-0.1
			c0,0,0-0.1,0-0.1l2.7-7.2c0-0.1,0-0.1,0.1-0.2s0.1-0.1,0.1-0.1c0,0,0.1,0,0.1,0.1c0,0.1,0,0.1,0,0.2l2.7,7.3c0,0,0,0.1,0,0.1
			c0,0-0.1,0.1-0.1,0.1H346.9L346.9,23.4z"/>
		<path class="o49d8c1c" d="M156.3,75.9c0.3,0,0.6,0,0.9-0.1c0.3,0,0.6-0.1,0.9-0.2c0.3-0.1,0.6-0.2,0.8-0.4c0.4-0.3,0.7-0.5,0.9-0.9
			c0.2-0.3,0.4-0.6,0.5-1c0.1-0.3,0.1-0.7,0.1-1c0-0.4,0-0.7-0.1-1.1c-0.1-0.3-0.2-0.7-0.5-1c-0.2-0.3-0.5-0.7-0.8-1
			c-0.3-0.3-0.8-0.7-1.3-1.1l-0.5-0.3c-0.4-0.3-0.8-0.6-1-0.9c-0.3-0.3-0.4-0.5-0.5-0.7c-0.1-0.2-0.1-0.5-0.1-0.7
			c0-0.3,0.1-0.6,0.2-0.9c0.2-0.3,0.4-0.4,0.7-0.6c0.3-0.1,0.6-0.2,1-0.2c0.4,0,0.6,0,0.9,0.1c0.2,0.1,0.4,0.2,0.6,0.3
			c0.1,0.1,0.3,0.2,0.3,0.3c0.1,0.1,0.2,0.3,0.3,0.4c0.1,0.1,0.1,0.3,0.1,0.4c0,0.1,0,0.2,0,0.3c0,0.1,0,0.2,0,0.2
			c0,0,0.1,0.1,0.1,0.1c0.1,0,0.1,0,0.1-0.1c0-0.1,0-0.2,0-0.4c0-0.4,0-0.8,0-1c0-0.3,0-0.5,0-0.6c0-0.1,0-0.3,0-0.3
			c0-0.1,0-0.1-0.1-0.1c0,0-0.1-0.1-0.2-0.1c-0.2-0.1-0.5-0.1-0.8-0.2c-0.4-0.1-0.8-0.1-1.3-0.1c-0.6,0-1.1,0.1-1.5,0.2
			c-0.5,0.2-0.9,0.4-1.2,0.6c-0.3,0.3-0.6,0.6-0.8,1c-0.2,0.4-0.3,0.8-0.3,1.2c0,0.4,0.1,0.9,0.2,1.3c0.2,0.4,0.4,0.8,0.8,1.3
			c0.4,0.4,0.8,0.9,1.4,1.3l0.8,0.6c0.3,0.3,0.6,0.5,0.8,0.7c0.2,0.2,0.4,0.5,0.5,0.7c0.1,0.2,0.2,0.4,0.2,0.6
			c0,0.2,0.1,0.4,0.1,0.6c0,0.2,0,0.4-0.1,0.7c-0.1,0.2-0.2,0.4-0.4,0.6c-0.2,0.2-0.4,0.3-0.7,0.4c-0.3,0.1-0.6,0.2-1,0.2
			c-0.3,0-0.7-0.1-1-0.2c-0.3-0.1-0.6-0.3-0.8-0.5c-0.2-0.2-0.4-0.6-0.5-1c0-0.1-0.1-0.3-0.1-0.4c0-0.1,0-0.3,0-0.4
			c0-0.1,0-0.1,0-0.2c0-0.1-0.1-0.1-0.1-0.1c-0.1,0-0.1,0-0.1,0.1c0,0.1,0,0.2-0.1,0.3c0,0.1,0,0.2,0,0.3c0,0.1,0,0.3,0,0.5
			c0,0.2,0,0.4,0,0.6c0,0.2,0,0.4,0,0.7c0,0.1,0,0.2,0,0.3c0,0.1,0,0.1,0.1,0.2c0,0,0.1,0.1,0.2,0.1c0.3,0.2,0.7,0.3,1.1,0.3
			C155.4,75.9,155.8,75.9,156.3,75.9L156.3,75.9z M163.9,71.4c0,0.7,0.1,1.2,0.2,1.7c0.1,0.5,0.3,0.9,0.4,1.2
			c0.2,0.3,0.4,0.6,0.7,0.8c0.3,0.2,0.5,0.4,0.8,0.5c0.3,0.1,0.6,0.2,0.9,0.3c0.3,0.1,0.6,0.1,0.8,0.1c0.3,0,0.5,0,0.7,0
			c0.3,0,0.6,0,1-0.1c0.3,0,0.7-0.1,1-0.3c0.3-0.1,0.7-0.4,1-0.6c0.3-0.2,0.5-0.5,0.7-0.8c0.2-0.3,0.3-0.7,0.4-1
			c0.1-0.4,0.2-0.7,0.2-1.1c0-0.4,0-0.8,0-1.1v-1.5c0-0.4,0-0.8,0-1.1c0-0.3,0-0.5,0-0.7c0-0.2,0-0.4,0-0.5c0-0.1,0-0.2,0-0.3
			c0-0.1,0-0.2,0-0.3c0-0.2,0.1-0.4,0.1-0.5c0.1-0.1,0.2-0.2,0.4-0.2c0.1,0,0.2,0,0.2,0c0.1,0,0.1,0,0.2,0c0.1,0,0.1,0,0.2,0
			c0,0,0.1-0.1,0.1-0.1c0,0,0-0.1-0.1-0.1c-0.1,0-0.1,0-0.2,0c-0.1,0-0.3,0-0.5,0c-0.2,0-0.3,0-0.5,0c-0.2,0-0.3,0-0.4,0
			c-0.1,0-0.2,0-0.3,0c0,0-0.1,0-0.2,0c-0.1,0-0.2,0-0.4,0c-0.2,0-0.3,0-0.5,0c-0.2,0-0.4,0-0.6,0c-0.1,0-0.2,0-0.2,0
			c0,0-0.1,0.1-0.1,0.1c0,0,0,0.1,0.1,0.1c0,0,0.1,0,0.2,0c0.1,0,0.1,0,0.2,0c0.1,0,0.1,0,0.2,0c0.1,0,0.1,0,0.1,0
			c0.2,0,0.3,0.1,0.4,0.1c0.1,0.1,0.1,0.1,0.2,0.3c0,0.1,0.1,0.2,0.1,0.4c0,0.1,0,0.2,0,0.3c0,0.1,0,0.2,0,0.3c0,0.1,0,0.3,0,0.5
			c0,0.2,0,0.4,0,0.7c0,0.3,0,0.6,0,1.1v1.7c0,0.4,0,0.7,0,1c0,0.3,0,0.6-0.1,0.9c-0.1,0.3-0.1,0.6-0.2,0.8
			c-0.1,0.2-0.3,0.5-0.5,0.7c-0.2,0.2-0.4,0.3-0.6,0.4c-0.2,0.1-0.4,0.2-0.7,0.2c-0.2,0-0.5,0.1-0.7,0.1c-0.2,0-0.3,0-0.5,0
			c-0.2,0-0.4-0.1-0.6-0.2c-0.2-0.1-0.4-0.2-0.6-0.4c-0.2-0.1-0.3-0.3-0.5-0.5c-0.1-0.2-0.3-0.4-0.3-0.7c-0.1-0.3-0.2-0.6-0.2-0.9
			c0-0.4-0.1-0.8-0.1-1.3v-1.9c0-0.4,0-0.8,0-1.1c0-0.3,0-0.5,0-0.7c0-0.2,0-0.4,0-0.5c0-0.1,0-0.2,0-0.3c0-0.1,0-0.2,0-0.3
			c0-0.2,0.1-0.4,0.1-0.5c0.1-0.1,0.2-0.2,0.4-0.2c0.1,0,0.2,0,0.2,0c0.1,0,0.1,0,0.2,0c0.1,0,0.1,0,0.2,0c0,0,0.1-0.1,0.1-0.1
			c0,0,0-0.1-0.1-0.1c-0.1,0-0.1,0-0.2,0c-0.1,0-0.3,0-0.4,0c-0.2,0-0.3,0-0.5,0c-0.2,0-0.3,0-0.5,0c-0.1,0-0.3,0-0.3,0
			c-0.1,0-0.3,0-0.6,0c-0.2,0-0.5,0-0.7,0c-0.3,0-0.5,0-0.8,0c-0.1,0-0.2,0-0.2,0c0,0-0.1,0.1-0.1,0.1c0,0,0,0.1,0.1,0.1
			c0,0,0.1,0,0.2,0c0.1,0,0.2,0,0.3,0c0.1,0,0.2,0,0.2,0c0.2,0,0.3,0.1,0.4,0.1c0.1,0.1,0.1,0.1,0.2,0.3c0,0.1,0.1,0.2,0.1,0.4
			c0,0.1,0,0.2,0,0.3c0,0.1,0,0.2,0,0.3c0,0.1,0,0.3,0,0.5c0,0.2,0,0.4,0,0.7c0,0.3,0,0.6,0,1.1V71.4L163.9,71.4z M184.4,69.4
			c0-0.4,0-0.8,0-1.1c0-0.3,0-0.6,0-0.8c0-0.2,0-0.4,0-0.5c0-0.1,0-0.3,0-0.4c0-0.1,0-0.2,0-0.3c0-0.2,0.1-0.4,0.1-0.6
			c0.1-0.1,0.2-0.2,0.4-0.2c0.1,0,0.2,0,0.3,0c0.1,0,0.2,0,0.3,0c0.1,0,0.1,0,0.2,0c0,0,0.1-0.1,0.1-0.1c0,0,0-0.1-0.1-0.1
			c-0.1,0-0.1,0-0.2,0c-0.1,0-0.3,0-0.5,0c-0.2,0-0.4,0-0.6,0c-0.2,0-0.4,0-0.5,0c-0.2,0-0.3,0-0.4,0c-0.1,0-0.2,0-0.4,0
			c-0.2,0-0.3,0-0.5,0c-0.2,0-0.4,0-0.5,0c-0.2,0-0.4,0-0.5,0c-0.1,0-0.2,0-0.2,0c-0.1,0-0.1,0.1-0.1,0.1c0,0,0,0.1,0.1,0.1
			c0,0,0.1,0,0.2,0c0.1,0,0.2,0,0.3,0c0.1,0,0.2,0,0.2,0c0.2,0,0.3,0.1,0.4,0.1c0.1,0.1,0.1,0.1,0.2,0.3c0,0.1,0.1,0.2,0.1,0.4
			c0,0.1,0,0.2,0,0.3c0,0.1,0,0.2,0,0.4c0,0.1,0,0.3,0,0.5c0,0.2,0,0.5,0,0.8c0,0.3,0,0.7,0,1.1v2.5c0,0.4,0,0.8,0,1.2
			c0,0.4,0,0.7,0,1c0,0.3,0,0.6,0,0.8c0,0.1,0,0.3-0.1,0.4c0,0.1-0.1,0.2-0.1,0.3c-0.1,0.1-0.1,0.1-0.2,0.1c-0.1,0-0.1,0-0.2,0
			c-0.1,0-0.2,0-0.3,0c-0.1,0-0.1,0-0.2,0c0,0,0,0,0,0.1c0,0,0,0.1,0.1,0.1c0,0,0.1,0,0.2,0c0.1,0,0.3,0,0.5,0c0.2,0,0.3,0,0.5,0
			c0.2,0,0.3,0,0.5,0c0.1,0,0.3,0,0.3,0c0.2,0,0.4,0,0.6,0c0.2,0,0.4,0,0.6,0c0.2,0,0.4,0,0.6,0c0.3,0,0.7,0,1.1,0
			c0.4,0,0.8,0,1.4,0c0.2,0,0.3,0,0.4,0c0.1,0,0.2,0,0.3-0.1c0.1,0,0.1-0.1,0.1-0.1c0,0,0.1-0.1,0.1-0.2c0-0.1,0-0.2,0.1-0.3
			c0-0.1,0-0.3,0.1-0.4c0-0.1,0-0.3,0-0.4c0-0.1,0-0.2,0-0.3c0-0.1,0-0.2,0-0.2c0-0.1,0-0.1,0-0.2c0,0,0-0.1-0.1-0.1
			c-0.1,0-0.1,0-0.1,0.1c0,0,0,0.1,0,0.2c0,0.1,0,0.2-0.1,0.3c0,0.1-0.1,0.2-0.1,0.3c-0.1,0.1-0.1,0.2-0.2,0.2
			c-0.1,0.1-0.3,0.2-0.4,0.3c-0.2,0.1-0.3,0.1-0.6,0.1c-0.2,0-0.4,0-0.7,0c-0.4,0-0.7,0-0.9,0c-0.2,0-0.4-0.1-0.5-0.1
			c-0.1,0-0.2-0.1-0.3-0.2c-0.1-0.1-0.2-0.2-0.2-0.5c0-0.2-0.1-0.6-0.1-1c0-0.4,0-0.9,0-1.5V69.4L184.4,69.4z M192.5,71.9
			c0,0.5,0,0.9,0,1.3c0,0.4,0,0.7,0,1c0,0.3,0,0.6,0,0.8c0,0.2-0.1,0.4-0.1,0.5c-0.1,0.1-0.1,0.2-0.3,0.2c-0.1,0-0.1,0-0.2,0
			c-0.1,0-0.2,0-0.3,0c-0.1,0-0.1,0-0.2,0c0,0,0,0,0,0.1c0,0,0,0.1,0.1,0.1c0,0,0.1,0,0.2,0c0.1,0,0.3,0,0.4,0c0.2,0,0.3,0,0.5,0
			c0.2,0,0.3,0,0.4,0c0.1,0,0.2,0,0.3,0c0.1,0,0.3,0,0.5,0c0.2,0,0.4,0,0.7,0c0.3,0,0.5,0,0.8,0c0.1,0,0.1,0,0.2,0
			c0,0,0.1-0.1,0.1-0.1c0,0,0-0.1-0.1-0.1c0,0-0.1,0-0.2,0c-0.1,0-0.1,0-0.2,0c-0.1,0-0.2,0-0.2,0c-0.1,0-0.1,0-0.2,0
			c-0.1,0-0.2-0.1-0.3-0.1c-0.1-0.1-0.1-0.1-0.2-0.2c0-0.1-0.1-0.2-0.1-0.3c0-0.2,0-0.5,0-0.8c0-0.3,0-0.7,0-1c0-0.4,0-0.8,0-1.3
			v-2.5c0-0.4,0-0.8,0-1.1c0-0.3,0-0.6,0-0.8c0-0.2,0-0.4,0-0.5c0-0.1,0-0.3,0-0.4c0-0.1,0-0.2,0-0.3c0-0.2,0.1-0.4,0.1-0.6
			c0.1-0.1,0.2-0.2,0.4-0.2c0.1,0,0.1,0,0.2,0c0.1,0,0.1,0,0.2,0c0.1,0,0.1,0,0.2,0c0,0,0.1-0.1,0.1-0.1c0,0,0-0.1-0.1-0.1
			c0,0-0.1,0-0.2,0c-0.1,0-0.3,0-0.4,0c-0.2,0-0.3,0-0.4,0c-0.2,0-0.3,0-0.4,0c-0.1,0-0.2,0-0.3,0c-0.1,0-0.2,0-0.4,0
			c-0.1,0-0.3,0-0.5,0c-0.2,0-0.3,0-0.5,0c-0.2,0-0.3,0-0.4,0c-0.1,0-0.2,0-0.2,0c-0.1,0-0.1,0-0.1,0.1c0,0.1,0,0.1,0.1,0.1
			c0,0,0.1,0,0.2,0c0.1,0,0.2,0,0.2,0c0.1,0,0.2,0,0.2,0c0.1,0,0.3,0.1,0.3,0.2c0.1,0.1,0.1,0.3,0.1,0.5c0,0.1,0,0.2,0,0.3
			c0,0.1,0,0.2,0,0.4c0,0.1,0,0.3,0,0.5c0,0.2,0,0.5,0,0.8c0,0.3,0,0.7,0,1.1V71.9L192.5,71.9z M195.1,62.3c0-0.1-0.1-0.1-0.1-0.1
			c0,0-0.1,0-0.1,0c0,0-0.1,0-0.1,0c0,0-0.1,0.1-0.2,0.1c0,0-0.1,0.1-0.2,0.2c-0.1,0.1-0.3,0.2-0.4,0.3c-0.2,0.1-0.3,0.3-0.5,0.4
			c-0.2,0.2-0.3,0.3-0.5,0.4c-0.2,0.1-0.3,0.3-0.4,0.4c0,0-0.1,0.1-0.1,0.1c0,0,0,0.1,0,0.1c0,0,0,0,0,0.1c0,0,0,0,0,0
			c0,0,0,0,0.1,0c0,0,0.1,0,0.1-0.1c0.1-0.1,0.3-0.1,0.5-0.2c0.2-0.1,0.4-0.2,0.6-0.2c0.2-0.1,0.4-0.2,0.6-0.2
			c0.2-0.1,0.4-0.1,0.6-0.1c0.1,0,0.2,0,0.3,0c0.1,0,0.1,0,0.1,0c0,0,0.1,0,0.1,0c0,0,0-0.1,0-0.2c-0.1-0.2-0.1-0.4-0.2-0.5
			C195.2,62.5,195.1,62.4,195.1,62.3L195.1,62.3z M200.4,68.2L200.4,68.2c0.1,0.1,0.2,0.2,0.4,0.3c0.2,0.2,0.3,0.4,0.6,0.6
			c0.2,0.2,0.5,0.5,0.8,0.8c0.3,0.3,0.6,0.6,0.9,0.9c0.3,0.3,0.6,0.6,1,0.9c0.4,0.4,0.8,0.7,1.2,1.1c0.4,0.4,0.8,0.8,1.2,1.2
			c0.4,0.4,0.8,0.7,1.1,1c0.3,0.3,0.6,0.6,0.9,0.8c0.1,0.1,0.2,0.2,0.3,0.2c0.1,0.1,0.2,0.1,0.2,0.1c0.1,0,0.1,0,0.1-0.1
			c0-0.1,0-0.2,0-0.3l0.2-8.9c0-0.3,0-0.5,0.1-0.6c0-0.2,0.1-0.3,0.2-0.4c0.1-0.1,0.2-0.1,0.3-0.2c0.1,0,0.2,0,0.2,0
			c0.1,0,0.1,0,0.2,0c0.2,0,0.3,0,0.3-0.1c0-0.1,0-0.1-0.1-0.1c-0.1,0-0.1,0-0.2,0c-0.2,0-0.5,0-0.7,0c-0.2,0-0.4,0-0.5,0
			c-0.1,0-0.2,0-0.3,0c-0.1,0-0.2,0-0.4,0c-0.2,0-0.4,0-0.6,0c-0.2,0-0.5,0-0.7,0c-0.1,0-0.2,0-0.3,0c-0.1,0-0.1,0.1-0.1,0.1
			c0,0,0,0.1,0.1,0.1c0,0,0.1,0,0.2,0c0.1,0,0.2,0,0.2,0c0.1,0,0.2,0,0.3,0c0.1,0,0.2,0,0.3,0.1c0.1,0,0.2,0.1,0.3,0.2
			c0.1,0.1,0.1,0.2,0.2,0.4c0,0.2,0.1,0.4,0.1,0.7l0.1,6.3H208c-0.1,0-0.2-0.2-0.3-0.3c-0.2-0.2-0.4-0.4-0.6-0.6
			c-0.2-0.2-0.5-0.5-0.8-0.8c-0.3-0.3-0.5-0.5-0.8-0.8c-0.3-0.3-0.5-0.5-0.7-0.7c-0.4-0.4-0.9-0.8-1.3-1.2c-0.4-0.4-0.8-0.8-1.2-1.2
			c-0.4-0.4-0.7-0.7-1-1c-0.3-0.3-0.5-0.5-0.7-0.7c-0.2-0.2-0.3-0.3-0.3-0.3c-0.1-0.1-0.2-0.2-0.3-0.3c-0.1-0.1-0.2-0.1-0.2-0.1
			c-0.1,0-0.1,0-0.1,0.1c0,0.1,0,0.2,0,0.3l-0.1,8.3c0,0.4,0,0.7,0,1c0,0.2-0.1,0.4-0.1,0.5c-0.1,0.1-0.2,0.2-0.3,0.2
			c-0.1,0-0.2,0-0.3,0.1c-0.1,0-0.2,0-0.3,0c-0.1,0-0.1,0-0.2,0c0,0-0.1,0-0.1,0.1c0,0.1,0,0.1,0.1,0.1c0.1,0,0.1,0,0.2,0
			c0.3,0,0.5,0,0.7,0c0.2,0,0.4,0,0.6,0c0.2,0,0.3,0,0.3,0c0.1,0,0.4,0,0.7,0c0.3,0,0.7,0,1.2,0c0.1,0,0.2,0,0.2,0
			c0.1,0,0.1-0.1,0.1-0.1c0,0,0-0.1-0.1-0.1c0,0-0.1,0-0.2,0c-0.1,0-0.2,0-0.4,0c-0.1,0-0.3,0-0.4-0.1c-0.1,0-0.2-0.1-0.3-0.2
			c-0.1-0.1-0.1-0.3-0.2-0.5c0-0.2-0.1-0.5-0.1-0.9L200.4,68.2L200.4,68.2z M214.2,71.8c0,0.4,0,0.8,0,1.2c0,0.4,0,0.7,0,1
			c0,0.3,0,0.6,0,0.8c0,0.1,0,0.3-0.1,0.4c0,0.1-0.1,0.2-0.1,0.3c-0.1,0.1-0.1,0.1-0.2,0.1c-0.1,0-0.1,0-0.2,0c-0.1,0-0.2,0-0.3,0
			c-0.1,0-0.1,0-0.2,0c0,0-0.1,0-0.1,0.1c0,0,0,0.1,0.1,0.1c0,0,0.1,0,0.2,0c0.1,0,0.3,0,0.5,0c0.2,0,0.3,0,0.5,0c0.2,0,0.3,0,0.5,0
			c0.1,0,0.3,0,0.3,0c0.2,0,0.4,0,0.7,0c0.2,0,0.5,0,0.8,0c0.3,0,0.7,0,1.1,0c0.4,0,0.9,0,1.4,0c0.2,0,0.3,0,0.4,0
			c0.1,0,0.2,0,0.2-0.1c0.1-0.1,0.1-0.1,0.1-0.3c0-0.1,0-0.2,0.1-0.3c0-0.1,0-0.3,0.1-0.4c0-0.2,0-0.3,0-0.5c0-0.1,0-0.3,0-0.3
			c0-0.1,0-0.1,0-0.2c0,0,0-0.1-0.1-0.1c0,0-0.1,0-0.1,0c0,0,0,0.1-0.1,0.2c0,0.3-0.1,0.5-0.2,0.7c-0.1,0.2-0.2,0.3-0.4,0.4
			c-0.1,0.1-0.3,0.1-0.4,0.1c-0.2,0-0.3,0-0.5,0c-0.2,0-0.3,0-0.4,0c-0.4,0-0.7,0-0.9,0c-0.2,0-0.4-0.1-0.5-0.2
			c-0.1-0.1-0.2-0.2-0.2-0.4c0-0.2-0.1-0.4-0.1-0.6c0-0.1,0-0.2,0-0.3c0-0.1,0-0.3,0-0.5c0-0.2,0-0.3,0-0.5c0-0.2,0-0.3,0-0.5
			c0-0.1,0-0.3,0-0.4v-1.1c0,0,0-0.1,0-0.1c0,0,0,0,0.1,0c0.1,0,0.2,0,0.3,0c0.1,0,0.3,0,0.5,0c0.2,0,0.3,0,0.5,0c0.2,0,0.3,0,0.5,0
			c0.1,0,0.2,0,0.3,0c0.2,0,0.3,0.1,0.4,0.1c0.1,0,0.2,0.1,0.3,0.2c0.1,0.1,0.1,0.2,0.1,0.3c0,0.1,0,0.2,0,0.3c0,0.1,0,0.2,0,0.2
			c0,0,0,0.1,0,0.1c0,0,0.1,0,0.1,0c0,0,0.1,0,0.1,0c0,0,0-0.1,0-0.1c0,0,0-0.1,0-0.1c0,0,0-0.1,0-0.1c0-0.1,0-0.2,0-0.3
			c0-0.1,0-0.2,0-0.3c0-0.1,0-0.2,0-0.3c0-0.2,0-0.4,0.1-0.6c0-0.1,0-0.2,0-0.3c0-0.1,0-0.1,0-0.1c0,0,0-0.1,0-0.1c0,0,0,0-0.1,0
			c0,0-0.1,0-0.1,0c0,0-0.1,0.1-0.1,0.1c-0.1,0.1-0.1,0.1-0.3,0.1c-0.1,0-0.3,0.1-0.4,0.1c-0.1,0-0.2,0-0.3,0c-0.2,0-0.3,0-0.5,0
			c-0.2,0-0.4,0-0.6,0c-0.2,0-0.4,0-0.5,0c-0.2,0-0.3,0-0.3,0c0,0-0.1,0-0.1,0c0,0,0-0.1,0-0.1v-3.6c0,0,0-0.1,0-0.1c0,0,0,0,0.1,0
			c0.1,0,0.2,0,0.3,0c0.1,0,0.3,0,0.5,0c0.2,0,0.4,0,0.5,0c0.2,0,0.3,0,0.5,0c0.1,0,0.2,0,0.3,0c0.2,0,0.4,0.1,0.5,0.1
			c0.1,0,0.2,0.1,0.3,0.2c0.1,0.1,0.1,0.1,0.1,0.2c0,0.1,0,0.1,0.1,0.2c0,0.1,0,0.1,0,0.2c0,0.1,0,0.1,0,0.1c0,0.1,0,0.1,0,0.1
			c0,0,0.1,0.1,0.1,0.1c0,0,0.1,0,0.1-0.1c0,0,0-0.1,0-0.1c0,0,0-0.1,0-0.2c0-0.1,0-0.2,0-0.3c0-0.1,0-0.2,0-0.3c0-0.1,0-0.1,0-0.2
			c0-0.2,0-0.4,0-0.5c0-0.1,0-0.2,0-0.3c0-0.1,0-0.1,0-0.1c0,0,0-0.1,0-0.1c0,0,0,0-0.1,0c0,0-0.1,0-0.1,0c0,0-0.1,0-0.1,0
			c-0.1,0-0.1,0-0.2,0c-0.1,0-0.2,0-0.4,0c0,0-0.2,0-0.3,0c-0.2,0-0.4,0-0.6,0c-0.2,0-0.5,0-0.8,0c-0.3,0-0.5,0-0.8,0
			c-0.3,0-0.5,0-0.7,0s-0.3,0-0.4,0c-0.1,0-0.2,0-0.4,0c-0.2,0-0.3,0-0.5,0c-0.2,0-0.4,0-0.6,0c-0.2,0-0.4,0-0.6,0
			c-0.1,0-0.2,0-0.2,0c-0.1,0-0.1,0.1-0.1,0.1c0,0,0,0.1,0.1,0.1c0,0,0.1,0,0.2,0c0.1,0,0.2,0,0.3,0c0.1,0,0.2,0,0.2,0
			c0.2,0,0.3,0.1,0.4,0.1c0.1,0.1,0.1,0.1,0.2,0.3c0,0.1,0.1,0.2,0.1,0.4c0,0.1,0,0.2,0,0.3c0,0.1,0,0.2,0,0.4c0,0.1,0,0.3,0,0.5
			c0,0.2,0,0.5,0,0.8c0,0.3,0,0.7,0,1.1V71.8L214.2,71.8z M227.9,72.4C227.9,72.4,228,72.4,227.9,72.4c0.1,0,0.1,0.1,0.1,0.1
			l1.1,2.9c0,0.1,0,0.2,0,0.2c0,0.1-0.1,0.1-0.1,0.1c-0.1,0-0.1,0-0.2,0c0,0,0,0,0,0.1c0,0,0,0.1,0.1,0.1c0.1,0,0.2,0,0.3,0
			c0.4,0,0.7,0,1.1,0c0.3,0,0.7,0,0.9,0c0.3,0,0.5,0,0.7,0s0.3,0,0.4,0c0.1,0,0.2,0,0.2,0c0,0,0.1,0,0.1-0.1c0,0,0-0.1,0-0.1
			c0,0-0.1,0-0.1,0c-0.1,0-0.2,0-0.3,0c-0.1,0-0.2,0-0.3,0c-0.1,0-0.2,0-0.2-0.1c-0.1,0-0.2-0.1-0.3-0.2c-0.1-0.1-0.2-0.3-0.3-0.4
			c-0.1-0.2-0.2-0.4-0.4-0.8c-0.1-0.3-0.2-0.6-0.4-0.9c-0.2-0.4-0.3-0.8-0.5-1.2c-0.2-0.4-0.4-0.9-0.5-1.3c-0.2-0.4-0.4-0.9-0.6-1.3
			c-0.2-0.4-0.4-0.9-0.5-1.3c-0.2-0.4-0.3-0.8-0.5-1.1c-0.1-0.3-0.3-0.6-0.4-0.9c-0.1-0.2-0.2-0.4-0.2-0.5c-0.1-0.2-0.1-0.3-0.2-0.3
			c-0.1-0.1-0.1-0.1-0.2-0.1c-0.1,0-0.1,0-0.2,0.1c-0.1,0.1-0.1,0.2-0.2,0.4l-3.6,8.7c-0.1,0.2-0.2,0.4-0.3,0.6
			c-0.1,0.2-0.2,0.3-0.4,0.4c-0.1,0.1-0.3,0.2-0.5,0.2c-0.1,0-0.1,0-0.2,0c-0.1,0-0.2,0-0.2,0c-0.1,0-0.1,0-0.1,0c0,0,0,0,0,0.1
			c0,0.1,0,0.1,0.1,0.1c0,0,0.1,0,0.2,0c0.2,0,0.4,0,0.6,0c0.2,0,0.4,0,0.5,0c0.2,0,0.3,0,0.4,0c0.1,0,0.2,0,0.2,0
			c0.2,0,0.3,0,0.5,0c0.2,0,0.4,0,0.5,0c0.2,0,0.3,0,0.5,0c0.1,0,0.1,0,0.2,0c0,0,0.1-0.1,0.1-0.1c0,0,0-0.1,0-0.1c0,0-0.1,0-0.2,0
			h-0.2c-0.2,0-0.4,0-0.5-0.1c-0.1-0.1-0.1-0.2-0.1-0.3c0-0.1,0-0.2,0.1-0.4c0-0.2,0.1-0.3,0.2-0.5l0.8-1.9c0,0,0-0.1,0-0.1
			c0,0,0,0,0.1,0H227.9L227.9,72.4z M225,71.7C225,71.7,225,71.6,225,71.7C224.9,71.6,224.9,71.6,225,71.7l1.3-3.5c0,0,0-0.1,0-0.1
			c0,0,0,0,0.1,0c0,0,0,0,0,0c0,0,0,0.1,0,0.1l1.3,3.5c0,0,0,0,0,0.1c0,0,0,0-0.1,0H225L225,71.7z M244.1,72.3
			C244.2,72.3,244.2,72.3,244.1,72.3c0.1,0,0.1,0.1,0.1,0.1l1.1,2.9c0,0.1,0,0.2,0,0.2c0,0.1-0.1,0.1-0.1,0.1c-0.1,0-0.1,0-0.2,0
			c0,0,0,0,0,0.1c0,0,0,0.1,0.1,0.1c0.1,0,0.2,0,0.3,0c0.4,0,0.7,0,1.1,0c0.3,0,0.7,0,0.9,0c0.3,0,0.5,0,0.7,0c0.2,0,0.3,0,0.4,0
			c0.1,0,0.2,0,0.2,0c0,0,0.1-0.1,0.1-0.1c0,0,0-0.1,0-0.1c0,0-0.1,0-0.1,0c-0.1,0-0.2,0-0.3,0c-0.1,0-0.2,0-0.3,0
			c-0.1,0-0.2,0-0.2-0.1c-0.1,0-0.2-0.1-0.3-0.2c-0.1-0.1-0.2-0.3-0.3-0.5c-0.1-0.2-0.2-0.5-0.4-0.8c-0.1-0.3-0.2-0.6-0.4-1
			c-0.2-0.4-0.3-0.8-0.5-1.2c-0.2-0.4-0.4-0.9-0.5-1.3c-0.2-0.5-0.4-0.9-0.6-1.4c-0.2-0.5-0.4-0.9-0.5-1.3c-0.2-0.4-0.3-0.8-0.5-1.1
			c-0.1-0.3-0.3-0.6-0.4-0.9c-0.1-0.2-0.2-0.4-0.2-0.5c-0.1-0.2-0.1-0.3-0.2-0.4c-0.1-0.1-0.1-0.1-0.2-0.1c-0.1,0-0.1,0-0.2,0.1
			c-0.1,0.1-0.1,0.2-0.2,0.4l-3.6,8.8c-0.1,0.2-0.2,0.4-0.3,0.6c-0.1,0.2-0.2,0.3-0.4,0.4c-0.1,0.1-0.3,0.2-0.5,0.2
			c-0.1,0-0.1,0-0.2,0c-0.1,0-0.2,0-0.2,0c-0.1,0-0.1,0-0.1,0c0,0,0,0,0,0.1c0,0.1,0,0.1,0.1,0.1c0,0,0.1,0,0.2,0c0.2,0,0.4,0,0.6,0
			c0.2,0,0.4,0,0.5,0c0.2,0,0.3,0,0.4,0c0.1,0,0.2,0,0.2,0c0.2,0,0.3,0,0.5,0c0.2,0,0.4,0,0.5,0c0.2,0,0.3,0,0.5,0
			c0.1,0,0.1,0,0.2,0c0,0,0.1-0.1,0.1-0.1c0,0,0-0.1,0-0.1c0,0-0.1,0-0.2,0h-0.2c-0.2,0-0.4,0-0.5-0.1c-0.1-0.1-0.1-0.2-0.1-0.3
			c0-0.1,0-0.2,0.1-0.4c0-0.2,0.1-0.3,0.2-0.5l0.8-2c0,0,0-0.1,0-0.1c0,0,0,0,0.1,0H244.1L244.1,72.3z M241.2,71.6
			C241.2,71.6,241.2,71.6,241.2,71.6C241.2,71.5,241.2,71.5,241.2,71.6l1.3-3.6c0,0,0-0.1,0-0.1c0,0,0,0,0.1,0c0,0,0,0,0,0
			c0,0,0,0.1,0,0.1l1.3,3.5c0,0,0,0,0,0.1c0,0,0,0-0.1,0H241.2L241.2,71.6z M251,71.9c0,0.4,0,0.8,0,1.2c0,0.4,0,0.7,0,1
			c0,0.3,0,0.5,0,0.7c0,0.1,0,0.3-0.1,0.4c0,0.1-0.1,0.2-0.1,0.3c-0.1,0.1-0.1,0.1-0.2,0.1c-0.1,0-0.1,0-0.2,0c-0.1,0-0.2,0-0.3,0
			c-0.1,0-0.1,0-0.2,0c0,0-0.1,0-0.1,0.1c0,0,0,0.1,0.1,0.1c0,0,0.1,0,0.2,0c0.1,0,0.3,0,0.5,0c0.2,0,0.3,0,0.5,0c0.2,0,0.3,0,0.5,0
			c0.1,0,0.3,0,0.3,0c0.2,0,0.4,0,0.7,0c0.2,0,0.5,0,0.8,0c0.3,0,0.7,0,1.1,0c0.4,0,0.9,0,1.4,0c0.2,0,0.3,0,0.4,0
			c0.1,0,0.2,0,0.2-0.1c0.1-0.1,0.1-0.1,0.1-0.3c0-0.1,0-0.2,0.1-0.3c0-0.1,0-0.3,0.1-0.4c0-0.2,0-0.3,0-0.4c0-0.1,0-0.3,0-0.3
			c0-0.1,0-0.1,0-0.2c0,0,0-0.1-0.1-0.1c0,0-0.1,0-0.1,0c0,0,0,0.1-0.1,0.2c0,0.3-0.1,0.5-0.2,0.7c-0.1,0.2-0.2,0.3-0.4,0.4
			c-0.1,0.1-0.3,0.1-0.4,0.1c-0.2,0-0.3,0-0.5,0c-0.2,0-0.3,0-0.4,0c-0.4,0-0.7,0-0.9,0c-0.2,0-0.4-0.1-0.5-0.2
			c-0.1-0.1-0.2-0.2-0.2-0.4c0-0.2-0.1-0.3-0.1-0.6c0-0.1,0-0.2,0-0.3c0-0.1,0-0.3,0-0.5c0-0.2,0-0.3,0-0.5c0-0.2,0-0.3,0-0.5
			c0-0.1,0-0.3,0-0.4v-1.1c0,0,0-0.1,0-0.1c0,0,0,0,0.1,0c0.1,0,0.2,0,0.3,0c0.1,0,0.3,0,0.5,0c0.2,0,0.3,0,0.5,0c0.2,0,0.3,0,0.5,0
			c0.1,0,0.2,0,0.3,0c0.2,0,0.3,0.1,0.4,0.1c0.1,0,0.2,0.1,0.3,0.2c0.1,0.1,0.1,0.2,0.1,0.3c0,0.1,0,0.2,0,0.3c0,0.1,0,0.2,0,0.2
			c0,0,0,0.1,0,0.1c0,0,0.1,0,0.1,0c0,0,0.1,0,0.1,0c0,0,0-0.1,0-0.1c0,0,0-0.1,0-0.1c0,0,0-0.1,0-0.1c0-0.1,0-0.2,0-0.2
			c0-0.1,0-0.2,0-0.3c0-0.1,0-0.2,0-0.2c0-0.2,0-0.4,0.1-0.6c0-0.1,0-0.2,0-0.3c0-0.1,0-0.1,0-0.1c0,0,0-0.1,0-0.1c0,0,0,0-0.1,0
			c0,0-0.1,0-0.1,0c0,0-0.1,0.1-0.1,0.1c-0.1,0.1-0.1,0.1-0.3,0.1c-0.1,0-0.3,0.1-0.4,0.1c-0.1,0-0.2,0-0.3,0c-0.2,0-0.3,0-0.5,0
			c-0.2,0-0.4,0-0.6,0c-0.2,0-0.4,0-0.5,0c-0.1,0-0.3,0-0.3,0c0,0-0.1,0-0.1,0c0,0,0-0.1,0-0.1v-3.5c0,0,0-0.1,0-0.1c0,0,0,0,0.1,0
			c0.1,0,0.2,0,0.3,0c0.1,0,0.3,0,0.5,0c0.2,0,0.4,0,0.5,0c0.2,0,0.3,0,0.5,0c0.1,0,0.2,0,0.3,0c0.2,0,0.4,0.1,0.5,0.1
			c0.1,0,0.2,0.1,0.3,0.2c0.1,0.1,0.1,0.1,0.1,0.2c0,0.1,0,0.1,0.1,0.2c0,0.1,0,0.1,0,0.2c0,0.1,0,0.1,0,0.1c0,0.1,0,0.1,0,0.1
			c0,0,0.1,0.1,0.1,0.1c0.1,0,0.1,0,0.1-0.1c0,0,0-0.1,0-0.1c0,0,0-0.1,0-0.2c0-0.1,0-0.2,0-0.3c0-0.1,0-0.2,0-0.3
			c0-0.1,0-0.1,0-0.2c0-0.2,0-0.4,0-0.5c0-0.1,0-0.2,0-0.3c0-0.1,0-0.1,0-0.1c0,0,0-0.1,0-0.1c0,0,0,0-0.1,0c0,0-0.1,0-0.1,0
			c0,0-0.1,0-0.1,0c-0.1,0-0.1,0-0.2,0c-0.1,0-0.2,0-0.4,0c0,0-0.2,0-0.3,0c-0.2,0-0.4,0-0.6,0c-0.2,0-0.5,0-0.8,0s-0.5,0-0.8,0
			c-0.3,0-0.5,0-0.7,0c-0.2,0-0.3,0-0.4,0c-0.1,0-0.2,0-0.4,0c-0.2,0-0.3,0-0.5,0c-0.2,0-0.4,0-0.6,0c-0.2,0-0.4,0-0.6,0
			c-0.1,0-0.2,0-0.2,0c0,0-0.1,0.1-0.1,0.1c0,0,0,0.1,0.1,0.1c0,0,0.1,0,0.2,0c0.1,0,0.2,0,0.3,0c0.1,0,0.2,0,0.2,0
			c0.2,0,0.3,0.1,0.4,0.1c0.1,0.1,0.1,0.1,0.2,0.3c0,0.1,0.1,0.2,0.1,0.4c0,0.1,0,0.2,0,0.3c0,0.1,0,0.2,0,0.3c0,0.1,0,0.3,0,0.5
			c0,0.2,0,0.4,0,0.7c0,0.3,0,0.7,0,1.1V71.9L251,71.9z M255.3,62.5c0-0.1-0.1-0.1-0.1-0.1c0,0-0.1,0-0.1,0c0,0-0.1,0-0.1,0
			c0,0-0.1,0.1-0.2,0.1c0,0-0.1,0.1-0.3,0.2c-0.1,0.1-0.3,0.2-0.5,0.3c-0.2,0.1-0.4,0.3-0.6,0.4c-0.2,0.1-0.4,0.3-0.6,0.4
			c-0.2,0.1-0.3,0.3-0.4,0.4c0,0-0.1,0.1-0.1,0.1c0,0,0,0.1,0,0.1c0,0,0,0,0,0.1c0,0,0,0,0.1,0c0,0,0,0,0.1,0c0,0,0.1,0,0.2-0.1
			c0.1-0.1,0.3-0.1,0.5-0.2c0.2-0.1,0.4-0.2,0.6-0.2c0.2-0.1,0.4-0.2,0.7-0.2c0.2-0.1,0.4-0.1,0.6-0.1c0.1,0,0.2,0,0.3,0
			c0.1,0,0.1,0,0.2,0c0,0,0.1,0,0.1,0c0,0,0-0.1,0-0.2c-0.1-0.2-0.2-0.3-0.2-0.5C255.4,62.7,255.4,62.6,255.3,62.5L255.3,62.5z
			 M261.2,71.9c0,0.4,0,0.8,0,1.2c0,0.4,0,0.7,0,1c0,0.3,0,0.5-0.1,0.7c0,0.1,0,0.3-0.1,0.4c0,0.1-0.1,0.2-0.1,0.3
			c-0.1,0.1-0.1,0.1-0.2,0.1c-0.1,0-0.1,0-0.2,0c-0.1,0-0.2,0-0.3,0c-0.1,0-0.1,0-0.2,0c0,0-0.1,0-0.1,0.1c0,0,0,0.1,0.1,0.1
			c0,0,0.1,0,0.2,0c0.1,0,0.3,0,0.5,0c0.2,0,0.3,0,0.5,0c0.2,0,0.3,0,0.5,0c0.1,0,0.2,0,0.3,0c0.1,0,0.2,0,0.3,0c0.1,0,0.3,0,0.5,0
			c0.2,0,0.4,0,0.6,0c0.2,0,0.4,0,0.6,0c0.1,0,0.2,0,0.2,0c0.1,0,0.1-0.1,0.1-0.1c0,0,0-0.1,0-0.1c0,0-0.1,0-0.1,0
			c-0.1,0-0.1,0-0.2,0c-0.1,0-0.2,0-0.3,0c-0.1,0-0.2,0-0.2,0c-0.1,0-0.3-0.1-0.3-0.1c-0.1-0.1-0.1-0.2-0.2-0.3
			c0-0.1-0.1-0.2-0.1-0.4c0-0.2,0-0.4-0.1-0.7c0-0.3,0-0.6,0-1c0-0.4,0-0.8,0-1.2v-0.2c0,0,0-0.1,0-0.1c0,0,0,0,0.1,0l1.2,0
			c0.1,0,0.1,0,0.1,0c0,0,0.1,0,0.1,0.1c0,0.1,0.1,0.1,0.2,0.3c0.1,0.1,0.2,0.3,0.3,0.5c0.1,0.2,0.3,0.4,0.4,0.6
			c0.1,0.2,0.3,0.4,0.4,0.6c0.3,0.4,0.5,0.7,0.7,0.9c0.2,0.3,0.4,0.5,0.6,0.7c0.2,0.2,0.4,0.3,0.6,0.4c0.1,0.1,0.2,0.1,0.4,0.2
			c0.1,0,0.3,0.1,0.5,0.1c0.2,0,0.4,0,0.7,0h1.4c0.1,0,0.2,0,0.2,0c0,0,0.1-0.1,0.1-0.1c0,0,0-0.1,0-0.1c0,0-0.1,0-0.1,0
			c-0.1,0-0.1,0-0.2,0c-0.1,0-0.1,0-0.2,0c-0.1,0-0.1,0-0.2-0.1c-0.1,0-0.2-0.1-0.4-0.1c-0.1-0.1-0.3-0.2-0.5-0.3
			c-0.2-0.1-0.4-0.3-0.6-0.5c-0.4-0.4-0.9-1-1.4-1.6c-0.5-0.6-1.1-1.3-1.7-2.1c0.5-0.4,0.9-0.7,1.1-1.1c0.3-0.3,0.5-0.7,0.6-1
			c0.1-0.3,0.2-0.7,0.2-1c0-0.2,0-0.5-0.1-0.7c-0.1-0.2-0.1-0.4-0.2-0.6c-0.1-0.2-0.2-0.3-0.3-0.4c-0.1-0.1-0.2-0.2-0.3-0.3
			c-0.3-0.2-0.5-0.3-0.8-0.4c-0.3-0.1-0.6-0.1-0.9-0.2c-0.3,0-0.6,0-0.9,0c-0.1,0-0.3,0-0.4,0c-0.2,0-0.4,0-0.6,0
			c-0.2,0-0.4,0-0.6,0c-0.2,0-0.3,0-0.5,0c-0.1,0-0.2,0-0.3,0c-0.1,0-0.3,0-0.5,0c-0.2,0-0.4,0-0.6,0c-0.2,0-0.4,0-0.6,0
			c-0.1,0-0.2,0-0.2,0c0,0-0.1,0.1-0.1,0.1c0,0,0,0.1,0.1,0.1c0,0,0.1,0,0.2,0c0.1,0,0.2,0,0.3,0c0.1,0,0.2,0,0.2,0
			c0.2,0,0.3,0.1,0.4,0.1c0.1,0.1,0.1,0.1,0.2,0.3c0,0.1,0.1,0.2,0.1,0.4c0,0.1,0,0.2,0,0.3c0,0.1,0,0.2,0,0.3c0,0.1,0,0.3,0,0.5
			c0,0.2,0,0.5,0,0.8s0,0.7,0,1.1V71.9L261.2,71.9z M262.9,66.3c0-0.1,0-0.1,0-0.1c0,0,0.1-0.1,0.1-0.1c0.1,0,0.2,0,0.3,0
			c0.1,0,0.3,0,0.5,0c0.2,0,0.4,0,0.5,0.1c0.2,0.1,0.4,0.1,0.6,0.3c0.2,0.1,0.4,0.3,0.5,0.5c0.2,0.2,0.3,0.4,0.4,0.7
			c0.1,0.3,0.1,0.6,0.1,1c0,0.4,0,0.7-0.1,1c-0.1,0.3-0.2,0.5-0.3,0.7c-0.1,0.2-0.3,0.3-0.4,0.4c-0.1,0.1-0.2,0.1-0.2,0.1
			c-0.1,0-0.2,0.1-0.3,0.1c-0.1,0-0.3,0-0.5,0c-0.1,0-0.2,0-0.4,0c-0.1,0-0.3,0-0.4,0c-0.1,0-0.2,0-0.3-0.1c0,0-0.1,0-0.1-0.1
			c0,0,0-0.1,0-0.2V66.3L262.9,66.3z M273.4,71.9c0,0.4,0,0.8,0,1.2c0,0.4,0,0.7,0,1c0,0.3,0,0.5-0.1,0.7c0,0.1,0,0.3-0.1,0.4
			c0,0.1-0.1,0.2-0.1,0.3c-0.1,0.1-0.1,0.1-0.2,0.1c-0.1,0-0.1,0-0.2,0c-0.1,0-0.2,0-0.3,0c-0.1,0-0.1,0-0.2,0c0,0-0.1,0-0.1,0.1
			c0,0,0,0.1,0.1,0.1c0,0,0.1,0,0.2,0c0.1,0,0.3,0,0.5,0c0.2,0,0.3,0,0.5,0c0.2,0,0.3,0,0.5,0c0.1,0,0.3,0,0.3,0c0.2,0,0.4,0,0.7,0
			c0.2,0,0.5,0,0.8,0c0.3,0,0.7,0,1.1,0c0.4,0,0.9,0,1.4,0c0.2,0,0.3,0,0.4,0c0.1,0,0.2,0,0.2-0.1c0.1-0.1,0.1-0.1,0.1-0.3
			c0-0.1,0-0.2,0.1-0.3c0-0.1,0-0.3,0.1-0.4c0-0.2,0-0.3,0-0.4c0-0.1,0-0.3,0-0.3c0-0.1,0-0.1,0-0.2c0,0,0-0.1-0.1-0.1
			c0,0-0.1,0-0.1,0s0,0.1-0.1,0.2c0,0.3-0.1,0.5-0.2,0.7c-0.1,0.2-0.2,0.3-0.4,0.4c-0.1,0.1-0.3,0.1-0.4,0.1c-0.2,0-0.3,0-0.5,0
			c-0.2,0-0.3,0-0.4,0c-0.4,0-0.7,0-0.9,0c-0.2,0-0.4-0.1-0.5-0.2c-0.1-0.1-0.2-0.2-0.2-0.4c0-0.2-0.1-0.3-0.1-0.6
			c0-0.1,0-0.2,0-0.3c0-0.1,0-0.3,0-0.5c0-0.2,0-0.3,0-0.5c0-0.2,0-0.3,0-0.5c0-0.1,0-0.3,0-0.4v-1.1c0,0,0-0.1,0-0.1c0,0,0,0,0.1,0
			c0.1,0,0.2,0,0.3,0c0.1,0,0.3,0,0.5,0c0.2,0,0.3,0,0.5,0c0.2,0,0.3,0,0.5,0c0.1,0,0.2,0,0.3,0c0.2,0,0.3,0.1,0.4,0.1
			c0.1,0,0.2,0.1,0.3,0.2c0.1,0.1,0.1,0.2,0.1,0.3c0,0.1,0,0.2,0,0.3c0,0.1,0,0.2,0,0.2c0,0,0,0.1,0,0.1c0,0,0.1,0,0.1,0
			c0,0,0.1,0,0.1,0c0,0,0-0.1,0-0.1c0,0,0-0.1,0-0.1c0,0,0-0.1,0-0.1c0-0.1,0-0.2,0-0.2c0-0.1,0-0.2,0-0.3c0-0.1,0-0.2,0-0.2
			c0-0.2,0-0.4,0.1-0.6c0-0.1,0-0.2,0-0.3c0-0.1,0-0.1,0-0.1c0,0,0-0.1,0-0.1c0,0,0,0-0.1,0c0,0-0.1,0-0.1,0c0,0-0.1,0.1-0.1,0.1
			c-0.1,0.1-0.1,0.1-0.3,0.1c-0.1,0-0.3,0.1-0.4,0.1c-0.1,0-0.2,0-0.3,0c-0.2,0-0.3,0-0.5,0c-0.2,0-0.4,0-0.6,0c-0.2,0-0.4,0-0.5,0
			c-0.1,0-0.3,0-0.3,0c0,0-0.1,0-0.1,0c0,0,0-0.1,0-0.1v-3.5c0,0,0-0.1,0-0.1c0,0,0,0,0.1,0c0.1,0,0.2,0,0.3,0c0.1,0,0.3,0,0.5,0
			c0.2,0,0.4,0,0.5,0c0.2,0,0.3,0,0.5,0c0.1,0,0.2,0,0.3,0c0.2,0,0.4,0.1,0.5,0.1c0.1,0,0.2,0.1,0.3,0.2c0.1,0.1,0.1,0.1,0.1,0.2
			c0,0.1,0,0.1,0.1,0.2c0,0.1,0,0.1,0,0.2c0,0.1,0,0.1,0,0.1c0,0.1,0,0.1,0,0.1c0,0,0.1,0.1,0.1,0.1c0,0,0.1,0,0.1-0.1
			c0,0,0-0.1,0-0.1c0,0,0-0.1,0-0.2c0-0.1,0-0.2,0-0.3c0-0.1,0-0.2,0-0.3c0-0.1,0-0.1,0-0.2c0-0.2,0-0.4,0-0.5c0-0.1,0-0.2,0-0.3
			c0-0.1,0-0.1,0-0.1c0,0,0-0.1,0-0.1c0,0,0,0-0.1,0c0,0-0.1,0-0.1,0c0,0-0.1,0-0.1,0c-0.1,0-0.1,0-0.2,0s-0.2,0-0.4,0
			c0,0-0.2,0-0.3,0c-0.2,0-0.4,0-0.6,0c-0.2,0-0.5,0-0.8,0c-0.3,0-0.5,0-0.8,0c-0.3,0-0.5,0-0.7,0c-0.2,0-0.3,0-0.4,0
			c-0.1,0-0.2,0-0.4,0c-0.2,0-0.3,0-0.5,0c-0.2,0-0.4,0-0.6,0c-0.2,0-0.4,0-0.6,0c-0.1,0-0.2,0-0.2,0c-0.1,0-0.1,0.1-0.1,0.1
			c0,0,0,0.1,0.1,0.1c0,0,0.1,0,0.2,0c0.1,0,0.2,0,0.3,0c0.1,0,0.2,0,0.2,0c0.2,0,0.3,0.1,0.4,0.1c0.1,0.1,0.1,0.1,0.2,0.3
			c0,0.1,0.1,0.2,0.1,0.4c0,0.1,0,0.2,0,0.3c0,0.1,0,0.2,0,0.3c0,0.1,0,0.3,0,0.5c0,0.2,0,0.4,0,0.7s0,0.7,0,1.1V71.9L273.4,71.9z
			 M286.5,72.4C286.5,72.4,286.6,72.4,286.5,72.4c0.1,0,0.1,0.1,0.1,0.1l1.1,2.9c0,0.1,0,0.2,0,0.2c0,0.1-0.1,0.1-0.1,0.1
			c-0.1,0-0.1,0-0.2,0c0,0,0,0,0,0.1c0,0,0,0.1,0.1,0.1c0.1,0,0.2,0,0.3,0c0.4,0,0.7,0,1.1,0c0.3,0,0.7,0,0.9,0c0.3,0,0.5,0,0.7,0
			s0.3,0,0.4,0c0.1,0,0.2,0,0.2,0c0,0,0.1,0,0.1-0.1c0,0,0-0.1,0-0.1c0,0-0.1,0-0.1,0c-0.1,0-0.2,0-0.3,0c-0.1,0-0.2,0-0.3,0
			c-0.1,0-0.2,0-0.2-0.1c-0.1,0-0.2-0.1-0.3-0.2c-0.1-0.1-0.2-0.3-0.3-0.4c-0.1-0.2-0.2-0.4-0.4-0.8c-0.1-0.3-0.2-0.6-0.4-0.9
			c-0.2-0.4-0.3-0.8-0.5-1.2c-0.2-0.4-0.4-0.9-0.5-1.3c-0.2-0.4-0.4-0.9-0.6-1.3c-0.2-0.4-0.4-0.9-0.5-1.3c-0.2-0.4-0.3-0.8-0.5-1.1
			c-0.1-0.3-0.3-0.6-0.4-0.9c-0.1-0.2-0.2-0.4-0.2-0.5c-0.1-0.2-0.1-0.3-0.2-0.3c-0.1-0.1-0.1-0.1-0.2-0.1c-0.1,0-0.1,0-0.2,0.1
			c-0.1,0.1-0.1,0.2-0.2,0.4l-3.6,8.7c-0.1,0.2-0.2,0.4-0.3,0.6c-0.1,0.2-0.2,0.3-0.4,0.4c-0.1,0.1-0.3,0.2-0.5,0.2
			c-0.1,0-0.1,0-0.2,0c-0.1,0-0.2,0-0.2,0c-0.1,0-0.1,0-0.1,0c0,0,0,0,0,0.1c0,0.1,0,0.1,0.1,0.1c0,0,0.1,0,0.2,0c0.2,0,0.4,0,0.6,0
			c0.2,0,0.4,0,0.5,0c0.2,0,0.3,0,0.4,0c0.1,0,0.2,0,0.2,0c0.2,0,0.3,0,0.5,0c0.2,0,0.4,0,0.5,0c0.2,0,0.3,0,0.5,0
			c0.1,0,0.1,0,0.2,0c0,0,0.1-0.1,0.1-0.1c0,0,0-0.1,0-0.1c0,0-0.1,0-0.2,0h-0.2c-0.2,0-0.4,0-0.5-0.1c-0.1-0.1-0.1-0.2-0.1-0.3
			c0-0.1,0-0.2,0.1-0.4c0-0.2,0.1-0.3,0.2-0.5l0.8-1.9c0,0,0-0.1,0-0.1c0,0,0,0,0.1,0H286.5L286.5,72.4z M283.6,71.7
			C283.6,71.7,283.6,71.7,283.6,71.7C283.6,71.6,283.6,71.6,283.6,71.7l1.3-3.5c0,0,0-0.1,0-0.1c0,0,0,0,0.1,0c0,0,0,0,0,0
			c0,0,0,0.1,0,0.1l1.3,3.4c0,0,0,0,0,0.1c0,0,0,0-0.1,0H283.6L283.6,71.7z M303.7,71.8c0,0,0.1,0,0.1,0c0,0,0,0,0.1,0.1l1.3,3.4
			c0,0.1,0,0.2,0,0.3c0,0.1-0.1,0.1-0.1,0.1c-0.1,0-0.1,0-0.2,0c0,0-0.1,0.1-0.1,0.1c0,0.1,0,0.1,0.1,0.1c0.1,0,0.2,0,0.4,0
			c0.4,0,0.9,0,1.2,0c0.4,0,0.8,0,1.1,0c0.3,0,0.6,0,0.8,0c0.2,0,0.4,0,0.5,0c0.1,0,0.2,0,0.2,0c0,0,0.1-0.1,0.1-0.1
			c0-0.1,0-0.1-0.1-0.1c0,0-0.1,0-0.2,0c-0.1,0-0.2,0-0.3,0c-0.1,0-0.2,0-0.4-0.1c-0.1,0-0.2-0.1-0.3-0.1c-0.1-0.1-0.2-0.1-0.3-0.3
			c-0.1-0.1-0.2-0.3-0.4-0.5c-0.1-0.2-0.3-0.5-0.4-0.9c-0.1-0.3-0.3-0.7-0.5-1.1c-0.2-0.4-0.4-0.9-0.6-1.4c-0.2-0.5-0.4-1-0.6-1.5
			c-0.2-0.5-0.4-1-0.6-1.6c-0.2-0.5-0.4-1-0.6-1.5c-0.2-0.5-0.4-0.9-0.5-1.3c-0.2-0.4-0.3-0.7-0.4-1c-0.1-0.3-0.2-0.5-0.2-0.6
			c-0.1-0.2-0.1-0.3-0.2-0.4c-0.1-0.1-0.1-0.1-0.2-0.1c-0.1,0-0.1,0-0.2,0.1c-0.1,0.1-0.1,0.3-0.2,0.5l-4.1,10.1
			c-0.1,0.3-0.2,0.5-0.3,0.7c-0.1,0.2-0.3,0.4-0.4,0.5c-0.2,0.1-0.4,0.2-0.6,0.2c-0.1,0-0.2,0-0.2,0c-0.1,0-0.2,0-0.3,0
			c-0.1,0-0.1,0-0.1,0c0,0,0,0.1,0,0.1c0,0.1,0,0.1,0.1,0.1c0,0,0.1,0,0.2,0c0.2,0,0.4,0,0.6,0c0.2,0,0.4,0,0.6,0c0.2,0,0.3,0,0.5,0
			c0.1,0,0.2,0,0.3,0c0.2,0,0.4,0,0.6,0s0.4,0,0.6,0c0.2,0,0.4,0,0.6,0c0.1,0,0.2,0,0.2,0c0,0,0.1-0.1,0.1-0.1c0,0,0-0.1,0-0.1
			c0,0-0.1,0-0.2,0h-0.2c-0.2,0-0.4,0-0.5-0.1c-0.1-0.1-0.1-0.2-0.1-0.4c0-0.1,0-0.2,0.1-0.4c0-0.2,0.1-0.4,0.2-0.6l0.9-2.2
			c0,0,0-0.1,0.1-0.1c0,0,0.1,0,0.1,0H303.7L303.7,71.8z M300.4,71C300.4,71,300.4,71,300.4,71c-0.1-0.1-0.1-0.1-0.1-0.1l1.5-4
			c0,0,0-0.1,0-0.1c0,0,0,0,0.1,0c0,0,0,0,0.1,0c0,0,0,0.1,0,0.1l1.5,4c0,0,0,0,0,0.1c0,0,0,0-0.1,0H300.4L300.4,71z M310.8,74.5
			c0,0.2-0.1,0.3-0.1,0.5c0,0.2-0.1,0.3-0.2,0.4c-0.1,0.1-0.2,0.2-0.3,0.2c-0.1,0-0.2,0-0.3,0c-0.1,0-0.1,0-0.2,0
			c-0.1,0-0.1,0-0.2,0c0,0-0.1,0-0.1,0.1c0,0.1,0,0.1,0.1,0.1c0,0,0.1,0,0.2,0c0.1,0,0.2,0,0.4,0c0.1,0,0.3,0,0.4,0
			c0.1,0,0.3,0,0.4,0c0.1,0,0.2,0,0.3,0c0.1,0,0.2,0,0.4,0c0.2,0,0.3,0,0.5,0c0.2,0,0.4,0,0.6,0c0.1,0,0.2,0,0.3,0
			c0.1,0,0.1-0.1,0.1-0.1c0,0,0-0.1-0.1-0.1c0,0-0.1,0-0.1,0c-0.1,0-0.2,0-0.3,0c-0.1,0-0.2,0-0.3-0.1c-0.1,0-0.2-0.1-0.3-0.1
			c-0.1-0.1-0.1-0.2-0.1-0.3c0-0.1,0-0.2,0-0.3c0-0.1,0-0.2,0-0.3l0.7-5.4h0.1c0.1,0.2,0.2,0.4,0.3,0.7c0.1,0.2,0.2,0.5,0.4,0.7
			c0.1,0.2,0.2,0.5,0.4,0.7c0.1,0.2,0.2,0.4,0.3,0.6c0.1,0.2,0.1,0.3,0.2,0.3c0,0.1,0.1,0.2,0.2,0.3c0.1,0.1,0.2,0.3,0.3,0.5
			c0.1,0.2,0.2,0.4,0.3,0.6c0.1,0.2,0.2,0.4,0.3,0.7c0.1,0.2,0.2,0.4,0.3,0.6c0.1,0.2,0.2,0.3,0.2,0.4c0.1,0.2,0.2,0.4,0.3,0.5
			c0.1,0.1,0.1,0.2,0.2,0.2c0,0,0.1,0,0.1-0.1c0,0,0.1-0.1,0.2-0.2c0.1-0.1,0.1-0.3,0.3-0.5l3.1-6.2h0.1l0.9,6.1c0,0.2,0,0.3,0,0.4
			c0,0.1,0,0.2-0.1,0.2c-0.1,0-0.1,0-0.1,0.1c0,0,0,0.1,0,0.1c0,0,0,0.1,0.1,0.1c0.1,0,0.2,0,0.3,0.1c0.1,0,0.2,0,0.4,0
			c0.2,0,0.3,0,0.5,0c0.2,0,0.4,0,0.6,0c0.2,0,0.4,0,0.6,0c0.2,0,0.3,0,0.5,0c0.1,0,0.2,0,0.3,0c0.1,0,0.2,0,0.3,0
			c0.1,0,0.1-0.1,0.1-0.1c0,0,0-0.1-0.1-0.1c0,0-0.1,0-0.2,0c-0.1,0-0.2,0-0.4,0c-0.1,0-0.3-0.1-0.5-0.1c-0.1,0-0.3-0.1-0.3-0.2
			c-0.1-0.1-0.2-0.3-0.2-0.5c-0.1-0.2-0.1-0.4-0.1-0.7l-1.3-8.5c0-0.1-0.1-0.3-0.1-0.3c0-0.1-0.1-0.1-0.2-0.1c-0.1,0-0.1,0-0.2,0.1
			s-0.1,0.1-0.2,0.3l-3.9,7.9l-3.9-7.8c-0.1-0.1-0.1-0.2-0.2-0.3c0-0.1-0.1-0.1-0.1-0.1c0,0-0.1,0-0.1,0c-0.1,0-0.1,0-0.1,0.1
			c0,0.1-0.1,0.2-0.1,0.3L310.8,74.5L310.8,74.5z M327.1,71.9c0,0.5,0,0.9,0,1.3c0,0.4,0,0.7,0,1c0,0.3,0,0.6-0.1,0.8
			c0,0.2-0.1,0.4-0.1,0.5c-0.1,0.1-0.2,0.2-0.3,0.2c-0.1,0-0.1,0-0.2,0c-0.1,0-0.2,0-0.3,0c-0.1,0-0.1,0-0.2,0c0,0-0.1,0-0.1,0.1
			c0,0,0,0.1,0.1,0.1c0,0,0.1,0,0.2,0c0.1,0,0.3,0,0.5,0c0.2,0,0.3,0,0.5,0c0.2,0,0.3,0,0.5,0c0.1,0,0.3,0,0.3,0c0.1,0,0.3,0,0.5,0
			c0.2,0,0.5,0,0.8,0c0.3,0,0.6,0,0.9,0c0.1,0,0.1,0,0.2,0c0.1,0,0.1-0.1,0.1-0.1c0,0,0-0.1-0.1-0.1c0,0-0.1,0-0.2,0
			c-0.1,0-0.2,0-0.2,0c-0.1,0-0.2,0-0.3,0c-0.1,0-0.2,0-0.2,0c-0.1,0-0.3-0.1-0.3-0.1c-0.1-0.1-0.1-0.1-0.2-0.2
			c0-0.1-0.1-0.2-0.1-0.3c0-0.2,0-0.5,0-0.8c0-0.3,0-0.7,0-1c0-0.4,0-0.8,0-1.3v-2.5c0-0.4,0-0.8,0-1.1c0-0.3,0-0.5,0-0.8
			c0-0.2,0-0.4,0-0.5c0-0.1,0-0.3,0-0.3c0-0.1,0-0.2,0-0.3c0-0.2,0.1-0.4,0.1-0.6c0.1-0.1,0.2-0.2,0.4-0.2c0.1,0,0.2,0,0.2,0
			c0.1,0,0.1,0,0.2,0c0.1,0,0.1,0,0.2,0c0,0,0.1-0.1,0.1-0.1c0,0,0-0.1-0.1-0.1c-0.1,0-0.1,0-0.2,0c-0.1,0-0.3,0-0.4,0
			c-0.2,0-0.3,0-0.5,0c-0.2,0-0.3,0-0.5,0c-0.1,0-0.3,0-0.3,0c-0.1,0-0.2,0-0.4,0c-0.2,0-0.3,0-0.5,0c-0.2,0-0.3,0-0.5,0
			c-0.2,0-0.3,0-0.5,0c-0.1,0-0.2,0-0.3,0c-0.1,0-0.1,0-0.1,0.1c0,0.1,0,0.1,0.1,0.1c0,0,0.1,0,0.2,0c0.1,0,0.2,0,0.3,0
			c0.1,0,0.2,0,0.3,0c0.2,0,0.3,0.1,0.3,0.2c0.1,0.1,0.1,0.3,0.1,0.5c0,0.1,0,0.2,0,0.3c0,0.1,0,0.2,0,0.3c0,0.1,0,0.3,0,0.5
			c0,0.2,0,0.5,0,0.8c0,0.3,0,0.7,0,1.1V71.9L327.1,71.9z M342.9,73.4c0-0.4,0-0.7,0-1c0-0.3,0-0.5,0-0.7c0-0.2,0-0.4,0.1-0.6
			c0.1-0.1,0.2-0.2,0.4-0.2c0.1,0,0.2,0,0.2,0c0.1,0,0.1,0,0.2,0c0.1,0,0.1,0,0.1,0c0,0,0.1,0,0.1-0.1c0-0.1,0-0.1-0.1-0.1
			c0,0-0.1,0-0.2,0c-0.2,0-0.3,0-0.5,0c-0.2,0-0.4,0-0.6,0c-0.2,0-0.4,0-0.5,0c-0.1,0-0.3,0-0.6,0c-0.2,0-0.5,0-0.7,0
			c-0.3,0-0.5,0-0.8,0c-0.1,0-0.2,0-0.2,0c-0.1,0-0.1,0.1-0.1,0.1c0,0,0,0.1,0.1,0.1c0,0,0.1,0,0.2,0c0.1,0,0.2,0,0.3,0
			c0.1,0,0.2,0,0.2,0c0.2,0,0.3,0.1,0.4,0.1c0.1,0.1,0.1,0.2,0.2,0.3c0,0.1,0.1,0.2,0.1,0.4c0,0.2,0,0.5,0,0.7c0,0.3,0,0.6,0,0.9
			v1.3c0,0.1,0,0.2-0.1,0.3c0,0.1-0.1,0.2-0.2,0.2c-0.1,0.1-0.2,0.1-0.4,0.1c-0.1,0-0.3,0-0.4,0c-0.1,0-0.3,0-0.4,0
			c-0.6,0-1.2-0.1-1.7-0.3c-0.5-0.2-1-0.4-1.4-0.7c-0.4-0.3-0.8-0.7-1-1.1c-0.3-0.4-0.5-0.9-0.7-1.5c-0.2-0.5-0.2-1.1-0.2-1.7
			c0-0.6,0.1-1.1,0.2-1.5c0.1-0.4,0.3-0.8,0.5-1.1c0.2-0.3,0.4-0.6,0.7-0.8c0.3-0.2,0.5-0.4,0.8-0.5c0.3-0.1,0.5-0.2,0.7-0.3
			c0.2-0.1,0.5-0.1,0.7-0.1c0.2,0,0.4,0,0.6,0c0.4,0,0.8,0,1.1,0.1c0.3,0.1,0.6,0.2,0.9,0.3c0.3,0.1,0.5,0.2,0.7,0.4
			c0.2,0.1,0.3,0.2,0.5,0.4c0.1,0.1,0.2,0.3,0.3,0.4c0.1,0.1,0.1,0.3,0.1,0.4c0,0.1,0.1,0.3,0.1,0.4c0,0.1,0,0.1,0,0.1
			c0,0,0.1,0.1,0.1,0.1c0.1,0,0.1,0,0.1-0.1c0,0,0-0.1,0-0.2c0-0.4,0-0.8,0-1.1c0-0.3,0-0.5,0-0.7c0-0.2,0-0.3,0-0.4
			c0-0.1,0-0.1,0-0.2c0-0.1,0-0.1,0-0.1c0,0-0.1,0-0.2-0.1c-0.1,0-0.2,0-0.4,0c-0.1,0-0.3,0-0.4-0.1c-0.1,0-0.3,0-0.4-0.1
			c-0.1,0-0.2,0-0.4-0.1c-0.2,0-0.4-0.1-0.6-0.1c-0.2,0-0.5,0-0.8-0.1c-0.3,0-0.5,0-0.8,0c-0.4,0-0.8,0-1.2,0.1
			c-0.4,0-0.8,0.1-1.3,0.3c-0.4,0.1-0.9,0.3-1.3,0.6c-0.3,0.2-0.6,0.4-0.9,0.7c-0.3,0.3-0.6,0.6-0.8,1c-0.2,0.4-0.4,0.8-0.5,1.3
			c-0.1,0.5-0.2,1-0.2,1.6c0,0.8,0.1,1.5,0.3,2.1c0.2,0.6,0.6,1.1,1,1.6c0.4,0.4,0.9,0.8,1.4,1.1c0.6,0.3,1.2,0.5,1.8,0.6
			c0.6,0.1,1.3,0.2,2,0.2c0.3,0,0.6,0,0.9,0c0.3,0,0.6-0.1,0.9-0.1c0.3,0,0.6-0.1,0.9-0.2c0.3-0.1,0.5-0.2,0.8-0.3
			c0.1,0,0.1-0.1,0.1-0.1c0,0,0-0.1,0.1-0.1c0-0.1,0-0.2,0-0.3V73.4L342.9,73.4z M351.6,72.3C351.7,72.3,351.7,72.3,351.6,72.3
			c0.1,0,0.1,0.1,0.1,0.1l1.1,2.9c0,0.1,0,0.2,0,0.2c0,0.1-0.1,0.1-0.1,0.1c-0.1,0-0.1,0-0.2,0c0,0,0,0,0,0.1c0,0,0,0.1,0.1,0.1
			c0.1,0,0.2,0,0.3,0c0.4,0,0.7,0,1.1,0c0.3,0,0.7,0,0.9,0c0.3,0,0.5,0,0.7,0c0.2,0,0.3,0,0.4,0c0.1,0,0.2,0,0.2,0
			c0,0,0.1-0.1,0.1-0.1c0,0,0-0.1,0-0.1c0,0-0.1,0-0.1,0c-0.1,0-0.2,0-0.3,0c-0.1,0-0.2,0-0.3,0c-0.1,0-0.2,0-0.2-0.1
			c-0.1,0-0.2-0.1-0.3-0.2c-0.1-0.1-0.2-0.3-0.3-0.5c-0.1-0.2-0.2-0.5-0.4-0.8c-0.1-0.3-0.2-0.6-0.4-1c-0.2-0.4-0.3-0.8-0.5-1.2
			c-0.2-0.4-0.4-0.9-0.5-1.3c-0.2-0.5-0.4-0.9-0.6-1.4c-0.2-0.5-0.4-0.9-0.5-1.3c-0.2-0.4-0.3-0.8-0.5-1.1c-0.1-0.3-0.3-0.6-0.4-0.9
			c-0.1-0.2-0.2-0.4-0.2-0.5c-0.1-0.2-0.1-0.3-0.2-0.4c-0.1-0.1-0.1-0.1-0.2-0.1c-0.1,0-0.1,0-0.2,0.1c-0.1,0.1-0.1,0.2-0.2,0.4
			l-3.6,8.8c-0.1,0.2-0.2,0.4-0.3,0.6c-0.1,0.2-0.2,0.3-0.4,0.4c-0.1,0.1-0.3,0.2-0.5,0.2c-0.1,0-0.1,0-0.2,0c-0.1,0-0.2,0-0.2,0
			c-0.1,0-0.1,0-0.1,0c0,0,0,0,0,0.1c0,0.1,0,0.1,0.1,0.1c0,0,0.1,0,0.2,0c0.2,0,0.4,0,0.6,0c0.2,0,0.4,0,0.5,0c0.2,0,0.3,0,0.4,0
			c0.1,0,0.2,0,0.2,0c0.2,0,0.3,0,0.5,0c0.2,0,0.4,0,0.5,0c0.2,0,0.3,0,0.5,0c0.1,0,0.1,0,0.2,0c0,0,0.1-0.1,0.1-0.1
			c0,0,0-0.1,0-0.1c0,0-0.1,0-0.2,0h-0.2c-0.2,0-0.4,0-0.5-0.1c-0.1-0.1-0.1-0.2-0.1-0.3c0-0.1,0-0.2,0.1-0.4c0-0.2,0.1-0.3,0.2-0.5
			l0.8-2c0,0,0-0.1,0-0.1c0,0,0,0,0.1,0H351.6L351.6,72.3z M348.7,71.6C348.7,71.6,348.7,71.6,348.7,71.6
			C348.7,71.5,348.7,71.5,348.7,71.6L350,68c0,0,0-0.1,0-0.1c0,0,0,0,0.1,0c0,0,0,0,0,0c0,0,0,0.1,0,0.1l1.3,3.5c0,0,0,0,0,0.1
			c0,0,0,0-0.1,0H348.7L348.7,71.6z"/>
	</g>
</g>
</svg>
