<?xml version="1.0" encoding="utf-8"?>
<!-- Generator: Adobe Illustrator 25.4.1, SVG Export Plug-In . SVG Version: 6.00 Build 0)  -->
<svg version="1.1" id="Layer_1" xmlns="http://www.w3.org/2000/svg" xmlns:xlink="http://www.w3.org/1999/xlink" x="0px" y="0px"
	 viewBox="0 0 175.8 80" style="enable-background:new 0 0 175.8 80;" xml:space="preserve">
<style type="text/css">
	.f5d0081a{fill:#239AD6;}
	.n76bc440{fill:#4D266F;}
	.z507b880{fill:url(#SVGID_1_);}
	.t20fb4b9{fill:#0097CE;}
	.sf5b10db{fill:url(#SVGID_00000050649855314110711140000000242139161188177855_);}
</style>
<g>
	<circle class="f5d0081a" cx="37.9" cy="43.5" r="2.5"/>
	<rect x="36.4" y="51.3" class="f5d0081a" width="3" height="24.2"/>
	<path class="f5d0081a" d="M55.4,50.9c-1.1-0.8-3.6-0.1-5,1.2c-0.9,0.8-1.8,2-2.3,2.8v-3.6h-3v24.2h3V60.7c0.5-1.4,0.8-3.8,2.8-5.9
		c2-2.1,3.8-0.9,4.4-1.1C56,53.5,56.5,51.7,55.4,50.9z"/>
	<path class="f5d0081a" d="M17.2,42.6h-1L0,75.6h4.6l5.3-11.2h13.7l5.1,11.2h3.7L17.2,42.6z M11,61.4l5.6-12.1l5.6,12.1H11z"/>
	<path class="n76bc440" d="M155,42.6h-13.6h-0.6H140c-0.5,0-0.9,0.4-0.9,0.9v31.1c0,0.5,0.4,0.9,0.9,0.9h1.4c0.5,0,0.9-0.4,0.9-0.9V59.5
		H155c0.5,0,0.9-0.4,0.9-0.9v-1.4c0-0.5-0.4-0.9-0.9-0.9h-12.7V45.8H155c0.5,0,0.9-0.4,0.9-0.9v-1.4C155.9,43,155.5,42.6,155,42.6z"
		/>
	<path class="n76bc440" d="M174.9,42.6h-6.7h-1.4h-7.7c-0.5,0-0.9,0.4-0.9,0.9v1.4c0,0.5,0.4,0.9,0.9,0.9h6.8v28.8c0,0.5,0.4,0.9,0.9,0.9
		h1.4c0.5,0,0.9-0.4,0.9-0.9V45.8h5.8c0.5,0,0.9-0.4,0.9-0.9v-1.4C175.8,43,175.4,42.6,174.9,42.6z"/>
	<path class="n76bc440" d="M71.1,58.3c-3.4-2.4-8-3.7-8.9-7.7c-0.9-4.1,2.5-5.9,4.7-5.9s4.6,1.1,6.3,4.2v-4.6c0,0-1.8-2.5-6.4-2.5
		c-4.6,0-7.8,4.1-7.8,8.2c0,0-0.7,4.4,4.4,7.7c5,3.4,9.4,5.2,9.4,10.4s-4.9,5.6-5.6,5.6c-0.7,0-4.4-0.1-7.4-5v4.8
		c0,0,2.8,3.1,7.5,3.1c4.7,0,8.9-3.5,8.9-8.3C76.2,63.3,74.5,60.7,71.1,58.3z"/>
	<path class="n76bc440" d="M113,43.1l-6.7,23l-9.2-23.4h-0.7l-9.5,23.4l-6.8-22.9c-2.2-1.1-3.7,0-3.7,0l9.6,32.5h0.8
		c0,0,8.9-23.5,9.2-24.2c0.3-0.7,0.8,0,0.8,0l9.4,24.2h0.7l9.1-32.5C114.7,42.2,113,43.1,113,43.1z"/>
	<linearGradient id="SVGID_1_" gradientUnits="userSpaceOnUse" x1="125.0843" y1="79.7253" x2="125.0843" y2="42.0921">
		<stop  offset="0" style="stop-color:#006799"/>
		<stop  offset="0.9997" style="stop-color:#27365A"/>
	</linearGradient>
	<path class="z507b880" d="M134.3,55.5c0,0-1.5,4.4-2.3,12.6c-0.8,8.2-2.8,11.9-2.8,11.9s-3.8-5.8-5.2-10.2c-1.5-4.4,1.4-9.4,1.4-17.7
		c0-8.4-9.4-10.7-9.6-10.7c2,0.2,4,0.7,6.1,1.6C127.8,45.5,133.8,53.1,134.3,55.5C134.3,55.5,134.3,55.5,134.3,55.5z"/>
	<path class="t20fb4b9" d="M136.3,38.5c-0.6-1.7-5.3-1.7-5.3-1.7c5.3-4.1,3.3-12.3,3.3-12.3s0,0,0,0c-0.6,2.4-6.5,10-12.4,12.5
		c-2.1,0.9-4.2,1.4-6.1,1.6c-3.5,0.3-6.7-0.4-10.1-1.3c-5.3-1.5-5.6-0.7-5.6-0.7c0.8,1.8,3.9,2.1,4.9,2.4c1,0.3,1.2,0.9,1.2,0.9
		s-0.1,0.7-1.2,0.9c-1,0.3-4.1,0.6-4.9,2.4c0,0,0.4,0.8,5.6-0.7c3.4-0.9,6.6-1.6,10.1-1.3c2,0.2,4,0.7,6.1,1.6
		c5.9,2.6,11.8,10.2,12.4,12.5c0,0,0,0,0,0s2-8.2-3.3-12.3c0,0,4.7,0,5.3-1.7c0,0,2.9-0.1,2.9-1.5S136.3,38.5,136.3,38.5z"/>
	
		<linearGradient id="SVGID_00000030471724466495436910000011230299027276100992_" gradientUnits="userSpaceOnUse" x1="125.0843" y1="-6.1146" x2="125.0843" y2="36.9885">
		<stop  offset="0" style="stop-color:#006799"/>
		<stop  offset="0.9997" style="stop-color:#27365A"/>
	</linearGradient>
	<path style="fill:url(#SVGID_00000030471724466495436910000011230299027276100992_);" d="M134.3,24.5c0,0-1.5-4.4-2.3-12.6
		C131.3,3.7,129.3,0,129.3,0s-3.8,5.8-5.2,10.2c-1.5,4.4,1.4,9.4,1.4,17.7c0,8.4-9.4,10.7-9.6,10.7c2-0.2,4-0.7,6.1-1.6
		C127.8,34.5,133.8,26.9,134.3,24.5C134.3,24.5,134.3,24.5,134.3,24.5z"/>
</g>
</svg>
