<svg width="526" height="80" viewBox="0 0 526 80" fill="none" xmlns="http://www.w3.org/2000/svg">
<path d="M139.472 63.5294C137.355 64 134.766 64.2353 132.178 64.2353C124.649 64.2353 123.002 61.647 123.002 56.7058V28.2353H108.884V58.3529C108.884 71.7647 116.413 77.8823 131.472 77.8823C138.766 77.8823 145.59 76.4706 153.825 74.5882V28.2353H139.472V63.5294ZM185.355 64.9411C180.178 64.9411 179.472 62.5882 179.472 58.5882V40.2353H191.237V28.2353H179.472V14.1176H165.355V28.2353H158.296V40H165.355V59.2941C165.355 67.7647 167.002 77.647 181.119 77.647C185.355 77.647 188.884 76.7058 192.884 75.5294L191.472 63.7647C189.355 64.4706 187.472 64.9411 185.355 64.9411ZM36.884 38.3529C34.2957 37.4117 31.2369 36.4705 28.1781 35.5294C19.9428 33.1764 17.3545 32 17.3545 28.2353C17.3545 24 20.4134 21.8823 27.9428 21.8823C34.0604 21.8823 39.4722 23.5294 44.884 25.4117L47.9428 11.7647C41.5898 9.41172 35.7075 7.29408 28.4134 7.29408C11.4722 7.29408 2.06043 16.9411 2.06043 28.4705C2.06043 37.1764 5.82514 42.8235 14.2957 46.3529C16.6487 47.2941 19.7075 48.2353 22.7663 49.1764C31.9428 52 34.7663 53.4117 34.7663 56.9411C34.7663 61.1764 31.2369 63.5294 23.9428 63.5294C17.3545 63.5294 11.2369 61.647 4.88396 58.8235L1.58984 72.9411C8.64867 75.7647 15.4722 77.647 23.9428 77.647C41.3545 77.647 50.2957 68 50.2957 56.2353C50.2957 46.8235 44.884 41.4117 36.884 38.3529ZM222.296 25.8823C217.59 25.8823 213.119 27.0588 210.06 28V4.70584H195.943V77.647H210.06V41.1764C212.649 40.2353 215.472 39.2941 219.002 39.2941C224.413 39.2941 226.531 41.4117 226.531 46.5882V77.647H240.649V44.9411C240.649 32 234.766 25.8823 222.296 25.8823ZM79.2369 25.647C64.884 25.647 53.3545 35.7647 53.3545 51.5294C53.3545 67.2941 64.884 77.8823 79.2369 77.8823C93.5898 77.8823 105.119 67.5294 105.119 51.5294C105.119 35.5294 93.5898 25.647 79.2369 25.647ZM79.2369 63.7647C73.1193 63.7647 68.1781 59.2941 68.1781 51.2941C68.1781 43.2941 72.884 39.0588 79.2369 39.0588C85.5898 39.0588 90.2957 43.2941 90.2957 51.2941C90.2957 59.5294 85.3545 63.7647 79.2369 63.7647ZM396.178 47.5294C394.06 46.8235 391.943 46.1176 389.355 45.4117C384.413 44 382.531 43.2941 382.531 41.1764C382.531 39.0588 384.413 37.647 388.884 37.647C393.59 37.647 397.825 38.5882 402.531 40L404.884 27.7647C399.707 26.5882 394.766 25.647 389.119 25.647C375.707 25.647 368.413 32.4705 368.413 41.8823C368.413 48.4705 371.707 52.7058 378.296 55.5294C380.178 56.2353 382.296 57.1764 384.884 57.8823C390.06 59.2941 392.649 60 392.649 62.3529C392.649 64.7058 389.59 65.647 385.355 65.647C380.178 65.647 375.472 64.7058 370.531 62.8235L368.413 75.0588C374.531 76.7058 380.178 77.8823 386.531 77.8823C400.649 77.8823 407.002 70.5882 407.002 61.4117C406.766 55.0588 404.178 50.3529 396.178 47.5294ZM343.237 25.647C328.413 25.647 317.825 36 317.825 52.4705C317.825 67.7647 327.002 77.8823 343.472 77.8823C350.766 77.8823 356.649 75.7647 362.766 73.1764L360.649 61.4117C355.943 63.5294 351.237 65.1764 345.59 65.1764C337.119 65.1764 333.59 61.647 333.119 56.4706H364.884C364.884 56.4706 365.355 50.8235 365.355 49.647C365.355 36.2353 358.06 25.647 343.237 25.647ZM333.355 47.0588C334.296 42.8235 336.413 37.4117 342.531 37.4117C348.649 37.4117 350.531 43.5294 350.531 47.0588H333.355ZM434.766 64.9411C429.59 64.9411 428.884 62.5882 428.884 58.5882V40.2353H440.649V28.2353H428.884V14.1176H414.766V28.2353H407.472V40.2353H414.766V59.5294C414.766 68 416.884 77.8823 431.002 77.8823C435.237 77.8823 438.766 76.9411 442.766 75.7647L441.119 64C438.766 64.4706 436.884 64.9411 434.766 64.9411ZM444.178 7.52937C440.649 7.52937 438.06 10.3529 437.825 13.8823C437.59 17.4117 440.649 20.2353 443.943 20.2353C447.472 20.2353 450.296 17.4117 450.296 13.8823C450.296 10.3529 447.707 7.52937 444.178 7.52937ZM444.178 19.0588C441.355 19.0588 439.237 16.9411 439.237 13.8823C439.237 10.8235 441.355 8.70584 444.413 8.70584C447.237 8.70584 449.59 10.8235 449.355 13.8823C449.119 16.9411 447.002 19.0588 444.178 19.0588ZM444.884 14.1176C446.06 13.8823 446.766 13.4117 446.766 12.2353C446.766 11.0588 445.825 10.1176 444.413 10.1176H442.06V17.4117H443.472V14.3529C443.943 14.3529 444.178 14.5882 444.413 15.0588L446.06 17.4117H447.707L446.296 15.0588C445.355 14.5882 445.119 14.3529 444.884 14.1176ZM443.943 13.4117H443.237V11.2941H444.178C445.119 11.2941 445.355 11.7647 445.355 12.2353C445.355 13.1764 444.649 13.4117 443.943 13.4117ZM304.649 28.2353L295.707 55.2941L286.766 28.2353H274.531L265.355 55.2941L256.413 28.2353H241.119L258.766 77.647H271.707L280.649 50.8235L289.59 77.647H302.531L320.178 28.2353H304.649Z" fill="#344DA7"/>
<path d="M487.708 25.412C483.002 25.412 479.002 27.0591 475.943 28.7062C472.885 27.0591 469.12 25.412 464.179 25.412C454.532 25.412 448.414 31.5297 448.414 42.3532C448.414 55.2944 460.885 68.0003 475.943 78.3532C491.002 68.2356 503.473 55.5297 503.473 42.3532C503.473 31.5297 497.12 25.412 487.708 25.412Z" fill="#CCCCCC"/>
<path d="M449.828 42.5881C449.828 55.7646 463.946 68.2351 475.711 76.4704C479.24 74.1175 482.769 71.294 486.063 68.4704C470.299 55.294 455.24 43.294 450.063 39.0587C450.063 39.9999 449.828 41.1763 449.828 42.5881Z" fill="url(#paint0_linear_706_1533)"/>
<path d="M500.884 48.706C489.355 39.2943 482.531 34.3531 475.002 29.8825C472.884 28.706 468.884 26.8237 464.414 26.8237C460.178 26.8237 456.414 28.2354 453.825 30.8237C452.178 32.4707 451.002 34.5884 450.531 37.1766C456.414 41.4119 472.649 52.9413 488.884 65.8825C494.296 60.706 498.767 54.8237 500.884 48.706Z" fill="url(#paint1_linear_706_1533)"/>
<path d="M497.823 30.8237C495.235 28.2354 491.705 26.8237 487.47 26.8237C483 26.8237 479.705 28.2354 477.117 29.6472C481.588 32.2354 491.235 37.6472 501.352 45.1766C501.588 44.2354 501.588 43.059 501.588 42.1178C501.823 37.4119 500.411 33.4119 497.823 30.8237Z" fill="url(#paint2_linear_706_1533)"/>
<defs>
<linearGradient id="paint0_linear_706_1533" x1="449.932" y1="57.601" x2="486.301" y2="57.601" gradientUnits="userSpaceOnUse">
<stop stop-color="#3656CC"/>
<stop offset="0.35" stop-color="#304CB2"/>
<stop offset="0.72" stop-color="#283B80"/>
</linearGradient>
<linearGradient id="paint1_linear_706_1533" x1="455.095" y1="28.871" x2="496.181" y2="57.6399" gradientUnits="userSpaceOnUse">
<stop offset="0.3" stop-color="#E61C23"/>
<stop offset="0.8" stop-color="#C3161C"/>
</linearGradient>
<linearGradient id="paint2_linear_706_1533" x1="480.563" y1="25.1519" x2="504.054" y2="41.6006" gradientUnits="userSpaceOnUse">
<stop stop-color="#FDBC11"/>
<stop offset="0.25" stop-color="#FCB415"/>
<stop offset="0.8" stop-color="#F89E1C"/>
</linearGradient>
</defs>
</svg>
