<?xml version="1.0" encoding="utf-8"?>
<!-- Generator: Adobe Illustrator 25.4.1, SVG Export Plug-In . SVG Version: 6.00 Build 0)  -->
<svg version="1.1" id="Layer_1" xmlns="http://www.w3.org/2000/svg" xmlns:xlink="http://www.w3.org/1999/xlink" x="0px" y="0px"
	 viewBox="0 0 318.3 80" style="enable-background:new 0 0 318.3 80;" xml:space="preserve">
<style type="text/css">
	.f2d3f61e{fill:#1491D1;}
	.a0d40c0a{fill:url(#SVGID_1_);}
	.i3370326{fill:url(#SVGID_00000056422598672201110380000004972133439253033091_);}
	.eb8bcf53{fill:#1F93D2;}
	.xa0764a6{fill:#FDFDFF;}
	.f3c22c9b{fill:url(#SVGID_00000016757039563442451830000015833119416374238341_);}
	.d985ee61{fill:#9E733F;}
	.u808f68a{fill:#007739;}
	.oc57eb29{fill:#FBC24B;}
	.p36cf6f5{fill:#0885C7;}
	.a0d40c0a0{fill:#FFFFFF;}
</style>
<g>
	<path class="f2d3f61e" d="M80.8,57.8c-1.5-0.4-4,0.2-5.4,0.3c-1.4,0.1-0.8-0.4-2-0.9c-1.1-0.5-1.2,0.3-2.1,0.7c-0.9,0.4-0.9,0.1-1.6-0.8
		c-0.7-0.9-0.6,0-1.8,0.5c-1.2,0.5-1.8-1.5-2.6-2.1c-0.9-0.6-0.6,1-1.6,1.4c-1,0.4-1.3,1-1.9,1.8c-0.6,0.8-0.4,0.2-1.2-0.5
		c-0.8-0.7-0.7-0.2-1.3,0.9c-0.6,1-0.5,0.7-1.2,0.7c-0.7,0-0.7-0.6-1-0.9c-0.3-0.4-1.4,0.5-2.1-0.2c-0.7-0.7-1-0.4-2.1-0.5
		c-1.1-0.1-0.5-1-1.4-0.7c-0.9,0.3-1.3,0.9-2.3,1c-0.9,0.1-0.2-0.7-1.4-0.8c-1.2-0.1-1,0.6-2.2,1c-1.2,0.4-2.8-0.4-3.8,0.2
		c-1,0.6-1.8,0.9-2.8,0.5c-1-0.4-1.5,0.4-2.7,1.3c-1.2,0.9-2.1,0.6-3.1-0.6c-1-1.2-0.3,0.1-1.6,1c-1.3,0.8-2.5,0.1-3.7,0
		c-1.2-0.1-1-0.2-2-1.6c-1-1.4-2.4-1-2.8-2.1c-0.3-1.1-1.3-1.9-1.9-2.2c-0.6-0.3-0.5,0.5-0.2,1.3c0.3,0.8,0.5,1-0.5,0.8
		c-0.9-0.2-0.6,0.2-1.8,0c-1.2-0.2-0.5-1.1-1.4-1.4c-0.9-0.3-0.4,0.3-0.2,1c0.1,0.7,0.3,1.2-1.1,1.5c-1.4,0.2-1-0.6-2.5-1
		c-1.5-0.5,0.6,1.3,0.5,2.3c-0.1,1-0.2,0.1-1.4-1.1c-0.1-0.1-0.1-0.2-0.2-0.2L9.5,45.1h59.7L80.8,57.8z"/>
	<linearGradient id="SVGID_1_" gradientUnits="userSpaceOnUse" x1="-9.7535" y1="4.4203" x2="68.078" y2="53.4138">
		<stop  offset="0" style="stop-color:#0885C7"/>
		<stop  offset="0.9995" style="stop-color:#73C4EA"/>
	</linearGradient>
	<polygon class="a0d40c0a" points="69.2,45.1 9.5,45.1 6.3,29.6 5.8,27.3 0,0 28.5,0 43.7,16.8 47.2,20.7 	"/>
	
		<linearGradient id="SVGID_00000036232772872752269340000003440497613518542464_" gradientUnits="userSpaceOnUse" x1="12.2651" y1="67.4594" x2="318.2842" y2="67.4594">
		<stop  offset="0" style="stop-color:#FFFDFB"/>
		<stop  offset="0.9995" style="stop-color:#FCCD78"/>
	</linearGradient>
	<path style="fill:url(#SVGID_00000036232772872752269340000003440497613518542464_);" d="M318.3,80H16.9l-3.9-18.3L12.3,58
		c0.1,0.1,0.1,0.1,0.2,0.2c1.1,1.3,1.3,2.1,1.4,1.1c0.1-1-2-2.8-0.5-2.3c1.5,0.5,1.1,1.3,2.5,1c1.4-0.2,1.2-0.8,1.1-1.5
		c-0.1-0.7-0.7-1.3,0.2-1c0.9,0.3,0.2,1.3,1.4,1.4c1.2,0.2,0.8-0.2,1.8,0c0.9,0.2,0.7,0,0.5-0.8c-0.3-0.8-0.4-1.6,0.2-1.3
		c0.6,0.3,1.6,1.1,1.9,2.2c0.3,1.1,1.7,0.7,2.8,2.1c1,1.4,0.9,1.5,2,1.6c1.2,0.1,2.4,0.8,3.7,0c1.3-0.8,0.6-2.2,1.6-1
		c1,1.2,1.9,1.5,3.1,0.6c1.2-0.9,1.7-1.7,2.7-1.3c1,0.4,1.8,0.1,2.8-0.5c1-0.6,2.5,0.2,3.8-0.2c1.2-0.4,1-1.1,2.2-1
		c1.2,0.1,0.5,0.9,1.4,0.8c0.9-0.1,1.4-0.7,2.3-1c0.9-0.3,0.3,0.6,1.4,0.7c1.1,0.1,1.4-0.2,2.1,0.5c0.7,0.7,1.8-0.2,2.1,0.2
		c0.3,0.4,0.3,0.9,1,0.9c0.7,0,0.6,0.3,1.2-0.7c0.6-1,0.5-1.6,1.3-0.9c0.8,0.7,0.7,1.3,1.2,0.5c0.6-0.8,0.9-1.4,1.9-1.8
		c1-0.4,0.8-2,1.6-1.4c0.9,0.6,1.4,2.6,2.6,2.1c1.2-0.5,1-1.4,1.8-0.5c0.7,0.9,0.7,1.2,1.6,0.8c0.9-0.4,1-1.2,2.1-0.7
		c1.1,0.5,0.5,1,2,0.9c1.4-0.1,3.9-0.7,5.4-0.3L318.3,80z"/>
	<g>
		<path class="eb8bcf53" d="M98.5,19.8l-11.1,28h6.9l1.9-5.9h10.9l2,5.9h6l-10.4-28H98.5z M97.7,37.8l4-12.2l4.1,12.2H97.7z"/>
		<path class="eb8bcf53" d="M165.5,19.8l-9,28h5.6l1.6-5.9h8.8l1.6,5.9h4.9l-8.5-28H165.5z M164.9,37.8l3.3-12.2l3.3,12.2H164.9z"/>
		<path class="eb8bcf53" d="M137.5,32.8c1.7-0.6,3.7-2.1,3.7-6.1c0-7.1-8.2-6.8-8.2-6.8h-9.2c0,0,0,0,0,0c-0.1,0-0.3,0-0.8,0
			c-0.3,0-0.7,0-1.3,0c-2.6,0-2.7,2.7-2.7,2.7v25.3h4.8h9.7c0,0,7.6-0.6,8-7.1C141.8,35.3,138.8,33.4,137.5,32.8z M133,24.5
			c0.8,0,2.3,0.7,2.3,3.4s-2.3,3.4-2.3,3.4h-9.2v-6.8H133z M133,43.1c-0.5,0-7.4,0-9.2,0v-7.7h9.2c0,0,3.2,0.6,3.2,4
			C136.2,42.7,133.6,43.1,133,43.1z"/>
		<polygon class="eb8bcf53" points="191.4,40.8 188,25.9 182.9,25.9 189.2,47.9 194.6,47.9 200.5,25.9 195.4,25.9 		"/>
		<path class="eb8bcf53" d="M206.9,25.9c-1.8,0-3.2,0-3.2,0v21.9h4.6V27.9C208.2,27.9,208.6,25.9,206.9,25.9z"/>
		<path class="eb8bcf53" d="M206.8,19.1c-1.7,0-3.2,0-3.2,0v4.7h4.8v-3.2C208.5,20.6,208.6,19.1,206.8,19.1z"/>
		<path class="eb8bcf53" d="M242.9,25.9c-1.8,0-3.2,0-3.2,0v21.9h4.6V27.9C244.3,27.9,244.7,25.9,242.9,25.9z"/>
		<path class="eb8bcf53" d="M242.9,19.1c-1.7,0-3.2,0-3.2,0v4.7h4.8v-3.2C244.5,20.6,244.6,19.1,242.9,19.1z"/>
		<path class="eb8bcf53" d="M234.2,20.6c0,0,0.1-1.6-1.6-1.6s-3.2,0-3.2,0v6.9v19.9c0,1.1,0.9,2,2,2h0.8h1.8h3.3v-3.4h-1.6
			c0,0-1.5,0.2-1.5-2c0,0,0,0,0,0V30.1c2.5-0.4,3-2.6,3-2.6v-1.6h-3V20.6z"/>
		<path class="eb8bcf53" d="M219.3,25.4c-6.2,0-8.1,3.9-8.1,6.2h4.2c0,0,0.6-1.9,3.3-1.9s2.9,1.7,2.8,2.3s-0.3,1.7-4.2,2.7
			c-3.9,1.1-7.2,3.3-7.2,6.9c0,3.7,2.7,6.6,7.5,6.6s8.3-4.1,8.3-6.6c0-2.4,0-11,0-11S225.5,25.4,219.3,25.4z M221.8,41
			c0,0-0.1,3.4-3.7,3.4c-3.6,0-3.3-2.7-3.1-3.4c0.2-0.7,1.1-1.8,2.8-2.3c1.8-0.5,3-0.9,4-1.5V41z"/>
		<path class="eb8bcf53" d="M255.1,25.4c-4.9,0-8.8,5.1-8.8,11.4s3.9,11.4,8.8,11.4s8.8-5.1,8.8-11.4S260,25.4,255.1,25.4z M255.1,43.9
			c-2.3,0-4.2-3.1-4.2-6.9c0-3.8,1.9-6.9,4.2-6.9s4.2,3.1,4.2,6.9C259.3,40.9,257.4,43.9,255.1,43.9z"/>
		<path class="eb8bcf53" d="M274.6,25.4c-7.8,0-8.3,6.1-8.3,6.1v16.3h4.8V31.5c0,0,0.2-1.9,3.3-1.9s3.6,1.3,3.6,1.9V46
			c0,1,0.8,1.8,1.8,1.8h2.9V31.5C282.7,31.5,282.4,25.4,274.6,25.4z"/>
	</g>
	<path class="xa0764a6" d="M47.2,20.7c-1.2,0-2.7-0.1-4.4-0.3c-2.2-0.3-2.8,0-6.2,0.4c-3.4,0.4-4.6,0.5-6.7,0c-2.1-0.5-1.7-0.8-3.2-0.9
		c-1.5,0-3.2,1-6.1,0.9s-3.3-0.6-3.9-0.9c-0.6-0.4-0.1-1.4,1.3-1.4c1.4,0,2.3-0.4,2.3-0.4s1.4-1.5,2.7-1.6c1.3,0,2.2,0.1,3.8-0.5
		c1.6-0.5,2.2-1.9,3.3-2.3c1.1-0.4,3.6,0.4,4.8,0.2c1.2-0.2,3.6-0.7,5.5,1c1.4,1.3,2.8,1.7,3.4,1.8L47.2,20.7z"/>
	<path class="xa0764a6" d="M19.1,29.1c-0.4,0.2-2.4,0.4-4.2,0c-1.8-0.4-1.8,0.2-3.3,0.2c-1.5,0-1.9,0-3.7,0c-0.6,0-1.2,0.1-1.7,0.3
		l-0.5-2.3c0.6,0,1.3-0.1,2.1-0.3c2.2-0.6,3.9-0.4,5.4,0.1c1.5,0.6,2.4,1.4,4.2,1.4C19.3,28.6,19.6,28.9,19.1,29.1z"/>
	
		<linearGradient id="SVGID_00000021800817535179845070000000640409797977652867_" gradientUnits="userSpaceOnUse" x1="15.2333" y1="46.9407" x2="51.0389" y2="46.9407">
		<stop  offset="1.494645e-03" style="stop-color:#329A3D"/>
		<stop  offset="1" style="stop-color:#128039"/>
	</linearGradient>
	<path style="fill:url(#SVGID_00000021800817535179845070000000640409797977652867_);" d="M51,49.6c0,0.1-0.3,0.1-0.9,0.1
		c-1.5,0.1-4.3,0-5.4,0c-1.4,0-3.1,0-5.1,0.3c-2,0.4-7.4,0.4-8.7,0.2c-1.3-0.2-1.7-0.7-3.7-1.1c-2-0.4-1.9-0.8-3.8-1
		c-1.9-0.2-1.6-0.4-3.5-0.5c-1.9-0.1-4.2-0.4-4.7-0.5c-0.5-0.1,0.1-0.3,0.1-0.3s3-1.2,3.5-1.7c0.5-0.5,1.2-1.2,2.5-1.4
		c1.2-0.2,2.9,0,3.4,0.1c0.4,0,1.6-0.1,2.6,0c1,0.1,3.8,0.3,5,0.4c1.1,0,3.6-0.3,5.4-0.4c1.7-0.1,3.9,1.4,5.5,2.2
		c1.6,0.8,4.5,2.4,5.4,2.7C49.5,48.9,50.9,49.3,51,49.6z"/>
	<g>
		<path class="d985ee61" d="M22.3,46c-0.2,0-0.4-0.2-0.4-0.4v-5.3c0-0.6-0.1-1.3-0.4-1.8c-0.2-0.4-0.4-0.8-0.6-1c-0.1-0.1-0.1-0.4,0-0.5
			c0.1-0.1,0.4-0.1,0.5,0c0.3,0.3,0.6,0.7,0.8,1.2c0.3,0.7,0.4,1.4,0.4,2.1v5.3C22.7,45.8,22.5,46,22.3,46z"/>
	</g>
	<g>
		<path class="d985ee61" d="M26.7,45.5c-0.2,0-0.4-0.2-0.4-0.4c0-0.6,0-5.8,0.3-6.7c0.1-0.2,0.3-0.3,0.4-0.2c0.2,0.1,0.3,0.3,0.2,0.4
			c-0.2,0.6-0.3,4.3-0.3,6.5C27.1,45.3,26.9,45.5,26.7,45.5z"/>
	</g>
	<g>
		<path class="d985ee61" d="M39.4,45.7C39.4,45.7,39.4,45.7,39.4,45.7c-0.2,0-0.4-0.2-0.4-0.4c0,0,0-2.5,0.1-5.6c0.1-3-1.5-4.9-1.5-4.9
			c-0.1-0.2-0.1-0.4,0.1-0.5c0.2-0.1,0.4-0.1,0.5,0c0.1,0.1,1.7,2.2,1.7,5.4c-0.1,3.1-0.1,5.6-0.1,5.6
			C39.8,45.5,39.6,45.7,39.4,45.7z"/>
	</g>
	<g>
		<path class="d985ee61" d="M41.6,47C41.6,47,41.6,47,41.6,47c-0.2,0-0.4-0.2-0.4-0.4c0-0.9,0.3-8.8,1.3-10.1c0.1-0.2,0.3-0.2,0.5-0.1
			c0.2,0.1,0.2,0.3,0.1,0.5c-0.7,0.9-1.1,6.3-1.2,9.7C42,46.9,41.8,47,41.6,47z"/>
	</g>
	<path class="u808f68a" d="M16.6,32.7c0,0,0.6-0.1,0.4,0.4c-0.3,0.5-1.5,1.2-1.7,1.8c-0.2,0.6-0.6,1.6-0.2,1.1c0.4-0.5,0.8-1.1,0.9-0.8
		c0.1,0.4-0.3,1,0.2,1.3c0.5,0.4-0.2,1.2,0.2,1.2c0.3,0.1,0.6-0.8,0.5-1.1c0-0.3,0.4-0.2,0.3,0.5c-0.1,0.7,0.4,1.4,0.5,1.4
		s0.1-1.8,0.3-2c0.2-0.2,0.7-0.9,0.9-0.3s-0.1,1.1,0.3,1.6c0.4,0.5,0.5,0.7,0.7,0.7c0.2,0,0.1-1.1,0.1-1.6c0.1-0.4-0.3-1.1,0.2-0.8
		c0.5,0.3,0.3,0.8,0.6,1.3c0.2,0.5,0.7,0.7,0.7,0.1c0-0.6,0.2-1,0.8-0.7s0.6,0.2,0.8,0.2c0.2,0-0.1-0.9-0.6-1.1
		c-0.5-0.3-0.4-0.6,0.4-0.5c0.7,0.2,1.6,0.2,1.6,0c0-0.2-0.7-0.8-1.4-1c-0.7-0.1,0.2-0.3,0.5-0.2s1.6,0,1.7,0c0.1,0,0.3-0.5-0.6-0.8
		c-0.9-0.3-1.2-0.2-1.2-0.6c0.1-0.5-0.2-1-0.7-1.2s-0.8-0.7-0.9-1c-0.1-0.3-0.8-0.2-1.1,0.3c-0.3,0.5,0,0.6-0.6,0.4
		c-0.6-0.2-1.4-0.7-1.5-0.2c-0.1,0.4,0,0.9-0.1,0.9c-0.2,0.1-1.5-0.1-2.1,0.1C15.7,32.3,15.8,32.7,16.6,32.7z"/>
	<path class="u808f68a" d="M25,35.6c0,0,0.7-0.3,0.6,0.3c-0.1,0.6-0.9,0.5-1.1,1c-0.2,0.4-0.4,0.8,0.3,0.6c0.8-0.2,1.2,0.1,1,0.6
		s0,0.9,0.2,1.1c0.2,0.2,0.3-0.4,0.9-0.6s0.7-0.9,1.1-0.7c0.4,0.2,0.3,0.6,0.4,1s0.4,0.2,0.3-0.4s-0.4-1.2,0.1-1.1
		c0.5,0,0.9,0.1,1.1,0.4c0.2,0.3,0.8,0.4,0.7-0.3c-0.1-0.7-1-1.1-0.7-1.3c0.2-0.2,0.7-0.1,1-0.1s0.5-0.4,0.1-0.7
		c-0.4-0.3-0.9-0.6-0.4-0.7c0.6-0.1,1-0.4,0.2-0.4c-0.8-0.1-1.3,0.3-1.4,0.1c-0.1-0.2,0.1-0.6-0.1-0.9c-0.1-0.3-0.9-0.2-1.3,0.1
		c-0.4,0.3-0.9,0.9-0.9,0.9s-1.3-0.2-2.2,0.6S24.7,35.7,25,35.6z"/>
	<path class="u808f68a" d="M30.6,32.2c0,0-0.6,0.9,0.1,0.9c0.7,0,1.6-1.2,2-1.3c0.4,0,0.8,0.6,0.3,1.3c-0.6,0.6-0.9,1.4-0.6,1.6
		c0.3,0.2,1.7-0.8,1.5-0.1c-0.2,0.7-0.6,1.4,0,1.6c0.6,0.2,1.4-0.7,2.1-1.7s1-1.4,1.4-1.1s0.4,0.3,0.5,1.1c0,0.7-0.6,1.7,0.3,1.6
		c0.9,0,2.1-1.7,2.2-2.1c0.1-0.4,0.1-1.1-0.3-1.7s-1.6-1.7-2.4-1.6c-0.9,0-0.2-1,0.3-1.1c0.6-0.1,1.1-0.1,1.3-0.6s0.7-0.6,1-0.8
		c0.2-0.2-0.6-0.9-1.7-0.9c-1.1,0,0.1-1-0.3-1.5s-1.5,0.5-1.9,0.8s-0.8,1.2-1,0.9c-0.2-0.2-0.6-1-1-1.1c-0.4-0.1-0.8,0.8-0.7,1.5
		c0.1,0.7,0.2,0.7-1,0.6c-1.2-0.2-2.3,0.4-2,0.6s1.2,0.2,1.5,0.5S31.1,31.2,30.6,32.2z"/>
	<path class="oc57eb29" d="M34.5,30c0,0-0.4-0.1-0.3,0.3c0.1,0.4,0.7,1.4,1,1.5c0.2,0.2,0.6-0.1,0.9-0.4s0.7-0.7,0.2-0.9
		C35.8,30.4,34.8,30,34.5,30z"/>
	<path class="u808f68a" d="M39.9,34.5c0,0,0.1,0.4,0.5,0.2s1.2-0.7,1.3-0.2c0.1,0.5-0.2,1.1-0.7,1.5c-0.5,0.4-1.3,1.4-1.4,1.9
		c-0.1,0.5-0.2,1.1,0.6,0.7c0.8-0.4,1.8-1.2,2.4-1.4c0.6-0.2,1,1.2,1.6,1.9s0.9,1.1,1.2,0.8s-0.1-1.3-0.1-2.7s0.1-1.3,0.4-1
		s1.1,2.4,1.8,3c0.7,0.6,1.2,0.8,0.9,0s-0.7-1.1-0.2-1.2c0.4,0,0.4,0.8,1,0.9c0.6,0.1,0.7-0.9,0.3-1.6c-0.4-0.7-0.6-0.9,0.1-1.1
		c0.7-0.2,1.3,0.1,0.9-0.6s-0.7-1.2-1.1-1.9s-1.1-0.7-0.8-0.9c0.4-0.2,0.6,0,1,0.2c0.4,0.2,0.9,0.5,0.7-0.3
		c-0.2-0.8-1.2-1.6-2.2-1.9c-0.9-0.3-1.7,0.4-2,0.2s-0.3-0.3-0.1-0.9c0.2-0.6,0.2-1.8,0.1-2.1c-0.1-0.2-0.6,0-1.2,0.7
		s-0.9,0.9-1.4,0.4c-0.4-0.6-0.8-0.9-1.3-1c-0.5-0.1-0.8,0.7-0.8,0.8c0,0.1-0.7,0.2-1.4,0.6s-0.8,0.8-0.7,1c0.1,0.2,0.1,0.4,0.6,0.5
		c0.5,0.1,0.7,0,1.2,0.5C41.8,32.2,40,33.6,39.9,34.5z"/>
	<path class="u808f68a" d="M31.1,39.7c0,0,0.6-0.1,0.4,0.2s-1,0.7-1.1,1.1c-0.1,0.4-0.1,0.5,0.2,0.4c0.2-0.1,0.8-0.5,0.9-0.3
		c0.1,0.2,0.4,0.5,0.1,0.8s-0.6,1.3-0.5,1.4s0.8-0.4,1.1-0.6c0.3-0.1,0.5-0.3,0.5,0.1c0,0.4-0.5,0.8,0.3,0.6c0.8-0.2,0.6-0.5,1-0.7
		c0.5-0.2,0.5,0.3,0.5,0.7c-0.1,0.4,0.3,0.5,0.4,0.1c0.2-0.4,0-0.7,0.2-1.2c0.2-0.5,0.5-0.2,0.8,0.1c0.3,0.3,0.6,0.2,0.5-0.3
		c-0.1-0.5-0.3-1.1-0.5-1.5c-0.2-0.4,0.1-0.3,0.5-0.2s0.4-0.4,0.1-0.9s-1.2-1.3-2.1-1.6c-0.9-0.2-1,0-1.3-0.1
		c-0.2-0.1-0.4-0.3-0.9-0.2c-0.5,0-0.6,0.3-0.4,0.3c0.2,0,0.5,0.3,0,0.4c-0.5,0.2-1.3,0.9-1.2,1.1C30.9,39.7,30.8,39.7,31.1,39.7z"
		/>
	<path class="oc57eb29" d="M43.2,32.9c0,0-0.5,0.1-0.1,0.6c0.3,0.4,0.4,0.8,0.7,0.7s0.5-0.3,0.7-0.7c0.2-0.4,0.5-0.3,0.5-0.6
		c0.1-0.3-0.1-0.6-0.5-0.6s-0.6,0.2-0.8,0.3C43.5,32.7,43.2,32.9,43.2,32.9z"/>
	<path class="p36cf6f5" d="M50.2,49.7c-0.1,0-1.5,0.5-4.4,1.5c-3,1.1-4.5,2-6.8,2.2c-2.3,0.3-3.3,0.5-5.8-0.8c-2.5-1.2-9.6-4.6-9.6-4.6
		c1.9,0.2,1.8,0.6,3.8,1c2,0.4,2.4,0.9,3.7,1.1c1.3,0.2,6.7,0.2,8.7-0.2c2-0.4,3.6-0.4,5.1-0.3C45.8,49.7,48.7,49.8,50.2,49.7z"/>
	<path class="a0d40c0a0" d="M38.7,51.8c0,0-2.1-0.5-3.4,0.5c-1.3,1-1.7,2,0.5,1.8c2.2-0.3,3.2-0.8,4.1,0.3c0.9,1.1,1.3,0.8,2.1,0.4
		c0.8-0.4,1.3-0.2,2.3,0.4s2.3,0.3,3.6,0c1.3-0.3,1.4-0.2,2.4,0c1,0.2,2.3,0.1,2.6-0.6s0.1-0.9-1-0.9c-1.1,0-2,0.2-3.6,0.3
		c-1.6,0.1-2.4,0-3.1-0.2s-1.7-0.5-2.3-0.4C42,53.3,39.3,51.9,38.7,51.8z"/>
	<path class="a0d40c0a0" d="M61.1,50.3c0,0-1.3-0.2-1.1,0.1s0.8,0.8,2,1c1.2,0.2,1.4,0,2,0.3c0.6,0.2,1,0.4,1.5,0.9
		c0.5,0.6,1.2,0.8,2,0.6c0.7-0.2,1.6-0.1,2,0.1c0.4,0.2,0.9,0.4,1.5,0.3s0.8,0.1,1.4,0s0.8-0.7,0.2-1s-0.8-0.6-1.9-0.5
		c-1.2,0.1-1.7,0.2-2.2,0.1S67.5,52,67,52c-0.5,0-0.7-0.2-1.3-0.5s-0.6,0-1.2-0.3C64,51,64,50.6,63,50.6S61.1,50.3,61.1,50.3z"/>
	<path class="a0d40c0a0" d="M80.8,57.8c0,0-2.7,0.1-4.2,0.9c-1.6,0.7-3.7,1-4.7,1c-1.1,0-2.9,0.5-3.6,0.3c-0.7-0.1-1.5-1-3.2-0.7
		c-1.7,0.4-5.3,1.9-6.9,2c-1.7,0.1-2.1-0.5-3.9-0.7c-1.9-0.3-3.1,0.3-4,0.1c-0.9-0.3-0.7-0.7-2.3-0.4c-1.6,0.2-1.9,0.7-3.7,0.7
		c-1.8,0-3.1,0-3.9,0.4c-0.8,0.4-1,2.1-2.7,2.9c-1.7,0.8-6.1,0.7-8.7,0c-2.5-0.7-3.2-1-5.1-0.8c-1.9,0.1-2.3-0.3-3.2-0.9
		c-0.9-0.6-3-1.4-4.5-1.2c-0.5,0.1-1.7,0.3-3.1,0.5L12.3,58c0.1,0.1,0.1,0.1,0.2,0.2c1.1,1.3,1.3,2.1,1.4,1.1c0.1-1-2-2.8-0.5-2.3
		c1.5,0.5,1.1,1.3,2.5,1c1.4-0.2,1.2-0.8,1.1-1.5c-0.1-0.7-0.7-1.3,0.2-1c0.9,0.3,0.2,1.3,1.4,1.4c1.2,0.2,0.8-0.2,1.8,0
		c0.9,0.2,0.7,0,0.5-0.8c-0.3-0.8-0.4-1.6,0.2-1.3c0.6,0.3,1.6,1.1,1.9,2.2c0.3,1.1,1.7,0.7,2.8,2.1c1,1.4,0.9,1.5,2,1.6
		c1.2,0.1,2.4,0.8,3.7,0c1.3-0.8,0.6-2.2,1.6-1c1,1.2,1.9,1.5,3.1,0.6c1.2-0.9,1.7-1.7,2.7-1.3c1,0.4,1.8,0.1,2.8-0.5
		c1-0.6,2.5,0.2,3.8-0.2c1.2-0.4,1-1.1,2.2-1c1.2,0.1,0.5,0.9,1.4,0.8c0.9-0.1,1.4-0.7,2.3-1c0.9-0.3,0.3,0.6,1.4,0.7
		c1.1,0.1,1.4-0.2,2.1,0.5c0.7,0.7,1.8-0.2,2.1,0.2c0.3,0.4,0.3,0.9,1,0.9c0.7,0,0.6,0.3,1.2-0.7c0.6-1,0.5-1.6,1.3-0.9
		c0.8,0.7,0.7,1.3,1.2,0.5c0.6-0.8,0.9-1.4,1.9-1.8c1-0.4,0.8-2,1.6-1.4c0.9,0.6,1.4,2.6,2.6,2.1c1.2-0.5,1-1.4,1.8-0.5
		c0.7,0.9,0.7,1.2,1.6,0.8c0.9-0.4,1-1.2,2.1-0.7c1.1,0.5,0.5,1,2,0.9C76.8,58.1,79.3,57.4,80.8,57.8z"/>
</g>
</svg>
