<?xml version="1.0" encoding="utf-8"?>
<!-- Generator: Adobe Illustrator 25.4.1, SVG Export Plug-In . SVG Version: 6.00 Build 0)  -->
<svg version="1.1" id="Layer_1" xmlns="http://www.w3.org/2000/svg" xmlns:xlink="http://www.w3.org/1999/xlink" x="0px" y="0px"
	 viewBox="0 0 400.76 80" style="enable-background:new 0 0 400.76 80;" xml:space="preserve">
<style type="text/css">
	.vd900937{fill:#00923F;}
	.kf2d7b0e{fill:#DA251D;}
	.n7ae66a7{fill:#00552A;}
	.s62f4e60{fill:#FFFFFF;}
	.id5de8c6{fill:#006C33;}
</style>
<g>
	<path class="vd900937" d="M78.62,36.71v26.37H1.37l5.17-6.67c0,0,0,0,0.01-0.01C7.17,55.81,69.2,39.23,78.62,36.71z"/>
	<path class="kf2d7b0e" d="M78.62,0v36.71C69.2,39.23,7.17,55.81,6.55,56.4L50.31,0H78.62z"/>
	<path class="n7ae66a7" d="M246.11,8.72l-0.19,5.28l-3.02-5.28h-17.34v15.92l-5.27-15.92h-18.74l-5.86,16.11l-2.12-15.66h-18.85
		l-1.19,4.47l-1.23-4.47h-14.26l0,0h-1.79h-35.63v14.69l-4.8-14.69H97.75L83.84,49.5h20.31l1.25-4.26h2.22l0.8,4.26h100.22
		l1.02-4.04h1.99l0.63,4.04h17.18h0.2l0,0h4.12l0,0h11.14l-0.09-5.24l2.97,4.95h17.34V8.72H246.11z M147.43,31.23l3.78-6.11
		c-0.38,2.29-0.72,4.32-1.02,6.11H147.43z M128.21,27.16l-4.26,6.88l-2.25-6.88H128.21z"/>
	<path class="s62f4e60" d="M8.1,55.92c0,0,5.54-2.47,15.6-6.57s12.53-7.59,16.29-16.29c3.75-8.7,12.79-17.65,26.94-26.26
		c0,0-10.15,12.38-13.05,24.74c-2.9,12.35,9.12,3.4,11.17,2.72c2.05-0.68,4.6-0.17,6.48,1.45l5.03,2.3l-7.5,1.53
		c0,0-2.05,0.68-2.64,2.39c-0.6,1.71-6.26,6.3-14.07,8.36C42.34,52.93,13.65,53.87,8.1,55.92z"/>
	<path class="s62f4e60" d="M72.71,51.23h-1.57l-3.02,8.27l-3.04-8.27H63.5l-3.43,9.37h1.35l1.05-2.95h3.58l1.08,2.95h0.58h0.81h0.54
		l1.05-2.95h3.58l1.08,2.95h1.39L72.71,51.23z M62.74,56.7l0.99-2.71c0.19-0.57,0.36-1.14,0.51-1.7h0.03
		c0.15,0.54,0.3,1.1,0.52,1.71l0.99,2.7H62.74z M70.37,56.7l0.99-2.71c0.19-0.57,0.36-1.14,0.51-1.7h0.03
		c0.15,0.54,0.3,1.1,0.52,1.71l0.99,2.7H70.37z"/>
	<path class="s62f4e60" d="M248.09,10.78l-0.38,10.49l-6-10.49h-14.1v26.59l-8.8-26.59h-15.82l-8.22,22.58l-2.99-22.12h-15.48
		l-2.72,10.26l-2.83-10.26h-13.34h-1.78h-32.94v13.88h9.22l-8.53,13.76l-9.04-27.64H99.21l-12.5,36.22h15.9l1.25-4.26h5.46l0.8,4.26
		h11.74h1.01l0,0h27.2h4.1h11.91l0.3-7.51l2.08,7.51h10.2l1.75-6.77l0.34,6.77h11.78H194h13.04l1.02-4.04h5.35l0.63,4.04h16.91
		l-0.09-0.28h11.98l-0.19-10.55l6.31,10.55h14.13V10.78H248.09z M151.93,33.29h-8.18l11.2-18.11
		C153.62,23.13,152.65,28.98,151.93,33.29z M107.23,31.98h-1.35l0.7-2.16L107.23,31.98z"/>
	<path class="id5de8c6" d="M140.07,35.34l13.64-22.06h-28.99v9.78h10.86l-12.79,20.63l-9.95-30.41h-12.16L89.59,45.4h11.48l1.25-4.26h8.7
		l0.8,4.26h40.25l-0.28-10.06H140.07z M103.06,34.03l3.58-11.08L110,34.03H103.06z"/>
	<polygon class="id5de8c6" points="250.06,12.83 249.5,28.52 240.51,12.83 229.66,12.83 229.66,45.11 240.74,45.11 240.46,28.97 
		250.12,45.11 261.03,45.11 261.03,12.83 	"/>
	<path class="id5de8c6" d="M204.42,12.83l-10.57,29.05l-3.87-28.59h-12.11l-4.26,16.06l-4.43-16.06h-11.82c0,0-5.3,31.61-5.29,32.12
		h12.05l0.74-18.65l5.17,18.65h7.05l4.72-18.25l0.91,18.25h0.68h22.06l1.02-4.04h8.7l0.63,4.04h12.31l-10.78-32.57H204.42z
		 M208.57,32.98c0.09-0.26,1.96-9.98,2.22-9.72c0.26,0.26,2.05,9.72,2.05,9.72H208.57z"/>
	<rect x="180.26" y="53.02" class="vd900937" width="220.5" height="23.36"/>
	<path class="s62f4e60" d="M201.23,73.4h-2.79l-1.12-3.83h-5.1l-1.05,3.83h-2.73l4.96-16.92h2.72L201.23,73.4z M196.5,66.71l-1.76-6.28
		l-1.73,6.28H196.5z"/>
	<path class="s62f4e60" d="M202.5,73.4V56.48h2.56V73.4H202.5z"/>
	<path class="s62f4e60" d="M207.53,73.4V56.48h5.41c1.38,0,2.37,0.15,2.97,0.46c0.59,0.3,1.08,0.83,1.46,1.58
		c0.38,0.75,0.57,1.65,0.57,2.69c0,1.32-0.29,2.39-0.87,3.2c-0.58,0.81-1.41,1.32-2.48,1.52c0.55,0.43,1.01,0.9,1.37,1.41
		c0.36,0.51,0.85,1.43,1.47,2.75l1.55,3.3h-3.07l-1.86-3.68c-0.67-1.33-1.12-2.16-1.36-2.5c-0.24-0.33-0.49-0.57-0.76-0.69
		c-0.27-0.13-0.7-0.19-1.29-0.19h-0.53v7.06H207.53z M210.09,63.64H212c1.16,0,1.91-0.06,2.22-0.17c0.32-0.11,0.58-0.34,0.77-0.68
		c0.2-0.34,0.3-0.79,0.3-1.35c0-0.54-0.1-0.97-0.3-1.3c-0.2-0.33-0.47-0.55-0.8-0.68c-0.24-0.08-0.94-0.13-2.09-0.13h-2.01V63.64z"
		/>
	<path class="s62f4e60" d="M230.86,67.88l2.42-0.32c0.27,2.16,1.17,3.24,2.68,3.24c0.75,0,1.34-0.22,1.77-0.66
		c0.43-0.44,0.64-0.99,0.64-1.64c0-0.38-0.07-0.71-0.22-0.98c-0.15-0.27-0.38-0.49-0.68-0.66c-0.31-0.17-1.05-0.46-2.23-0.87
		c-1.06-0.36-1.83-0.75-2.32-1.18c-0.49-0.42-0.88-0.98-1.17-1.67c-0.29-0.69-0.43-1.43-0.43-2.22c0-0.92,0.19-1.75,0.56-2.49
		c0.37-0.74,0.88-1.3,1.54-1.67c0.65-0.38,1.46-0.57,2.42-0.57c1.44,0,2.57,0.44,3.38,1.33c0.81,0.89,1.24,2.15,1.29,3.8l-2.48,0.15
		c-0.11-0.91-0.34-1.54-0.7-1.9c-0.36-0.36-0.88-0.54-1.54-0.54c-0.67,0-1.18,0.16-1.54,0.47c-0.36,0.31-0.54,0.71-0.54,1.17
		c0,0.46,0.16,0.85,0.49,1.16c0.33,0.31,1.08,0.66,2.26,1.04c1.25,0.41,2.15,0.84,2.7,1.29c0.55,0.45,0.98,1.03,1.27,1.74
		c0.29,0.71,0.44,1.58,0.44,2.59c0,1.47-0.4,2.7-1.2,3.7c-0.8,1-2.05,1.5-3.75,1.5C232.88,73.69,231.2,71.75,230.86,67.88z"/>
	<path class="s62f4e60" d="M242.94,73.4V56.48h9.11v2.86h-6.64v3.75h6.17v2.85h-6.17v4.59h6.87v2.86H242.94z"/>
	<path class="s62f4e60" d="M254.38,73.4V56.48h5.22c1.34,0,2.29,0.15,2.86,0.46c0.57,0.3,1.04,0.83,1.41,1.58
		c0.37,0.75,0.55,1.65,0.55,2.69c0,1.32-0.28,2.39-0.84,3.2c-0.56,0.81-1.36,1.32-2.4,1.52c0.53,0.43,0.97,0.9,1.32,1.41
		c0.35,0.51,0.82,1.43,1.42,2.75l1.49,3.3h-2.96l-1.79-3.68c-0.65-1.33-1.08-2.16-1.32-2.5c-0.23-0.33-0.48-0.57-0.74-0.69
		c-0.26-0.13-0.67-0.19-1.25-0.19h-0.51v7.06H254.38z M256.85,63.64h1.84c1.12,0,1.84-0.06,2.15-0.17c0.31-0.11,0.56-0.34,0.75-0.68
		c0.19-0.34,0.29-0.79,0.29-1.35c0-0.54-0.1-0.97-0.29-1.3c-0.19-0.33-0.45-0.55-0.78-0.68c-0.23-0.08-0.9-0.13-2.01-0.13h-1.94
		V63.64z"/>
	<path class="s62f4e60" d="M269.61,73.4l-4.39-16.92h2.69L271.01,69l3.01-12.52h2.64l-4.4,16.92H269.61z"/>
	<path class="s62f4e60" d="M277.83,73.4V56.48h2.47V73.4H277.83z"/>
	<path class="s62f4e60" d="M290.54,67.18l2.4,1.05c-0.37,1.89-1,3.28-1.87,4.15c-0.87,0.87-1.94,1.31-3.22,1.31c-1.6,0-2.9-0.7-3.89-2.09
		c-1.14-1.61-1.72-3.78-1.72-6.51c0-2.89,0.58-5.14,1.73-6.78c1-1.42,2.35-2.12,4.04-2.12c1.38,0,2.53,0.53,3.46,1.59
		c0.66,0.75,1.15,1.87,1.45,3.36l-2.45,0.81c-0.16-0.92-0.47-1.62-0.94-2.11c-0.47-0.49-1.02-0.73-1.65-0.73
		c-0.91,0-1.65,0.45-2.22,1.34c-0.57,0.89-0.86,2.37-0.86,4.42c0,2.13,0.28,3.65,0.84,4.55c0.56,0.9,1.28,1.35,2.18,1.35
		c0.65,0,1.22-0.29,1.7-0.86C289.99,69.34,290.33,68.43,290.54,67.18z"/>
	<path class="s62f4e60" d="M295.07,73.4V56.48h9.11v2.86h-6.64v3.75h6.17v2.85h-6.17v4.59h6.87v2.86H295.07z"/>
	<path class="s62f4e60" d="M305.88,67.88l2.42-0.32c0.27,2.16,1.17,3.24,2.68,3.24c0.75,0,1.34-0.22,1.77-0.66
		c0.43-0.44,0.64-0.99,0.64-1.64c0-0.38-0.07-0.71-0.22-0.98c-0.15-0.27-0.38-0.49-0.68-0.66c-0.31-0.17-1.05-0.46-2.23-0.87
		c-1.06-0.36-1.83-0.75-2.32-1.18c-0.49-0.42-0.88-0.98-1.17-1.67c-0.29-0.69-0.43-1.43-0.43-2.22c0-0.92,0.19-1.75,0.56-2.49
		c0.37-0.74,0.88-1.3,1.54-1.67c0.65-0.38,1.46-0.57,2.42-0.57c1.44,0,2.57,0.44,3.38,1.33c0.81,0.89,1.24,2.15,1.29,3.8l-2.48,0.15
		c-0.11-0.91-0.34-1.54-0.7-1.9c-0.36-0.36-0.88-0.54-1.54-0.54c-0.67,0-1.18,0.16-1.54,0.47c-0.36,0.31-0.54,0.71-0.54,1.17
		c0,0.46,0.16,0.85,0.49,1.16c0.33,0.31,1.08,0.66,2.26,1.04c1.25,0.41,2.15,0.84,2.7,1.29c0.55,0.45,0.98,1.03,1.27,1.74
		c0.29,0.71,0.44,1.58,0.44,2.59c0,1.47-0.4,2.7-1.2,3.7c-0.8,1-2.05,1.5-3.75,1.5C307.89,73.69,306.22,71.75,305.88,67.88z"/>
	<path class="s62f4e60" d="M324.02,73.4V56.62h2.6v13.92h6.49v2.86H324.02z"/>
	<path class="s62f4e60" d="M334.89,73.4V56.48h2.6V73.4H334.89z"/>
	<path class="s62f4e60" d="M339.95,73.4V56.48h3.9l2.35,11.55l2.33-11.55h3.92V73.4h-2.43V60.07l-2.57,13.33h-2.51l-2.55-13.33V73.4
		H339.95z"/>
	<path class="s62f4e60" d="M354.93,73.4V56.48h2.6V73.4H354.93z"/>
	<path class="s62f4e60" d="M362.93,73.4V59.34h-3.83v-2.86h10.26v2.86h-3.82V73.4H362.93z"/>
	<path class="s62f4e60" d="M371.05,73.4V56.48h9.58v2.86h-6.98v3.75h6.49v2.85h-6.49v4.59h7.22v2.86H371.05z"/>
	<path class="s62f4e60" d="M383.06,56.48h4.75c1.2,0,2.11,0.14,2.72,0.43c0.61,0.29,1.17,0.78,1.69,1.46c0.51,0.68,0.92,1.57,1.21,2.67
		c0.29,1.09,0.44,2.45,0.44,4.07c0,1.46-0.15,2.73-0.46,3.81c-0.31,1.08-0.7,1.94-1.17,2.57c-0.47,0.63-1.04,1.11-1.71,1.43
		c-0.67,0.32-1.53,0.48-2.58,0.48h-4.89V56.48z M385.65,59.34v11.2h1.95c0.84,0,1.44-0.08,1.82-0.25c0.38-0.17,0.68-0.42,0.92-0.77
		c0.24-0.34,0.44-0.88,0.6-1.62c0.16-0.74,0.24-1.71,0.24-2.92c0-1.25-0.08-2.24-0.24-2.96c-0.16-0.72-0.41-1.29-0.75-1.71
		c-0.34-0.42-0.75-0.69-1.24-0.82c-0.37-0.1-1.07-0.15-2.12-0.15H385.65z"/>
	<path class="s62f4e60" d="M396.07,73.4v-3.24h2.47v3.24H396.07z"/>
	<polygon class="kf2d7b0e" points="0,66.66 0,70.75 184.35,80 184.35,66.66 	"/>
</g>
</svg>
